<?xml version="1.0" encoding="utf-8"?>
<!-- Generator: Adobe Illustrator 19.0.0, SVG Export Plug-In . SVG Version: 6.00 Build 0)  -->
<svg version="1.1" xmlns="http://www.w3.org/2000/svg" xmlns:xlink="http://www.w3.org/1999/xlink" x="0px" y="0px"
	 viewBox="0 0 2293 987" style="enable-background:new 0 0 2293 987;" xml:space="preserve">
<style type="text/css">
	.st0{fill:none;stroke:#020304;stroke-width:2;stroke-miterlimit:10;}
	.st1{fill:#020304;}
	.st2{fill:none;}
	.st3{fill:none;stroke:#020304;stroke-width:14;stroke-linecap:round;stroke-linejoin:round;}
	.st4{fill:none;stroke:#020304;stroke-width:10;stroke-linecap:round;stroke-linejoin:round;}
	.st5{fill:none;stroke:#020304;stroke-width:4;stroke-linecap:round;stroke-linejoin:round;}
	.st6{fill:none;stroke:#020304;stroke-width:10;stroke-miterlimit:10;}
	.st7{fill:none;stroke:#020304;stroke-width:14;stroke-miterlimit:10;}
	.st8{fill:none;stroke:#020304;stroke-width:4;stroke-miterlimit:10;}
	.st9{fill:none;stroke:#FFFFFF;stroke-width:22.8454;stroke-miterlimit:10;}
	.st10{fill:url(#XMLID_181_);}
	.st11{fill:url(#XMLID_183_);}
	.st12{fill:url(#XMLID_186_);}
	.st13{fill:url(#XMLID_187_);}
	.st14{fill:url(#XMLID_189_);}
	.st15{fill:none;stroke:#000000;stroke-width:36;stroke-miterlimit:10;}
	.st16{fill:none;stroke:#FFFFFF;stroke-width:26;stroke-miterlimit:10;}
	.st17{fill:none;stroke:#000000;stroke-width:36;}
	.st18{fill:none;stroke:#FFFFFF;stroke-width:26;}
</style>
<g id="Left_Brain">
	<g id="Tertiary_1_">
		<g id="XMLID_554_">
			<g id="XMLID_898_">
				<polyline id="XMLID_944_" class="st0" points="70,331 95,331 125,361.5 125,400 				"/>
				<g id="XMLID_901_">
					<circle id="XMLID_902_" class="st1" cx="70" cy="331" r="5.3"/>
				</g>
				<g id="XMLID_899_">
					<circle id="XMLID_900_" class="st1" cx="125" cy="400" r="5.3"/>
				</g>
			</g>
		</g>
		<g id="XMLID_553_">
			<g id="XMLID_886_">
				<polyline id="XMLID_896_" class="st0" points="296,479 277,498 319,498 298,519 325.1,546.1 				"/>
				<g id="XMLID_889_">
					<circle id="XMLID_890_" class="st1" cx="296" cy="479" r="5.3"/>
				</g>
				<g id="XMLID_887_">
					<circle id="XMLID_888_" class="st1" cx="325.1" cy="546.1" r="5.3"/>
				</g>
			</g>
		</g>
		<g id="XMLID_542_">
			<g id="XMLID_879_">
				<polyline id="XMLID_884_" class="st0" points="372.8,43.3 400.4,70.9 422.5,49 502,49 				"/>
				<g id="XMLID_882_">
					<circle id="XMLID_883_" class="st1" cx="372.8" cy="43.3" r="5.3"/>
				</g>
				<g id="XMLID_880_">
					<circle id="XMLID_881_" class="st1" cx="502" cy="49" r="5.3"/>
				</g>
			</g>
		</g>
		<g id="XMLID_541_">
			<g id="XMLID_872_">
				<polyline id="XMLID_877_" class="st0" points="544,106.1 567.5,83 617,83 617,73 642,73 642,106 598,106 				"/>
				<g id="XMLID_875_">
					<circle id="XMLID_876_" class="st1" cx="544" cy="106.1" r="5.3"/>
				</g>
				<g id="XMLID_873_">
					<circle id="XMLID_874_" class="st1" cx="598" cy="106" r="5.3"/>
				</g>
			</g>
		</g>
		<g id="XMLID_540_">
			<g id="XMLID_865_">
				<polyline id="XMLID_870_" class="st0" points="721,134 721,183 708.8,195.1 692.8,179 615,179 615,195 				"/>
				<g id="XMLID_868_">
					<circle id="XMLID_869_" class="st1" cx="721" cy="134" r="5.3"/>
				</g>
				<g id="XMLID_866_">
					<circle id="XMLID_867_" class="st1" cx="615" cy="195" r="5.3"/>
				</g>
			</g>
		</g>
		<g id="XMLID_539_">
			<g id="XMLID_858_">
				<polyline id="XMLID_863_" class="st0" points="733,165 773,165 773,200 790,200 				"/>
				<g id="XMLID_861_">
					<circle id="XMLID_862_" class="st1" cx="733" cy="165" r="5.3"/>
				</g>
				<g id="XMLID_859_">
					<circle id="XMLID_860_" class="st1" cx="790" cy="200" r="5.3"/>
				</g>
			</g>
		</g>
		<g id="XMLID_538_">
			<g id="XMLID_851_">
				<polyline id="XMLID_856_" class="st0" points="663,546 663,575 712,624.5 712,561 755,561 				"/>
				<g id="XMLID_854_">
					<circle id="XMLID_855_" class="st1" cx="663" cy="546" r="5.3"/>
				</g>
				<g id="XMLID_852_">
					<circle id="XMLID_853_" class="st1" cx="755" cy="561" r="5.3"/>
				</g>
			</g>
		</g>
		<g id="XMLID_537_">
			<g id="XMLID_844_">
				<polyline id="XMLID_849_" class="st0" points="598.1,212 588,222.1 588,243 619,274 648,274 648,231 				"/>
				<g id="XMLID_847_">
					<circle id="XMLID_848_" class="st1" cx="598.1" cy="212" r="5.3"/>
				</g>
				<g id="XMLID_845_">
					<circle id="XMLID_846_" class="st1" cx="648" cy="231" r="5.3"/>
				</g>
			</g>
		</g>
		<g id="XMLID_535_">
			<g id="XMLID_835_">
				<line id="XMLID_842_" class="st0" x1="610" y1="232" x2="646.5" y2="195.5"/>
				<g id="XMLID_838_">
					<circle id="XMLID_839_" class="st1" cx="610" cy="232" r="5.3"/>
				</g>
				<g id="XMLID_836_">
					<circle id="XMLID_837_" class="st1" cx="646.5" cy="195.5" r="5.3"/>
				</g>
			</g>
		</g>
		<g id="XMLID_534_">
			<g id="XMLID_828_">
				<polyline id="XMLID_833_" class="st0" points="325,331 325,368 286.5,407 250,407 222.8,434.3 				"/>
				<g id="XMLID_831_">
					<circle id="XMLID_832_" class="st1" cx="325" cy="331" r="5.3"/>
				</g>
				<g id="XMLID_829_">
					<circle id="XMLID_830_" class="st1" cx="222.8" cy="434.3" r="5.3"/>
				</g>
			</g>
		</g>
		<g id="XMLID_523_">
			<g id="XMLID_821_">
				<polyline id="XMLID_826_" class="st0" points="221,299 221,332 266.9,286.1 				"/>
				<g id="XMLID_824_">
					<circle id="XMLID_825_" class="st1" cx="221" cy="299" r="5.3"/>
				</g>
				<g id="XMLID_822_">
					<circle id="XMLID_823_" class="st1" cx="266.9" cy="286.1" r="5.3"/>
				</g>
			</g>
		</g>
		<g id="XMLID_522_">
			<g id="XMLID_814_">
				<polyline id="XMLID_819_" class="st0" points="687,332 653,366 603,366 551.4,417.6 				"/>
				<g id="XMLID_817_">
					<circle id="XMLID_818_" class="st1" cx="687" cy="332" r="5.3"/>
				</g>
				<g id="XMLID_815_">
					<circle id="XMLID_816_" class="st1" cx="551.4" cy="417.6" r="5.3"/>
				</g>
			</g>
		</g>
		<g id="XMLID_521_">
			<g id="XMLID_807_">
				<polyline id="XMLID_812_" class="st0" points="628,386 663,386 688.3,361 708,361 708,402 				"/>
				<g id="XMLID_810_">
					<circle id="XMLID_811_" class="st1" cx="628" cy="386" r="5.3"/>
				</g>
				<g id="XMLID_808_">
					<circle id="XMLID_809_" class="st1" cx="708" cy="402" r="5.3"/>
				</g>
			</g>
		</g>
		<g id="XMLID_519_">
			<g id="XMLID_800_">
				<polyline id="XMLID_805_" class="st0" points="482.9,82.1 455,109.7 455,134 421,167.5 421,183 392,212 392,183 				"/>
				<g id="XMLID_803_">
					<circle id="XMLID_804_" class="st1" cx="482.9" cy="82.1" r="5.3"/>
				</g>
				<g id="XMLID_801_">
					<circle id="XMLID_802_" class="st1" cx="392" cy="183" r="5.3"/>
				</g>
			</g>
		</g>
		<g id="XMLID_518_">
			<g id="XMLID_793_">
				<polyline id="XMLID_798_" class="st0" points="496.1,91.2 475,112.4 475,134 453,156 				"/>
				<g id="XMLID_796_">
					<circle id="XMLID_797_" class="st1" cx="496.1" cy="91.2" r="5.3"/>
				</g>
				<g id="XMLID_794_">
					<circle id="XMLID_795_" class="st1" cx="453" cy="156" r="5.3"/>
				</g>
			</g>
		</g>
		<g id="XMLID_517_">
			<g id="XMLID_783_">
				<polyline id="XMLID_790_" class="st0" points="339.8,531.5 358.5,550 388,550 405,532.6 405,496 422,479 453,479 				"/>
				<g id="XMLID_788_">
					<circle id="XMLID_789_" class="st1" cx="339.8" cy="531.5" r="5.3"/>
				</g>
				<g id="XMLID_786_">
					<circle id="XMLID_787_" class="st1" cx="453" cy="479" r="5.3"/>
				</g>
			</g>
		</g>
		<g id="XMLID_516_">
			<g id="XMLID_776_">
				<polyline id="XMLID_781_" class="st0" points="392,491 392,519 377,519 				"/>
				<g id="XMLID_779_">
					<circle id="XMLID_780_" class="st1" cx="392" cy="491" r="5.3"/>
				</g>
				<g id="XMLID_777_">
					<circle id="XMLID_778_" class="st1" cx="377" cy="519" r="5.3"/>
				</g>
			</g>
		</g>
		<g id="XMLID_515_">
			<g id="XMLID_769_">
				<polyline id="XMLID_774_" class="st0" points="615,611 640.4,611 610,581 587.6,581 552.3,545 591,545 601.5,555.5 				"/>
				<g id="XMLID_772_">
					<circle id="XMLID_773_" class="st1" cx="615" cy="611" r="5.3"/>
				</g>
				<g id="XMLID_770_">
					<circle id="XMLID_771_" class="st1" cx="601.5" cy="555.5" r="5.3"/>
				</g>
			</g>
		</g>
		<g id="XMLID_514_">
			<g id="XMLID_765_">
				<polyline id="XMLID_991_" class="st0" points="447.5,514.6 471.8,491 502,491 522.5,470.4 561.2,509 619,509 				"/>
				<g id="XMLID_989_">
					<circle id="XMLID_990_" class="st1" cx="447.5" cy="514.6" r="5.3"/>
				</g>
				<g id="XMLID_767_">
					<circle id="XMLID_988_" class="st1" cx="619" cy="509" r="5.3"/>
				</g>
			</g>
		</g>
		<g id="XMLID_513_">
			<g id="XMLID_993_">
				<polyline id="XMLID_998_" class="st0" points="483,506 483,531 502,531 				"/>
				<g id="XMLID_996_">
					<circle id="XMLID_997_" class="st1" cx="483" cy="506" r="5.3"/>
				</g>
				<g id="XMLID_994_">
					<circle id="XMLID_995_" class="st1" cx="502" cy="531" r="5.3"/>
				</g>
			</g>
		</g>
		<g id="XMLID_511_">
			<g id="XMLID_1001_">
				<polyline id="XMLID_1019_" class="st0" points="613,759 613,739 621,731.3 621,703 627.5,696.5 				"/>
				<g id="XMLID_1017_">
					<circle id="XMLID_1018_" class="st1" cx="613" cy="759" r="4.9"/>
				</g>
				<g id="XMLID_1002_">
					<circle id="XMLID_1003_" class="st1" cx="627.5" cy="696.5" r="4.9"/>
				</g>
			</g>
		</g>
	</g>
	<g id="Main_1_">
		<g id="XMLID_1860_">
			<path id="XMLID_67_" class="st2" d="M336,411.1"/>
		</g>
		<g id="XMLID_1859_">
			<g id="XMLID_736_">
				<polyline id="XMLID_741_" class="st3" points="162.8,194.4 129,227.5 129,256 91,256 				"/>
				<g id="XMLID_739_">
					<circle id="XMLID_740_" class="st1" cx="162.8" cy="194.4" r="17.4"/>
				</g>
				<g id="XMLID_737_">
					<circle id="XMLID_738_" class="st1" cx="91" cy="256" r="17.4"/>
				</g>
			</g>
		</g>
		<g id="XMLID_1858_">
			<g id="XMLID_525_">
				<polyline id="XMLID_528_" class="st3" points="129.3,256 152.1,272 206.8,272 226,244 339.3,244 377,205 377,145.3 351,119 
					351,76 				"/>
				<g id="XMLID_526_">
					<circle id="XMLID_527_" class="st1" cx="351" cy="76" r="17.4"/>
				</g>
			</g>
		</g>
		<g id="XMLID_1857_">
			<g id="XMLID_724_">
				<polyline id="XMLID_729_" class="st3" points="373,466 489,466 509.1,446 542,446 564.8,469 638,469 664.3,495 690,495 
					721.3,526.3 				"/>
				<g id="XMLID_727_">
					<circle id="XMLID_728_" class="st1" cx="373" cy="466" r="17.4"/>
				</g>
				<g id="XMLID_725_">
					<circle id="XMLID_726_" class="st1" cx="721.3" cy="526.3" r="17.4"/>
				</g>
			</g>
		</g>
		<g id="XMLID_1856_">
			<g id="XMLID_717_">
				<polyline id="XMLID_722_" class="st3" points="760,534 797,534 833,569.8 833,587 812,608.5 				"/>
				<g id="XMLID_720_">
					<circle id="XMLID_721_" class="st1" cx="760" cy="534" r="17.4"/>
				</g>
				<g id="XMLID_718_">
					<circle id="XMLID_719_" class="st1" cx="812" cy="608.5" r="17.4"/>
				</g>
			</g>
		</g>
		<g id="XMLID_1855_">
			<g id="XMLID_707_">
				<polyline id="XMLID_715_" class="st3" points="552.3,65.4 520,97 520,121 424,216.8 424,267 373,319 310,319 272,356.3 272,384 
					171,384 100.1,313 				"/>
				<g id="XMLID_710_">
					<circle id="XMLID_714_" class="st1" cx="552.3" cy="65.4" r="17.4"/>
				</g>
				<g id="XMLID_708_">
					<circle id="XMLID_709_" class="st1" cx="100.1" cy="313" r="17.4"/>
				</g>
			</g>
		</g>
		<g id="XMLID_1854_">
			<g id="XMLID_700_">
				<polyline id="XMLID_705_" class="st3" points="693,255.8 664,284.1 664,319 633.8,350 575,350 539.5,386 413,386 395.3,404 
					331,404 312,422.3 312,470 347.9,505.8 				"/>
				<g id="XMLID_703_">
					<circle id="XMLID_704_" class="st1" cx="693" cy="255.8" r="17.4"/>
				</g>
				<g id="XMLID_701_">
					<circle id="XMLID_702_" class="st1" cx="347.9" cy="505.8" r="17.4"/>
				</g>
			</g>
		</g>
		<g id="XMLID_1853_">
			<g id="XMLID_693_">
				<polyline id="XMLID_698_" class="st3" points="590.9,419.4 602.5,408 665,408 681.3,424 710,424 723,436.9 723,469 736.3,482 
					801,482 815.8,496.9 845.6,527 863,527 				"/>
				<g id="XMLID_696_">
					<circle id="XMLID_697_" class="st1" cx="590.9" cy="419.4" r="17.4"/>
				</g>
				<g id="XMLID_694_">
					<circle id="XMLID_695_" class="st1" cx="863" cy="527" r="17.4"/>
				</g>
			</g>
		</g>
		<g id="XMLID_1852_">
			<g id="XMLID_686_">
				<polyline id="XMLID_691_" class="st3" points="759.8,343.9 774,358.5 774,425 785.3,436 814,436 834,456 844,456 872.9,484.8 
									"/>
				<g id="XMLID_689_">
					<circle id="XMLID_690_" class="st1" cx="759.8" cy="343.9" r="17.4"/>
				</g>
				<g id="XMLID_687_">
					<circle id="XMLID_688_" class="st1" cx="872.9" cy="484.8" r="17.4"/>
				</g>
			</g>
		</g>
		<g id="XMLID_1851_">
			<g id="XMLID_678_">
				<polyline id="XMLID_683_" class="st3" points="741,266 741,294 759.3,312 772,312 790.9,293 807,293 816,302 816,336 830,349.8 
					830,400 840,410 				"/>
				<g id="XMLID_681_">
					<circle id="XMLID_682_" class="st1" cx="741" cy="266" r="17.4"/>
				</g>
				<g id="XMLID_679_">
					<circle id="XMLID_680_" class="st1" cx="840" cy="410" r="17.4"/>
				</g>
			</g>
		</g>
		<g id="XMLID_1850_">
			<g id="XMLID_671_">
				<polyline id="XMLID_676_" class="st4" points="673,212 748,212 772.3,236 811,236 840,265.5 840,304 852,315.8 852,374 
					864,386.3 864,430 				"/>
				<g id="XMLID_674_">
					<circle id="XMLID_675_" class="st1" cx="673" cy="212" r="12.4"/>
				</g>
				<g id="XMLID_672_">
					<circle id="XMLID_673_" class="st1" cx="864" cy="430" r="12.4"/>
				</g>
			</g>
		</g>
		<g id="XMLID_1849_">
			<g id="XMLID_664_">
				<line id="XMLID_669_" class="st5" x1="883" y1="368" x2="883" y2="436"/>
				<g id="XMLID_667_">
					<circle id="XMLID_668_" class="st1" cx="883" cy="368" r="6"/>
				</g>
				<g id="XMLID_665_">
					<circle id="XMLID_666_" class="st1" cx="883" cy="436" r="6"/>
				</g>
			</g>
		</g>
		<g id="XMLID_1848_">
			<g id="XMLID_657_">
				<polyline id="XMLID_662_" class="st3" points="693,134 693,154 685.8,162 673,162 655,144 606,144 546.3,204 526,204 509,219.8 
					509,261 535,287.3 535,301 494,301 467.3,328 415,328 				"/>
				<g id="XMLID_660_">
					<circle id="XMLID_661_" class="st1" cx="693" cy="134" r="17.4"/>
				</g>
				<g id="XMLID_658_">
					<circle id="XMLID_659_" class="st1" cx="415" cy="328" r="17.4"/>
				</g>
			</g>
		</g>
		<g id="XMLID_1847_">
			<g id="XMLID_650_">
				<polyline id="XMLID_655_" class="st3" points="302.8,165 287,149 232,149 232,120 252.5,101 277,101 290.3,87.6 				"/>
				<g id="XMLID_653_">
					<circle id="XMLID_654_" class="st1" cx="302.8" cy="165" r="17.4"/>
				</g>
				<g id="XMLID_651_">
					<circle id="XMLID_652_" class="st1" cx="290.3" cy="87.6" r="17.4"/>
				</g>
			</g>
		</g>
		<g id="XMLID_1846_">
			<g id="XMLID_643_">
				<polyline id="XMLID_648_" class="st3" points="176,150 208,150 223,165.1 223,185 				"/>
				<g id="XMLID_646_">
					<circle id="XMLID_647_" class="st1" cx="176" cy="150" r="17.4"/>
				</g>
				<g id="XMLID_644_">
					<circle id="XMLID_645_" class="st1" cx="223" cy="185" r="17.4"/>
				</g>
			</g>
		</g>
		<g id="XMLID_1845_">
			<g id="XMLID_636_">
				<polyline id="XMLID_641_" class="st3" points="460.4,65.4 428,97.6 428,117 399.9,145.3 				"/>
				<g id="XMLID_639_">
					<circle id="XMLID_640_" class="st1" cx="460.4" cy="65.4" r="17.4"/>
				</g>
				<g id="XMLID_637_">
					<circle id="XMLID_638_" class="st1" cx="399.9" cy="145.3" r="17.4"/>
				</g>
			</g>
		</g>
		<g id="XMLID_1844_">
			<g id="XMLID_629_">
				<polyline id="XMLID_634_" class="st6" points="562.6,610.9 635.6,684 693,684 716.8,660 741,660 				"/>
				<g id="XMLID_632_">
					<circle id="XMLID_633_" class="st1" cx="562.6" cy="610.4" r="12.4"/>
				</g>
				<g id="XMLID_630_">
					<circle id="XMLID_631_" class="st1" cx="741" cy="659.5" r="12.4"/>
				</g>
			</g>
		</g>
		<g id="XMLID_1843_">
			<g id="XMLID_506_">
				<polyline id="XMLID_520_" class="st6" points="717,660 687,660 654.3,627 610,627 574,591 557,591 521,555 521,532 619,532 				
					"/>
				<g id="XMLID_507_">
					<circle id="XMLID_512_" class="st1" cx="619" cy="531.5" r="12.4"/>
				</g>
			</g>
		</g>
		<g id="XMLID_1842_">
			<g id="XMLID_977_">
				<polyline id="XMLID_1008_" class="st7" points="417.7,513 464,559 496,559 543,605.5 520,627.6 570,678.1 570,706 				"/>
				<g id="XMLID_1006_">
					<circle id="XMLID_1007_" class="st1" cx="418" cy="512.8" r="12.1"/>
				</g>
				<g id="XMLID_1004_">
					<circle id="XMLID_1005_" class="st1" cx="570.5" cy="706" r="17.4"/>
				</g>
			</g>
		</g>
	</g>
	<g id="Secondary_1_">
		<g id="XMLID_1336_">
			<g id="XMLID_610_">
				<polyline id="XMLID_615_" class="st8" points="170,243.5 196.7,218 312,218 339,186.2 339,150 313.7,124 				"/>
				<g id="XMLID_613_">
					<circle id="XMLID_614_" class="st1" cx="170" cy="243.3" r="9.8"/>
				</g>
				<g id="XMLID_611_">
					<circle id="XMLID_612_" class="st1" cx="313.9" cy="123.9" r="9.8"/>
				</g>
			</g>
		</g>
		<g id="XMLID_1335_">
			<g id="XMLID_501_">
				<polyline id="XMLID_504_" class="st8" points="221,381 221,356 256.9,356 257,335.5 294.3,299 459,299 459,243 520.3,185 
					535,185 600.6,119 642,119 				"/>
				<g id="XMLID_502_">
					<circle id="XMLID_503_" class="st1" cx="642" cy="118.5" r="9.8"/>
				</g>
			</g>
		</g>
		<g id="XMLID_1334_">
			<g id="XMLID_488_">
				<polyline id="XMLID_499_" class="st8" points="222,356 184,356 147,319 				"/>
				<g id="XMLID_489_">
					<circle id="XMLID_496_" class="st1" cx="147" cy="318.5" r="9.8"/>
				</g>
			</g>
		</g>
		<g id="XMLID_1333_">
			<g id="XMLID_593_">
				<polyline id="XMLID_598_" class="st8" points="143,400.5 164,422 251,422 276,446.5 357,365.5 				"/>
				<g id="XMLID_596_">
					<circle id="XMLID_597_" class="st1" cx="143" cy="400.2" r="9.8"/>
				</g>
				<g id="XMLID_594_">
					<circle id="XMLID_595_" class="st1" cx="357" cy="365.3" r="9.8"/>
				</g>
			</g>
		</g>
		<g id="XMLID_1332_">
			<g id="XMLID_586_">
				<polyline id="XMLID_591_" class="st8" points="277,469 336,469 376.5,429 471,429 471,449 				"/>
				<g id="XMLID_589_">
					<circle id="XMLID_590_" class="st1" cx="277" cy="468.5" r="9.8"/>
				</g>
				<g id="XMLID_587_">
					<polygon id="XMLID_588_" class="st1" points="458.5,468 471.5,446.2 484.5,468 					"/>
				</g>
			</g>
		</g>
		<g id="XMLID_1328_">
			<g id="XMLID_483_">
				<polyline id="XMLID_486_" class="st8" points="472,429 502,429 521,410 				"/>
				<g id="XMLID_484_">
					<circle id="XMLID_485_" class="st1" cx="521" cy="409.5" r="9.8"/>
				</g>
			</g>
		</g>
		<g id="XMLID_1327_">
			<g id="XMLID_577_">
				<polyline id="XMLID_582_" class="st8" points="761.5,595.9 741.3,576 716,576 668.5,529 653,529 633,547.1 633,568 708,643 
					741,643 759,624.8 				"/>
				<g id="XMLID_580_">
					<circle id="XMLID_581_" class="st1" cx="761.5" cy="595.6" r="10.4"/>
				</g>
				<g id="XMLID_578_">
					<circle id="XMLID_579_" class="st1" cx="759" cy="624.4" r="10.4"/>
				</g>
			</g>
		</g>
		<g id="XMLID_1326_">
			<g id="XMLID_584_">
				<polyline id="XMLID_603_" class="st8" points="557,276.6 569.1,265 591,265 619,293 693,293 708,307.8 				"/>
				<g id="XMLID_601_">
					
						<rect id="XMLID_602_" x="548.5" y="267.7" transform="matrix(0.7007 0.7135 -0.7135 0.7007 363.8954 -314.7244)" class="st1" width="17.2" height="17.2"/>
				</g>
				<g id="XMLID_599_">
					<circle id="XMLID_600_" class="st1" cx="708" cy="307.4" r="9.8"/>
				</g>
			</g>
		</g>
		<g id="XMLID_1324_">
			<g id="XMLID_318_">
				<polyline id="XMLID_473_" class="st8" points="502,386 486.8,370.8 522.3,335.2 				"/>
				<g id="XMLID_320_">
					<circle id="XMLID_322_" class="st1" cx="522.3" cy="335.2" r="9.8"/>
				</g>
			</g>
		</g>
		<g id="XMLID_1323_">
			<g id="XMLID_133_">
				<polyline id="XMLID_163_" class="st8" points="487,371 384,371 350,337 				"/>
				<g id="XMLID_134_">
					<circle id="XMLID_138_" class="st1" cx="350" cy="336.5" r="9.8"/>
				</g>
			</g>
		</g>
		<g id="XMLID_1322_">
			<g id="XMLID_605_">
				<polyline id="XMLID_624_" class="st8" points="707.9,331.9 738,362.5 738,410 755,427 755,449 673,449 657.1,433 619,433 
					597,455 573,455 555.8,437.5 				"/>
				<g id="XMLID_608_">
					<circle id="XMLID_623_" class="st1" cx="708.2" cy="331.9" r="9.8"/>
				</g>
				<g id="XMLID_606_">
					<circle id="XMLID_607_" class="st1" cx="555.9" cy="437.3" r="9.8"/>
				</g>
			</g>
		</g>
		<g id="XMLID_1321_">
			<g id="XMLID_626_">
				<polyline id="XMLID_749_" class="st8" points="672,448 672,460 692.9,481 709,481 731.5,504 774,504 				"/>
				<g id="XMLID_747_">
					<rect id="XMLID_748_" x="664" y="439" class="st1" width="17" height="18"/>
				</g>
				<g id="XMLID_745_">
					<circle id="XMLID_746_" class="st1" cx="774" cy="503.5" r="9.8"/>
				</g>
			</g>
		</g>
		<g id="XMLID_1320_">
			<g id="XMLID_751_">
				<polyline id="XMLID_758_" class="st8" points="393.3,237.6 358,274 290,274 277.7,262 232,262 192,299.5 192,328 				"/>
				<g id="XMLID_754_">
					<circle id="XMLID_756_" class="st1" cx="393.5" cy="237.4" r="9.8"/>
				</g>
				<g id="XMLID_752_">
					<circle id="XMLID_753_" class="st1" cx="192.5" cy="328" r="9.8"/>
				</g>
			</g>
		</g>
		<g id="XMLID_1319_">
			<g id="XMLID_761_">
				<polyline id="XMLID_945_" class="st8" points="590.8,189.1 567,213 547,213 519.4,239.5 556,276.2 556,302 590,336 615,336 				
					"/>
				<g id="XMLID_937_">
					<circle id="XMLID_943_" class="st1" cx="590.8" cy="188.6" r="9.8"/>
				</g>
				<g id="XMLID_910_">
					<circle id="XMLID_911_" class="st1" cx="615" cy="335.5" r="9.8"/>
				</g>
			</g>
		</g>
		<g id="XMLID_1318_">
			<g id="XMLID_947_">
				<polyline id="XMLID_980_" class="st8" points="604,774 604,706 623.1,686.9 567.4,631.1 559.5,638.7 592,671.4 592,743 
					578,756.5 578,774 				"/>
				<g id="XMLID_978_">
					<circle id="XMLID_979_" class="st1" cx="604" cy="774" r="9.8"/>
				</g>
				<g id="XMLID_948_">
					<circle id="XMLID_949_" class="st1" cx="578" cy="774" r="9.8"/>
				</g>
			</g>
		</g>
		<g id="XMLID_1317_">
			<g id="XMLID_130_">
				<polyline id="XMLID_530_" class="st8" points="91,212 109,212 133,188 133,150 188.6,94 214,94 				"/>
				<g id="XMLID_131_">
					<circle id="XMLID_529_" class="st1" cx="91" cy="212" r="9.8"/>
				</g>
			</g>
		</g>
		<g id="XMLID_1316_">
			<g id="XMLID_982_">
				<polyline id="XMLID_987_" class="st8" points="184.6,123.4 248.9,59 303,59 325,81.1 325,59 				"/>
				<g id="XMLID_985_">
					<circle id="XMLID_986_" class="st1" cx="184.6" cy="123.4" r="9.8"/>
				</g>
				<g id="XMLID_983_">
					<circle id="XMLID_984_" class="st1" cx="325" cy="59" r="9.8"/>
				</g>
			</g>
		</g>
	</g>
</g>
<g id="Right_Brain">
	<g id="Tertiary">
		<g id="XMLID_510_">
			<g id="XMLID_458_">
				<polyline id="XMLID_463_" class="st0" points="2222,331 2197,331 2167,361.5 2167,400 				"/>
				<g id="XMLID_461_">
					<circle id="XMLID_462_" class="st1" cx="2222" cy="331" r="5.3"/>
				</g>
				<g id="XMLID_459_">
					<circle id="XMLID_460_" class="st1" cx="2167" cy="400" r="5.3"/>
				</g>
			</g>
		</g>
		<g id="XMLID_509_">
			<g id="XMLID_451_">
				<polyline id="XMLID_456_" class="st0" points="1996,479 2015,498 1973,498 1994,519 1966.9,546.1 				"/>
				<g id="XMLID_454_">
					<circle id="XMLID_455_" class="st1" cx="1996" cy="479" r="5.3"/>
				</g>
				<g id="XMLID_452_">
					<circle id="XMLID_453_" class="st1" cx="1966.9" cy="546.1" r="5.3"/>
				</g>
			</g>
		</g>
		<g id="XMLID_508_">
			<g id="XMLID_444_">
				<polyline id="XMLID_449_" class="st0" points="1919.3,43.3 1891.6,70.9 1869.5,49 1790,49 				"/>
				<g id="XMLID_447_">
					<circle id="XMLID_448_" class="st1" cx="1919.3" cy="43.3" r="5.3"/>
				</g>
				<g id="XMLID_445_">
					<circle id="XMLID_446_" class="st1" cx="1790" cy="49" r="5.3"/>
				</g>
			</g>
		</g>
		<g id="XMLID_498_">
			<g id="XMLID_437_">
				<polyline id="XMLID_442_" class="st0" points="1748,106.1 1724.5,83 1675,83 1675,73 1650,73 1650,106 1694,106 				"/>
				<g id="XMLID_440_">
					<circle id="XMLID_441_" class="st1" cx="1748" cy="106.1" r="5.3"/>
				</g>
				<g id="XMLID_438_">
					<circle id="XMLID_439_" class="st1" cx="1694" cy="106" r="5.3"/>
				</g>
			</g>
		</g>
		<g id="XMLID_497_">
			<g id="XMLID_430_">
				<polyline id="XMLID_435_" class="st0" points="1571,134 1571,183 1583.2,195.1 1599.2,179 1677,179 1677,195 				"/>
				<g id="XMLID_433_">
					<circle id="XMLID_434_" class="st1" cx="1571" cy="134" r="5.3"/>
				</g>
				<g id="XMLID_431_">
					<circle id="XMLID_432_" class="st1" cx="1677" cy="195" r="5.3"/>
				</g>
			</g>
		</g>
		<g id="XMLID_495_">
			<g id="XMLID_423_">
				<polyline id="XMLID_428_" class="st0" points="1559,165 1519,165 1519,200 1502,200 				"/>
				<g id="XMLID_426_">
					<circle id="XMLID_427_" class="st1" cx="1559" cy="165" r="5.3"/>
				</g>
				<g id="XMLID_424_">
					<circle id="XMLID_425_" class="st1" cx="1502" cy="200" r="5.3"/>
				</g>
			</g>
		</g>
		<g id="XMLID_494_">
			<g id="XMLID_416_">
				<polyline id="XMLID_421_" class="st0" points="1629,546 1629,575 1580,624.5 1580,561 1537,561 				"/>
				<g id="XMLID_419_">
					<circle id="XMLID_420_" class="st1" cx="1629" cy="546" r="5.3"/>
				</g>
				<g id="XMLID_417_">
					<circle id="XMLID_418_" class="st1" cx="1537" cy="561" r="5.3"/>
				</g>
			</g>
		</g>
		<g id="XMLID_493_">
			<g id="XMLID_409_">
				<polyline id="XMLID_414_" class="st0" points="1693.9,212 1704,222.1 1704,243 1673,274 1644,274 1644,231 				"/>
				<g id="XMLID_412_">
					<circle id="XMLID_413_" class="st1" cx="1693.9" cy="212" r="5.3"/>
				</g>
				<g id="XMLID_410_">
					<circle id="XMLID_411_" class="st1" cx="1644" cy="231" r="5.3"/>
				</g>
			</g>
		</g>
		<g id="XMLID_492_">
			<g id="XMLID_402_">
				<line id="XMLID_407_" class="st0" x1="1682" y1="232" x2="1645.5" y2="195.5"/>
				<g id="XMLID_405_">
					<circle id="XMLID_406_" class="st1" cx="1682" cy="232" r="5.3"/>
				</g>
				<g id="XMLID_403_">
					<circle id="XMLID_404_" class="st1" cx="1645.5" cy="195.5" r="5.3"/>
				</g>
			</g>
		</g>
		<g id="XMLID_491_">
			<g id="XMLID_395_">
				<polyline id="XMLID_400_" class="st0" points="1967,331 1967,368 2005.5,407 2042,407 2069.3,434.3 				"/>
				<g id="XMLID_398_">
					<circle id="XMLID_399_" class="st1" cx="1967" cy="331" r="5.3"/>
				</g>
				<g id="XMLID_396_">
					<circle id="XMLID_397_" class="st1" cx="2069.3" cy="434.3" r="5.3"/>
				</g>
			</g>
		</g>
		<g id="XMLID_490_">
			<g id="XMLID_388_">
				<polyline id="XMLID_393_" class="st0" points="2071,299 2071,332 2025.1,286.1 				"/>
				<g id="XMLID_391_">
					<circle id="XMLID_392_" class="st1" cx="2071" cy="299" r="5.3"/>
				</g>
				<g id="XMLID_389_">
					<circle id="XMLID_390_" class="st1" cx="2025.1" cy="286.1" r="5.3"/>
				</g>
			</g>
		</g>
		<g id="XMLID_478_">
			<g id="XMLID_381_">
				<polyline id="XMLID_386_" class="st0" points="1605,332 1639,366 1689,366 1740.6,417.6 				"/>
				<g id="XMLID_384_">
					<circle id="XMLID_385_" class="st1" cx="1605" cy="332" r="5.3"/>
				</g>
				<g id="XMLID_382_">
					<circle id="XMLID_383_" class="st1" cx="1740.6" cy="417.6" r="5.3"/>
				</g>
			</g>
		</g>
		<g id="XMLID_472_">
			<g id="XMLID_374_">
				<polyline id="XMLID_379_" class="st0" points="1664,386 1629,386 1603.8,361 1584,361 1584,402 				"/>
				<g id="XMLID_377_">
					<circle id="XMLID_378_" class="st1" cx="1664" cy="386" r="5.3"/>
				</g>
				<g id="XMLID_375_">
					<circle id="XMLID_376_" class="st1" cx="1584" cy="402" r="5.3"/>
				</g>
			</g>
		</g>
		<g id="XMLID_197_">
			<g id="XMLID_367_">
				<polyline id="XMLID_372_" class="st0" points="1809.1,82.1 1837,109.7 1837,134 1871,167.5 1871,183 1900,212 1900,183 				"/>
				<g id="XMLID_370_">
					<circle id="XMLID_371_" class="st1" cx="1809.1" cy="82.1" r="5.3"/>
				</g>
				<g id="XMLID_368_">
					<circle id="XMLID_369_" class="st1" cx="1900" cy="183" r="5.3"/>
				</g>
			</g>
		</g>
		<g id="XMLID_196_">
			<g id="XMLID_360_">
				<polyline id="XMLID_365_" class="st0" points="1795.9,91.2 1817,112.4 1817,134 1839,156 				"/>
				<g id="XMLID_363_">
					<circle id="XMLID_364_" class="st1" cx="1795.9" cy="91.2" r="5.3"/>
				</g>
				<g id="XMLID_361_">
					<circle id="XMLID_362_" class="st1" cx="1839" cy="156" r="5.3"/>
				</g>
			</g>
		</g>
		<g id="XMLID_195_">
			<g id="XMLID_353_">
				<polyline id="XMLID_358_" class="st0" points="1952.2,531.5 1933.5,550 1904,550 1887,532.6 1887,496 1870,479 1839,479 				"/>
				<g id="XMLID_356_">
					<circle id="XMLID_357_" class="st1" cx="1952.2" cy="531.5" r="5.3"/>
				</g>
				<g id="XMLID_354_">
					<circle id="XMLID_355_" class="st1" cx="1839" cy="479" r="5.3"/>
				</g>
			</g>
		</g>
		<g id="XMLID_194_">
			<g id="XMLID_346_">
				<polyline id="XMLID_351_" class="st0" points="1900,491 1900,519 1915,519 				"/>
				<g id="XMLID_349_">
					<circle id="XMLID_350_" class="st1" cx="1900" cy="491" r="5.3"/>
				</g>
				<g id="XMLID_347_">
					<circle id="XMLID_348_" class="st1" cx="1915" cy="519" r="5.3"/>
				</g>
			</g>
		</g>
		<g id="XMLID_193_">
			<g id="XMLID_339_">
				<polyline id="XMLID_344_" class="st0" points="1677,611 1651.6,611 1682,581 1704.4,581 1739.7,545 1701,545 1690.5,555.5 				
					"/>
				<g id="XMLID_342_">
					<circle id="XMLID_343_" class="st1" cx="1677" cy="611" r="5.3"/>
				</g>
				<g id="XMLID_340_">
					<circle id="XMLID_341_" class="st1" cx="1690.5" cy="555.5" r="5.3"/>
				</g>
			</g>
		</g>
		<g id="XMLID_192_">
			<g id="XMLID_332_">
				<polyline id="XMLID_337_" class="st0" points="1844.5,514.6 1820.3,491 1790,491 1769.5,470.4 1730.8,509 1673,509 				"/>
				<g id="XMLID_335_">
					<circle id="XMLID_336_" class="st1" cx="1844.5" cy="514.6" r="5.3"/>
				</g>
				<g id="XMLID_333_">
					<circle id="XMLID_334_" class="st1" cx="1673" cy="509" r="5.3"/>
				</g>
			</g>
		</g>
		<g id="XMLID_190_">
			<g id="XMLID_325_">
				<polyline id="XMLID_330_" class="st0" points="1809,506 1809,531 1790,531 				"/>
				<g id="XMLID_328_">
					<circle id="XMLID_329_" class="st1" cx="1809" cy="506" r="5.3"/>
				</g>
				<g id="XMLID_326_">
					<circle id="XMLID_327_" class="st1" cx="1790" cy="531" r="5.3"/>
				</g>
			</g>
		</g>
		<g id="XMLID_188_">
			<g id="XMLID_950_">
				<polyline id="XMLID_1016_" class="st0" points="1679,759 1679,739 1671,731.3 1671,703 1664.5,696.5 				"/>
				<g id="XMLID_999_">
					<circle id="XMLID_1015_" class="st1" cx="1679" cy="759" r="4.9"/>
				</g>
				<g id="XMLID_951_">
					<circle id="XMLID_953_" class="st1" cx="1664.5" cy="696.5" r="4.9"/>
				</g>
			</g>
		</g>
	</g>
	<g id="Main">
		<g id="XMLID_1840_">
			<path id="XMLID_60_" class="st2" d="M1956,411.1"/>
		</g>
		<g id="XMLID_1839_">
			<g id="XMLID_308_">
				<polyline id="XMLID_313_" class="st3" points="2129.3,194.4 2163,227.5 2163,256 2201,256 				"/>
				<g id="XMLID_311_">
					<circle id="XMLID_312_" class="st1" cx="2129.3" cy="194.4" r="17.4"/>
				</g>
				<g id="XMLID_309_">
					<circle id="XMLID_310_" class="st1" cx="2201" cy="256" r="17.4"/>
				</g>
			</g>
		</g>
		<g id="XMLID_1838_">
			<g id="XMLID_101_">
				<polyline id="XMLID_113_" class="st3" points="2162.8,256 2139.9,272 2085.3,272 2066,244 1952.8,244 1915,205 1915,145.3 
					1941,119 1941,76 				"/>
				<g id="XMLID_107_">
					<circle id="XMLID_112_" class="st1" cx="1941" cy="76" r="17.4"/>
				</g>
			</g>
		</g>
		<g id="XMLID_1837_">
			<g id="XMLID_296_">
				<polyline id="XMLID_301_" class="st3" points="1919,466 1803,466 1782.9,446 1750,446 1727.3,469 1654,469 1627.8,495 1602,495 
					1570.8,526.3 				"/>
				<g id="XMLID_299_">
					<circle id="XMLID_300_" class="st1" cx="1919" cy="466" r="17.4"/>
				</g>
				<g id="XMLID_297_">
					<circle id="XMLID_298_" class="st1" cx="1570.8" cy="526.3" r="17.4"/>
				</g>
			</g>
		</g>
		<g id="XMLID_1836_">
			<g id="XMLID_289_">
				<polyline id="XMLID_294_" class="st3" points="1532,534 1495,534 1459,569.8 1459,587 1480,608.5 				"/>
				<g id="XMLID_292_">
					<circle id="XMLID_293_" class="st1" cx="1532" cy="534" r="17.4"/>
				</g>
				<g id="XMLID_290_">
					<circle id="XMLID_291_" class="st1" cx="1480" cy="608.5" r="17.4"/>
				</g>
			</g>
		</g>
		<g id="XMLID_1835_">
			<g id="XMLID_282_">
				<polyline id="XMLID_287_" class="st3" points="1739.7,65.4 1772,97 1772,121 1868,216.8 1868,267 1919,319 1982,319 2020,356.3 
					2020,384 2121,384 2191.9,313 				"/>
				<g id="XMLID_285_">
					<circle id="XMLID_286_" class="st1" cx="1739.7" cy="65.4" r="17.4"/>
				</g>
				<g id="XMLID_283_">
					<circle id="XMLID_284_" class="st1" cx="2191.9" cy="313" r="17.4"/>
				</g>
			</g>
		</g>
		<g id="XMLID_1834_">
			<g id="XMLID_275_">
				<polyline id="XMLID_280_" class="st3" points="1599,255.8 1628,284.1 1628,319 1658.3,350 1717,350 1752.5,386 1879,386 
					1896.7,404 1961,404 1980,422.3 1980,470 1944.1,505.8 				"/>
				<g id="XMLID_278_">
					<circle id="XMLID_279_" class="st1" cx="1599" cy="255.8" r="17.4"/>
				</g>
				<g id="XMLID_276_">
					<circle id="XMLID_277_" class="st1" cx="1944.1" cy="505.8" r="17.4"/>
				</g>
			</g>
		</g>
		<g id="XMLID_1833_">
			<g id="XMLID_268_">
				<polyline id="XMLID_273_" class="st3" points="1701.1,419.4 1689.5,408 1627,408 1610.7,424 1582,424 1569,436.9 1569,469 
					1555.8,482 1491,482 1476.3,496.9 1446.4,527 1429,527 				"/>
				<g id="XMLID_271_">
					<circle id="XMLID_272_" class="st1" cx="1701.1" cy="419.4" r="17.4"/>
				</g>
				<g id="XMLID_269_">
					<circle id="XMLID_270_" class="st1" cx="1429" cy="527" r="17.4"/>
				</g>
			</g>
		</g>
		<g id="XMLID_1832_">
			<g id="XMLID_261_">
				<polyline id="XMLID_266_" class="st3" points="1532.3,343.9 1518,358.5 1518,425 1506.8,436 1478,436 1458,456 1448,456 
					1419.1,484.8 				"/>
				<g id="XMLID_264_">
					<circle id="XMLID_265_" class="st1" cx="1532.3" cy="343.9" r="17.4"/>
				</g>
				<g id="XMLID_262_">
					<circle id="XMLID_263_" class="st1" cx="1419.1" cy="484.8" r="17.4"/>
				</g>
			</g>
		</g>
		<g id="XMLID_1824_">
			<g id="XMLID_254_">
				<polyline id="XMLID_259_" class="st3" points="1551,266 1551,294 1532.8,312 1520,312 1501.1,293 1485,293 1476,302 1476,336 
					1462,349.8 1462,400 1452,410 				"/>
				<g id="XMLID_257_">
					<circle id="XMLID_258_" class="st1" cx="1551" cy="266" r="17.4"/>
				</g>
				<g id="XMLID_255_">
					<circle id="XMLID_256_" class="st1" cx="1452" cy="410" r="17.4"/>
				</g>
			</g>
		</g>
		<g id="XMLID_1823_">
			<g id="XMLID_247_">
				<polyline id="XMLID_252_" class="st4" points="1619,212 1544,212 1519.8,236 1481,236 1452,265.5 1452,304 1440,315.8 1440,374 
					1428,386.3 1428,430 				"/>
				<g id="XMLID_250_">
					<circle id="XMLID_251_" class="st1" cx="1619" cy="212" r="12.4"/>
				</g>
				<g id="XMLID_248_">
					<circle id="XMLID_249_" class="st1" cx="1428" cy="430" r="12.4"/>
				</g>
			</g>
		</g>
		<g id="XMLID_1345_">
			<g id="XMLID_240_">
				<line id="XMLID_245_" class="st5" x1="1409" y1="368" x2="1409" y2="436"/>
				<g id="XMLID_243_">
					<circle id="XMLID_244_" class="st1" cx="1409" cy="368" r="6"/>
				</g>
				<g id="XMLID_241_">
					<circle id="XMLID_242_" class="st1" cx="1409" cy="436" r="6"/>
				</g>
			</g>
		</g>
		<g id="XMLID_1344_">
			<g id="XMLID_233_">
				<polyline id="XMLID_238_" class="st3" points="1599,134 1599,154 1606.3,162 1619,162 1637,144 1686,144 1745.8,204 1766,204 
					1783,219.8 1783,261 1757,287.3 1757,301 1798,301 1824.7,328 1877,328 				"/>
				<g id="XMLID_236_">
					<circle id="XMLID_237_" class="st1" cx="1599" cy="134" r="17.4"/>
				</g>
				<g id="XMLID_234_">
					<circle id="XMLID_235_" class="st1" cx="1877" cy="328" r="17.4"/>
				</g>
			</g>
		</g>
		<g id="XMLID_1343_">
			<g id="XMLID_226_">
				<polyline id="XMLID_231_" class="st3" points="1989.3,165 2005,149 2060,149 2060,120 2039.5,101 2015,101 2001.8,87.6 				"/>
				<g id="XMLID_229_">
					<circle id="XMLID_230_" class="st1" cx="1989.3" cy="165" r="17.4"/>
				</g>
				<g id="XMLID_227_">
					<circle id="XMLID_228_" class="st1" cx="2001.8" cy="87.6" r="17.4"/>
				</g>
			</g>
		</g>
		<g id="XMLID_1342_">
			<g id="XMLID_219_">
				<polyline id="XMLID_224_" class="st3" points="2116,150 2084,150 2069,165.1 2069,185 				"/>
				<g id="XMLID_222_">
					<circle id="XMLID_223_" class="st1" cx="2116" cy="150" r="17.4"/>
				</g>
				<g id="XMLID_220_">
					<circle id="XMLID_221_" class="st1" cx="2069" cy="185" r="17.4"/>
				</g>
			</g>
		</g>
		<g id="XMLID_1341_">
			<g id="XMLID_212_">
				<polyline id="XMLID_217_" class="st3" points="1831.6,65.4 1864,97.6 1864,117 1892.1,145.3 				"/>
				<g id="XMLID_215_">
					<circle id="XMLID_216_" class="st1" cx="1831.6" cy="65.4" r="17.4"/>
				</g>
				<g id="XMLID_213_">
					<circle id="XMLID_214_" class="st1" cx="1892.1" cy="145.3" r="17.4"/>
				</g>
			</g>
		</g>
		<g id="XMLID_1340_">
			<g id="XMLID_205_">
				<polyline id="XMLID_210_" class="st6" points="1729.4,610.9 1656.4,684 1599,684 1575.3,660 1551,660 				"/>
				<g id="XMLID_208_">
					<circle id="XMLID_209_" class="st1" cx="1729.4" cy="610.4" r="12.4"/>
				</g>
				<g id="XMLID_206_">
					<circle id="XMLID_207_" class="st1" cx="1551" cy="659.5" r="12.4"/>
				</g>
			</g>
		</g>
		<g id="XMLID_1339_">
			<g id="XMLID_95_">
				<polyline id="XMLID_98_" class="st6" points="1575,660 1605,660 1637.7,627 1682,627 1718,591 1735,591 1770,555 1770,532 
					1673,532 				"/>
				<g id="XMLID_96_">
					<circle id="XMLID_97_" class="st1" cx="1673" cy="531.5" r="12.4"/>
				</g>
			</g>
		</g>
		<g id="XMLID_1338_">
			<g id="XMLID_970_">
				<polyline id="XMLID_975_" class="st7" points="1873.8,513 1828,559 1796,559 1749,605.5 1771.5,627.6 1721,678.1 1721,706 				
					"/>
				<g id="XMLID_973_">
					<circle id="XMLID_974_" class="st1" cx="1874" cy="512.8" r="12.1"/>
				</g>
				<g id="XMLID_971_">
					<circle id="XMLID_972_" class="st1" cx="1721.5" cy="706" r="17.4"/>
				</g>
			</g>
		</g>
	</g>
	<g id="Secondary">
		<g id="XMLID_1314_">
			<g id="XMLID_174_">
				<polyline id="XMLID_180_" class="st8" points="2122,243.5 2095.3,218 1980,218 1952,186.2 1952,150 1977.8,124 				"/>
				<g id="XMLID_178_">
					<circle id="XMLID_179_" class="st1" cx="2122" cy="243.3" r="9.8"/>
				</g>
				<g id="XMLID_175_">
					<circle id="XMLID_177_" class="st1" cx="1978.1" cy="123.9" r="9.8"/>
				</g>
			</g>
		</g>
		<g id="XMLID_1313_">
			<g id="XMLID_85_">
				<polyline id="XMLID_93_" class="st8" points="2070,381 2070,356 2035.1,356 2035,335.5 1997.7,299 1832,299 1832,243 
					1771.7,185 1757,185 1691.4,119 1650,119 				"/>
				<g id="XMLID_86_">
					<circle id="XMLID_87_" class="st1" cx="1650" cy="118.5" r="9.8"/>
				</g>
			</g>
		</g>
		<g id="XMLID_1312_">
			<g id="XMLID_75_">
				<polyline id="XMLID_83_" class="st8" points="2070,356 2108,356 2145,319 				"/>
				<g id="XMLID_76_">
					<circle id="XMLID_82_" class="st1" cx="2145" cy="318.5" r="9.8"/>
				</g>
			</g>
		</g>
		<g id="XMLID_1311_">
			<g id="XMLID_151_">
				<polyline id="XMLID_156_" class="st8" points="2149,400.5 2128,422 2041,422 2016,446.5 1935,365.5 				"/>
				<g id="XMLID_154_">
					<circle id="XMLID_155_" class="st1" cx="2149" cy="400.2" r="9.8"/>
				</g>
				<g id="XMLID_152_">
					<circle id="XMLID_153_" class="st1" cx="1935" cy="365.3" r="9.8"/>
				</g>
			</g>
		</g>
		<g id="XMLID_1310_">
			<g id="XMLID_144_">
				<polyline id="XMLID_149_" class="st8" points="2015,469 1956,469 1915.5,429 1820,429 1820,449 				"/>
				<g id="XMLID_147_">
					<circle id="XMLID_148_" class="st1" cx="2015" cy="468.5" r="9.8"/>
				</g>
				<g id="XMLID_145_">
					<polygon id="XMLID_146_" class="st1" points="1807.5,468 1820.5,446.2 1833.5,468 					"/>
				</g>
			</g>
		</g>
		<g id="XMLID_1309_">
			<g id="XMLID_77_">
				<polyline id="XMLID_80_" class="st8" points="1820,429 1790,429 1771,410 				"/>
				<g id="XMLID_78_">
					<circle id="XMLID_79_" class="st1" cx="1771" cy="409.5" r="9.8"/>
				</g>
			</g>
		</g>
		<g id="XMLID_1308_">
			<g id="XMLID_137_">
				<polyline id="XMLID_165_" class="st8" points="1530.5,595.9 1550.8,576 1576,576 1623.5,529 1639,529 1658,547.1 1658,568 
					1584,643 1551,643 1533,624.8 				"/>
				<g id="XMLID_161_">
					<circle id="XMLID_162_" class="st1" cx="1530.5" cy="595.6" r="10.4"/>
				</g>
				<g id="XMLID_159_">
					<circle id="XMLID_160_" class="st1" cx="1533" cy="624.4" r="10.4"/>
				</g>
			</g>
		</g>
		<g id="XMLID_567_">
			<g id="XMLID_199_">
				<polyline id="XMLID_305_" class="st8" points="1735,276.6 1722.9,265 1701,265 1673,293 1599,293 1584,307.8 				"/>
				<g id="XMLID_202_">
					
						<rect id="XMLID_304_" x="1726.4" y="267.7" transform="matrix(0.7007 -0.7135 0.7135 0.7007 322.1816 1320.5968)" class="st1" width="17.2" height="17.2"/>
				</g>
				<g id="XMLID_200_">
					<circle id="XMLID_201_" class="st1" cx="1584" cy="307.4" r="9.8"/>
				</g>
			</g>
		</g>
		<g id="XMLID_565_">
			<g id="XMLID_88_">
				<polyline id="XMLID_91_" class="st8" points="1790,386 1805.3,370.8 1769.7,335.2 				"/>
				<g id="XMLID_89_">
					<circle id="XMLID_90_" class="st1" cx="1769.7" cy="335.2" r="9.8"/>
				</g>
			</g>
		</g>
		<g id="XMLID_564_">
			<g id="XMLID_99_">
				<polyline id="XMLID_119_" class="st8" points="1805,371 1908,371 1942,337 				"/>
				<g id="XMLID_114_">
					<circle id="XMLID_115_" class="st1" cx="1942" cy="336.5" r="9.8"/>
				</g>
			</g>
		</g>
		<g id="XMLID_563_">
			<g id="XMLID_317_">
				<polyline id="XMLID_477_" class="st8" points="1583.6,331.9 1553,362.5 1553,410 1536,427 1536,449 1619,449 1634.9,433 
					1673,433 1695,455 1719,455 1736,437.5 				"/>
				<g id="XMLID_475_">
					<circle id="XMLID_476_" class="st1" cx="1583.8" cy="331.9" r="9.8"/>
				</g>
				<g id="XMLID_319_">
					<circle id="XMLID_321_" class="st1" cx="1736.1" cy="437.3" r="9.8"/>
				</g>
			</g>
		</g>
		<g id="XMLID_562_">
			<g id="XMLID_480_">
				<polyline id="XMLID_545_" class="st8" points="1619,448 1619,460 1599.1,481 1583,481 1560.5,504 1518,504 				"/>
				<g id="XMLID_543_">
					<rect id="XMLID_544_" x="1611" y="439" class="st1" width="17" height="18"/>
				</g>
				<g id="XMLID_481_">
					<circle id="XMLID_482_" class="st1" cx="1518" cy="503.5" r="9.8"/>
				</g>
			</g>
		</g>
		<g id="XMLID_561_">
			<g id="XMLID_547_">
				<polyline id="XMLID_552_" class="st8" points="1898.3,237.6 1934,274 2002,274 2014.3,262 2060,262 2099,299.5 2099,328 				"/>
				<g id="XMLID_550_">
					<circle id="XMLID_551_" class="st1" cx="1898.5" cy="237.4" r="9.8"/>
				</g>
				<g id="XMLID_548_">
					<circle id="XMLID_549_" class="st1" cx="2099.5" cy="328" r="9.8"/>
				</g>
			</g>
		</g>
		<g id="XMLID_559_">
			<g id="XMLID_566_">
				<polyline id="XMLID_572_" class="st8" points="1701.2,189.1 1725,213 1745,213 1772.1,239.5 1735,276.2 1735,302 1702,336 
					1677,336 				"/>
				<g id="XMLID_570_">
					<circle id="XMLID_571_" class="st1" cx="1701.2" cy="188.6" r="9.8"/>
				</g>
				<g id="XMLID_568_">
					<circle id="XMLID_569_" class="st1" cx="1677" cy="335.5" r="9.8"/>
				</g>
			</g>
		</g>
		<g id="XMLID_558_">
			<g id="XMLID_627_">
				<polyline id="XMLID_757_" class="st8" points="1688,774 1688,706 1668.9,686.9 1724.6,631.1 1732.5,638.7 1700,671.4 1700,743 
					1714,756.5 1714,774 				"/>
				<g id="XMLID_732_">
					<circle id="XMLID_755_" class="st1" cx="1688" cy="774" r="9.8"/>
				</g>
				<g id="XMLID_730_">
					<circle id="XMLID_731_" class="st1" cx="1714" cy="774" r="9.8"/>
				</g>
			</g>
		</g>
		<g id="XMLID_557_">
			<g id="XMLID_124_">
				<polyline id="XMLID_127_" class="st8" points="2201,212 2183,212 2159,188 2159,150 2103.4,94 2078,94 				"/>
				<g id="XMLID_125_">
					<circle id="XMLID_126_" class="st1" cx="2201" cy="212" r="9.8"/>
				</g>
			</g>
		</g>
		<g id="XMLID_556_">
			<g id="XMLID_763_">
				<polyline id="XMLID_894_" class="st8" points="2107.4,123.4 2043.1,59 1989,59 1967,81.1 1967,59 				"/>
				<g id="XMLID_892_">
					<circle id="XMLID_893_" class="st1" cx="2107.4" cy="123.4" r="9.8"/>
				</g>
				<g id="XMLID_840_">
					<circle id="XMLID_891_" class="st1" cx="1967" cy="59" r="9.8"/>
				</g>
			</g>
		</g>
	</g>
</g>
<g id="Cogs">
	<g id="XMLID_166_">
		<g id="XMLID_895_">
			<path id="XMLID_908_" d="M1256.8,851.5c0,0-15.1-8.5-19.3-14.5c-0.5-0.7-0.9-1.4-1.4-2c0.6-4.9,0.6-9.9,0.1-14.8
				c0.4-0.6,0.9-1.2,1.4-1.8c3.9-4.9,19.5-14.1,19.5-14.1c1.6-0.8,2.4-2.7,1.7-4.3l-6.8-16.9c-0.7-1.7-2.5-2.5-4.2-1.9
				c0,0-16.7,4.6-23.9,3.4c-0.8-0.1-1.6-0.3-2.4-0.5c-3.1-3.9-6.6-7.5-10.4-10.6c-0.1-0.7-0.2-1.5-0.3-2.3
				c-0.7-6.2,3.9-23.8,3.9-23.8c0.6-1.7-0.2-3.6-1.9-4.3l-16.8-7.1c-1.6-0.7-3.6,0-4.4,1.6c0,0-8.5,15.1-14.5,19.3
				c-0.7,0.5-1.4,0.9-2,1.4c-4.9-0.6-9.9-0.6-14.8-0.1c-0.6-0.4-1.2-0.9-1.8-1.4c-4.9-3.9-14.1-19.5-14.1-19.5
				c-0.8-1.6-2.7-2.4-4.3-1.7l-16.9,6.8c-1.7,0.7-2.5,2.5-1.9,4.2c0,0,4.6,16.7,3.4,23.9c-0.1,0.8-0.3,1.6-0.5,2.4
				c-3.9,3.1-7.5,6.6-10.6,10.4c-0.7,0.1-1.5,0.2-2.3,0.3c-6.2,0.7-23.8-3.9-23.8-3.9c-1.7-0.6-3.6,0.2-4.3,1.9l-7.1,16.8
				c-0.7,1.6,0,3.6,1.6,4.4c0,0,15.1,8.5,19.3,14.5c0.5,0.7,0.9,1.4,1.4,2c-0.6,4.9-0.6,9.9-0.1,14.8c-0.4,0.6-0.9,1.2-1.4,1.8
				c-3.9,4.9-19.5,14.1-19.5,14.1c-1.6,0.8-2.4,2.7-1.7,4.3l6.8,16.9c0.7,1.7,2.5,2.5,4.2,1.9c0,0,16.7-4.6,23.9-3.4
				c0.8,0.1,1.6,0.3,2.4,0.5c3.1,3.9,6.6,7.5,10.4,10.6c0.1,0.7,0.2,1.5,0.3,2.3c0.7,6.2-3.9,23.8-3.9,23.8
				c-0.6,1.7,0.2,3.6,1.9,4.3l16.8,7.1c1.6,0.7,3.6,0,4.4-1.6c0,0,8.5-15.1,14.5-19.3c0.7-0.5,1.4-0.9,2-1.4
				c4.9,0.6,9.9,0.6,14.8,0.1c0.6,0.4,1.2,0.9,1.8,1.4c4.9,3.9,14.1,19.5,14.1,19.5c0.8,1.6,2.7,2.4,4.3,1.7l16.9-6.8
				c1.7-0.7,2.5-2.5,1.9-4.2c0,0-4.6-16.7-3.4-23.9c0.1-0.8,0.3-1.6,0.5-2.4c3.9-3.1,7.5-6.6,10.6-10.4c0.7-0.1,1.5-0.2,2.3-0.3
				c6.2-0.7,23.8,3.9,23.8,3.9c1.7,0.6,3.6-0.2,4.3-1.9l7.1-16.8C1259.1,854.2,1258.4,852.3,1256.8,851.5z M1167.3,885.3
				c-32.2,0-58.3-26.1-58.3-58.3s26.1-58.3,58.3-58.3s58.3,26.1,58.3,58.3S1199.5,885.3,1167.3,885.3z"/>
			<path id="XMLID_905_" d="M1167.3,777.8c-27.2,0-49.2,22-49.2,49.2c0,27.2,22,49.2,49.2,49.2c27.2,0,49.2-22,49.2-49.2
				C1216.5,799.8,1194.5,777.8,1167.3,777.8z M1167.3,863.6c-20.2,0-36.6-16.4-36.6-36.6c0-20.2,16.4-36.6,36.6-36.6
				c20.2,0,36.6,16.4,36.6,36.6C1203.9,847.2,1187.5,863.6,1167.3,863.6z"/>
			<circle id="XMLID_903_" cx="1167.3" cy="827" r="14.8"/>
		</g>
		<g id="XMLID_742_">
			<path id="XMLID_784_" class="st9" d="M1256.8,851.5c0,0-15.1-8.5-19.3-14.5c-0.5-0.7-0.9-1.4-1.4-2c0.6-4.9,0.6-9.9,0.1-14.8
				c0.4-0.6,0.9-1.2,1.4-1.8c3.9-4.9,19.5-14.1,19.5-14.1c1.6-0.8,2.4-2.7,1.7-4.3l-6.8-16.9c-0.7-1.7-2.5-2.5-4.2-1.9
				c0,0-16.7,4.6-23.9,3.4c-0.8-0.1-1.6-0.3-2.4-0.5c-3.1-3.9-6.6-7.5-10.4-10.6c-0.1-0.7-0.2-1.5-0.3-2.3
				c-0.7-6.2,3.9-23.8,3.9-23.8c0.6-1.7-0.2-3.6-1.9-4.3l-16.8-7.1c-1.6-0.7-3.6,0-4.4,1.6c0,0-8.5,15.1-14.5,19.3
				c-0.7,0.5-1.4,0.9-2,1.4c-4.9-0.6-9.9-0.6-14.8-0.1c-0.6-0.4-1.2-0.9-1.8-1.4c-4.9-3.9-14.1-19.5-14.1-19.5
				c-0.8-1.6-2.7-2.4-4.3-1.7l-16.9,6.8c-1.7,0.7-2.5,2.5-1.9,4.2c0,0,4.6,16.7,3.4,23.9c-0.1,0.8-0.3,1.6-0.5,2.4
				c-3.9,3.1-7.5,6.6-10.6,10.4c-0.7,0.1-1.5,0.2-2.3,0.3c-6.2,0.7-23.8-3.9-23.8-3.9c-1.7-0.6-3.6,0.2-4.3,1.9l-7.1,16.8
				c-0.7,1.6,0,3.6,1.6,4.4c0,0,15.1,8.5,19.3,14.5c0.5,0.7,0.9,1.4,1.4,2c-0.6,4.9-0.6,9.9-0.1,14.8c-0.4,0.6-0.9,1.2-1.4,1.8
				c-3.9,4.9-19.5,14.1-19.5,14.1c-1.6,0.8-2.4,2.7-1.7,4.3l6.8,16.9c0.7,1.7,2.5,2.5,4.2,1.9c0,0,16.7-4.6,23.9-3.4
				c0.8,0.1,1.6,0.3,2.4,0.5c3.1,3.9,6.6,7.5,10.4,10.6c0.1,0.7,0.2,1.5,0.3,2.3c0.7,6.2-3.9,23.8-3.9,23.8
				c-0.6,1.7,0.2,3.6,1.9,4.3l16.8,7.1c1.6,0.7,3.6,0,4.4-1.6c0,0,8.5-15.1,14.5-19.3c0.7-0.5,1.4-0.9,2-1.4
				c4.9,0.6,9.9,0.6,14.8,0.1c0.6,0.4,1.2,0.9,1.8,1.4c4.9,3.9,14.1,19.5,14.1,19.5c0.8,1.6,2.7,2.4,4.3,1.7l16.9-6.8
				c1.7-0.7,2.5-2.5,1.9-4.2c0,0-4.6-16.7-3.4-23.9c0.1-0.8,0.3-1.6,0.5-2.4c3.9-3.1,7.5-6.6,10.6-10.4c0.7-0.1,1.5-0.2,2.3-0.3
				c6.2-0.7,23.8,3.9,23.8,3.9c1.7,0.6,3.6-0.2,4.3-1.9l7.1-16.8C1259.1,854.2,1258.4,852.3,1256.8,851.5z M1167.3,885.3
				c-32.2,0-58.3-26.1-58.3-58.3s26.1-58.3,58.3-58.3s58.3,26.1,58.3,58.3S1199.5,885.3,1167.3,885.3z"/>
			<path id="XMLID_744_" class="st9" d="M1167.3,777.8c-27.2,0-49.2,22-49.2,49.2c0,27.2,22,49.2,49.2,49.2
				c27.2,0,49.2-22,49.2-49.2C1216.5,799.8,1194.5,777.8,1167.3,777.8z M1167.3,863.6c-20.2,0-36.6-16.4-36.6-36.6
				c0-20.2,16.4-36.6,36.6-36.6c20.2,0,36.6,16.4,36.6,36.6C1203.9,847.2,1187.5,863.6,1167.3,863.6z"/>
			<circle id="XMLID_743_" class="st9" cx="1167.3" cy="827" r="14.8"/>
		</g>
		<g id="XMLID_574_">
			<radialGradient id="XMLID_181_" cx="1167.3206" cy="827" r="91.8977" gradientUnits="userSpaceOnUse">
				<stop  offset="0" style="stop-color:#FF1D25"/>
				<stop  offset="1" style="stop-color:#910202"/>
			</radialGradient>
			<path id="XMLID_713_" class="st10" d="M1256.8,851.5c0,0-15.1-8.5-19.3-14.5c-0.5-0.7-0.9-1.4-1.4-2c0.6-4.9,0.6-9.9,0.1-14.8
				c0.4-0.6,0.9-1.2,1.4-1.8c3.9-4.9,19.5-14.1,19.5-14.1c1.6-0.8,2.4-2.7,1.7-4.3l-6.8-16.9c-0.7-1.7-2.5-2.5-4.2-1.9
				c0,0-16.7,4.6-23.9,3.4c-0.8-0.1-1.6-0.3-2.4-0.5c-3.1-3.9-6.6-7.5-10.4-10.6c-0.1-0.7-0.2-1.5-0.3-2.3
				c-0.7-6.2,3.9-23.8,3.9-23.8c0.6-1.7-0.2-3.6-1.9-4.3l-16.8-7.1c-1.6-0.7-3.6,0-4.4,1.6c0,0-8.5,15.1-14.5,19.3
				c-0.7,0.5-1.4,0.9-2,1.4c-4.9-0.6-9.9-0.6-14.8-0.1c-0.6-0.4-1.2-0.9-1.8-1.4c-4.9-3.9-14.1-19.5-14.1-19.5
				c-0.8-1.6-2.7-2.4-4.3-1.7l-16.9,6.8c-1.7,0.7-2.5,2.5-1.9,4.2c0,0,4.6,16.7,3.4,23.9c-0.1,0.8-0.3,1.6-0.5,2.4
				c-3.9,3.1-7.5,6.6-10.6,10.4c-0.7,0.1-1.5,0.2-2.3,0.3c-6.2,0.7-23.8-3.9-23.8-3.9c-1.7-0.6-3.6,0.2-4.3,1.9l-7.1,16.8
				c-0.7,1.6,0,3.6,1.6,4.4c0,0,15.1,8.5,19.3,14.5c0.5,0.7,0.9,1.4,1.4,2c-0.6,4.9-0.6,9.9-0.1,14.8c-0.4,0.6-0.9,1.2-1.4,1.8
				c-3.9,4.9-19.5,14.1-19.5,14.1c-1.6,0.8-2.4,2.7-1.7,4.3l6.8,16.9c0.7,1.7,2.5,2.5,4.2,1.9c0,0,16.7-4.6,23.9-3.4
				c0.8,0.1,1.6,0.3,2.4,0.5c3.1,3.9,6.6,7.5,10.4,10.6c0.1,0.7,0.2,1.5,0.3,2.3c0.7,6.2-3.9,23.8-3.9,23.8
				c-0.6,1.7,0.2,3.6,1.9,4.3l16.8,7.1c1.6,0.7,3.6,0,4.4-1.6c0,0,8.5-15.1,14.5-19.3c0.7-0.5,1.4-0.9,2-1.4
				c4.9,0.6,9.9,0.6,14.8,0.1c0.6,0.4,1.2,0.9,1.8,1.4c4.9,3.9,14.1,19.5,14.1,19.5c0.8,1.6,2.7,2.4,4.3,1.7l16.9-6.8
				c1.7-0.7,2.5-2.5,1.9-4.2c0,0-4.6-16.7-3.4-23.9c0.1-0.8,0.3-1.6,0.5-2.4c3.9-3.1,7.5-6.6,10.6-10.4c0.7-0.1,1.5-0.2,2.3-0.3
				c6.2-0.7,23.8,3.9,23.8,3.9c1.7,0.6,3.6-0.2,4.3-1.9l7.1-16.8C1259.1,854.2,1258.4,852.3,1256.8,851.5z M1167.3,885.3
				c-32.2,0-58.3-26.1-58.3-58.3s26.1-58.3,58.3-58.3s58.3,26.1,58.3,58.3S1199.5,885.3,1167.3,885.3z"/>
			<radialGradient id="XMLID_183_" cx="1167.3206" cy="827" r="91.8977" gradientUnits="userSpaceOnUse">
				<stop  offset="0" style="stop-color:#FF1D25"/>
				<stop  offset="1" style="stop-color:#910202"/>
			</radialGradient>
			<path id="XMLID_685_" class="st11" d="M1167.3,777.8c-27.2,0-49.2,22-49.2,49.2c0,27.2,22,49.2,49.2,49.2
				c27.2,0,49.2-22,49.2-49.2C1216.5,799.8,1194.5,777.8,1167.3,777.8z M1167.3,863.6c-20.2,0-36.6-16.4-36.6-36.6
				c0-20.2,16.4-36.6,36.6-36.6c20.2,0,36.6,16.4,36.6,36.6C1203.9,847.2,1187.5,863.6,1167.3,863.6z"/>
			<radialGradient id="XMLID_186_" cx="1167.3206" cy="827" r="91.8977" gradientUnits="userSpaceOnUse">
				<stop  offset="0" style="stop-color:#FF1D25"/>
				<stop  offset="1" style="stop-color:#910202"/>
			</radialGradient>
			<circle id="XMLID_575_" class="st12" cx="1167.3" cy="827" r="14.8"/>
		</g>
	</g>
	<g id="XMLID_59_">
		<g id="XMLID_103_">
			<path id="XMLID_116_" d="M1084.8,813.8c0,0-9.5-3.3-18.2-5.7c-2.2-7.3-5.7-14.3-10.4-20.8c-0.2-0.3-0.4-0.5-0.6-0.7
				c3.1-8.5,5.9-18.3,5.9-18.3c1-1.5,0.7-3.5-0.8-4.6l-14.5-11c-1.4-1.1-3.4-0.9-4.6,0.5c0,0-8.5,5.4-15.8,10.6
				c-7.6-3-15.6-4.6-23.7-4.9c-4.7-7.7-10.6-16-10.6-16c-0.5-1.7-2.3-2.7-4.1-2.3l-17.7,4.5c-1.7,0.4-2.8,2.2-2.5,3.9
				c0,0-1.1,10-1.5,19c-2.2,1.3-4.4,2.7-6.5,4.2c-4.5,3.3-8.6,7.1-12,11.2c-8.9-1.2-19.1-1.7-19.1-1.7c-1.7-0.6-3.6,0.1-4.3,1.8
				l-7.5,16.6c-0.7,1.6-0.1,3.6,1.5,4.4c0,0,7.1,7.1,13.9,13c-1.2,8-1.1,16.2,0.5,24.2c-6.5,6.3-13.2,13.9-13.2,13.9
				c-1.5,0.9-2.1,2.9-1.3,4.5l8.3,16.2c0.8,1.6,2.7,2.3,4.4,1.6c0,0,10-1.2,18.9-2.7c5.6,6.1,12.1,11,19.2,14.7c0.9,9,2.6,19,2.6,19
				c-0.3,1.8,0.9,3.4,2.7,3.8l17.8,3.6c1.8,0.4,3.5-0.7,3.9-2.4c0,0,5.3-8.5,9.6-16.4c8-0.6,15.9-2.5,23.4-5.9
				c7.6,4.9,16.5,9.8,16.5,9.8c1.2,1.3,3.3,1.4,4.6,0.3l14-11.7c1.4-1.1,1.6-3.2,0.5-4.6c0,0-3.4-9.5-6.9-17.8c4.7-6.8,8-14.2,10-22
				c8.6-2.8,18-6.8,18-6.8c1.8-0.1,3.2-1.7,3.1-3.5l-0.4-18.2C1088.1,815.3,1086.6,813.8,1084.8,813.8z M1011.8,873.4
				c-26.2,6.6-52.7-9.2-59.4-35.4c-6.6-26.2,9.2-52.7,35.4-59.4c26.2-6.6,52.7,9.2,59.4,35.4
				C1053.8,840.2,1037.9,866.8,1011.8,873.4z"/>
			<circle id="XMLID_106_" cx="999.8" cy="826.1" r="30.5"/>
		</g>
		<g id="XMLID_68_">
			<path id="XMLID_70_" class="st9" d="M1084.8,813.8c0,0-9.5-3.3-18.2-5.7c-2.2-7.3-5.7-14.3-10.4-20.8c-0.2-0.3-0.4-0.5-0.6-0.7
				c3.1-8.5,5.9-18.3,5.9-18.3c1-1.5,0.7-3.5-0.8-4.6l-14.5-11c-1.4-1.1-3.4-0.9-4.6,0.5c0,0-8.5,5.4-15.8,10.6
				c-7.6-3-15.6-4.6-23.7-4.9c-4.7-7.7-10.6-16-10.6-16c-0.5-1.7-2.3-2.7-4.1-2.3l-17.7,4.5c-1.7,0.4-2.8,2.2-2.5,3.9
				c0,0-1.1,10-1.5,19c-2.2,1.3-4.4,2.7-6.5,4.2c-4.5,3.3-8.6,7.1-12,11.2c-8.9-1.2-19.1-1.7-19.1-1.7c-1.7-0.6-3.6,0.1-4.3,1.8
				l-7.5,16.6c-0.7,1.6-0.1,3.6,1.5,4.4c0,0,7.1,7.1,13.9,13c-1.2,8-1.1,16.2,0.5,24.2c-6.5,6.3-13.2,13.9-13.2,13.9
				c-1.5,0.9-2.1,2.9-1.3,4.5l8.3,16.2c0.8,1.6,2.7,2.3,4.4,1.6c0,0,10-1.2,18.9-2.7c5.6,6.1,12.1,11,19.2,14.7c0.9,9,2.6,19,2.6,19
				c-0.3,1.8,0.9,3.4,2.7,3.8l17.8,3.6c1.8,0.4,3.5-0.7,3.9-2.4c0,0,5.3-8.5,9.6-16.4c8-0.6,15.9-2.5,23.4-5.9
				c7.6,4.9,16.5,9.8,16.5,9.8c1.2,1.3,3.3,1.4,4.6,0.3l14-11.7c1.4-1.1,1.6-3.2,0.5-4.6c0,0-3.4-9.5-6.9-17.8c4.7-6.8,8-14.2,10-22
				c8.6-2.8,18-6.8,18-6.8c1.8-0.1,3.2-1.7,3.1-3.5l-0.4-18.2C1088.1,815.3,1086.6,813.8,1084.8,813.8z M1011.8,873.4
				c-26.2,6.6-52.7-9.2-59.4-35.4c-6.6-26.2,9.2-52.7,35.4-59.4c26.2-6.6,52.7,9.2,59.4,35.4
				C1053.8,840.2,1037.9,866.8,1011.8,873.4z"/>
			<circle id="XMLID_69_" class="st9" cx="999.8" cy="826.1" r="30.5"/>
		</g>
		<g id="XMLID_54_">
			
				<radialGradient id="XMLID_187_" cx="1002.3246" cy="828.4236" r="74.5429" fx="993.4019" fy="828.2746" gradientUnits="userSpaceOnUse">
				<stop  offset="0" style="stop-color:#FF1D25"/>
				<stop  offset="1" style="stop-color:#910202"/>
			</radialGradient>
			<path id="XMLID_56_" class="st13" d="M1084.8,813.8c0,0-9.5-3.3-18.2-5.7c-2.2-7.3-5.7-14.3-10.4-20.8c-0.2-0.3-0.4-0.5-0.6-0.7
				c3.1-8.5,5.9-18.3,5.9-18.3c1-1.5,0.7-3.5-0.8-4.6l-14.5-11c-1.4-1.1-3.4-0.9-4.6,0.5c0,0-8.5,5.4-15.8,10.6
				c-7.6-3-15.6-4.6-23.7-4.9c-4.7-7.7-10.6-16-10.6-16c-0.5-1.7-2.3-2.7-4.1-2.3l-17.7,4.5c-1.7,0.4-2.8,2.2-2.5,3.9
				c0,0-1.1,10-1.5,19c-2.2,1.3-4.4,2.7-6.5,4.2c-4.5,3.3-8.6,7.1-12,11.2c-8.9-1.2-19.1-1.7-19.1-1.7c-1.7-0.6-3.6,0.1-4.3,1.8
				l-7.5,16.6c-0.7,1.6-0.1,3.6,1.5,4.4c0,0,7.1,7.1,13.9,13c-1.2,8-1.1,16.2,0.5,24.2c-6.5,6.3-13.2,13.9-13.2,13.9
				c-1.5,0.9-2.1,2.9-1.3,4.5l8.3,16.2c0.8,1.6,2.7,2.3,4.4,1.6c0,0,10-1.2,18.9-2.7c5.6,6.1,12.1,11,19.2,14.7c0.9,9,2.6,19,2.6,19
				c-0.3,1.8,0.9,3.4,2.7,3.8l17.8,3.6c1.8,0.4,3.5-0.7,3.9-2.4c0,0,5.3-8.5,9.6-16.4c8-0.6,15.9-2.5,23.4-5.9
				c7.6,4.9,16.5,9.8,16.5,9.8c1.2,1.3,3.3,1.4,4.6,0.3l14-11.7c1.4-1.1,1.6-3.2,0.5-4.6c0,0-3.4-9.5-6.9-17.8c4.7-6.8,8-14.2,10-22
				c8.6-2.8,18-6.8,18-6.8c1.8-0.1,3.2-1.7,3.1-3.5l-0.4-18.2C1088.1,815.3,1086.6,813.8,1084.8,813.8z M1011.8,873.4
				c-26.2,6.6-52.7-9.2-59.4-35.4c-6.6-26.2,9.2-52.7,35.4-59.4c26.2-6.6,52.7,9.2,59.4,35.4
				C1053.8,840.2,1037.9,866.8,1011.8,873.4z"/>
			
				<radialGradient id="XMLID_189_" cx="1002.3246" cy="828.4236" r="74.5429" fx="993.4019" fy="828.2746" gradientUnits="userSpaceOnUse">
				<stop  offset="0" style="stop-color:#FF1D25"/>
				<stop  offset="1" style="stop-color:#910202"/>
			</radialGradient>
			<circle id="XMLID_55_" class="st14" cx="999.8" cy="826.1" r="30.5"/>
		</g>
	</g>
	<path id="XMLID_108_" class="st1" d="M1181.6,696.4c0,0-1.5,0.9-2.2,1c0,0,0,0,0,0c-0.5-0.5-0.9-0.9-1.4-1.3c0,0,0,0,0,0
		c0.1-0.6,0.8-2.3,0.8-2.3c0.1-0.2,0-0.4-0.1-0.5l-1.6-0.9c-0.2-0.1-0.4,0-0.5,0.1c0,0-1,1.3-1.6,1.8c0,0,0,0,0,0
		c-0.6-0.3-1.2-0.5-1.8-0.7c0,0,0,0,0,0c-0.2-0.6-0.1-2.4-0.1-2.4c0-0.2-0.1-0.3-0.3-0.4l-1.8-0.3c-0.2,0-0.3,0.1-0.4,0.3
		c0,0-0.4,1.6-0.8,2.3c0,0,0,0,0,0c-0.7,0-1.3,0-2,0.1c0,0,0,0,0,0c-0.4-0.5-1-2.2-1-2.2c-0.1-0.2-0.2-0.3-0.4-0.2l-1.8,0.4
		c-0.2,0-0.3,0.2-0.3,0.4c0,0,0.2,1.7,0.1,2.4c0,0,0,0,0,0c-0.6,0.2-1.2,0.5-1.8,0.8c0,0,0,0,0,0c-0.5-0.3-1.8-1.6-1.8-1.6
		c-0.1-0.1-0.3-0.2-0.5-0.1l-1.5,1.1c-0.1,0.1-0.2,0.3-0.1,0.5c0,0,0.9,1.5,1,2.2c0,0,0,0,0,0c-0.5,0.5-0.9,0.9-1.3,1.5c0,0,0,0,0,0
		c-0.6-0.1-2.3-0.8-2.3-0.8c-0.2-0.1-0.4,0-0.5,0.1l-0.9,1.6c-0.1,0.2-0.1,0.4,0.1,0.5c0,0,1.3,1,1.8,1.6c0,0,0,0,0,0
		c-0.3,0.6-0.5,1.2-0.7,1.8c0,0,0,0,0,0c-0.6,0.2-2.4,0.1-2.4,0.1c-0.2,0-0.3,0.1-0.4,0.3l-0.3,1.8c0,0.2,0.1,0.3,0.3,0.4
		c0,0,1.6,0.4,2.3,0.8c0,0,0,0,0,0c0,0.7,0,1.3,0.1,2c0,0,0,0,0,0c-0.5,0.4-2.2,1-2.2,1c-0.2,0.1-0.3,0.2-0.2,0.4l0.4,1.8
		c0,0.2,0.2,0.3,0.4,0.3c0,0,1.7-0.2,2.4-0.1c0,0,0,0,0,0c0.2,0.6,0.5,1.2,0.8,1.8c0,0,0,0,0,0c-0.3,0.5-1.6,1.8-1.6,1.8
		c-0.1,0.1-0.2,0.3-0.1,0.5l1.1,1.5c0.1,0.1,0.3,0.2,0.5,0.1c0,0,1.5-0.9,2.2-1c0,0,0,0,0,0c0.5,0.5,0.9,0.9,1.5,1.3c0,0,0,0,0,0
		c-0.1,0.6-0.8,2.3-0.8,2.3c-0.1,0.2,0,0.4,0.1,0.5l1.6,0.9c0.2,0.1,0.4,0.1,0.5-0.1c0,0,1-1.3,1.6-1.8c0,0,0,0,0,0
		c0.6,0.3,1.2,0.5,1.8,0.7c0,0,0,0,0,0c0.2,0.6,0.1,2.4,0.1,2.4c0,0.2,0.1,0.3,0.3,0.4l1.8,0.3c0.2,0,0.3-0.1,0.4-0.3
		c0,0,0.4-1.6,0.8-2.3c0,0,0,0,0,0c0.7,0,1.3,0,2-0.1c0,0,0,0,0,0c0.4,0.5,1,2.2,1,2.2c0.1,0.2,0.2,0.3,0.4,0.2l1.8-0.4
		c0.2,0,0.3-0.2,0.3-0.4c0,0-0.2-1.7-0.1-2.4c0,0,0,0,0,0c0.6-0.2,1.2-0.5,1.8-0.8c0,0,0,0,0,0c0.5,0.3,1.8,1.6,1.8,1.6
		c0.1,0.1,0.3,0.2,0.5,0.1l1.5-1.1c0.1-0.1,0.2-0.3,0.1-0.5c0,0-0.9-1.5-1-2.2c0,0,0,0,0,0c0.5-0.5,0.9-0.9,1.3-1.5c0,0,0,0,0,0
		c0.6,0.1,2.3,0.8,2.3,0.8c0.2,0.1,0.4,0,0.5-0.1l0.9-1.6c0.1-0.2,0.1-0.4-0.1-0.5c0,0-1.3-1-1.8-1.6c0,0,0,0,0,0
		c0.3-0.6,0.5-1.2,0.7-1.8c0,0,0,0,0,0c0.6-0.2,2.4-0.1,2.4-0.1c0.2,0,0.3-0.1,0.4-0.3l0.3-1.8c0-0.2-0.1-0.3-0.3-0.4
		c0,0-1.6-0.4-2.3-0.8c0,0,0,0,0,0c0-0.7,0-1.3-0.1-2c0,0,0,0,0,0c0.5-0.4,2.2-1,2.2-1c0.2-0.1,0.3-0.2,0.2-0.4l-0.4-1.8
		c0-0.2-0.2-0.3-0.4-0.3c0,0-1.7,0.2-2.4,0.1c0,0,0,0,0,0c-0.2-0.6-0.5-1.2-0.8-1.8c0,0,0,0,0,0c0.3-0.5,1.6-1.8,1.6-1.8
		c0.1-0.1,0.2-0.3,0.1-0.5l-1.1-1.5C1182,696.3,1181.8,696.3,1181.6,696.4z M1175.9,696.3c0,0.5-0.1,1-0.4,1.5c-1.3,2-2.7,4-4.2,5.8
		c-0.2,0.3-0.5,0.5-0.7,0.7c-0.8-0.4-1.8-0.4-2.6,0c-0.2-0.2-0.5-0.4-0.7-0.7c-1.5-1.8-2.9-3.7-4.2-5.7c-0.3-0.5-0.5-0.9-0.5-1.4
		C1166.7,693.8,1171.9,693.9,1175.9,696.3z M1161.1,697.5c0.5,0.2,0.9,0.4,1.3,0.8c1.5,1.8,3,3.8,4.2,5.8c0.2,0.3,0.3,0.6,0.4,0.9
		c-0.6,0.7-0.9,1.6-0.8,2.5c-0.2,0.2-0.5,0.4-0.9,0.5c-2.2,0.9-4.4,1.6-6.8,2.3c-0.5,0.1-1,0.1-1.5,0
		C1155.9,705.7,1157.4,700.7,1161.1,697.5z M1159.2,714.5c-0.6-0.8-1.1-1.7-1.5-2.7c0.3-0.4,0.7-0.7,1.2-1c2.2-0.9,4.5-1.7,6.8-2.3
		c0.3-0.1,0.7-0.1,1-0.1c0.1,0.1,0.1,0.2,0.2,0.3c0.5,0.7,1.2,1.1,1.9,1.2c0.1,0.3,0.2,0.6,0.2,1c0.2,2.4,0.2,4.7,0,7.1
		c0,0.5-0.2,1-0.5,1.4C1165,719.4,1161.5,717.7,1159.2,714.5z M1176.8,717.2c-2,1.4-4.2,2.2-6.5,2.4c-0.3-0.4-0.5-0.9-0.5-1.4
		c-0.2-2.4-0.2-4.8,0-7.2c0-0.4,0.1-0.7,0.2-0.9c0.4-0.1,0.9-0.3,1.2-0.5c0.4-0.3,0.7-0.6,0.9-1c0.3,0,0.6,0,1,0.1
		c2.3,0.6,4.6,1.3,6.8,2.2c0.5,0.2,0.9,0.5,1.2,0.9C1180.2,713.8,1178.8,715.7,1176.8,717.2z M1181.5,710c-0.5,0.1-1,0.2-1.5,0.1
		c-2.3-0.6-4.6-1.3-6.8-2.2c-0.3-0.1-0.6-0.3-0.8-0.5c0.1-0.8-0.1-1.5-0.6-2.2c-0.1-0.1-0.2-0.2-0.2-0.3c0.1-0.3,0.2-0.6,0.4-0.9
		c1.2-2,2.6-3.9,4.2-5.8c0.3-0.4,0.8-0.7,1.2-0.9c0.8,0.6,1.5,1.4,2.1,2.3C1181.7,702.7,1182.4,706.5,1181.5,710z"/>
	<g id="XMLID_10_">
		<path id="XMLID_105_" class="st1" d="M1030.2,937.5c1.3-1.6,2.5-3.3,3.6-5c0.2-0.4,0.3-0.8,0.3-1.3c-3.5-2.1-7.9-2.2-11.5,0.1
			c0,0.4,0.2,0.8,0.4,1.2c1.1,1.7,2.3,3.4,3.6,5c0.2,0.2,0.4,0.4,0.6,0.6c0.7-0.3,1.6-0.3,2.3,0
			C1029.8,937.9,1030,937.7,1030.2,937.5z"/>
		<path id="XMLID_104_" class="st1" d="M1028,943c-0.6-0.1-1.2-0.5-1.7-1c-0.1-0.1-0.1-0.2-0.2-0.3c-0.3,0-0.5,0-0.8,0.1
			c-2,0.5-3.9,1.2-5.9,1.9c-0.4,0.2-0.8,0.5-1,0.8c0.3,0.8,0.8,1.6,1.3,2.3c2,2.7,5,4.2,8.1,4.4c0.2-0.4,0.4-0.8,0.4-1.2
			c0.1-2.1,0.1-4.1,0-6.2C1028.2,943.6,1028.1,943.3,1028,943z"/>
		<path id="XMLID_72_" class="st1" d="M1019.3,943.2c2-0.5,4-1.2,5.8-1.9c0.3-0.1,0.5-0.3,0.7-0.4c-0.1-0.8,0.1-1.6,0.7-2.2
			c-0.1-0.2-0.2-0.5-0.3-0.8c-1.1-1.7-2.3-3.4-3.7-5c-0.3-0.3-0.7-0.6-1.1-0.7c-3.2,2.8-4.5,7.1-3.5,11
			C1018.4,943.3,1018.8,943.3,1019.3,943.2z"/>
		<path id="XMLID_19_" class="st1" d="M1035.4,932c-0.4,0.1-0.8,0.4-1.1,0.8c-1.3,1.6-2.5,3.3-3.6,5c-0.2,0.3-0.3,0.5-0.3,0.8
			c0.1,0.1,0.1,0.2,0.2,0.3c0.4,0.6,0.6,1.2,0.5,1.9c0.2,0.2,0.4,0.3,0.7,0.4c1.9,0.7,3.9,1.4,5.9,1.9c0.5,0.1,0.9,0.1,1.3-0.1
			c0.7-3,0.2-6.3-1.8-9C1036.7,933.2,1036.1,932.6,1035.4,932z"/>
		<path id="XMLID_12_" class="st1" d="M1048.9,942.5c0,0-2-1.3-3.9-2.4c-0.1-1.8-0.5-3.6-1.2-5.4c0-0.1-0.1-0.1-0.1-0.2
			c1.2-1.8,2.4-3.9,2.4-3.9c0.3-0.3,0.4-0.8,0.1-1.1l-2.7-3.4c-0.3-0.3-0.7-0.4-1.1-0.2c0,0-2.3,0.7-4.3,1.5c-1.6-1.1-3.3-2-5.2-2.5
			c-0.6-2.1-1.5-4.3-1.5-4.3c0-0.4-0.4-0.8-0.8-0.8l-4.3,0c-0.4,0-0.8,0.3-0.8,0.8c0,0-0.8,2.2-1.5,4.3c-0.6,0.2-1.2,0.4-1.8,0.6
			c-1.2,0.5-2.4,1.1-3.4,1.9c-2-0.8-4.3-1.5-4.3-1.5c-0.3-0.2-0.8-0.2-1.1,0.2l-2.7,3.4c-0.3,0.3-0.2,0.8,0.1,1.1c0,0,1.2,2,2.4,3.8
			c-0.8,1.8-1.2,3.7-1.3,5.6c-1.9,1.1-3.9,2.4-3.9,2.4c-0.4,0.1-0.7,0.5-0.6,1l1,4.2c0.1,0.4,0.5,0.7,0.9,0.6c0,0,2.4,0.3,4.5,0.5
			c0.9,1.7,2.2,3.3,3.6,4.5c-0.3,2.1-0.5,4.5-0.5,4.5c-0.2,0.4,0,0.8,0.4,1l3.9,1.9c0.4,0.2,0.8,0,1.1-0.3c0,0,1.7-1.7,3.2-3.2
			c1.9,0.3,3.8,0.4,5.8,0c1.5,1.6,3.2,3.2,3.2,3.2c0.2,0.4,0.7,0.5,1.1,0.3l3.9-1.9c0.4-0.2,0.6-0.6,0.4-1c0,0-0.2-2.4-0.5-4.5
			c1.5-1.3,2.7-2.8,3.6-4.5c2.1-0.2,4.5-0.5,4.5-0.5c0.4,0.1,0.8-0.2,0.9-0.6l1-4.2C1049.5,943.1,1049.3,942.7,1048.9,942.5z
			 M1042.7,941.8l-0.2,1.6c0,0.2-0.2,0.3-0.3,0.2c0,0-1.6-0.1-2.1,0.1c0,0,0,0,0,0c-0.2,0.5-0.3,1.1-0.6,1.6c0,0,0,0,0,0
			c0.4,0.5,1.5,1.4,1.5,1.4c0.1,0.1,0.2,0.3,0.1,0.4l-0.8,1.4c-0.1,0.1-0.3,0.2-0.4,0.1c0,0-1.4-0.6-2-0.7c0,0,0,0,0,0
			c-0.3,0.4-0.7,0.9-1.1,1.3c0,0,0,0,0,0c0.1,0.6,0.9,1.9,0.9,1.9c0.1,0.1,0.1,0.3-0.1,0.4l-1.3,0.9c-0.1,0.1-0.3,0.1-0.4-0.1
			c0,0-1.1-1.2-1.5-1.4c0,0,0,0,0,0c-0.5,0.3-1,0.5-1.5,0.7c0,0,0,0,0,0c-0.1,0.6,0.1,2.1,0.1,2.1c0,0.2-0.1,0.3-0.2,0.3l-1.5,0.4
			c-0.2,0-0.3,0-0.4-0.2c0,0-0.5-1.5-0.9-1.9c0,0,0,0,0,0c-0.6,0.1-1.1,0.1-1.7,0.1c0,0,0,0,0,0c-0.3,0.5-0.7,2-0.7,2
			c0,0.2-0.2,0.3-0.3,0.2l-1.6-0.2c-0.2,0-0.3-0.2-0.2-0.3c0,0,0.1-1.6-0.1-2.1c0,0,0,0,0,0c-0.5-0.2-1.1-0.3-1.6-0.6c0,0,0,0,0,0
			c-0.5,0.4-1.4,1.5-1.4,1.5c-0.1,0.1-0.3,0.2-0.4,0.1l-1.4-0.8c-0.1-0.1-0.2-0.3-0.1-0.4c0,0,0.6-1.4,0.7-2c0,0,0,0,0,0
			c-0.4-0.3-0.9-0.7-1.3-1.1c0,0,0,0,0,0c-0.6,0.1-1.9,0.9-1.9,0.9c-0.1,0.1-0.3,0.1-0.4-0.1l-0.9-1.3c-0.1-0.1-0.1-0.3,0.1-0.4
			c0,0,1.2-1.1,1.4-1.5c0,0,0,0,0,0c-0.3-0.5-0.5-1-0.7-1.5c0,0,0,0,0,0c-0.6-0.1-2.1,0.1-2.1,0.1c-0.2,0-0.3-0.1-0.3-0.2l-0.4-1.5
			c0-0.2,0-0.3,0.2-0.4c0,0,1.5-0.5,1.9-0.9c0,0,0,0,0,0c-0.1-0.6-0.1-1.1-0.1-1.7c0,0,0,0,0,0c-0.5-0.3-2-0.7-2-0.7
			c-0.2,0-0.3-0.2-0.2-0.3l0.2-1.6c0-0.2,0.2-0.3,0.3-0.2c0,0,1.6,0.1,2.1-0.1c0,0,0,0,0,0c0.2-0.5,0.3-1.1,0.6-1.6c0,0,0,0,0,0
			c-0.4-0.5-1.5-1.4-1.5-1.4c-0.1-0.1-0.2-0.3-0.1-0.4l0.8-1.4c0.1-0.1,0.3-0.2,0.4-0.1c0,0,1.4,0.6,2,0.7c0,0,0,0,0,0
			c0.3-0.4,0.7-0.9,1.1-1.3c0,0,0,0,0,0c-0.1-0.6-0.9-1.9-0.9-1.9c-0.1-0.1-0.1-0.3,0.1-0.4l1.3-0.9c0.1-0.1,0.3-0.1,0.4,0.1
			c0,0,1.1,1.2,1.5,1.4c0,0,0,0,0,0c0.5-0.3,1-0.5,1.5-0.7c0,0,0,0,0,0c0.1-0.6-0.1-2.1-0.1-2.1c0-0.2,0.1-0.3,0.2-0.3l1.5-0.4
			c0.2,0,0.3,0,0.4,0.2c0,0,0.5,1.5,0.9,1.9c0,0,0,0,0,0c0.6-0.1,1.1-0.1,1.7-0.1c0,0,0,0,0,0c0.3-0.5,0.7-2,0.7-2
			c0-0.2,0.2-0.3,0.3-0.2l1.6,0.2c0.2,0,0.3,0.2,0.2,0.3c0,0-0.1,1.6,0.1,2.1c0,0,0,0,0,0c0.5,0.2,1.1,0.3,1.6,0.6c0,0,0,0,0,0
			c0.5-0.4,1.4-1.5,1.4-1.5c0.1-0.1,0.3-0.2,0.4-0.1l1.4,0.8c0.1,0.1,0.2,0.3,0.1,0.4c0,0-0.6,1.4-0.7,2c0,0,0,0,0,0
			c0.4,0.3,0.9,0.7,1.3,1.1c0,0,0,0,0,0c0.6-0.1,1.9-0.9,1.9-0.9c0.1-0.1,0.3-0.1,0.4,0.1l0.9,1.3c0.1,0.1,0.1,0.3-0.1,0.4
			c0,0-1.2,1.1-1.4,1.5c0,0,0,0,0,0c0.3,0.5,0.5,1,0.7,1.5c0,0,0,0,0,0c0.6,0.1,2.1-0.1,2.1-0.1c0.2,0,0.3,0.1,0.3,0.2l0.4,1.5
			c0,0.2,0,0.3-0.2,0.4c0,0-1.5,0.5-1.9,0.9c0,0,0,0,0,0c0.1,0.6,0.1,1.1,0.1,1.7c0,0,0,0,0,0c0.5,0.3,2,0.7,2,0.7
			C1042.7,941.5,1042.8,941.6,1042.7,941.8z"/>
		<path id="XMLID_11_" class="st1" d="M1037.5,943.6c-1.9-0.8-3.9-1.4-5.9-1.9c-0.3-0.1-0.6-0.1-0.9-0.1c-0.2,0.3-0.4,0.6-0.8,0.9
			c-0.3,0.2-0.7,0.4-1.1,0.5c-0.1,0.2-0.1,0.5-0.2,0.8c-0.1,2-0.1,4.1,0,6.2c0.1,0.5,0.2,0.9,0.5,1.2c2-0.2,3.9-0.8,5.6-2.1
			c1.7-1.3,2.9-2.9,3.7-4.8C1038.3,944,1038,943.8,1037.5,943.6z"/>
	</g>
</g>
<g id="Text">
	<g id="XMLID_959_">
		<g id="XMLID_28_">
			<path id="XMLID_956_" d="M832.7,825.5c8.9,0.1,17.4,0.2,25.5,0.2c13.8,0,24.6-0.1,32.4-0.2c-0.8,8.9-1.7,21.5-2.6,37.9
				c-0.9,16.3-1.4,28.7-1.6,37c-7.5,1.4-13.7,2.4-18.6,3c-4.9,0.6-10.8,1.2-17.7,1.7c-6.9,0.5-13.1,0.7-18.5,0.7
				c-8.9,0-17.5-0.7-26.1-2.1c-8.5-1.4-16.2-3.7-22.9-6.9c-6.7-3.2-12.4-7.5-16.8-13s-8-11.9-10.4-19.4c-2.4-7.5-3.7-15.2-3.7-23.2
				c0-13.2,3.3-25.5,9.9-36.8c6.6-11.3,16-20.3,28.4-26.9c12.3-6.6,28.3-9.9,47.8-9.9c14.3,0,30,1.7,47.4,5.2
				c0,9.5,0.4,20.1,1.3,31.7c-4.7-1.6-8.5-2.7-11.4-3.6c-2.9-0.8-6.3-1.6-10.2-2.2c-3.9-0.7-7.6-1.2-11-1.5
				c-3.5-0.3-6.6-0.5-9.3-0.5c-7.2,0-13.9,1-20.3,3.1c-6.4,2.1-11.9,5.2-16.5,9.5c-4.6,4.3-8,9.4-10.3,15.3
				c-2.3,5.9-3.4,12.2-3.4,18.8c0,6.7,1.3,12.7,3.9,17.9c2.6,5.2,6.7,9.2,12.4,12s12,4.1,18.9,4.1c5.8,0,12.1-0.8,19-2.5l1.1-21.2
				c-4.2-0.2-6.8-0.3-7.5-0.3l-10.4,0.1l0.7-12c0.1-1.3,0.2-3.2,0.3-5.6C832.6,833,832.7,829.7,832.7,825.5z"/>
			<path id="XMLID_962_" d="M1280.5,903.2c1-10.4,1.7-18.7,2.1-25c0.5-9.3,1.1-21.3,1.7-36.1c0.4-11.3,0.6-19.4,0.6-24.3v-8
				c5.3,0.1,9.9,0.2,13.8,0.2c3.7,0,8.6-0.1,14.7-0.3c6.1-0.2,11.8-0.3,17.1-0.3c6.1,0,11.5,0.4,16.1,1.1c4.6,0.7,8.9,2.2,12.9,4.5
				c4,2.3,7.3,5.3,10,9c2.7,3.7,4.7,8,6.2,13c1.4,4.9,2.1,10,2.1,15.3c0,5.2-0.5,10.1-1.6,14.9c-1.1,4.8-2.6,9.1-4.6,12.9
				c-2,3.8-4.3,7.1-6.9,9.9c-2.6,2.8-5.6,5.1-9,7.1c-2.5,1.5-5,2.6-7.6,3.4c-2.6,0.8-6,1.5-10.5,2c-4.9,0.5-10.5,0.8-16.7,0.8
				l-27.6-0.2C1290.6,903,1286.4,903.1,1280.5,903.2z M1310.1,882.6c2.5,0.2,5.1,0.3,7.9,0.3c4.6,0,8.8-0.4,12.4-1.2
				c3.6-0.8,6.8-2.6,9.6-5.3c2.8-2.7,4.8-6.1,6.1-10.4c1.3-4.2,2-8.5,2-13c0-5.4-1-10-2.9-13.7c-2-3.7-4.6-6.3-7.8-7.8
				c-3.3-1.5-7.7-2.2-13.3-2.2c-3.3,0-7.2,0.1-11.6,0.4L1310.1,882.6z"/>
		</g>
		<g id="XMLID_27_">
			<path id="XMLID_940_" class="st15" d="M832.7,825.5c8.9,0.1,17.4,0.2,25.5,0.2c13.8,0,24.6-0.1,32.4-0.2
				c-0.8,8.9-1.7,21.5-2.6,37.9c-0.9,16.3-1.4,28.7-1.6,37c-7.5,1.4-13.7,2.4-18.6,3c-4.9,0.6-10.8,1.2-17.7,1.7
				c-6.9,0.5-13.1,0.7-18.5,0.7c-8.9,0-17.5-0.7-26.1-2.1c-8.5-1.4-16.2-3.7-22.9-6.9c-6.7-3.2-12.4-7.5-16.8-13s-8-11.9-10.4-19.4
				c-2.4-7.5-3.7-15.2-3.7-23.2c0-13.2,3.3-25.5,9.9-36.8c6.6-11.3,16-20.3,28.4-26.9c12.3-6.6,28.3-9.9,47.8-9.9
				c14.3,0,30,1.7,47.4,5.2c0,9.5,0.4,20.1,1.3,31.7c-4.7-1.6-8.5-2.7-11.4-3.6c-2.9-0.8-6.3-1.6-10.2-2.2c-3.9-0.7-7.6-1.2-11-1.5
				c-3.5-0.3-6.6-0.5-9.3-0.5c-7.2,0-13.9,1-20.3,3.1c-6.4,2.1-11.9,5.2-16.5,9.5c-4.6,4.3-8,9.4-10.3,15.3
				c-2.3,5.9-3.4,12.2-3.4,18.8c0,6.7,1.3,12.7,3.9,17.9c2.6,5.2,6.7,9.2,12.4,12s12,4.1,18.9,4.1c5.8,0,12.1-0.8,19-2.5l1.1-21.2
				c-4.2-0.2-6.8-0.3-7.5-0.3l-10.4,0.1l0.7-12c0.1-1.3,0.2-3.2,0.3-5.6C832.6,833,832.7,829.7,832.7,825.5z"/>
			<path id="XMLID_942_" class="st15" d="M1280.5,903.2c1-10.4,1.7-18.7,2.1-25c0.5-9.3,1.1-21.3,1.7-36.1
				c0.4-11.3,0.6-19.4,0.6-24.3v-8c5.3,0.1,9.9,0.2,13.8,0.2c3.7,0,8.6-0.1,14.7-0.3c6.1-0.2,11.8-0.3,17.1-0.3
				c6.1,0,11.5,0.4,16.1,1.1c4.6,0.7,8.9,2.2,12.9,4.5c4,2.3,7.3,5.3,10,9c2.7,3.7,4.7,8,6.2,13c1.4,4.9,2.1,10,2.1,15.3
				c0,5.2-0.5,10.1-1.6,14.9c-1.1,4.8-2.6,9.1-4.6,12.9c-2,3.8-4.3,7.1-6.9,9.9c-2.6,2.8-5.6,5.1-9,7.1c-2.5,1.5-5,2.6-7.6,3.4
				c-2.6,0.8-6,1.5-10.5,2c-4.9,0.5-10.5,0.8-16.7,0.8l-27.6-0.2C1290.6,903,1286.4,903.1,1280.5,903.2z M1310.1,882.6
				c2.5,0.2,5.1,0.3,7.9,0.3c4.6,0,8.8-0.4,12.4-1.2c3.6-0.8,6.8-2.6,9.6-5.3c2.8-2.7,4.8-6.1,6.1-10.4c1.3-4.2,2-8.5,2-13
				c0-5.4-1-10-2.9-13.7c-2-3.7-4.6-6.3-7.8-7.8c-3.3-1.5-7.7-2.2-13.3-2.2c-3.3,0-7.2,0.1-11.6,0.4L1310.1,882.6z"/>
		</g>
		<g id="XMLID_26_">
			<path id="XMLID_934_" class="st16" d="M832.7,825.5c8.9,0.1,17.4,0.2,25.5,0.2c13.8,0,24.6-0.1,32.4-0.2
				c-0.8,8.9-1.7,21.5-2.6,37.9c-0.9,16.3-1.4,28.7-1.6,37c-7.5,1.4-13.7,2.4-18.6,3c-4.9,0.6-10.8,1.2-17.7,1.7
				c-6.9,0.5-13.1,0.7-18.5,0.7c-8.9,0-17.5-0.7-26.1-2.1c-8.5-1.4-16.2-3.7-22.9-6.9c-6.7-3.2-12.4-7.5-16.8-13s-8-11.9-10.4-19.4
				c-2.4-7.5-3.7-15.2-3.7-23.2c0-13.2,3.3-25.5,9.9-36.8c6.6-11.3,16-20.3,28.4-26.9c12.3-6.6,28.3-9.9,47.8-9.9
				c14.3,0,30,1.7,47.4,5.2c0,9.5,0.4,20.1,1.3,31.7c-4.7-1.6-8.5-2.7-11.4-3.6c-2.9-0.8-6.3-1.6-10.2-2.2c-3.9-0.7-7.6-1.2-11-1.5
				c-3.5-0.3-6.6-0.5-9.3-0.5c-7.2,0-13.9,1-20.3,3.1c-6.4,2.1-11.9,5.2-16.5,9.5c-4.6,4.3-8,9.4-10.3,15.3
				c-2.3,5.9-3.4,12.2-3.4,18.8c0,6.7,1.3,12.7,3.9,17.9c2.6,5.2,6.7,9.2,12.4,12s12,4.1,18.9,4.1c5.8,0,12.1-0.8,19-2.5l1.1-21.2
				c-4.2-0.2-6.8-0.3-7.5-0.3l-10.4,0.1l0.7-12c0.1-1.3,0.2-3.2,0.3-5.6C832.6,833,832.7,829.7,832.7,825.5z"/>
			<path id="XMLID_936_" class="st16" d="M1280.5,903.2c1-10.4,1.7-18.7,2.1-25c0.5-9.3,1.1-21.3,1.7-36.1
				c0.4-11.3,0.6-19.4,0.6-24.3v-8c5.3,0.1,9.9,0.2,13.8,0.2c3.7,0,8.6-0.1,14.7-0.3c6.1-0.2,11.8-0.3,17.1-0.3
				c6.1,0,11.5,0.4,16.1,1.1c4.6,0.7,8.9,2.2,12.9,4.5c4,2.3,7.3,5.3,10,9c2.7,3.7,4.7,8,6.2,13c1.4,4.9,2.1,10,2.1,15.3
				c0,5.2-0.5,10.1-1.6,14.9c-1.1,4.8-2.6,9.1-4.6,12.9c-2,3.8-4.3,7.1-6.9,9.9c-2.6,2.8-5.6,5.1-9,7.1c-2.5,1.5-5,2.6-7.6,3.4
				c-2.6,0.8-6,1.5-10.5,2c-4.9,0.5-10.5,0.8-16.7,0.8l-27.6-0.2C1290.6,903,1286.4,903.1,1280.5,903.2z M1310.1,882.6
				c2.5,0.2,5.1,0.3,7.9,0.3c4.6,0,8.8-0.4,12.4-1.2c3.6-0.8,6.8-2.6,9.6-5.3c2.8-2.7,4.8-6.1,6.1-10.4c1.3-4.2,2-8.5,2-13
				c0-5.4-1-10-2.9-13.7c-2-3.7-4.6-6.3-7.8-7.8c-3.3-1.5-7.7-2.2-13.3-2.2c-3.3,0-7.2,0.1-11.6,0.4L1310.1,882.6z"/>
		</g>
		<g id="XMLID_25_">
			<path id="XMLID_929_" class="st1" d="M832.7,825.5c8.9,0.1,17.4,0.2,25.5,0.2c13.8,0,24.6-0.1,32.4-0.2
				c-0.8,8.9-1.7,21.5-2.6,37.9c-0.9,16.3-1.4,28.7-1.6,37c-7.5,1.4-13.7,2.4-18.6,3c-4.9,0.6-10.8,1.2-17.7,1.7
				c-6.9,0.5-13.1,0.7-18.5,0.7c-8.9,0-17.5-0.7-26.1-2.1c-8.5-1.4-16.2-3.7-22.9-6.9c-6.7-3.2-12.4-7.5-16.8-13s-8-11.9-10.4-19.4
				c-2.4-7.5-3.7-15.2-3.7-23.2c0-13.2,3.3-25.5,9.9-36.8c6.6-11.3,16-20.3,28.4-26.9c12.3-6.6,28.3-9.9,47.8-9.9
				c14.3,0,30,1.7,47.4,5.2c0,9.5,0.4,20.1,1.3,31.7c-4.7-1.6-8.5-2.7-11.4-3.6c-2.9-0.8-6.3-1.6-10.2-2.2c-3.9-0.7-7.6-1.2-11-1.5
				c-3.5-0.3-6.6-0.5-9.3-0.5c-7.2,0-13.9,1-20.3,3.1c-6.4,2.1-11.9,5.2-16.5,9.5c-4.6,4.3-8,9.4-10.3,15.3
				c-2.3,5.9-3.4,12.2-3.4,18.8c0,6.7,1.3,12.7,3.9,17.9c2.6,5.2,6.7,9.2,12.4,12s12,4.1,18.9,4.1c5.8,0,12.1-0.8,19-2.5l1.1-21.2
				c-4.2-0.2-6.8-0.3-7.5-0.3l-10.4,0.1l0.7-12c0.1-1.3,0.2-3.2,0.3-5.6C832.6,833,832.7,829.7,832.7,825.5z"/>
			<path id="XMLID_931_" class="st1" d="M1280.5,903.2c1-10.4,1.7-18.7,2.1-25c0.5-9.3,1.1-21.3,1.7-36.1
				c0.4-11.3,0.6-19.4,0.6-24.3v-8c5.3,0.1,9.9,0.2,13.8,0.2c3.7,0,8.6-0.1,14.7-0.3c6.1-0.2,11.8-0.3,17.1-0.3
				c6.1,0,11.5,0.4,16.1,1.1c4.6,0.7,8.9,2.2,12.9,4.5c4,2.3,7.3,5.3,10,9c2.7,3.7,4.7,8,6.2,13c1.4,4.9,2.1,10,2.1,15.3
				c0,5.2-0.5,10.1-1.6,14.9c-1.1,4.8-2.6,9.1-4.6,12.9c-2,3.8-4.3,7.1-6.9,9.9c-2.6,2.8-5.6,5.1-9,7.1c-2.5,1.5-5,2.6-7.6,3.4
				c-2.6,0.8-6,1.5-10.5,2c-4.9,0.5-10.5,0.8-16.7,0.8l-27.6-0.2C1290.6,903,1286.4,903.1,1280.5,903.2z M1310.1,882.6
				c2.5,0.2,5.1,0.3,7.9,0.3c4.6,0,8.8-0.4,12.4-1.2c3.6-0.8,6.8-2.6,9.6-5.3c2.8-2.7,4.8-6.1,6.1-10.4c1.3-4.2,2-8.5,2-13
				c0-5.4-1-10-2.9-13.7c-2-3.7-4.6-6.3-7.8-7.8c-3.3-1.5-7.7-2.2-13.3-2.2c-3.3,0-7.2,0.1-11.6,0.4L1310.1,882.6z"/>
		</g>
	</g>
	<g id="XMLID_904_">
		<g id="XMLID_24_">
			<path id="XMLID_918_" d="M1559.7,825.5c8.9,0.1,17.4,0.2,25.5,0.2c13.8,0,24.6-0.1,32.4-0.2c-0.8,8.9-1.7,21.5-2.6,37.9
				c-0.9,16.3-1.4,28.7-1.6,37c-7.5,1.4-13.7,2.4-18.6,3c-4.9,0.6-10.8,1.2-17.7,1.7c-6.9,0.5-13.1,0.7-18.5,0.7
				c-8.9,0-17.5-0.7-26.1-2.1c-8.5-1.4-16.2-3.7-22.9-6.9c-6.7-3.2-12.4-7.5-16.8-13s-8-11.9-10.4-19.4c-2.4-7.5-3.7-15.2-3.7-23.2
				c0-13.2,3.3-25.5,9.9-36.8c6.6-11.3,16-20.3,28.4-26.9c12.3-6.6,28.3-9.9,47.8-9.9c14.3,0,30,1.7,47.4,5.2
				c0,9.5,0.4,20.1,1.3,31.7c-4.7-1.6-8.5-2.7-11.4-3.6c-2.9-0.8-6.3-1.6-10.2-2.2c-3.9-0.7-7.6-1.2-11-1.5
				c-3.5-0.3-6.6-0.5-9.3-0.5c-7.2,0-13.9,1-20.3,3.1c-6.4,2.1-11.9,5.2-16.5,9.5c-4.6,4.3-8,9.4-10.3,15.3
				c-2.3,5.9-3.4,12.2-3.4,18.8c0,6.7,1.3,12.7,3.9,17.9c2.6,5.2,6.7,9.2,12.4,12s12,4.1,18.9,4.1c5.8,0,12.1-0.8,19-2.5l1.1-21.2
				c-4.2-0.2-6.8-0.3-7.5-0.3l-10.4,0.1l0.7-12c0.1-1.3,0.2-3.2,0.3-5.6C1559.6,833,1559.7,829.7,1559.7,825.5z"/>
			<path id="XMLID_920_" d="M1634.3,903.2c1.1-11.8,2-21.6,2.5-29.5s1.1-18.5,1.6-31.6c0.5-13.1,0.8-21.9,0.8-26.1l-0.1-6
				c10.8,0.1,23.8,0.1,39,0.1c14.1,0,26.5,0,37.3-0.1l-0.1,2.2c0,0.5-0.2,2.5-0.3,5.9l-0.4,7.4c-0.1,1.6-0.1,3.2-0.1,4.8
				c-8.8-0.4-16.2-0.5-22.1-0.5c-6.6,0-11,0-13.3,0c-2.3,0-5.9,0.1-10.8,0.3l-0.8,15.7c5.4,0.1,11.6,0.2,18.8,0.2
				c2.6,0,9.3-0.2,20.4-0.5c-0.5,5.8-0.9,12.8-1.3,20.8c-7.9-0.1-13.9-0.1-18.2-0.1c-6.3,0-13.3,0.2-21.1,0.5l-0.8,16.6h7.9
				c2.3,0,7.1-0.1,14.4-0.2l14.1-0.3c2.1,0,5.6-0.2,10.5-0.5c-0.5,6.7-1,13.7-1.4,20.9c-11.1-0.1-23.3-0.1-36.6-0.1l-30.1,0.1
				L1634.3,903.2z"/>
			<path id="XMLID_922_" d="M1726.6,903.2c1.1-11.8,2-21.6,2.5-29.5s1.1-18.5,1.6-31.6c0.5-13.1,0.8-21.9,0.8-26.1l-0.1-6
				c10.8,0.1,23.8,0.1,39,0.1c14.1,0,26.5,0,37.3-0.1l-0.1,2.2c0,0.5-0.2,2.5-0.3,5.9l-0.4,7.4c-0.1,1.6-0.1,3.2-0.1,4.8
				c-8.8-0.4-16.2-0.5-22.1-0.5c-6.6,0-11,0-13.3,0c-2.3,0-5.9,0.1-10.8,0.3l-0.8,15.7c5.4,0.1,11.6,0.2,18.8,0.2
				c2.6,0,9.3-0.2,20.4-0.5c-0.5,5.8-0.9,12.8-1.3,20.8c-7.9-0.1-13.9-0.1-18.2-0.1c-6.3,0-13.3,0.2-21.1,0.5l-0.8,16.6h7.9
				c2.3,0,7.1-0.1,14.4-0.2l14.1-0.3c2.1,0,5.6-0.2,10.5-0.5c-0.5,6.7-1,13.7-1.4,20.9c-11.1-0.1-23.3-0.1-36.6-0.1l-30.1,0.1
				L1726.6,903.2z"/>
			<path id="XMLID_924_" d="M1818.9,903.2c0.9-8.5,1.5-15.6,1.9-21.2c0.7-9.9,1.4-23.5,2.2-40.8c0.5-12,0.8-20.5,0.8-25.4v-5.9
				c7.6,0.1,12.8,0.1,15.7,0.1c1.9,0,6.8,0,14.8-0.1L1851,861l-1.7,42.2l-14.8-0.1C1832.4,903.1,1827.2,903.1,1818.9,903.2z
				 M1853.1,853.9l15.3-20.8l12.4-17.3l3.8-5.9c8.5,0.1,14.2,0.1,17.2,0.1c0.8,0,6.3,0,16.3-0.1l-28.8,36.4l-5.4,7.3l5.1,8.1
				l28.6,41.5l-16.8-0.1c-3.6,0-9.8,0-18.5,0.1C1876.4,892.1,1866.7,875.7,1853.1,853.9z"/>
			<path id="XMLID_927_" d="M1925.3,901.8c-0.6-9.7-1.3-17.5-2.1-23.3c5.1,2.3,9.7,3.9,13.7,4.8c4,0.9,7.5,1.3,10.5,1.3
				c4,0,7.1-0.6,9.5-1.7s3.5-2.9,3.5-5.2c0-0.8-0.1-1.5-0.3-2.2c-0.2-0.7-0.7-1.5-1.3-2.4c-0.6-0.9-1.6-1.9-2.7-2.9l-12.9-11.2
				c-3-2.6-5.1-4.4-6.3-5.5c-2.4-2.3-4.3-4.5-5.7-6.5c-1.3-2-2.3-4-2.9-6.1c-0.6-2.1-0.9-4.3-0.9-6.6c0-2.8,0.5-5.5,1.5-8.2
				s2.4-5.2,4.4-7.5c2-2.3,4.6-4.3,7.8-6c3.2-1.7,6.7-2.8,10.4-3.5s7.5-0.9,11.4-0.9c7.7,0,16.1,0.9,25.2,2.7c0.1,3.1,0.3,6,0.5,8.6
				c0.2,2.6,0.6,7.2,1.3,13.8c-4.2-1.7-8-2.9-11.5-3.5c-3.5-0.7-6.4-1-9-1c-3.6,0-6.5,0.7-8.9,2c-2.3,1.3-3.5,3-3.5,4.9
				c0,0.9,0.2,1.8,0.5,2.7c0.4,0.9,1,1.9,2.1,3c1,1.2,2.3,2.4,4,3.8c1.6,1.4,4.2,3.5,7.7,6.2l4.9,3.9c1.5,1.2,3,2.6,4.7,4.3
				c1.7,1.7,3.1,3.3,4.4,5s2.2,3.1,2.8,4.5s1.2,2.7,1.5,4.1c0.3,1.4,0.5,2.9,0.5,4.5c0,4.1-1,8-2.9,11.7c-2,3.7-4.7,6.8-8.3,9.2
				c-3.6,2.4-7.6,4.1-11.9,5s-8.9,1.4-13.6,1.4C1945.8,905,1936.5,903.9,1925.3,901.8z"/>
		</g>
		<g id="XMLID_23_">
			<path id="XMLID_470_" class="st15" d="M1559.7,825.5c8.9,0.1,17.4,0.2,25.5,0.2c13.8,0,24.6-0.1,32.4-0.2
				c-0.8,8.9-1.7,21.5-2.6,37.9c-0.9,16.3-1.4,28.7-1.6,37c-7.5,1.4-13.7,2.4-18.6,3c-4.9,0.6-10.8,1.2-17.7,1.7
				c-6.9,0.5-13.1,0.7-18.5,0.7c-8.9,0-17.5-0.7-26.1-2.1c-8.5-1.4-16.2-3.7-22.9-6.9c-6.7-3.2-12.4-7.5-16.8-13s-8-11.9-10.4-19.4
				c-2.4-7.5-3.7-15.2-3.7-23.2c0-13.2,3.3-25.5,9.9-36.8c6.6-11.3,16-20.3,28.4-26.9c12.3-6.6,28.3-9.9,47.8-9.9
				c14.3,0,30,1.7,47.4,5.2c0,9.5,0.4,20.1,1.3,31.7c-4.7-1.6-8.5-2.7-11.4-3.6c-2.9-0.8-6.3-1.6-10.2-2.2c-3.9-0.7-7.6-1.2-11-1.5
				c-3.5-0.3-6.6-0.5-9.3-0.5c-7.2,0-13.9,1-20.3,3.1c-6.4,2.1-11.9,5.2-16.5,9.5c-4.6,4.3-8,9.4-10.3,15.3
				c-2.3,5.9-3.4,12.2-3.4,18.8c0,6.7,1.3,12.7,3.9,17.9c2.6,5.2,6.7,9.2,12.4,12s12,4.1,18.9,4.1c5.8,0,12.1-0.8,19-2.5l1.1-21.2
				c-4.2-0.2-6.8-0.3-7.5-0.3l-10.4,0.1l0.7-12c0.1-1.3,0.2-3.2,0.3-5.6C1559.6,833,1559.7,829.7,1559.7,825.5z"/>
			<path id="XMLID_531_" class="st15" d="M1634.3,903.2c1.1-11.8,2-21.6,2.5-29.5s1.1-18.5,1.6-31.6c0.5-13.1,0.8-21.9,0.8-26.1
				l-0.1-6c10.8,0.1,23.8,0.1,39,0.1c14.1,0,26.5,0,37.3-0.1l-0.1,2.2c0,0.5-0.2,2.5-0.3,5.9l-0.4,7.4c-0.1,1.6-0.1,3.2-0.1,4.8
				c-8.8-0.4-16.2-0.5-22.1-0.5c-6.6,0-11,0-13.3,0c-2.3,0-5.9,0.1-10.8,0.3l-0.8,15.7c5.4,0.1,11.6,0.2,18.8,0.2
				c2.6,0,9.3-0.2,20.4-0.5c-0.5,5.8-0.9,12.8-1.3,20.8c-7.9-0.1-13.9-0.1-18.2-0.1c-6.3,0-13.3,0.2-21.1,0.5l-0.8,16.6h7.9
				c2.3,0,7.1-0.1,14.4-0.2l14.1-0.3c2.1,0,5.6-0.2,10.5-0.5c-0.5,6.7-1,13.7-1.4,20.9c-11.1-0.1-23.3-0.1-36.6-0.1l-30.1,0.1
				L1634.3,903.2z"/>
			<path id="XMLID_533_" class="st15" d="M1726.6,903.2c1.1-11.8,2-21.6,2.5-29.5s1.1-18.5,1.6-31.6c0.5-13.1,0.8-21.9,0.8-26.1
				l-0.1-6c10.8,0.1,23.8,0.1,39,0.1c14.1,0,26.5,0,37.3-0.1l-0.1,2.2c0,0.5-0.2,2.5-0.3,5.9l-0.4,7.4c-0.1,1.6-0.1,3.2-0.1,4.8
				c-8.8-0.4-16.2-0.5-22.1-0.5c-6.6,0-11,0-13.3,0c-2.3,0-5.9,0.1-10.8,0.3l-0.8,15.7c5.4,0.1,11.6,0.2,18.8,0.2
				c2.6,0,9.3-0.2,20.4-0.5c-0.5,5.8-0.9,12.8-1.3,20.8c-7.9-0.1-13.9-0.1-18.2-0.1c-6.3,0-13.3,0.2-21.1,0.5l-0.8,16.6h7.9
				c2.3,0,7.1-0.1,14.4-0.2l14.1-0.3c2.1,0,5.6-0.2,10.5-0.5c-0.5,6.7-1,13.7-1.4,20.9c-11.1-0.1-23.3-0.1-36.6-0.1l-30.1,0.1
				L1726.6,903.2z"/>
			<path id="XMLID_913_" class="st15" d="M1818.9,903.2c0.9-8.5,1.5-15.6,1.9-21.2c0.7-9.9,1.4-23.5,2.2-40.8
				c0.5-12,0.8-20.5,0.8-25.4v-5.9c7.6,0.1,12.8,0.1,15.7,0.1c1.9,0,6.8,0,14.8-0.1L1851,861l-1.7,42.2l-14.8-0.1
				C1832.4,903.1,1827.2,903.1,1818.9,903.2z M1853.1,853.9l15.3-20.8l12.4-17.3l3.8-5.9c8.5,0.1,14.2,0.1,17.2,0.1
				c0.8,0,6.3,0,16.3-0.1l-28.8,36.4l-5.4,7.3l5.1,8.1l28.6,41.5l-16.8-0.1c-3.6,0-9.8,0-18.5,0.1
				C1876.4,892.1,1866.7,875.7,1853.1,853.9z"/>
			<path id="XMLID_916_" class="st15" d="M1925.3,901.8c-0.6-9.7-1.3-17.5-2.1-23.3c5.1,2.3,9.7,3.9,13.7,4.8
				c4,0.9,7.5,1.3,10.5,1.3c4,0,7.1-0.6,9.5-1.7s3.5-2.9,3.5-5.2c0-0.8-0.1-1.5-0.3-2.2c-0.2-0.7-0.7-1.5-1.3-2.4
				c-0.6-0.9-1.6-1.9-2.7-2.9l-12.9-11.2c-3-2.6-5.1-4.4-6.3-5.5c-2.4-2.3-4.3-4.5-5.7-6.5c-1.3-2-2.3-4-2.9-6.1
				c-0.6-2.1-0.9-4.3-0.9-6.6c0-2.8,0.5-5.5,1.5-8.2s2.4-5.2,4.4-7.5c2-2.3,4.6-4.3,7.8-6c3.2-1.7,6.7-2.8,10.4-3.5
				s7.5-0.9,11.4-0.9c7.7,0,16.1,0.9,25.2,2.7c0.1,3.1,0.3,6,0.5,8.6c0.2,2.6,0.6,7.2,1.3,13.8c-4.2-1.7-8-2.9-11.5-3.5
				c-3.5-0.7-6.4-1-9-1c-3.6,0-6.5,0.7-8.9,2c-2.3,1.3-3.5,3-3.5,4.9c0,0.9,0.2,1.8,0.5,2.7c0.4,0.9,1,1.9,2.1,3
				c1,1.2,2.3,2.4,4,3.8c1.6,1.4,4.2,3.5,7.7,6.2l4.9,3.9c1.5,1.2,3,2.6,4.7,4.3c1.7,1.7,3.1,3.3,4.4,5s2.2,3.1,2.8,4.5
				s1.2,2.7,1.5,4.1c0.3,1.4,0.5,2.9,0.5,4.5c0,4.1-1,8-2.9,11.7c-2,3.7-4.7,6.8-8.3,9.2c-3.6,2.4-7.6,4.1-11.9,5s-8.9,1.4-13.6,1.4
				C1945.8,905,1936.5,903.9,1925.3,901.8z"/>
		</g>
		<g id="XMLID_22_">
			<path id="XMLID_302_" class="st16" d="M1559.7,825.5c8.9,0.1,17.4,0.2,25.5,0.2c13.8,0,24.6-0.1,32.4-0.2
				c-0.8,8.9-1.7,21.5-2.6,37.9c-0.9,16.3-1.4,28.7-1.6,37c-7.5,1.4-13.7,2.4-18.6,3c-4.9,0.6-10.8,1.2-17.7,1.7
				c-6.9,0.5-13.1,0.7-18.5,0.7c-8.9,0-17.5-0.7-26.1-2.1c-8.5-1.4-16.2-3.7-22.9-6.9c-6.7-3.2-12.4-7.5-16.8-13s-8-11.9-10.4-19.4
				c-2.4-7.5-3.7-15.2-3.7-23.2c0-13.2,3.3-25.5,9.9-36.8c6.6-11.3,16-20.3,28.4-26.9c12.3-6.6,28.3-9.9,47.8-9.9
				c14.3,0,30,1.7,47.4,5.2c0,9.5,0.4,20.1,1.3,31.7c-4.7-1.6-8.5-2.7-11.4-3.6c-2.9-0.8-6.3-1.6-10.2-2.2c-3.9-0.7-7.6-1.2-11-1.5
				c-3.5-0.3-6.6-0.5-9.3-0.5c-7.2,0-13.9,1-20.3,3.1c-6.4,2.1-11.9,5.2-16.5,9.5c-4.6,4.3-8,9.4-10.3,15.3
				c-2.3,5.9-3.4,12.2-3.4,18.8c0,6.7,1.3,12.7,3.9,17.9c2.6,5.2,6.7,9.2,12.4,12s12,4.1,18.9,4.1c5.8,0,12.1-0.8,19-2.5l1.1-21.2
				c-4.2-0.2-6.8-0.3-7.5-0.3l-10.4,0.1l0.7-12c0.1-1.3,0.2-3.2,0.3-5.6C1559.6,833,1559.7,829.7,1559.7,825.5z"/>
			<path id="XMLID_314_" class="st16" d="M1634.3,903.2c1.1-11.8,2-21.6,2.5-29.5s1.1-18.5,1.6-31.6c0.5-13.1,0.8-21.9,0.8-26.1
				l-0.1-6c10.8,0.1,23.8,0.1,39,0.1c14.1,0,26.5,0,37.3-0.1l-0.1,2.2c0,0.5-0.2,2.5-0.3,5.9l-0.4,7.4c-0.1,1.6-0.1,3.2-0.1,4.8
				c-8.8-0.4-16.2-0.5-22.1-0.5c-6.6,0-11,0-13.3,0c-2.3,0-5.9,0.1-10.8,0.3l-0.8,15.7c5.4,0.1,11.6,0.2,18.8,0.2
				c2.6,0,9.3-0.2,20.4-0.5c-0.5,5.8-0.9,12.8-1.3,20.8c-7.9-0.1-13.9-0.1-18.2-0.1c-6.3,0-13.3,0.2-21.1,0.5l-0.8,16.6h7.9
				c2.3,0,7.1-0.1,14.4-0.2l14.1-0.3c2.1,0,5.6-0.2,10.5-0.5c-0.5,6.7-1,13.7-1.4,20.9c-11.1-0.1-23.3-0.1-36.6-0.1l-30.1,0.1
				L1634.3,903.2z"/>
			<path id="XMLID_316_" class="st16" d="M1726.6,903.2c1.1-11.8,2-21.6,2.5-29.5s1.1-18.5,1.6-31.6c0.5-13.1,0.8-21.9,0.8-26.1
				l-0.1-6c10.8,0.1,23.8,0.1,39,0.1c14.1,0,26.5,0,37.3-0.1l-0.1,2.2c0,0.5-0.2,2.5-0.3,5.9l-0.4,7.4c-0.1,1.6-0.1,3.2-0.1,4.8
				c-8.8-0.4-16.2-0.5-22.1-0.5c-6.6,0-11,0-13.3,0c-2.3,0-5.9,0.1-10.8,0.3l-0.8,15.7c5.4,0.1,11.6,0.2,18.8,0.2
				c2.6,0,9.3-0.2,20.4-0.5c-0.5,5.8-0.9,12.8-1.3,20.8c-7.9-0.1-13.9-0.1-18.2-0.1c-6.3,0-13.3,0.2-21.1,0.5l-0.8,16.6h7.9
				c2.3,0,7.1-0.1,14.4-0.2l14.1-0.3c2.1,0,5.6-0.2,10.5-0.5c-0.5,6.7-1,13.7-1.4,20.9c-11.1-0.1-23.3-0.1-36.6-0.1l-30.1,0.1
				L1726.6,903.2z"/>
			<path id="XMLID_465_" class="st16" d="M1818.9,903.2c0.9-8.5,1.5-15.6,1.9-21.2c0.7-9.9,1.4-23.5,2.2-40.8
				c0.5-12,0.8-20.5,0.8-25.4v-5.9c7.6,0.1,12.8,0.1,15.7,0.1c1.9,0,6.8,0,14.8-0.1L1851,861l-1.7,42.2l-14.8-0.1
				C1832.4,903.1,1827.2,903.1,1818.9,903.2z M1853.1,853.9l15.3-20.8l12.4-17.3l3.8-5.9c8.5,0.1,14.2,0.1,17.2,0.1
				c0.8,0,6.3,0,16.3-0.1l-28.8,36.4l-5.4,7.3l5.1,8.1l28.6,41.5l-16.8-0.1c-3.6,0-9.8,0-18.5,0.1
				C1876.4,892.1,1866.7,875.7,1853.1,853.9z"/>
			<path id="XMLID_468_" class="st16" d="M1925.3,901.8c-0.6-9.7-1.3-17.5-2.1-23.3c5.1,2.3,9.7,3.9,13.7,4.8
				c4,0.9,7.5,1.3,10.5,1.3c4,0,7.1-0.6,9.5-1.7s3.5-2.9,3.5-5.2c0-0.8-0.1-1.5-0.3-2.2c-0.2-0.7-0.7-1.5-1.3-2.4
				c-0.6-0.9-1.6-1.9-2.7-2.9l-12.9-11.2c-3-2.6-5.1-4.4-6.3-5.5c-2.4-2.3-4.3-4.5-5.7-6.5c-1.3-2-2.3-4-2.9-6.1
				c-0.6-2.1-0.9-4.3-0.9-6.6c0-2.8,0.5-5.5,1.5-8.2s2.4-5.2,4.4-7.5c2-2.3,4.6-4.3,7.8-6c3.2-1.7,6.7-2.8,10.4-3.5
				s7.5-0.9,11.4-0.9c7.7,0,16.1,0.9,25.2,2.7c0.1,3.1,0.3,6,0.5,8.6c0.2,2.6,0.6,7.2,1.3,13.8c-4.2-1.7-8-2.9-11.5-3.5
				c-3.5-0.7-6.4-1-9-1c-3.6,0-6.5,0.7-8.9,2c-2.3,1.3-3.5,3-3.5,4.9c0,0.9,0.2,1.8,0.5,2.7c0.4,0.9,1,1.9,2.1,3
				c1,1.2,2.3,2.4,4,3.8c1.6,1.4,4.2,3.5,7.7,6.2l4.9,3.9c1.5,1.2,3,2.6,4.7,4.3c1.7,1.7,3.1,3.3,4.4,5s2.2,3.1,2.8,4.5
				s1.2,2.7,1.5,4.1c0.3,1.4,0.5,2.9,0.5,4.5c0,4.1-1,8-2.9,11.7c-2,3.7-4.7,6.8-8.3,9.2c-3.6,2.4-7.6,4.1-11.9,5s-8.9,1.4-13.6,1.4
				C1945.8,905,1936.5,903.9,1925.3,901.8z"/>
		</g>
		<g id="XMLID_18_">
			<path id="XMLID_128_" class="st1" d="M1559.7,825.5c8.9,0.1,17.4,0.2,25.5,0.2c13.8,0,24.6-0.1,32.4-0.2
				c-0.8,8.9-1.7,21.5-2.6,37.9c-0.9,16.3-1.4,28.7-1.6,37c-7.5,1.4-13.7,2.4-18.6,3c-4.9,0.6-10.8,1.2-17.7,1.7
				c-6.9,0.5-13.1,0.7-18.5,0.7c-8.9,0-17.5-0.7-26.1-2.1c-8.5-1.4-16.2-3.7-22.9-6.9c-6.7-3.2-12.4-7.5-16.8-13s-8-11.9-10.4-19.4
				c-2.4-7.5-3.7-15.2-3.7-23.2c0-13.2,3.3-25.5,9.9-36.8c6.6-11.3,16-20.3,28.4-26.9c12.3-6.6,28.3-9.9,47.8-9.9
				c14.3,0,30,1.7,47.4,5.2c0,9.5,0.4,20.1,1.3,31.7c-4.7-1.6-8.5-2.7-11.4-3.6c-2.9-0.8-6.3-1.6-10.2-2.2c-3.9-0.7-7.6-1.2-11-1.5
				c-3.5-0.3-6.6-0.5-9.3-0.5c-7.2,0-13.9,1-20.3,3.1c-6.4,2.1-11.9,5.2-16.5,9.5c-4.6,4.3-8,9.4-10.3,15.3
				c-2.3,5.9-3.4,12.2-3.4,18.8c0,6.7,1.3,12.7,3.9,17.9c2.6,5.2,6.7,9.2,12.4,12s12,4.1,18.9,4.1c5.8,0,12.1-0.8,19-2.5l1.1-21.2
				c-4.2-0.2-6.8-0.3-7.5-0.3l-10.4,0.1l0.7-12c0.1-1.3,0.2-3.2,0.3-5.6C1559.6,833,1559.7,829.7,1559.7,825.5z"/>
			<path id="XMLID_139_" class="st1" d="M1634.3,903.2c1.1-11.8,2-21.6,2.5-29.5s1.1-18.5,1.6-31.6c0.5-13.1,0.8-21.9,0.8-26.1
				l-0.1-6c10.8,0.1,23.8,0.1,39,0.1c14.1,0,26.5,0,37.3-0.1l-0.1,2.2c0,0.5-0.2,2.5-0.3,5.9l-0.4,7.4c-0.1,1.6-0.1,3.2-0.1,4.8
				c-8.8-0.4-16.2-0.5-22.1-0.5c-6.6,0-11,0-13.3,0c-2.3,0-5.9,0.1-10.8,0.3l-0.8,15.7c5.4,0.1,11.6,0.2,18.8,0.2
				c2.6,0,9.3-0.2,20.4-0.5c-0.5,5.8-0.9,12.8-1.3,20.8c-7.9-0.1-13.9-0.1-18.2-0.1c-6.3,0-13.3,0.2-21.1,0.5l-0.8,16.6h7.9
				c2.3,0,7.1-0.1,14.4-0.2l14.1-0.3c2.1,0,5.6-0.2,10.5-0.5c-0.5,6.7-1,13.7-1.4,20.9c-11.1-0.1-23.3-0.1-36.6-0.1l-30.1,0.1
				L1634.3,903.2z"/>
			<path id="XMLID_141_" class="st1" d="M1726.6,903.2c1.1-11.8,2-21.6,2.5-29.5s1.1-18.5,1.6-31.6c0.5-13.1,0.8-21.9,0.8-26.1
				l-0.1-6c10.8,0.1,23.8,0.1,39,0.1c14.1,0,26.5,0,37.3-0.1l-0.1,2.2c0,0.5-0.2,2.5-0.3,5.9l-0.4,7.4c-0.1,1.6-0.1,3.2-0.1,4.8
				c-8.8-0.4-16.2-0.5-22.1-0.5c-6.6,0-11,0-13.3,0c-2.3,0-5.9,0.1-10.8,0.3l-0.8,15.7c5.4,0.1,11.6,0.2,18.8,0.2
				c2.6,0,9.3-0.2,20.4-0.5c-0.5,5.8-0.9,12.8-1.3,20.8c-7.9-0.1-13.9-0.1-18.2-0.1c-6.3,0-13.3,0.2-21.1,0.5l-0.8,16.6h7.9
				c2.3,0,7.1-0.1,14.4-0.2l14.1-0.3c2.1,0,5.6-0.2,10.5-0.5c-0.5,6.7-1,13.7-1.4,20.9c-11.1-0.1-23.3-0.1-36.6-0.1l-30.1,0.1
				L1726.6,903.2z"/>
			<path id="XMLID_157_" class="st1" d="M1818.9,903.2c0.9-8.5,1.5-15.6,1.9-21.2c0.7-9.9,1.4-23.5,2.2-40.8
				c0.5-12,0.8-20.5,0.8-25.4v-5.9c7.6,0.1,12.8,0.1,15.7,0.1c1.9,0,6.8,0,14.8-0.1L1851,861l-1.7,42.2l-14.8-0.1
				C1832.4,903.1,1827.2,903.1,1818.9,903.2z M1853.1,853.9l15.3-20.8l12.4-17.3l3.8-5.9c8.5,0.1,14.2,0.1,17.2,0.1
				c0.8,0,6.3,0,16.3-0.1l-28.8,36.4l-5.4,7.3l5.1,8.1l28.6,41.5l-16.8-0.1c-3.6,0-9.8,0-18.5,0.1
				C1876.4,892.1,1866.7,875.7,1853.1,853.9z"/>
			<path id="XMLID_185_" class="st1" d="M1925.3,901.8c-0.6-9.7-1.3-17.5-2.1-23.3c5.1,2.3,9.7,3.9,13.7,4.8c4,0.9,7.5,1.3,10.5,1.3
				c4,0,7.1-0.6,9.5-1.7s3.5-2.9,3.5-5.2c0-0.8-0.1-1.5-0.3-2.2c-0.2-0.7-0.7-1.5-1.3-2.4c-0.6-0.9-1.6-1.9-2.7-2.9l-12.9-11.2
				c-3-2.6-5.1-4.4-6.3-5.5c-2.4-2.3-4.3-4.5-5.7-6.5c-1.3-2-2.3-4-2.9-6.1c-0.6-2.1-0.9-4.3-0.9-6.6c0-2.8,0.5-5.5,1.5-8.2
				s2.4-5.2,4.4-7.5c2-2.3,4.6-4.3,7.8-6c3.2-1.7,6.7-2.8,10.4-3.5s7.5-0.9,11.4-0.9c7.7,0,16.1,0.9,25.2,2.7c0.1,3.1,0.3,6,0.5,8.6
				c0.2,2.6,0.6,7.2,1.3,13.8c-4.2-1.7-8-2.9-11.5-3.5c-3.5-0.7-6.4-1-9-1c-3.6,0-6.5,0.7-8.9,2c-2.3,1.3-3.5,3-3.5,4.9
				c0,0.9,0.2,1.8,0.5,2.7c0.4,0.9,1,1.9,2.1,3c1,1.2,2.3,2.4,4,3.8c1.6,1.4,4.2,3.5,7.7,6.2l4.9,3.9c1.5,1.2,3,2.6,4.7,4.3
				c1.7,1.7,3.1,3.3,4.4,5s2.2,3.1,2.8,4.5s1.2,2.7,1.5,4.1c0.3,1.4,0.5,2.9,0.5,4.5c0,4.1-1,8-2.9,11.7c-2,3.7-4.7,6.8-8.3,9.2
				c-3.6,2.4-7.6,4.1-11.9,5s-8.9,1.4-13.6,1.4C1945.8,905,1936.5,903.9,1925.3,901.8z"/>
		</g>
	</g>
	<g id="XMLID_841_">
		<g id="XMLID_17_">
			<path id="XMLID_47_" d="M284.2,903.2c1.4-13.2,2.3-23.8,2.8-31.8c0.8-11.8,1.5-28.1,2.2-48.9c0.7-20.7,1.1-34.7,1.1-41.8v-10.7
				c19.6,0.1,37.8,0.2,54.7,0.2c17,0,33.3-0.1,49-0.2c-1,15-1.6,24.8-1.6,29.4L384,799l-6.8-0.1l-6.8-0.1h-19.2
				c-2.2,0-8.7,0.1-19.4,0.2l-0.9,22.8l14.2,0.3h15.8c4.6,0,11.5-0.1,20.9-0.3c-0.7,12.3-1.1,21.9-1.1,28.9
				c-10.5-0.3-18.2-0.5-23.3-0.5c-8.6,0-17.9,0.2-28.1,0.5l-1,35.2l-0.1,13.1v4.3l-21-0.2C305.4,903,297.8,903.1,284.2,903.2z"/>
			<path id="XMLID_49_" d="M403.5,903.2c1.1-11.8,2-21.6,2.5-29.5s1.1-18.5,1.6-31.6c0.5-13.1,0.8-21.9,0.8-26.1l-0.1-6
				c10.8,0.1,23.8,0.1,39,0.1c14.1,0,26.5,0,37.2-0.1l-0.1,2.2c0,0.5-0.2,2.5-0.3,5.9l-0.4,7.4c-0.1,1.6-0.1,3.2-0.1,4.8
				c-8.8-0.4-16.2-0.5-22.1-0.5c-6.6,0-11,0-13.3,0c-2.3,0-5.9,0.1-10.8,0.3l-0.8,15.7c5.4,0.1,11.6,0.2,18.8,0.2
				c2.6,0,9.3-0.2,20.4-0.5c-0.5,5.8-0.9,12.8-1.3,20.8c-7.9-0.1-13.9-0.1-18.2-0.1c-6.3,0-13.3,0.2-21.1,0.5l-0.8,16.6h7.9
				c2.3,0,7.1-0.1,14.4-0.2l14.1-0.3c2.1,0,5.6-0.2,10.5-0.5c-0.5,6.7-1,13.7-1.4,20.9c-11.1-0.1-23.3-0.1-36.6-0.1l-30.1,0.1
				L403.5,903.2z"/>
			<path id="XMLID_51_" d="M514.3,903.2l-2.3-12.6c-0.5-3-1.4-7.1-2.5-12.4l-11.2-51.1l-4-17.2c5.7,0.1,10.4,0.1,14,0.1
				c4,0,8.7,0,14-0.1c1.2,7.4,2.2,12.9,2.9,16.3l5.7,27.5c1.2,5.9,2.5,13.1,4,21.7l2.3-9.6l8.1-31.6l5.6-24.4
				c6.2,0.1,11.5,0.1,15.9,0.1c4.7,0,10,0,15.8-0.1l4.3,28.8l6,36.6l2.7-10c0.5-1.7,1-3.5,1.6-5.3s1.7-5.3,3.4-10.6l8.3-26.3
				l3.9-13.3c5.5,0,10.1,0.1,13.7,0.1c4.1,0,8.6,0,13.6-0.1l-26.5,79.4l-4.2,13.9c-6.8-0.1-12.8-0.1-17.9-0.1
				c-5.4,0-11.3,0-17.8,0.1l-1.6-9.4l-6-32.6c-0.3-2-0.6-4-0.9-6c-0.3-2.1-0.6-5.3-1.1-9.7l-2.4,10.6c-0.6,2.4-1.2,4.8-1.8,7.2
				l-11,39.9c-6.9-0.1-12.6-0.1-17.2-0.1C526.6,903.1,520.9,903.1,514.3,903.2z"/>
		</g>
		<g id="XMLID_15_">
			<path id="XMLID_41_" class="st17" d="M284.2,903.2c1.4-13.2,2.3-23.8,2.8-31.8c0.8-11.8,1.5-28.1,2.2-48.9
				c0.7-20.7,1.1-34.7,1.1-41.8v-10.7c19.6,0.1,37.8,0.2,54.7,0.2c17,0,33.3-0.1,49-0.2c-1,15-1.6,24.8-1.6,29.4L384,799l-6.8-0.1
				l-6.8-0.1h-19.2c-2.2,0-8.7,0.1-19.4,0.2l-0.9,22.8l14.2,0.3h15.8c4.6,0,11.5-0.1,20.9-0.3c-0.7,12.3-1.1,21.9-1.1,28.9
				c-10.5-0.3-18.2-0.5-23.3-0.5c-8.6,0-17.9,0.2-28.1,0.5l-1,35.2l-0.1,13.1v4.3l-21-0.2C305.4,903,297.8,903.1,284.2,903.2z"/>
			<path id="XMLID_43_" class="st17" d="M403.5,903.2c1.1-11.8,2-21.6,2.5-29.5s1.1-18.5,1.6-31.6c0.5-13.1,0.8-21.9,0.8-26.1
				l-0.1-6c10.8,0.1,23.8,0.1,39,0.1c14.1,0,26.5,0,37.2-0.1l-0.1,2.2c0,0.5-0.2,2.5-0.3,5.9l-0.4,7.4c-0.1,1.6-0.1,3.2-0.1,4.8
				c-8.8-0.4-16.2-0.5-22.1-0.5c-6.6,0-11,0-13.3,0c-2.3,0-5.9,0.1-10.8,0.3l-0.8,15.7c5.4,0.1,11.6,0.2,18.8,0.2
				c2.6,0,9.3-0.2,20.4-0.5c-0.5,5.8-0.9,12.8-1.3,20.8c-7.9-0.1-13.9-0.1-18.2-0.1c-6.3,0-13.3,0.2-21.1,0.5l-0.8,16.6h7.9
				c2.3,0,7.1-0.1,14.4-0.2l14.1-0.3c2.1,0,5.6-0.2,10.5-0.5c-0.5,6.7-1,13.7-1.4,20.9c-11.1-0.1-23.3-0.1-36.6-0.1l-30.1,0.1
				L403.5,903.2z"/>
			<path id="XMLID_45_" class="st17" d="M514.3,903.2l-2.3-12.6c-0.5-3-1.4-7.1-2.5-12.4l-11.2-51.1l-4-17.2
				c5.7,0.1,10.4,0.1,14,0.1c4,0,8.7,0,14-0.1c1.2,7.4,2.2,12.9,2.9,16.3l5.7,27.5c1.2,5.9,2.5,13.1,4,21.7l2.3-9.6l8.1-31.6
				l5.6-24.4c6.2,0.1,11.5,0.1,15.9,0.1c4.7,0,10,0,15.8-0.1l4.3,28.8l6,36.6l2.7-10c0.5-1.7,1-3.5,1.6-5.3s1.7-5.3,3.4-10.6
				l8.3-26.3l3.9-13.3c5.5,0,10.1,0.1,13.7,0.1c4.1,0,8.6,0,13.6-0.1l-26.5,79.4l-4.2,13.9c-6.8-0.1-12.8-0.1-17.9-0.1
				c-5.4,0-11.3,0-17.8,0.1l-1.6-9.4l-6-32.6c-0.3-2-0.6-4-0.9-6c-0.3-2.1-0.6-5.3-1.1-9.7l-2.4,10.6c-0.6,2.4-1.2,4.8-1.8,7.2
				l-11,39.9c-6.9-0.1-12.6-0.1-17.2-0.1C526.6,903.1,520.9,903.1,514.3,903.2z"/>
		</g>
		<g id="XMLID_14_">
			<path id="XMLID_35_" class="st18" d="M284.2,903.2c1.4-13.2,2.3-23.8,2.8-31.8c0.8-11.8,1.5-28.1,2.2-48.9
				c0.7-20.7,1.1-34.7,1.1-41.8v-10.7c19.6,0.1,37.8,0.2,54.7,0.2c17,0,33.3-0.1,49-0.2c-1,15-1.6,24.8-1.6,29.4L384,799l-6.8-0.1
				l-6.8-0.1h-19.2c-2.2,0-8.7,0.1-19.4,0.2l-0.9,22.8l14.2,0.3h15.8c4.6,0,11.5-0.1,20.9-0.3c-0.7,12.3-1.1,21.9-1.1,28.9
				c-10.5-0.3-18.2-0.5-23.3-0.5c-8.6,0-17.9,0.2-28.1,0.5l-1,35.2l-0.1,13.1v4.3l-21-0.2C305.4,903,297.8,903.1,284.2,903.2z"/>
			<path id="XMLID_37_" class="st18" d="M403.5,903.2c1.1-11.8,2-21.6,2.5-29.5s1.1-18.5,1.6-31.6c0.5-13.1,0.8-21.9,0.8-26.1
				l-0.1-6c10.8,0.1,23.8,0.1,39,0.1c14.1,0,26.5,0,37.2-0.1l-0.1,2.2c0,0.5-0.2,2.5-0.3,5.9l-0.4,7.4c-0.1,1.6-0.1,3.2-0.1,4.8
				c-8.8-0.4-16.2-0.5-22.1-0.5c-6.6,0-11,0-13.3,0c-2.3,0-5.9,0.1-10.8,0.3l-0.8,15.7c5.4,0.1,11.6,0.2,18.8,0.2
				c2.6,0,9.3-0.2,20.4-0.5c-0.5,5.8-0.9,12.8-1.3,20.8c-7.9-0.1-13.9-0.1-18.2-0.1c-6.3,0-13.3,0.2-21.1,0.5l-0.8,16.6h7.9
				c2.3,0,7.1-0.1,14.4-0.2l14.1-0.3c2.1,0,5.6-0.2,10.5-0.5c-0.5,6.7-1,13.7-1.4,20.9c-11.1-0.1-23.3-0.1-36.6-0.1l-30.1,0.1
				L403.5,903.2z"/>
			<path id="XMLID_39_" class="st18" d="M514.3,903.2l-2.3-12.6c-0.5-3-1.4-7.1-2.5-12.4l-11.2-51.1l-4-17.2
				c5.7,0.1,10.4,0.1,14,0.1c4,0,8.7,0,14-0.1c1.2,7.4,2.2,12.9,2.9,16.3l5.7,27.5c1.2,5.9,2.5,13.1,4,21.7l2.3-9.6l8.1-31.6
				l5.6-24.4c6.2,0.1,11.5,0.1,15.9,0.1c4.7,0,10,0,15.8-0.1l4.3,28.8l6,36.6l2.7-10c0.5-1.7,1-3.5,1.6-5.3s1.7-5.3,3.4-10.6
				l8.3-26.3l3.9-13.3c5.5,0,10.1,0.1,13.7,0.1c4.1,0,8.6,0,13.6-0.1l-26.5,79.4l-4.2,13.9c-6.8-0.1-12.8-0.1-17.9-0.1
				c-5.4,0-11.3,0-17.8,0.1l-1.6-9.4l-6-32.6c-0.3-2-0.6-4-0.9-6c-0.3-2.1-0.6-5.3-1.1-9.7l-2.4,10.6c-0.6,2.4-1.2,4.8-1.8,7.2
				l-11,39.9c-6.9-0.1-12.6-0.1-17.2-0.1C526.6,903.1,520.9,903.1,514.3,903.2z"/>
		</g>
		<g id="XMLID_9_">
			<path id="XMLID_29_" d="M284.2,903.2c1.4-13.2,2.3-23.8,2.8-31.8c0.8-11.8,1.5-28.1,2.2-48.9c0.7-20.7,1.1-34.7,1.1-41.8v-10.7
				c19.6,0.1,37.8,0.2,54.7,0.2c17,0,33.3-0.1,49-0.2c-1,15-1.6,24.8-1.6,29.4L384,799l-6.8-0.1l-6.8-0.1h-19.2
				c-2.2,0-8.7,0.1-19.4,0.2l-0.9,22.8l14.2,0.3h15.8c4.6,0,11.5-0.1,20.9-0.3c-0.7,12.3-1.1,21.9-1.1,28.9
				c-10.5-0.3-18.2-0.5-23.3-0.5c-8.6,0-17.9,0.2-28.1,0.5l-1,35.2l-0.1,13.1v4.3l-21-0.2C305.4,903,297.8,903.1,284.2,903.2z"/>
			<path id="XMLID_31_" d="M403.5,903.2c1.1-11.8,2-21.6,2.5-29.5s1.1-18.5,1.6-31.6c0.5-13.1,0.8-21.9,0.8-26.1l-0.1-6
				c10.8,0.1,23.8,0.1,39,0.1c14.1,0,26.5,0,37.2-0.1l-0.1,2.2c0,0.5-0.2,2.5-0.3,5.9l-0.4,7.4c-0.1,1.6-0.1,3.2-0.1,4.8
				c-8.8-0.4-16.2-0.5-22.1-0.5c-6.6,0-11,0-13.3,0c-2.3,0-5.9,0.1-10.8,0.3l-0.8,15.7c5.4,0.1,11.6,0.2,18.8,0.2
				c2.6,0,9.3-0.2,20.4-0.5c-0.5,5.8-0.9,12.8-1.3,20.8c-7.9-0.1-13.9-0.1-18.2-0.1c-6.3,0-13.3,0.2-21.1,0.5l-0.8,16.6h7.9
				c2.3,0,7.1-0.1,14.4-0.2l14.1-0.3c2.1,0,5.6-0.2,10.5-0.5c-0.5,6.7-1,13.7-1.4,20.9c-11.1-0.1-23.3-0.1-36.6-0.1l-30.1,0.1
				L403.5,903.2z"/>
			<path id="XMLID_33_" d="M514.3,903.2l-2.3-12.6c-0.5-3-1.4-7.1-2.5-12.4l-11.2-51.1l-4-17.2c5.7,0.1,10.4,0.1,14,0.1
				c4,0,8.7,0,14-0.1c1.2,7.4,2.2,12.9,2.9,16.3l5.7,27.5c1.2,5.9,2.5,13.1,4,21.7l2.3-9.6l8.1-31.6l5.6-24.4
				c6.2,0.1,11.5,0.1,15.9,0.1c4.7,0,10,0,15.8-0.1l4.3,28.8l6,36.6l2.7-10c0.5-1.7,1-3.5,1.6-5.3s1.7-5.3,3.4-10.6l8.3-26.3
				l3.9-13.3c5.5,0,10.1,0.1,13.7,0.1c4.1,0,8.6,0,13.6-0.1l-26.5,79.4l-4.2,13.9c-6.8-0.1-12.8-0.1-17.9-0.1
				c-5.4,0-11.3,0-17.8,0.1l-1.6-9.4l-6-32.6c-0.3-2-0.6-4-0.9-6c-0.3-2.1-0.6-5.3-1.1-9.7l-2.4,10.6c-0.6,2.4-1.2,4.8-1.8,7.2
				l-11,39.9c-6.9-0.1-12.6-0.1-17.2-0.1C526.6,903.1,520.9,903.1,514.3,903.2z"/>
		</g>
	</g>
</g>
</svg>
