<?xml version="1.0" encoding="utf-8"?>
<!-- Generator: Adobe Illustrator 19.0.0, SVG Export Plug-In . SVG Version: 6.00 Build 0)  -->
<svg version="1.1" id="Top" xmlns="http://www.w3.org/2000/svg" xmlns:xlink="http://www.w3.org/1999/xlink" x="0px" y="0px"
	 viewBox="0 0 2105 874" style="enable-background:new 0 0 2105 874;" xml:space="preserve">
<style type="text/css">
	.st0{fill:#FFFFFF;}
	.st1{fill:url(#SVGID_1_);}
	.st2{fill:url(#SVGID_2_);}
	.st3{fill:url(#SVGID_3_);}
</style>

<path id="Top_Part" class="st0" d="M682,448h-0.6l0.6-0.6V448z M580,740.4v14.8c2.2,0.5,3.9,2.4,3.9,4.8c0,2.7-2.2,4.9-4.9,4.9
	s-4.9-2.2-4.9-4.9c0-2.4,1.7-4.3,3.9-4.8v-15.6l8-7.7v-28.3l3.4-3.5c-1.2-1.9-1-4.5,0.6-6.1c1.9-1.9,5-1.9,6.9,0
	c1.9,1.9,1.9,5,0,6.9c-1.7,1.7-4.2,1.9-6.1,0.6l-2.9,2.9v28.4L580,740.4z M718.8,591.1L706.4,579h-25.3l-2.2-2.2v51.1l-51-51.5
	v-24.2c-2.4-0.5-4.3-2.6-4.3-5.2c0-2.9,2.4-5.3,5.3-5.3s5.3,2.4,5.3,5.3c0,2.6-1.8,4.7-4.3,5.2v23.4l47,47.5v-48.2L633.7,532h-13.9
	L601,548.9v19.2l73.8,73.8h31.3l10.4-10.6c-2.9-4-2.6-9.7,1-13.4c4-4.1,10.6-4.1,14.7-0.1c4.1,4,4.1,10.6,0.1,14.7
	c-3.5,3.5-8.8,4-12.9,1.5L707.8,646h-34.7L597,569.8v-22.7l21.2-19.2h17.1l41.7,41.2V561h38.8c0.5-2.4,2.6-4.3,5.2-4.3
	c2.9,0,5.3,2.4,5.3,5.3s-2.4,5.3-5.3,5.3c-2.6,0-4.7-1.8-5.2-4.3H679v8.2l3.8,3.8h25.2l13.4,13.2c4-2.9,9.7-2.5,13.3,1.1
	c4.1,4,4.1,10.6,0.1,14.7c-4,4.1-10.6,4.1-14.7,0.1C716.7,600.5,716.2,595.1,718.8,591.1z M568,706.2l18.3-18.3l-53-53l-5,4.8
	l31.6,31.9v73.2l-14,13.5v7.1c4.4,0.9,7.8,4.9,7.8,9.6c0,5.4-4.4,9.8-9.8,9.8s-9.8-4.4-9.8-9.8c0-4.7,3.3-8.6,7.8-9.6v-8.8l14-13.5
	v-69.9l-33.3-33.6l10.7-10.4l58.6,58.6l-20,20v57.6c4.4,0.9,7.8,4.9,7.8,9.6c0,5.4-4.4,9.8-9.8,9.8s-9.8-4.4-9.8-9.8
	c0-4.7,3.3-8.6,7.8-9.6V706.2z M804,592.9l-9.9,10.1c2.5,6.2,1.3,13.5-3.7,18.6c-6.7,6.9-17.7,7-24.6,0.3c-6.9-6.7-7-17.7-0.3-24.6
	c5-5.1,12.3-6.5,18.5-4.1l7.9-8.1v-11.5L760.1,542h-18.2c-2.7,6.1-8.8,10.4-15.9,10.4c-9.6,0-17.4-7.8-17.4-17.4s7.8-17.4,17.4-17.4
	c7.1,0,13.2,4.3,15.9,10.4H763c1.8,0,3.6,0.7,4.9,2l36,35.8c1.3,1.3,2.1,3.1,2.1,5V588C806,589.8,805.3,591.6,804,592.9z M488.4,641
	l9.9-9.9l44.7,45.1v14.7c6.4,2.6,10.9,8.8,10.9,16.1c0,9.6-7.8,17.4-17.4,17.4s-17.4-7.8-17.4-17.4c0-6.9,4-12.8,9.9-15.6V682
	L488.4,641z M532.4,597l9.9-9.9l35.9,35.9h44.3l32.7,33h25.6h2.3h12.4c1.8-4.6,6.3-7.9,11.6-7.9c6.9,0,12.4,5.6,12.4,12.4
	s-5.6,12.4-12.4,12.4c-4.9,0-9.1-2.8-11.1-6.9h-11.1l-23.8,24h-61.5l-66.8-66.9c-4.4,1.5-9.4,0.6-12.9-2.9c-2-2-3.2-4.5-3.5-7.1
	l13.9-13.9c2.6,0.3,5.1,1.5,7.1,3.5c3.7,3.7,4.6,9.1,2.6,13.6l63.7,63.8h53.2l13.9-14h-19.9l-32.7-33h-44.2l-36-36H532.4z
	 M709.8,419.6l2.8-2.8l10.4,10.4V452h-27v15.1l9.1,8.9H767c1.9,0,3.7,0.8,5,2.1l14.8,14.9l26.8,27c2.9-5.6,8.7-9.4,15.4-9.4
	c9.6,0,17.4,7.8,17.4,17.4s-7.8,17.4-17.4,17.4c-7.1,0-13.2-4.3-15.9-10.4h-1.5c-1.9,0-3.7-0.7-5-2.1l-29.9-30.1L764.1,490h-61.8
	c-1.8,0-3.6-0.7-4.9-2l-13.3-13c-1.3-1.3-2.1-3.1-2.1-5v-18h-4.6l4-4h0.6v-0.6l13-13c0.6,1.1,1,2.3,1,3.5V448h23v-19.2L709.8,419.6z
	 M339,449.6c-9.6,0-17.4,7.8-17.4,17.4c0,4.4,1.6,8.4,4.3,11.5l24.5-24.5C347.4,451.3,343.4,449.6,339,449.6z M549.8,579.5l1.4-1.4
	l2.8,2.9h22.4l32.5,32h-22.7c-0.5,2.4-2.6,4.3-5.2,4.3c-2.9,0-5.3-2.4-5.3-5.3s2.4-5.3,5.3-5.3c2.6,0,4.7,1.8,5.2,4.3H604l-28.4-28
	h-22.4L549.8,579.5z M508,296.5L495.5,309h-32.5l-24.7,24.9c-1.3,1.3-3.1,2.1-5,2.1h-36.4c-2.7,6.1-8.8,10.4-15.9,10.4
	c-9.6,0-17.4-7.8-17.4-17.4s7.8-17.4,17.4-17.4c7.1,0,13.2,4.3,15.9,10.4h33.5l24.7-24.9c1.3-1.3,3.1-2.1,5-2.1h34v-3.9l-24-24.2
	c-1.3-1.3-2-3.1-2-4.9v-41.3c0-1.9,0.8-3.8,2.2-5.1l17-15.8c1.3-1.2,3-1.9,4.8-1.9h17.3l57.7-57.9c1.3-1.3,3.1-2.1,5-2.1h49
	c1.9,0,3.6,0.7,4.9,2l15.9,16h6.6l-13,13c-0.5-0.3-1-0.7-1.4-1.1l-15.9-16h-43.2l-57.7,57.9c-1.3,1.3-3.1,2.1-5,2.1h19.9l16.7-16.8
	c-2.7-3.8-2.4-9.1,1-12.6c3.8-3.8,10-3.8,13.8,0s3.8,10,0,13.8c-3.2,3.2-8.2,3.7-11.9,1.5l-18,18.1h-20l-25.5,24.5l29.7,29.7
	l5.2-5.1l4.8,4.9l6.3-6.1h6.2l-4,4h-0.6l-5.1,4.9l0.4,0.4L519,285.5l-8.1-8.2l4.2-4.1l-32.5-32.6l29.6-28.5h-17.5L482,223.8v35.3
	l24,24.2c1.3,1.3,2,3.1,2,4.9V296.5z M555,243.6l2.9,2.9l-1.4,1.4l-3.5-3.5v-21.7l6.8-6.8c-1.4-2-1.2-4.9,0.6-6.7
	c2.1-2.1,5.4-2.1,7.4,0s2.1,5.4,0,7.4c-1.8,1.8-4.6,2-6.7,0.6l-6.2,6.2V243.6z M315,489.4l-18.5,18.5c-0.2-2.5,0.2-5,1.1-7.4
	L273.1,476c-1.1-1.1-1.8-2.5-2-4h-18.6c-1.1,4.2-4.9,7.3-9.4,7.3c-5.4,0-9.8-4.4-9.8-9.8s4.4-9.8,9.8-9.8c4.9,0,8.9,3.6,9.6,8.3H271
	v-44.8c0-0.8,0.1-1.6,0.4-2.3L242,450.3L216.2,425h-15.8l-7.3,7.3c1.4,2,1.2,4.9-0.6,6.7c-2.1,2.1-5.4,2.1-7.4,0s-2.1-5.4,0-7.4
	c1.8-1.8,4.6-2,6.7-0.6l5.9-5.9h-68.4l-15.1-15.4c-3.8,2.3-8.8,1.8-12.1-1.5c-3.8-3.8-3.8-10,0.1-13.8c3.8-3.8,10-3.8,13.8,0.1
	c3.4,3.4,3.7,8.7,1.1,12.5l13.8,14.2h70.8l14-14h36.5l37.9-38.4v-31.4c-2.4-0.5-4.3-2.6-4.3-5.2c0-2.4,1.6-4.3,3.7-5h-10.6
	L245,360.3V385c0,3.9-3.1,7-7,7H137c-1.9,0-3.6-0.7-5-2.1l-21.5-21.5l9.9-9.9l19.4,19.5H185v-19h-35.8l-14.6-14.6l2.8-2.8l13.4,13.4
	H185h3h32.9l0-19.4l38.5-37.6h91.3l32.2-32.9v-47.4c0-1.9,0.7-3.6,2.1-5l93.9-93.7V98c0-1.9,0.8-3.7,2.1-5L502,72.5
	c-2.3-6.2-1-13.6,4.1-18.5c6.9-6.7,17.9-6.6,24.6,0.3c6.7,6.9,6.6,17.9-0.3,24.6c-5.1,5-12.4,6.2-18.6,3.7L493,100.9V122
	c0,1.9-0.7,3.6-2.1,5L397,220.7V268c0,1.8-0.7,3.6-2,4.9L370.4,298H423v-54.9l62.5-59.1h14.6l65.6-66h32.6c0.7-4.7,4.8-8.3,9.6-8.3
	c5.4,0,9.8,4.4,9.8,9.8s-4.4,9.8-9.8,9.8c-4.5,0-8.3-3.1-9.4-7.3h-31.1l-65.6,66h-14.7L427,244.9V302h-60.5L344,324.9
	c-1.3,1.3-3.1,2.1-5,2.1h-46.4c2.1,0.7,3.7,2.6,3.7,5c0,2.6-1.8,4.7-4.3,5.2v32.2L252.9,409h-36.5l-12,12h13.4l24.2,23.7l72.9-72.9
	c-2.6-3.8-2.2-9,1.2-12.4c3.8-3.8,10-3.8,13.8,0c3.8,3.8,3.8,10,0,13.8c-3.3,3.3-8.3,3.7-12.1,1.4l-24.6,24.6
	c1.1-0.7,2.4-1.1,3.8-1.1h61.3l15.7-15.9c1.3-1.3,3.1-2.1,5-2.1h45.4l-14,14h-28.5l-15.7,15.9c-1.3,1.3-3.1,2.1-5,2.1h-61.4
	L285,426.2V468h16.2l40.5-40h34.8l-4,4h-29.1l-40.5,40h-13.9l18.6,18.6C309.9,489.6,312.5,489.3,315,489.4z M336.1,313l10.8-11
	h-85.8L225,337.3l0,21.7H189v19h42v-20.7c0-1.9,0.8-3.7,2.1-5l38-37.3c1.3-1.3,3.1-2,4.9-2H336.1z M608.8,192.8
	c-1.2,1.2-1.7,2.8-1.5,4.4l5.9-5.9C611.6,191.1,610,191.6,608.8,192.8z M851,374.7v56.7c2.3,0.8,4,3,4,5.7c0,3.3-2.7,6-6,6
	s-6-2.7-6-6c0-2.6,1.7-4.8,4-5.7v-56.7c-2.3-0.8-4-3-4-5.7c0-3.3,2.7-6,6-6s6,2.7,6,6C855,371.6,853.3,373.8,851,374.7z
	 M572.3,229.3c-1.2,1.2-1.7,2.8-1.5,4.4l5.9-5.9C575.1,227.6,573.5,228.1,572.3,229.3z M580,179h45.5l-2,2H582v9.8
	c2.4,0.5,4.3,2.6,4.3,5.2c0,2.9-2.4,5.3-5.3,5.3s-5.3-2.4-5.3-5.3c0-2.6,1.8-4.7,4.3-5.2V179z M811.8,317.6l7.1-7.1l2.7,2.6
	c1,0.9,1.5,2.2,1.5,3.6V373l10.6,10.8c0.9,0.9,1.4,2.2,1.4,3.5v32.4c4.4,1.9,7.4,6.3,7.4,11.3c0,6.9-5.6,12.4-12.4,12.4
	s-12.4-5.6-12.4-12.4c0-5.1,3-9.4,7.4-11.3v-30.4l-10.6-10.8c-0.9-0.9-1.4-2.2-1.4-3.5v-56.1L811.8,317.6z M227,252l14-14h61.3
	l33.7-34.8v-54l-3.1-3.1l9.9-9.9l5.1,5.2c0.4,0.4,0.7,0.8,0.9,1.2c0.7-3.1,2.2-6.1,4.6-8.5c5-5,12.3-6.3,18.6-3.9l14.9-14.9V98.6
	c0-1.9,0.7-3.7,2.1-5l21.2-21c-0.4-1-0.7-2-0.9-3L430,49h32.8c0.5-2.4,2.6-4.3,5.2-4.3c2.9,0,5.3,2.4,5.3,5.3s-2.4,5.3-5.3,5.3
	c-2.6,0-4.7-1.8-5.2-4.3h-28.4c1.6,0.8,3.1,1.9,4.4,3.2c6.8,6.8,6.7,17.8-0.1,24.6c-5,5-12.4,6.3-18.6,3.8L401,101.5V118
	c0,1.9-0.7,3.6-2,4.9l-16.9,17c2.4,6.2,1.1,13.5-3.9,18.6c-6.8,6.8-17.8,6.8-24.6,0.1c-1.6-1.6-2.8-3.4-3.6-5.3V206
	c0,1.8-0.7,3.6-2,4.9l-37.8,39c-1.3,1.4-3.1,2.1-5,2.1H227z M148.8,330.2L160,319v0.4c4.7,0.7,8.3,4.8,8.3,9.6
	c0,5.4-4.4,9.8-9.8,9.8C153.5,338.8,149.4,335,148.8,330.2z M186,335.4v-30.3c-2.4-0.5-4.3-2.6-4.3-5.2c0-2.9,2.4-5.3,5.3-5.3
	s5.3,2.4,5.3,5.3c0,2.6-1.8,4.7-4.3,5.2v25.4l40.6-40.6c-1.4-2-1.2-4.9,0.6-6.7c2.1-2.1,5.4-2.1,7.4,0c2.1,2.1,2.1,5.4,0,7.4
	c-1.8,1.8-4.6,2-6.7,0.6L186,335.4z M442,135.4l-18.6,18.6c1.4,2,1.2,4.9-0.6,6.7c-2.1,2.1-5.4,2.1-7.4,0s-2.1-5.4,0-7.4
	c1.8-1.8,4.6-2,6.7-0.6l18.1-18.1v-21.6l17.8-17.8c-1.4-2-1.2-4.9,0.6-6.7c2.1-2.1,5.4-2.1,7.4,0s2.1,5.4,0,7.4
	c-1.8,1.8-4.6,2-6.7,0.6L442,113.8V135.4z M258,221l4-4h15.1l25.9-30.5V176l4-4v15.9L278.9,221H258z M533.1,83H582V73h27v35h-39.8
	c-0.5,2.4-2.6,4.3-5.2,4.3c-2.9,0-5.3-2.4-5.3-5.3s2.4-5.3,5.3-5.3c2.6,0,4.7,1.8,5.2,4.3H607V75h-23v10h-50.1l-19.5,19.2
	c1.4,2.1,1.1,4.9-0.7,6.7c-2.1,2-5.4,2-7.4-0.1c-2-2.1-2-5.4,0.1-7.4c1.8-1.8,4.6-2,6.7-0.6L533.1,83z M90,389l2-2v8.8
	c2.4,0.5,4.3,2.6,4.3,5.2c0,2.9-2.4,5.3-5.3,5.3s-5.3-2.4-5.3-5.3c0-2.6,1.8-4.7,4.3-5.2V389z M434.4,370l-4,4h-81.3L321,345.9
	c-3.8,2.3-8.7,1.8-12-1.5c-3.8-3.8-3.8-10,0-13.8c3.8-3.8,10-3.8,13.8,0c3.4,3.4,3.8,8.7,1.1,12.6l26.9,26.9H434.4z M675.3,129.1
	l-24.9,24.9l1.6-1.8v-1.4c-6.1-2.7-10.4-8.8-10.4-15.9c0-9.6,7.8-17.4,17.4-17.4C666.5,117.6,672.9,122.4,675.3,129.1z M733,396.4
	l14-14v40.7l7.1,6.9H780c1.9,0,3.6,0.7,4.9,2l17.9,18h7.1c1.9,0,3.6,0.7,4.9,2l17.7,17.6c6.2-2.4,13.5-1.1,18.6,3.9
	c6.8,6.8,6.8,17.8,0.1,24.6c-6.8,6.8-17.8,6.8-24.6,0.1c-5-5-6.3-12.3-3.9-18.6L807.1,464H800c-1.9,0-3.6-0.7-4.9-2l-17.9-18h-25.9
	c-1.8,0-3.6-0.7-4.9-2l-11.3-11c-1.3-1.3-2.1-3.1-2.1-5V396.4z M782.3,347.1l9.9-9.9l8.7,8.6c1.3,1.3,2.1,3.1,2.1,5v43.2
	c5.4-0.9,11.1,0.7,15.3,4.8c6.8,6.8,6.8,17.8,0,24.6c-6.8,6.8-17.8,6.8-24.6,0c-5.1-5.1-6.4-12.6-3.8-18.8c-0.6-1-0.9-2.2-0.9-3.4
	v-47.3L782.3,347.1z M585,544.9c6.9,0,12.4-5.6,12.4-12.4c0-0.2,0-0.3,0-0.5l-12.9,12.9C584.7,544.9,584.8,544.9,585,544.9z
	 M627.1,502.3l13.3-13.3H656c1.9,0,3.6,0.7,4.9,2l20,20c6.2-2.4,13.5-1.1,18.6,3.9c6.8,6.8,6.8,17.8,0,24.6
	c-6.8,6.8-17.8,6.8-24.6,0c-5-5-6.3-12.3-3.9-18.6l-18-18h-22.9C629.2,503,628.1,502.7,627.1,502.3z M651.7,477.6l2.8-2.8l5.2,5.2
	h16.1l22.5,23h32c0.7-4.7,4.8-8.3,9.6-8.3c5.4,0,9.8,4.4,9.8,9.8s-4.4,9.8-9.8,9.8c-4.5,0-8.3-3.1-9.4-7.3h-33.9l-22.5-23H658
	L651.7,477.6z M274.9,529.5l-1.4,1.4L262.6,520l20-20h-42l17.1-17.1c-1.4-2-1.2-4.9,0.6-6.7c2.1-2.1,5.4-2.1,7.4,0s2.1,5.4,0,7.4
	c-1.8,1.8-4.6,2-6.7,0.6L245.4,498h42l-22,22L274.9,529.5z M571.2,560.2c1-1,1.5-2.3,1.5-3.6l-5.1,5.1
	C568.9,561.7,570.2,561.2,571.2,560.2z M388,184.4l-31,31v-26.3c-2.4-0.5-4.3-2.6-4.3-5.2c0-2.9,2.4-5.3,5.3-5.3
	c2.9,0,5.3,2.4,5.3,5.3c0,2.6-1.8,4.7-4.3,5.2v21.4l27-27v-15.5l34-33.5v-24.3L444.5,86c-1.4-2.1-1.2-4.9,0.7-6.7c2.1-2,5.4-2,7.4,0
	c2,2.1,2,5.4,0,7.4c-1.8,1.8-4.6,2-6.7,0.6L422,111.1v24.3l-34,33.5V184.4z M242.9,265H214l4-4h26.5l12.3,12h66.3l28.2-29.1
	c-2.6-3.8-2.2-9,1.1-12.3c3.8-3.8,10-3.9,13.8-0.1c3.8,3.8,3.9,10,0.1,13.8c-3.3,3.3-8.4,3.8-12.2,1.4L324.8,277h-69.7L242.9,265z
	 M1269,390.4l22-22v6.6c0,1.3-0.5,2.6-1.4,3.5l-10.6,10.8v30.4c4.4,1.9,7.4,6.3,7.4,11.3c0,6.9-5.6,12.4-12.4,12.4
	s-12.4-5.6-12.4-12.4c0-5.1,3-9.4,7.4-11.3V390.4z M1253,406.4l4-4v28.9c2.3,0.8,4,3,4,5.7c0,3.3-2.7,6-6,6s-6-2.7-6-6
	c0-2.6,1.7-4.8,4-5.7V406.4z M1441.4,218l10-10h2.2c1.9-4.4,6.3-7.4,11.3-7.4c6.9,0,12.4,5.6,12.4,12.4s-5.6,12.4-12.4,12.4
	c-5.1,0-9.4-3-11.3-7.4H1441.4z M1301,358.4l28-28v6.6c0,1.9-0.8,3.7-2.1,5l-11.9,11.7V401c0,1.2-0.3,2.4-0.9,3.4
	c2.6,6.3,1.3,13.7-3.8,18.8c-6.8,6.8-17.8,6.8-24.6,0c-6.8-6.8-6.8-17.8,0-24.6c4.2-4.2,9.9-5.8,15.3-4.8V358.4z M1478.4,181l2-2
	h43.6v11.8c2.4,0.5,4.3,2.6,4.3,5.2c0,2.9-2.4,5.3-5.3,5.3s-5.3-2.4-5.3-5.3c0-2.6,1.8-4.7,4.3-5.2V181H1478.4z M1751.5,231.5
	c-3.8-3.8-10-3.9-13.8-0.1c-3.8,3.8-3.9,10-0.1,13.8c0.3,0.3,0.6,0.5,0.9,0.8l13.7-13.7C1751.9,232.1,1751.7,231.8,1751.5,231.5z
	 M1888.7,95.8l-13.2,13.2H1861c-1.9,0-3.7-0.7-5-2.1l-2.1-2.1c-6.2,2.4-13.6,1.1-18.5-4c-6.8-6.8-6.7-17.8,0.1-24.6
	c6.8-6.8,17.8-6.7,24.6,0.1c5,5,6.3,12.4,3.8,18.6l0,0h21.6C1886.6,95,1887.7,95.3,1888.7,95.8z M1774.5,209.9l-9.9,9.9l-8.7-9
	c-1.3-1.3-2-3.1-2-4.9v-52.7c-0.8,1.9-2,3.7-3.6,5.3c-6.8,6.8-17.8,6.7-24.6-0.1c-5-5-6.3-12.4-3.9-18.6l-16.9-17
	c-1.3-1.3-2-3.1-2-4.9v-16.5l-19.1-18.9c-6.2,2.4-13.5,1.2-18.6-3.8c-6.8-6.8-6.9-17.8-0.1-24.6c1.3-1.3,2.8-2.4,4.4-3.2h-28.4
	c-0.5,2.4-2.6,4.3-5.2,4.3c-2.9,0-5.3-2.4-5.3-5.3s2.4-5.3,5.3-5.3c2.6,0,4.7,1.8,5.2,4.3h74.7l21.7,21.5l23.3-23.3
	c-1.4-2-1.2-4.9,0.6-6.7c2.1-2.1,5.4-2.1,7.4,0s2.1,5.4,0,7.4c-1.8,1.8-4.6,2-6.7,0.6l-24.7,24.7L1715.1,51h-29.6
	c1.5,0.8,3,1.8,4.3,3.1c5,5,6.4,12.3,4,18.6l21.2,21c1.3,1.3,2.1,3.1,2.1,5v16.5l14.9,14.9c6.2-2.4,13.6-1.1,18.6,3.9
	c2.4,2.4,4,5.4,4.6,8.5c0.3-0.4,0.6-0.8,0.9-1.2l24-24.2V92.9c-6.1-2.7-10.4-8.8-10.4-15.9c0-9.6,7.8-17.4,17.4-17.4
	s17.4,7.8,17.4,17.4c0,7.1-4.3,13.2-10.4,15.9V120c0,1.8-0.7,3.6-2,4.9l-24,24.2v54L1774.5,209.9z M1822.9,153.8
	c-3.5,3.5-5.1,8.2-5,12.7l17.9-17.9C1831.1,148.5,1826.4,150.2,1822.9,153.8z M1800,184.5l-3.8,3.8l-0.2-0.3v-37.8l19.9-20
	c-2.4-3.8-2-8.8,1.2-12.1c3.8-3.9,10-3.9,13.8-0.1s3.9,10,0.1,13.8c-3.3,3.4-8.6,3.8-12.4,1.3l-18.7,18.8V184.5z M1576.9,407.5
	l-1.4,1.4l-40.9-40.9h-50l-30.6-30.6c-2,1.4-4.9,1.2-6.7-0.6c-2.1-2.1-2.1-5.4,0-7.4s5.4-2.1,7.4,0c1.8,1.8,2,4.6,0.6,6.7l30.1,30.1
	h50L1576.9,407.5z M1601.6,187.4l-64.6-65l2.8-2.8l64,64.4h14.6l0.6,0.6l60.9,58.6V298h6.5l-4,4h-6.5v-57.1l-59.1-56.9h-14.7
	L1601.6,187.4z M1382.6,276.8l24.1-24.1c4.6,3.1,7.6,8.4,7.6,14.4c0,7.1-4.3,13.2-10.4,15.9V295c0,1.9-0.8,3.7-2.1,5l-18.3,18
	c-1.3,1.3-3.1,2-4.9,2H1366c-1.9,0-3.7-0.7-5-2.1l-9.7-9.8l9.9-9.9l7.7,7.8h7l14.1-13.9v-9.2C1387,281.6,1384.5,279.4,1382.6,276.8z
	 M1577.6,81.8l23.5-23.5c2.3,4.4,2.6,9.6,0.9,14.2l20.9,20.5c1.3,1.3,2.1,3.1,2.1,5v21.1l93.9,93.7c1.3,1.3,2.1,3.1,2.1,5v45.7
	l-10.7,10.7l-1.3-1.3c-1.3-1.3-2-3.1-2-4.9v-47.3l-93.9-93.7c-1.3-1.3-2.1-3.1-2.1-5v-21.1l-18.8-18.4
	C1587.5,84.4,1582.2,84.2,1577.6,81.8z M1604.4,380l-11.4,11.4l-33-33.4h-55.8c-1.9,0-3.7-0.8-5-2.1l-30.3-31c-1.3-1.3-2-3.1-2-4.9
	v-24h-21.2l-7.5,7.3c2.3,3.8,1.8,8.7-1.5,12c-3.8,3.8-10,3.8-13.8-0.1c-3.8-3.8-3.8-10,0.1-13.8c3.4-3.4,8.7-3.7,12.5-1l8.5-8.4
	h22.8v-3.9l-15.5-15.2c-6.2,2.5-13.5,1.3-18.6-3.7c-6.9-6.7-7-17.7-0.3-24.6c6.7-6.9,17.7-7,24.6-0.3c5.1,5,6.4,12.3,4.1,18.5
	l17.6,17.3c1.3,1.3,2.1,3.1,2.1,5v6.9h37.2l28-28h23.6l6.3,6.1l4.8-4.9l4.7,4.6l29.7-29.3l-25-24.5h-20l-18-18.1
	c-3.8,2.3-8.7,1.8-11.9-1.5c-3.8-3.8-3.8-10,0-13.8c3.8-3.8,10-3.8,13.8,0c3.4,3.4,3.7,8.7,1,12.6l16.7,16.8h19.9
	c-1.9,0-3.6-0.7-5-2.1l-57.7-57.9h-21.7l14-14h10.6c1.9,0,3.6,0.7,5,2.1l57.7,57.9h17.3c1.8,0,3.5,0.7,4.8,1.9l17,15.8
	c1.4,1.3,2.2,3.2,2.2,5.1V262c0,1.8-0.7,3.6-2,4.9l-24,24.2v3.9h34c1.9,0,3.7,0.7,5,2.1l19.1,19.3l-9.9,9.9l-17.1-17.3H1603
	c-3.9,0-7-3.1-7-7v-13.8c0-1.8,0.7-3.6,2-4.9l24-24.2v-35.3l-12.7-11.8h-17.4l29.1,28.5l-32.5,32.1l4.7,4.6l-10.1,10.3v16.3
	l-34.1,35.2h-16.4c-0.5,2-1.6,3.7-3.2,5h33.7c1.9,0,3.7,0.8,5,2.1l33.4,33.9H1604.4z M1513.2,336.5c0-5.4,4.4-9.8,9.8-9.8
	c4.9,0,8.9,3.6,9.6,8.3h14.5l31.8-32.8v-14.8l-10.2-10l4.4-4.5l-5.1-4.9h-20.3l-28,28H1481v21.2l26.2,26.8h9.5
	C1514.6,342.2,1513.2,339.5,1513.2,336.5z M1423.4,561l-2,2h-33.3c-0.5,2.4-2.6,4.3-5.2,4.3c-2.9,0-5.3-2.4-5.3-5.3s2.4-5.3,5.3-5.3
	c2.6,0,4.7,1.8,5.2,4.3H1423.4z M2047,274.4c9.6,0,17.4-7.8,17.4-17.4c0-3.4-1-6.6-2.7-9.3l-23.9,23.9
	C2040.4,273.4,2043.6,274.4,2047,274.4z M1894,415.4l1.4-1.4l7,7h70.8l13.8-14.2c-2.7-3.8-2.3-9.1,1.1-12.5c3.8-3.8,10-3.9,13.8-0.1
	c3.8,3.8,3.9,10,0.1,13.8c-3.3,3.3-8.3,3.8-12.1,1.5l-15.1,15.4h-68.4l5.9,5.9c2-1.4,4.9-1.2,6.7,0.6c2.1,2.1,2.1,5.4,0,7.4
	c-2.1,2.1-5.4,2.1-7.4,0c-1.8-1.8-2-4.6-0.6-6.7l-7.3-7.3h-15.8l-25.8,25.3l-1.5-1.5l27.9-27.9h11.2L1894,415.4z M1521.4,463l-14,14
	h-4.6l-24.2,24c-1.3,1.3-3.1,2-4.9,2h-22.9l-18,18c2.4,6.2,1.1,13.5-3.9,18.6c-6.8,6.8-17.8,6.8-24.6,0c-6.8-6.8-6.8-17.8,0-24.6
	c5-5,12.3-6.3,18.6-3.9l20-20c1.3-1.3,3.1-2,5-2h22.9l24.2-24c1.3-1.3,3.1-2,4.9-2H1521.4z M1536.1,448.3l-2.8,2.8l-15.1-15.1h-36.5
	l-7.7,7.8V458h-7v3.8l-21,22.2h-16.1l-22.5,23h-33.9c-1.1,4.2-4.9,7.3-9.4,7.3c-5.4,0-9.8-4.4-9.8-9.8s4.4-9.8,9.8-9.8
	c4.9,0,8.9,3.6,9.6,8.3h32l22.5-23h16.1l18.7-19.8V458h-6v-6h-35v18c0,1.9-0.8,3.7-2.1,5l-13.3,13c-1.3,1.3-3.1,2-4.9,2h-61.8
	l-12.7,12.9l-29.9,30.1c-1.3,1.3-3.1,2.1-5,2.1h-1.5c-2.7,6.1-8.8,10.4-15.9,10.4c-9.6,0-17.4-7.8-17.4-17.4s7.8-17.4,17.4-17.4
	c6.7,0,12.5,3.8,15.4,9.4l26.9-27l14.7-14.9c1.3-1.3,3.1-2.1,5-2.1h61.9l9.1-8.9V452h-28v-24.8l17-17v-47.5l24.6-24.6
	c-2.4-3.8-1.9-8.8,1.3-12.1c3.8-3.8,10-3.9,13.8-0.1s3.9,10,0.1,13.8c-3.4,3.4-8.6,3.8-12.4,1.2l-23.3,23.3v47.5l-17,17V448h24
	v-10.1c0-1.9,0.7-3.7,2.1-5l13-12.9c1.3-1.3,3.1-2,4.9-2h25.9l14.2-14c1.3-1.3,3.1-2,4.9-2h62.5c1.8,0,3.6,0.7,4.9,2l0.3,0.3
	c6.2-2.4,13.5-1.2,18.6,3.8c3.3,3.3,5,7.6,5.1,11.9l-17.8,17.8c-4.3-0.1-8.5-1.8-11.8-5c-4.6-4.5-6.1-11-4.6-16.8h-54.4l-14.2,14
	c-1.3,1.3-3.1,2-4.9,2h-25.9l-8.9,8.8v7.2h35v-8h15.1l7.9-8h39.8L1536.1,448.3z M1908.2,76.3l-2.8,2.8L1888.3,62h-52.4L1811,86.9
	V69.6c-4.4-0.9-7.8-4.9-7.8-9.6c0-5.4,4.4-9.8,9.8-9.8s9.8,4.4,9.8,9.8c0,4.7-3.3,8.6-7.8,9.6v7.6l19.2-19.2h55.7L1908.2,76.3z
	 M1484.7,232c0-2.9,2.4-5.3,5.3-5.3s5.3,2.4,5.3,5.3c0,2.6-1.8,4.7-4.3,5.2V274h27.6l30.4-30.4v-20l-6.2-6.2c-2,1.4-4.9,1.2-6.7-0.6
	c-2.1-2.1-2.1-5.4,0-7.4s5.4-2.1,7.4,0c1.8,1.8,2,4.6,0.6,6.7l6.8,6.8v21.7l-31.6,31.6H1489v-38.8
	C1486.6,236.7,1484.7,234.6,1484.7,232z M1622.6,329.3c-3.8-3.8-10-3.8-13.8,0c-3.8,3.8-3.8,10,0,13.8c3.3,3.3,8.5,3.8,12.3,1.3
	l9.5,9.5l2.8-2.8l-9.5-9.5C1626.4,337.7,1625.9,332.6,1622.6,329.3z M1646.2,95.2l17.8,17.8v21.6l18.1,18.1c2-1.4,4.9-1.2,6.7,0.6
	c2.1,2.1,2.1,5.4,0,7.4s-5.4,2.1-7.4,0c-1.8-1.8-2-4.6-0.6-6.7l-18.6-18.6v-21.6l-17.2-17.2c-2,1.4-4.9,1.2-6.7-0.6
	c-2.1-2.1-2.1-5.4,0-7.4s5.4-2.1,7.4,0C1647.4,90.3,1647.6,93.1,1646.2,95.2z M1495.2,192.8c-2.1-2.1-5.4-2.1-7.4,0s-2.1,5.4,0,7.4
	c1.8,1.8,4.6,2,6.7,0.6l29.2,29.2c-1.4,2-1.2,4.9,0.6,6.7c2.1,2.1,5.4,2.1,7.4,0s2.1-5.4,0-7.4c-1.8-1.8-4.6-2-6.7-0.6l-29.2-29.2
	C1497.2,197.4,1497,194.6,1495.2,192.8z M1431,363v34.8c2.4,0.5,4.3,2.6,4.3,5.2c0,2.9-2.4,5.3-5.3,5.3s-5.3-2.4-5.3-5.3
	c0-2.6,1.8-4.7,4.3-5.2V361h21.2l25.3,25h29.4c0.5-2.4,2.6-4.3,5.2-4.3c2.9,0,5.3,2.4,5.3,5.3s-2.4,5.3-5.3,5.3
	c-2.6,0-4.7-1.8-5.2-4.3h-30.2l-25.3-25H1431z M1659.5,86l24.5,24.3v24.3l34,33.5v15.5l27,27v-21.4c-2.4-0.5-4.3-2.6-4.3-5.2
	c0-2.9,2.4-5.3,5.3-5.3s5.3,2.4,5.3,5.3c0,2.6-1.8,4.7-4.3,5.2v26.3l-31-31v-15.5l-34-33.5v-24.3l-23.9-23.7c-2,1.4-4.8,1.2-6.7-0.6
	c-2.1-2-2.1-5.4,0-7.4c2-2.1,5.4-2.1,7.4,0C1660.6,81.1,1660.8,83.9,1659.5,86z M1590.3,110.9c2.1,2,5.4,2,7.4-0.1s2-5.4-0.1-7.4
	c-1.8-1.8-4.6-2-6.7-0.6l-17.3-17.1l-1.4,1.4l17.3,17.1C1588.2,106.3,1588.5,109.1,1590.3,110.9z M1312,573.7v11.5l7.9,8.1
	c6.2-2.3,13.6-1,18.5,4.1c6.7,6.9,6.6,17.9-0.3,24.6s-17.9,6.6-24.6-0.3c-5-5.1-6.2-12.4-3.7-18.6l-9.9-10.1c-1.3-1.3-2-3.1-2-4.9
	v-17.3c0-1.9,0.7-3.7,2.1-5l36-35.8c1.3-1.3,3.1-2,4.9-2h21.1c2.7-6.1,8.8-10.4,15.9-10.4c9.6,0,17.4,7.8,17.4,17.4
	s-7.8,17.4-17.4,17.4c-7.1,0-13.2-4.3-15.9-10.4h-18.2L1312,573.7z M1863.4,500h-42l20,20l-24.2,24.2c1.4,2,1.2,4.9-0.6,6.7
	c-2.1,2.1-5.4,2.1-7.4,0s-2.1-5.4,0-7.4c1.8-1.8,4.6-2,6.7-0.6l22.7-22.7l-22-22h42l-13.6-13.6c-2,1.4-4.9,1.2-6.7-0.6
	c-2.1-2.1-2.1-5.4,0-7.4s5.4-2.1,7.4,0c1.8,1.8,2,4.6,0.6,6.7L1863.4,500z M2014,362.9v32.9c2.4,0.5,4.3,2.6,4.3,5.2
	c0,2.9-2.4,5.3-5.3,5.3s-5.3-2.4-5.3-5.3c0-2.6,1.8-4.7,4.3-5.2v-33.7l30.6-31.1h20.3c0.5-2.4,2.6-4.3,5.2-4.3
	c2.9,0,5.3,2.4,5.3,5.3s-2.4,5.3-5.3,5.3c-2.6,0-4.7-1.8-5.2-4.3h-19.4L2014,362.9z M1837.4,472l4-4h10c0.7-4.7,4.8-8.3,9.6-8.3
	c5.4,0,9.8,4.4,9.8,9.8s-4.4,9.8-9.8,9.8c-4.5,0-8.3-3.1-9.4-7.3H1837.4z M1950.4,359l47-47c0.2,0.2,0.4,0.3,0.6,0.5
	c3.8,3.8,3.8,10,0,13.8c-3.2,3.2-8.2,3.7-12,1.5l-31.2,31.2H1950.4z M1757.4,552l2-2h19.7l14.8-14.6c-1.4-2.1-1.1-4.9,0.7-6.7
	c2.1-2,5.4-2,7.4,0c2,2.1,2,5.4,0,7.4c-1.8,1.8-4.6,2-6.7,0.6l-15.3,15.2H1757.4z M1359,354.6l3.2-3.2c-2.5-6.2-1.3-13.5,3.7-18.6
	c6.7-6.9,17.7-7,24.6-0.3c6.9,6.7,7,17.7,0.3,24.6c-5,5.1-12.3,6.5-18.5,4.1l-1.2,1.2V426c0,1.9-0.8,3.7-2.1,5l-11.3,11
	c-1.3,1.3-3.1,2-4.9,2h-25.9l-17.9,18c-1.3,1.3-3.1,2-5,2h-7.1l-15.6,15.6c2.4,6.2,1.1,13.6-3.9,18.6c-6.8,6.8-17.8,6.7-24.6-0.1
	c-6.8-6.8-6.7-17.8,0.1-24.6c5-5,12.4-6.3,18.6-3.9l17.7-17.6c1.3-1.3,3.1-2,4.9-2h7.1l17.9-18c1.3-1.3,3.1-2,5-2h25.9l7.1-6.9
	v-63.6C1357,357.7,1357.7,355.9,1359,354.6z M1917.4,392l14-14h32.7l57.6-57.7c-2.4-6.2-1.1-13.5,3.9-18.6c6.8-6.8,17.8-6.8,24.6,0
	c6.8,6.8,6.8,17.8,0,24.6c-5,5-12.3,6.3-18.6,3.9l-59.6,59.8c-1.3,1.3-3.1,2.1-5,2.1H1917.4z M1802.4,519.1c4.5-4.5,6-10.9,4.5-16.6
	l-21.1,21.1C1791.5,525,1797.9,523.5,1802.4,519.1z M1554.4,754.9l2.8-2.8l4.7,4.6v8.8c4.4,0.9,7.8,4.9,7.8,9.6
	c0,5.4-4.4,9.8-9.8,9.8s-9.8-4.4-9.8-9.8c0-4.7,3.3-8.6,7.8-9.6v-7.1L1554.4,754.9z M1386.8,597.6l-9.3,9.3c-3,0.3-6.1-0.7-8.4-3
	c-4-4.1-4-10.6,0.1-14.7c3.6-3.6,9.3-4,13.3-1.1l13.4-13.2h13.5l-4,4h-7.9l-12.3,12.1C1386.5,593.1,1387,595.4,1386.8,597.6z
	 M1534,784.8c5.4,0,9.8-4.4,9.8-9.8c0-2.6-1-5-2.7-6.7l-13.8,13.8C1529,783.7,1531.4,784.8,1534,784.8z M501,309h-5.5l12.5-12.5v5.5
	C508,305.9,504.9,309,501,309z M1379.6,267c0,3.6,1.1,7,3,9.8l24.1-24.1c-2.8-1.9-6.1-3-9.8-3C1387.4,249.6,1379.6,257.4,1379.6,267
	z M1386.8,597.6l-9.3,9.3c2.3-0.2,4.5-1.2,6.3-3C1385.6,602.2,1386.6,600,1386.8,597.6z M1559.4,432.7c3.5-3.5,5.1-8.1,5-12.6
	l-17.8,17.8C1551.3,437.9,1555.9,436.2,1559.4,432.7z"/>
<g id="Cogs_1_">
	<g id="middle">
		<path id="XMLID_61_" class="st0" d="M1015.7,691.1c-1.9,0-3.8-0.3-5.6-0.9l-21.4-6.9c-8.9-2.9-14.2-12.1-12.2-21.2
			c1.3-8.2,2.3-17.2,2.3-21.8c-2.4-1.9-4.7-3.9-7-6c-4.4,0.5-13.3,2.9-20.7,5.7c-8.7,3.5-18.8-0.2-23.1-8.7l-10.2-20
			c-4.3-8.4-1.5-18.5,6.3-23.6c6.7-4.8,13.8-10.6,17.1-13.8c-0.4-3-0.6-6.1-0.7-9.1c-3.5-2.7-11.4-7.3-18.7-10.6
			c-8.7-3.7-13.1-13.4-10.2-22.5l6.9-21.4c2.9-8.9,12.1-14.2,21.2-12.2c8.2,1.3,17.2,2.3,21.8,2.3c1.9-2.4,3.9-4.7,6-7
			c-0.5-4.4-2.9-13.3-5.7-20.7c-3.5-8.7,0.2-18.8,8.7-23.1l20-10.2c8.4-4.3,18.5-1.5,23.6,6.3c4.8,6.7,10.6,13.8,13.8,17.1
			c3-0.4,6.1-0.6,9.1-0.7c2.7-3.5,7.3-11.4,10.6-18.7c3.7-8.7,13.4-13.1,22.5-10.2l21.4,6.9c8.9,2.9,14.2,12.1,12.2,21.2
			c-1.3,8.2-2.3,17.2-2.3,21.8c2.4,1.9,4.7,3.9,7,6c4.4-0.5,13.3-2.9,20.7-5.7c8.7-3.5,18.8,0.2,23.1,8.7l10.2,20
			c4.3,8.4,1.5,18.5-6.3,23.6c-6.7,4.8-13.8,10.6-17.1,13.8c0.4,3,0.6,6.1,0.7,9.1c3.5,2.7,11.4,7.3,18.7,10.6
			c8.7,3.7,13.1,13.4,10.2,22.5l-6.9,21.4c-2.9,8.9-12.1,14.2-21.2,12.2c-8.2-1.3-17.2-2.3-21.8-2.3c-1.9,2.4-3.9,4.7-6,7
			c0.5,4.4,2.9,13.3,5.7,20.7c3.5,8.7-0.2,18.8-8.7,23.1l-20,10.2c-8.4,4.3-18.5,1.5-23.6-6.3c-4.8-6.7-10.6-13.8-13.8-17.1
			c-3,0.4-6.1,0.6-9.1,0.7c-2.7,3.5-7.3,11.4-10.6,18.7C1029.6,686.9,1022.8,691.1,1015.7,691.1z">

                <animateTransform attributeName="transform"
                    attributeType="XML"
                    type="rotate"
                    from="360 1040.1 561.705"
                    to="0 1040.1 561.705"
                    dur="1s"
                    repeatCount="indefinite" />
            </path>
		<radialGradient id="SVGID_1_" cx="1040.0605" cy="561.735" r="115.2874" gradientUnits="userSpaceOnUse">
			<stop  offset="0" style="stop-color:#FF1D25"/>
			<stop  offset="1" style="stop-color:#910202"/>
		</radialGradient>
		<path class="st1" d="M1134.2,496.6c0,0-20,7.5-29,6.7c-1-0.1-2-0.2-3-0.3c-4.2-4.4-8.8-8.4-13.9-11.9c-0.2-0.9-0.4-1.8-0.6-2.8
			c-1.5-7.6,2.2-29.6,2.2-29.6c0.6-2.1-0.6-4.3-2.7-5l-21.4-6.9c-2.1-0.7-4.4,0.4-5.2,2.4c0,0-8.9,19.5-15.7,25.2
			c-0.8,0.7-1.6,1.3-2.4,1.9c-6.2-0.2-12.3,0.3-18.2,1.5c-0.8-0.5-1.6-1-2.4-1.5c-6.4-4.3-19.4-22.5-19.4-22.5
			c-1.1-1.9-3.5-2.6-5.5-1.6l-20,10.2c-2,1-2.8,3.4-1.9,5.4c0,0,7.5,20,6.7,29c-0.1,1-0.2,2-0.3,3c-4.4,4.2-8.4,8.8-11.9,13.9
			c-0.9,0.2-1.8,0.4-2.8,0.6C959,515.6,937,512,937,512c-2.1-0.6-4.3,0.6-5,2.7l-6.9,21.4c-0.7,2.1,0.4,4.4,2.4,5.2
			c0,0,19.5,8.9,25.2,15.7c0.7,0.8,1.3,1.6,1.9,2.4c-0.2,6.2,0.3,12.3,1.5,18.2c-0.5,0.8-1,1.6-1.5,2.4
			c-4.3,6.4-22.5,19.4-22.5,19.4c-1.9,1.1-2.6,3.5-1.6,5.5l10.2,20c1,2,3.4,2.8,5.4,1.9c0,0,20-7.5,29-6.7c1,0.1,2,0.2,3,0.3
			c4.2,4.4,8.8,8.4,13.9,11.9c0.2,0.9,0.4,1.8,0.6,2.8c1.5,7.6-2.2,29.6-2.2,29.6c-0.6,2.1,0.6,4.3,2.7,5l21.4,6.9
			c2.1,0.7,4.4-0.4,5.2-2.4c0,0,8.9-19.5,15.7-25.2c0.8-0.7,1.6-1.3,2.4-1.9c6.2,0.2,12.3-0.3,18.2-1.5c0.8,0.5,1.6,1,2.4,1.5
			c6.4,4.3,19.4,22.5,19.4,22.5c1.1,1.9,3.5,2.6,5.5,1.6l20-10.2c2-1,2.8-3.4,1.9-5.4c0,0-7.5-20-6.7-29c0.1-1,0.2-2,0.3-3
			c4.4-4.2,8.4-8.8,11.9-13.9c0.9-0.2,1.8-0.4,2.8-0.6c7.6-1.5,29.6,2.2,29.6,2.2c2.1,0.6,4.3-0.6,5-2.7l6.9-21.4
			c0.7-2.1-0.4-4.4-2.4-5.2c0,0-19.5-8.9-25.2-15.7c-0.7-0.8-1.3-1.6-1.9-2.4c0.2-6.2-0.3-12.3-1.5-18.2c0.5-0.8,1-1.6,1.5-2.4
			c4.3-6.4,22.5-19.4,22.5-19.4c1.9-1.1,2.6-3.5,1.6-5.5l-10.2-20C1138.6,496.5,1136.2,495.7,1134.2,496.6z M1095.1,607.9
			c-25.5,30.4-70.9,34.4-101.3,8.9s-34.4-70.9-8.9-101.3c25.5-30.4,70.9-34.4,101.3-8.9C1116.7,532.2,1120.6,577.5,1095.1,607.9z
			 M993.6,522.7c-21.5,25.7-18.2,63.9,7.5,85.5c25.7,21.5,63.9,18.2,85.5-7.5s18.2-63.9-7.5-85.5S1015.1,497.1,993.6,522.7z
			 M1074.7,590.8c-16,19.1-44.5,21.6-63.6,5.6c-19.1-16-21.6-44.5-5.6-63.6s44.5-21.6,63.6-5.6
			C1088.2,543.2,1090.7,571.7,1074.7,590.8z M1051.8,547.8c7.7,6.5,8.7,18,2.2,25.7c-6.5,7.7-18,8.7-25.7,2.2
			c-7.7-6.5-8.7-18-2.2-25.7C1032.6,542.3,1044.1,541.3,1051.8,547.8z">

                <animateTransform attributeName="transform"
                    attributeType="XML"
                    type="rotate"
                    from="360 1040.05 561.7"
                    to="0 1040.05 561.7"
                    dur="1s"
                    repeatCount="indefinite" />
            </path>
	</g>
	<g id="left">
		<path id="XMLID_23_" class="st0" d="M896.3,843c-1.3,0-2.7-0.2-4.1-0.5l-21.9-5c-8.4-1.9-14.2-9.5-14.2-17.9
			c-0.4-2.8-1.2-8.9-1.9-15.7c-5.4-3.5-10.4-7.6-15.1-12.1c-6.7,0.9-12.8,1.5-15.4,1.7c-8.2,2-17-2-20.7-9.9l-9.7-20.3
			c-3.7-7.8-1.4-17,5.2-22.2c1.9-2,6.2-6.5,11.1-11.3c-0.5-5.3-0.6-10.6-0.2-15.9c0.1-1.1,0.2-2.2,0.3-3.4c-4.8-4.7-9.1-9.1-11-11
			c-6.7-5.2-9-14.5-5.2-22.3l9.8-20.2c3.8-7.8,12.4-11.8,20.6-9.8c2.8,0.2,9,0.8,15.8,1.6c4.6-4.5,9.7-8.5,15.1-12
			c0.7-6.7,1.4-12.8,1.7-15.4c-0.1-8.5,5.7-16.1,14.2-18l21.9-5c8.4-1.9,16.9,2.4,20.5,10c1.5,2.3,5,7.5,8.6,13.4
			c6.4,0.8,12.7,2.3,18.8,4.4c5.7-3.7,10.9-6.9,13.1-8.2c6.6-5.3,16.1-5.5,22.9-0.1l17.5,14c6.8,5.4,8.7,14.7,5,22.3
			c-0.8,2.7-2.8,8.6-5.1,15c3.3,5.5,6.1,11.4,8.3,17.4c6.4,2.1,12.1,4.2,14.6,5.1c8.3,1.8,14.4,9.2,14.4,17.9l0,22.5
			c0,8.7-6.1,16-14.3,17.8c-2.6,1-8.4,3.2-14.9,5.4c-2.2,6.1-5.1,11.9-8.4,17.4c2.3,6.3,4.3,12.1,5.1,14.6c3.8,7.6,1.8,17-5,22.4
			l-17.6,14c-6.8,5.4-16.3,5.2-22.8-0.1c-2.4-1.4-7.8-4.6-13.5-8.3c-6.1,2-12.4,3.4-18.9,4.2c-3.5,5.8-6.8,10.9-8.3,13.1
			C909.8,838.9,903.3,843,896.3,843z">

                <animateTransform attributeName="transform"
                    attributeType="XML"
                    type="rotate"
                    from="0 906.341 719.214"
                    to="360 906.341 719.214"
                    dur="1s"
                    repeatCount="indefinite" />
            </path>

		<radialGradient id="SVGID_2_" cx="911.4746" cy="720.4521" r="107.1747" gradientUnits="userSpaceOnUse">
			<stop  offset="0" style="stop-color:#FF1D25"/>
			<stop  offset="1" style="stop-color:#910202"/>
		</radialGradient>
		<path class="st2" d="M962.2,629.2c0,0-10.6,6.4-19.8,12.6c-8.6-3.7-18-6-27.9-6.7c-0.4,0-0.8,0-1.1-0.1
			c-5.5-9.7-12.6-20.1-12.6-20.1c-0.6-2.1-2.8-3.4-4.9-2.9l-21.9,5c-2.2,0.5-3.6,2.6-3.2,4.7c0,0-1.6,12.3-2.5,23.4
			c-8.8,4.8-16.7,11-23.4,18.5c-11-1.7-23.5-2.7-23.5-2.7c-2-0.8-4.4,0-5.4,2l-9.8,20.2c-1,2-0.2,4.4,1.7,5.5c0,0,8.6,8.9,16.7,16.5
			c-0.6,3.1-1,6.3-1.2,9.5c-0.5,6.9-0.1,13.7,1.1,20.3c-8.2,7.5-16.7,16.7-16.7,16.7c-1.9,1.1-2.7,3.5-1.7,5.5l9.7,20.3
			c1,2,3.3,2.9,5.3,2.1c0,0,12.3-1.1,23.3-2.8c6.6,7.5,14.4,13.8,23.2,18.7c0.8,11.1,2.6,23.5,2.6,23.5c-0.4,2.2,1,4.3,3.2,4.8
			l21.9,5c2.2,0.5,4.3-0.8,4.9-2.9c0,0,6.8-10.4,12.4-20c10.2-0.5,20-2.7,29.1-6.5c9.2,6.3,20,12.6,20,12.6c1.5,1.7,4,1.9,5.7,0.5
			l17.6-14c1.7-1.4,2.1-3.9,0.8-5.7c0,0-3.8-11.8-7.9-22.1c5.8-8,10.3-17,13-26.8c10.6-3.2,22.3-7.8,22.3-7.8
			c2.2-0.1,3.9-1.9,3.9-4.2l0-22.5c0-2.2-1.7-4-3.9-4.2c0,0-11.6-4.3-22.2-7.6c-2.7-9.8-7.1-18.8-12.8-26.9
			c4.1-10.3,7.8-22.3,7.8-22.3c1.3-1.8,0.9-4.3-0.8-5.7l-17.5-14C966.1,627.3,963.6,627.5,962.2,629.2z M960.6,745.6
			c-14.5,30-50.6,42.5-80.5,28c-30-14.5-42.5-50.6-28-80.5c14.5-30,50.6-42.5,80.5-28C962.5,679.5,975.1,715.6,960.6,745.6z
			 M922.7,685.4c18.7,9.1,26.6,31.6,17.5,50.3c-9.1,18.7-31.6,26.6-50.3,17.5c-18.7-9.1-26.6-31.6-17.5-50.3
			C881.5,684.2,904,676.3,922.7,685.4z">

                <animateTransform attributeName="transform"
                    attributeType="XML"
                    type="rotate"
                    from="0 906.341 720.35"
                    to="360 906.341 720.35"
                    dur="1s"
                    repeatCount="indefinite" />
            </path>

	</g>
	<g id="right">
		<path id="XMLID_38_" class="st0" d="M1220.6,789.1c-4.8,0-9.3-2.2-12.2-6.2c-1.6-1.6-5.3-5.3-9.1-9.5c-5.4,0.3-10.7,0.1-16-0.6
			c-4,3.9-7.8,7.3-9.4,8.8c-4.5,5.4-12.3,7.1-18.7,3.7l-16.5-8.7c-6.4-3.3-9.4-10.6-7.6-17.4c0.3-2.3,0.9-7.4,1.8-13.1
			c-3-3.3-5.6-6.8-8-10.5c-0.5-0.8-1-1.6-1.5-2.4c-5.6-0.7-10.6-1.5-12.8-1.9c-7-0.2-13.2-5.2-14.5-12.3l-3.5-18.3
			c-1.4-7.1,2.5-14,8.9-16.8c2-1.2,6.4-3.9,11.3-6.7c0.9-5.3,2.3-10.5,4.1-15.5c-2.9-4.8-5.4-9.2-6.5-11.1c-4.3-5.6-4.1-13.6,0.6-19
			l12.1-14.2c4.7-5.5,12.5-6.8,18.6-3.5c2.2,0.8,7.1,2.5,12.3,4.7c4.7-2.6,9.6-4.8,14.7-6.4c1.9-5.3,3.8-10,4.7-12
			c1.7-6.8,8-11.7,15.2-11.4l18.6,0.7c7.2,0.3,13.1,5.5,14.4,12.4c0.8,2.2,2.4,7.1,4,12.5c5,2,9.7,4.5,14.2,7.5
			c5.3-1.8,10.2-3.2,12.3-3.8c6.4-2.9,14.1-1,18.4,4.8l11.1,15c4.3,5.8,3.9,13.7-0.7,19c-1.2,1.9-4,6.3-7.3,11
			c1.5,5.1,2.5,10.4,3,15.8c4.7,3.1,8.9,6,10.7,7.2c6.3,3.2,9.6,10.4,7.8,17.4l-4.8,18c-1.8,7-8.3,11.5-15.3,11.3
			c-2.3,0.2-7.5,0.8-13.1,1.1c-3.1,4.4-6.6,8.5-10.5,12.2c0.5,5.6,0.9,10.6,1,12.8c1.4,6.9-2.2,14-8.8,16.9l-17.1,7.5
			C1224.7,788.7,1222.7,789.1,1220.6,789.1z">

                <animateTransform attributeName="transform"
                    attributeType="XML"
                    type="rotate"
                    from="0 1192.1 691.26"
                    to="360 1192.1 691.26"
                    dur="1s"
                    repeatCount="indefinite" />
            </path>
		<radialGradient id="SVGID_3_" cx="1193.9885" cy="688.9094" r="89.2715" gradientUnits="userSpaceOnUse">
			<stop  offset="0" style="stop-color:#FF1D25"/>
			<stop  offset="1" style="stop-color:#910202"/>
		</radialGradient>
		<path class="st3" d="M1184.7,603.5c0,0-3.9,9.5-6.9,18.2c-7.6,1.8-15,4.9-21.9,9.4c-0.3,0.2-0.5,0.4-0.8,0.5
			c-8.5-3.7-18.3-7.1-18.3-7.1c-1.5-1.1-3.5-0.9-4.7,0.5l-12.1,14.2c-1.2,1.4-1.1,3.5,0.2,4.7c0,0,5,9,9.9,16.8
			c-3.5,7.5-5.7,15.6-6.4,23.9c-8.2,4.3-17,9.9-17,9.9c-1.8,0.4-2.9,2.2-2.6,4l3.5,18.3c0.3,1.8,2,3,3.9,2.8c0,0,10.1,1.7,19.3,2.7
			c1.2,2.4,2.5,4.7,3.9,6.9c3.1,4.8,6.8,9.2,10.8,13c-1.7,9.1-2.9,19.4-2.9,19.4c-0.8,1.7-0.1,3.6,1.5,4.5l16.5,8.7
			c1.6,0.9,3.6,0.3,4.6-1.3c0,0,7.7-6.9,14.2-13.4c8.1,1.7,16.5,2.1,24.7,0.9c6,7,13.4,14.4,13.4,14.4c0.8,1.6,2.8,2.3,4.5,1.6
			l17.1-7.5c1.7-0.7,2.5-2.7,1.9-4.4c0,0-0.6-10.3-1.7-19.4c6.6-5.4,12-11.7,16.2-18.8c9.2-0.3,19.6-1.5,19.6-1.5
			c1.8,0.4,3.6-0.7,4-2.5l4.8-18c0.5-1.8-0.5-3.6-2.3-4.2c0,0-8.4-5.9-16.2-10.8c-0.1-8.2-1.6-16.4-4.6-24.3
			c5.5-7.4,11-16.3,11-16.3c1.4-1.2,1.7-3.3,0.6-4.7l-11.1-15c-1.1-1.5-3.1-1.8-4.7-0.8c0,0-9.9,2.9-18.6,5.9
			c-6.6-5.2-14.1-9-21.9-11.6c-2.4-8.9-5.9-18.8-5.9-18.8c0-1.8-1.5-3.3-3.3-3.4l-18.6-0.7C1186.4,600.3,1184.9,601.7,1184.7,603.5z
			 M1241.3,681.8c5.2,27.2-12.6,53.4-39.8,58.6c-27.2,5.2-53.4-12.6-58.6-39.8s12.6-53.4,39.8-58.6
			C1209.9,636.9,1236.1,654.7,1241.3,681.8z M1186.3,660.5c17-3.2,33.4,7.9,36.6,24.9s-7.9,33.4-24.9,36.6s-33.4-7.9-36.6-24.9
			S1169.3,663.8,1186.3,660.5z">

                <animateTransform attributeName="transform"
                    attributeType="XML"
                    type="rotate"
                    from="0 1192.1 691.26"
                    to="360 1192.1 691.26"
                    dur="1s"
                    repeatCount="indefinite" />
            </path>
	</g>
</g>
</svg>
