<?xml version="1.0" encoding="utf-8"?>
<svg version="1.1" id="cogs" xmlns="http://www.w3.org/2000/svg" xmlns:xlink="http://www.w3.org/1999/xlink" x="0px" y="0px"
	 viewBox="0 0 543 446" style="enable-background:new 0 0 543 446;" xml:space="preserve">
<style type="text/css">
	.st0{fill:#FFFFFF;}
	.st1{fill:url(#SVGID_1_);}
	.st2{fill:url(#SVGID_2_);}
	.st3{fill:url(#SVGID_3_);}
</style>
<g id="middle">
	<path id="XMLID_61_" class="st0" d="M243.6,276.9c-1.9,0-3.8-0.3-5.6-0.9l-21.4-6.9c-8.9-2.9-14.2-12.1-12.2-21.2
		c1.3-8.2,2.3-17.2,2.3-21.8c-2.4-1.9-4.7-3.9-7-6c-4.4,0.5-13.3,2.9-20.7,5.7c-8.7,3.5-18.8-0.2-23.1-8.7l-10.2-20
		c-4.3-8.4-1.5-18.5,6.3-23.6c6.7-4.8,13.8-10.6,17.1-13.8c-0.4-3-0.6-6.1-0.7-9.1c-3.5-2.7-11.4-7.3-18.7-10.6
		c-8.7-3.7-13.1-13.4-10.2-22.5l6.9-21.4c2.9-8.9,12.1-14.2,21.2-12.2c8.2,1.3,17.2,2.3,21.8,2.3c1.9-2.4,3.9-4.7,6-7
		c-0.5-4.4-2.9-13.3-5.7-20.7c-3.5-8.7,0.2-18.8,8.7-23.1l20-10.2c8.4-4.3,18.5-1.5,23.6,6.3c4.8,6.7,10.6,13.8,13.8,17.1
		c3-0.4,6.1-0.6,9.1-0.7c2.7-3.5,7.3-11.4,10.6-18.7c3.7-8.7,13.4-13.1,22.5-10.2l21.4,6.9c8.9,2.9,14.2,12.1,12.2,21.2
		c-1.3,8.2-2.3,17.2-2.3,21.8c2.4,1.9,4.7,3.9,7,6c4.4-0.5,13.3-2.9,20.7-5.7c8.7-3.5,18.8,0.2,23.1,8.7l10.2,20
		c4.3,8.4,1.5,18.5-6.3,23.6c-6.7,4.8-13.8,10.6-17.1,13.8c0.4,3,0.6,6.1,0.7,9.1c3.5,2.7,11.4,7.3,18.7,10.6
		c8.7,3.7,13.1,13.4,10.2,22.5l-6.9,21.4c-2.9,8.9-12.1,14.2-21.2,12.2c-8.2-1.3-17.2-2.3-21.8-2.3c-1.9,2.4-3.9,4.7-6,7
		c0.5,4.4,2.9,13.3,5.7,20.7c3.5,8.7-0.2,18.8-8.7,23.1l-20,10.2c-8.4,4.3-18.5,1.5-23.6-6.3c-4.8-6.7-10.6-13.8-13.8-17.1
		c-3,0.4-6.1,0.6-9.1,0.7c-2.7,3.5-7.3,11.4-10.6,18.7C257.5,272.7,250.7,276.9,243.6,276.9z">

            <animateTransform attributeName="transform"
                attributeType="XML"
                type="rotate"
                from="360 267.96 147.559"
                to="0 267.96 147.559"
                dur="1s"
                repeatCount="indefinite" />
        </path>
	<radialGradient id="SVGID_1_" cx="267.9597" cy="147.5585" r="115.2874" gradientUnits="userSpaceOnUse">
		<stop  offset="0" style="stop-color:#FF1D25"/>
		<stop  offset="1" style="stop-color:#910202"/>
	</radialGradient>
	<path class="st1" d="M362.1,82.4c0,0-20,7.5-29,6.7c-1-0.1-2-0.2-3-0.3c-4.2-4.4-8.8-8.4-13.9-11.9c-0.2-0.9-0.4-1.8-0.6-2.8
		c-1.5-7.6,2.2-29.6,2.2-29.6c0.6-2.1-0.6-4.3-2.7-5l-21.4-6.9c-2.1-0.7-4.4,0.4-5.2,2.4c0,0-8.9,19.5-15.7,25.2
		c-0.8,0.7-1.6,1.3-2.4,1.9c-6.2-0.2-12.3,0.3-18.2,1.5c-0.8-0.5-1.6-1-2.4-1.5c-6.4-4.3-19.4-22.5-19.4-22.5
		c-1.1-1.9-3.5-2.6-5.5-1.6l-20,10.2c-2,1-2.8,3.4-1.9,5.4c0,0,7.5,20,6.7,29c-0.1,1-0.2,2-0.3,3c-4.4,4.2-8.4,8.8-11.9,13.9
		c-0.9,0.2-1.8,0.4-2.8,0.6c-7.6,1.5-29.6-2.2-29.6-2.2c-2.1-0.6-4.3,0.6-5,2.7l-6.9,21.4c-0.7,2.1,0.4,4.4,2.4,5.2
		c0,0,19.5,8.9,25.2,15.7c0.7,0.8,1.3,1.6,1.9,2.4c-0.2,6.2,0.3,12.3,1.5,18.2c-0.5,0.8-1,1.6-1.5,2.4c-4.3,6.4-22.5,19.4-22.5,19.4
		c-1.9,1.1-2.6,3.5-1.6,5.5l10.2,20c1,2,3.4,2.8,5.4,1.9c0,0,20-7.5,29-6.7c1,0.1,2,0.2,3,0.3c4.2,4.4,8.8,8.4,13.9,11.9
		c0.2,0.9,0.4,1.8,0.6,2.8c1.5,7.6-2.2,29.6-2.2,29.6c-0.6,2.1,0.6,4.3,2.7,5l21.4,6.9c2.1,0.7,4.4-0.4,5.2-2.4
		c0,0,8.9-19.5,15.7-25.2c0.8-0.7,1.6-1.3,2.4-1.9c6.2,0.2,12.3-0.3,18.2-1.5c0.8,0.5,1.6,1,2.4,1.5c6.4,4.3,19.4,22.5,19.4,22.5
		c1.1,1.9,3.5,2.6,5.5,1.6l20-10.2c2-1,2.8-3.4,1.9-5.4c0,0-7.5-20-6.7-29c0.1-1,0.2-2,0.3-3c4.4-4.2,8.4-8.8,11.9-13.9
		c0.9-0.2,1.8-0.4,2.8-0.6c7.6-1.5,29.6,2.2,29.6,2.2c2.1,0.6,4.3-0.6,5-2.7l6.9-21.4c0.7-2.1-0.4-4.4-2.4-5.2
		c0,0-19.5-8.9-25.2-15.7c-0.7-0.8-1.3-1.6-1.9-2.4c0.2-6.2-0.3-12.3-1.5-18.2c0.5-0.8,1-1.6,1.5-2.4c4.3-6.4,22.5-19.4,22.5-19.4
		c1.9-1.1,2.6-3.5,1.6-5.5l-10.2-20C366.5,82.4,364.1,81.5,362.1,82.4z M323,193.8c-25.5,30.4-70.9,34.4-101.3,8.9
		s-34.4-70.9-8.9-101.3s70.9-34.4,101.3-8.9S348.5,163.4,323,193.8z M221.5,108.6c-21.5,25.7-18.2,63.9,7.5,85.5
		c25.7,21.5,63.9,18.2,85.5-7.5c21.5-25.7,18.2-63.9-7.5-85.5C281.3,79.5,243,82.9,221.5,108.6z M302.5,176.6
		c-16,19.1-44.5,21.6-63.6,5.6c-19.1-16-21.6-44.5-5.6-63.6s44.5-21.6,63.6-5.6C316.1,129,318.6,157.5,302.5,176.6z M279.7,133.6
		c7.7,6.5,8.7,18,2.2,25.7c-6.5,7.7-18,8.7-25.7,2.2c-7.7-6.5-8.7-18-2.2-25.7C260.5,128.1,272,127.1,279.7,133.6z">

            <animateTransform attributeName="transform"
                attributeType="XML"
                type="rotate"
                from="360 267.96 147.559"
                to="0 267.96 147.559"
                dur="1s"
                repeatCount="indefinite" />
        </path>
</g>
<g id="left">
	<path id="XMLID_23_" class="st0" d="M124.2,428.8c-1.3,0-2.7-0.2-4.1-0.5l-21.9-5c-8.4-1.9-14.2-9.5-14.2-17.9
		c-0.4-2.8-1.2-8.9-1.9-15.7c-5.4-3.5-10.4-7.6-15.1-12.1c-6.7,0.9-12.8,1.5-15.4,1.7c-8.2,2-17-2-20.7-9.9l-9.7-20.3
		c-3.7-7.8-1.4-17,5.2-22.2c1.9-2,6.2-6.5,11.1-11.3c-0.5-5.3-0.6-10.6-0.2-15.9c0.1-1.1,0.2-2.2,0.3-3.4c-4.8-4.7-9.1-9.1-11-11
		c-6.7-5.2-9-14.5-5.2-22.3l9.8-20.2c3.8-7.8,12.4-11.8,20.6-9.8c2.8,0.2,9,0.8,15.8,1.6c4.6-4.5,9.7-8.5,15.1-12
		c0.7-6.7,1.4-12.8,1.7-15.4c-0.1-8.5,5.7-16.1,14.2-18l21.9-5c8.4-1.9,16.9,2.4,20.5,10c1.5,2.3,5,7.5,8.6,13.4
		c6.4,0.8,12.7,2.3,18.8,4.4c5.7-3.7,10.9-6.9,13.1-8.2c6.6-5.3,16.1-5.5,22.9-0.1l17.5,14c6.8,5.4,8.7,14.7,5,22.3
		c-0.8,2.7-2.8,8.6-5.1,15c3.3,5.5,6.1,11.4,8.3,17.4c6.4,2.1,12.1,4.2,14.6,5.1c8.3,1.8,14.4,9.2,14.4,17.9l0,22.5
		c0,8.7-6.1,16-14.3,17.8c-2.6,1-8.4,3.2-14.9,5.4c-2.2,6.1-5.1,11.9-8.4,17.4c2.3,6.3,4.3,12.1,5.1,14.6c3.8,7.6,1.8,17-5,22.4
		l-17.6,14c-6.8,5.4-16.3,5.2-22.8-0.1c-2.4-1.4-7.8-4.6-13.5-8.3c-6.1,2-12.4,3.4-18.9,4.2c-3.5,5.8-6.8,10.9-8.3,13.1
		C137.7,424.7,131.2,428.8,124.2,428.8z">

            <animateTransform attributeName="transform"
                attributeType="XML"
                type="rotate"
                from="0 134.214 305.128"
                to="360 134.214 305.128"
                dur="1s"
                repeatCount="indefinite" />
        </path>
	<radialGradient id="SVGID_2_" cx="139.3738" cy="306.2757" r="107.1747" gradientUnits="userSpaceOnUse">
		<stop  offset="0" style="stop-color:#FF1D25"/>
		<stop  offset="1" style="stop-color:#910202"/>
	</radialGradient>
	<path class="st2" d="M190.1,215c0,0-10.6,6.4-19.8,12.6c-8.6-3.7-18-6-27.9-6.7c-0.4,0-0.8,0-1.1-0.1c-5.5-9.7-12.6-20.1-12.6-20.1
		c-0.6-2.1-2.8-3.4-4.9-2.9l-21.9,5c-2.2,0.5-3.6,2.6-3.2,4.7c0,0-1.6,12.3-2.5,23.4c-8.8,4.8-16.7,11-23.4,18.5
		c-11-1.7-23.5-2.7-23.5-2.7c-2-0.8-4.4,0-5.4,2l-9.8,20.2c-1,2-0.2,4.4,1.7,5.5c0,0,8.6,8.9,16.7,16.5c-0.6,3.1-1,6.3-1.2,9.5
		c-0.5,6.9-0.1,13.7,1.1,20.3c-8.2,7.5-16.7,16.7-16.7,16.7c-1.9,1.1-2.7,3.5-1.7,5.5l9.7,20.3c1,2,3.3,2.9,5.3,2.1
		c0,0,12.3-1.1,23.3-2.8c6.6,7.5,14.4,13.8,23.2,18.7c0.8,11.1,2.6,23.5,2.6,23.5c-0.4,2.2,1,4.3,3.2,4.8l21.9,5
		c2.2,0.5,4.3-0.8,4.9-2.9c0,0,6.8-10.4,12.4-20c10.2-0.5,20-2.7,29.1-6.5c9.2,6.3,20,12.6,20,12.6c1.5,1.7,4,1.9,5.7,0.5l17.6-14
		c1.7-1.4,2.1-3.9,0.8-5.7c0,0-3.8-11.8-7.9-22.1c5.8-8,10.3-17,13-26.8c10.6-3.2,22.3-7.8,22.3-7.8c2.2-0.1,3.9-1.9,3.9-4.2l0-22.5
		c0-2.2-1.7-4-3.9-4.2c0,0-11.6-4.3-22.2-7.6c-2.7-9.8-7.1-18.8-12.8-26.9c4.1-10.3,7.8-22.3,7.8-22.3c1.3-1.8,0.9-4.3-0.8-5.7
		l-17.5-14C194,213.2,191.5,213.4,190.1,215z M188.5,331.4c-14.5,30-50.6,42.5-80.5,28c-30-14.5-42.5-50.6-28-80.5
		s50.6-42.5,80.5-28C190.4,265.4,203,301.4,188.5,331.4z M150.6,271.2c18.7,9.1,26.6,31.6,17.5,50.3c-9.1,18.7-31.6,26.6-50.3,17.5
		c-18.7-9.1-26.6-31.6-17.5-50.3C109.4,270,131.9,262.1,150.6,271.2z">

            <animateTransform attributeName="transform"
                attributeType="XML"
                type="rotate"
                from="0 134.214 305.128"
                to="360 134.214 305.128"
                dur="1s"
                repeatCount="indefinite" />
        </path>
</g>
<g id="right">
	<path id="XMLID_38_" class="st0" d="M448.5,375c-4.8,0-9.3-2.2-12.2-6.2c-1.6-1.6-5.3-5.3-9.1-9.5c-5.4,0.3-10.7,0.1-16-0.6
		c-4,3.9-7.8,7.3-9.4,8.8c-4.5,5.4-12.3,7.1-18.7,3.7l-16.5-8.7c-6.4-3.3-9.4-10.6-7.6-17.4c0.3-2.3,0.9-7.4,1.8-13.1
		c-3-3.3-5.6-6.8-8-10.5c-0.5-0.8-1-1.6-1.5-2.4c-5.6-0.7-10.6-1.5-12.8-1.9c-7-0.2-13.2-5.2-14.5-12.3l-3.5-18.3
		c-1.4-7.1,2.5-14,8.9-16.8c2-1.2,6.4-3.9,11.3-6.7c0.9-5.3,2.3-10.5,4.1-15.5c-2.9-4.8-5.4-9.2-6.5-11.1c-4.3-5.6-4.1-13.6,0.6-19
		l12.1-14.2c4.7-5.5,12.5-6.8,18.6-3.5c2.2,0.8,7.1,2.5,12.3,4.7c4.7-2.6,9.6-4.8,14.7-6.4c1.9-5.3,3.8-10,4.7-12
		c1.7-6.8,8-11.7,15.2-11.4l18.6,0.7c7.2,0.3,13.1,5.5,14.4,12.4c0.8,2.2,2.4,7.1,4,12.5c5,2,9.7,4.5,14.2,7.5
		c5.3-1.8,10.2-3.2,12.3-3.8c6.4-2.9,14.1-1,18.4,4.8l11.1,15c4.3,5.8,3.9,13.7-0.7,19c-1.2,1.9-4,6.3-7.3,11
		c1.5,5.1,2.5,10.4,3,15.8c4.7,3.1,8.9,6,10.7,7.2c6.3,3.2,9.6,10.4,7.8,17.4l-4.8,18c-1.8,7-8.3,11.5-15.3,11.3
		c-2.3,0.2-7.5,0.8-13.1,1.1c-3.1,4.4-6.6,8.5-10.5,12.2c0.5,5.6,0.9,10.6,1,12.8c1.4,6.9-2.2,14-8.8,16.9l-17.1,7.5
		C452.6,374.5,450.6,375,448.5,375z">

            <animateTransform attributeName="transform"
                attributeType="XML"
                type="rotate"
                from="0 420.035 277.073"
                to="360 420.035 277.073"
                dur="1s"
                repeatCount="indefinite" />
        </path>
	<radialGradient id="SVGID_3_" cx="421.8877" cy="274.7329" r="89.2715" gradientUnits="userSpaceOnUse">
		<stop  offset="0" style="stop-color:#FF1D25"/>
		<stop  offset="1" style="stop-color:#910202"/>
	</radialGradient>
	<path class="st3" d="M412.6,189.3c0,0-3.9,9.5-6.9,18.2c-7.6,1.8-15,4.9-21.9,9.4c-0.3,0.2-0.5,0.4-0.8,0.5
		c-8.5-3.7-18.3-7.1-18.3-7.1c-1.5-1.1-3.5-0.9-4.7,0.5L347.7,225c-1.2,1.4-1.1,3.5,0.2,4.7c0,0,5,9,9.9,16.8
		c-3.5,7.5-5.7,15.6-6.4,23.9c-8.2,4.3-17,9.9-17,9.9c-1.8,0.4-2.9,2.2-2.6,4l3.5,18.3c0.3,1.8,2,3,3.9,2.8c0,0,10.1,1.7,19.3,2.7
		c1.2,2.4,2.5,4.7,3.9,6.9c3.1,4.8,6.8,9.2,10.8,13c-1.7,9.1-2.9,19.4-2.9,19.4c-0.8,1.7-0.1,3.6,1.5,4.5l16.5,8.7
		c1.6,0.9,3.6,0.3,4.6-1.3c0,0,7.7-6.9,14.2-13.4c8.1,1.7,16.5,2.1,24.7,0.9c6,7,13.4,14.4,13.4,14.4c0.8,1.6,2.8,2.3,4.5,1.6
		l17.1-7.5c1.7-0.7,2.5-2.7,1.9-4.4c0,0-0.6-10.3-1.7-19.4c6.6-5.4,12-11.7,16.2-18.8c9.2-0.3,19.6-1.5,19.6-1.5
		c1.8,0.4,3.6-0.7,4-2.5l4.8-18c0.5-1.8-0.5-3.6-2.3-4.2c0,0-8.4-5.9-16.2-10.8c-0.1-8.2-1.6-16.4-4.6-24.3c5.5-7.4,11-16.3,11-16.3
		c1.4-1.2,1.7-3.3,0.6-4.7l-11.1-15c-1.1-1.5-3.1-1.8-4.7-0.8c0,0-9.9,2.9-18.6,5.9c-6.6-5.2-14.1-9-21.9-11.6
		c-2.4-8.9-5.9-18.8-5.9-18.8c0-1.8-1.5-3.3-3.3-3.4l-18.6-0.7C414.3,186.1,412.8,187.5,412.6,189.3z M469.2,267.7
		c5.2,27.2-12.6,53.4-39.8,58.6c-27.2,5.2-53.4-12.6-58.6-39.8s12.6-53.4,39.8-58.6C437.8,222.7,464,240.5,469.2,267.7z
		 M414.2,246.3c17-3.2,33.4,7.9,36.6,24.9s-7.9,33.4-24.9,36.6c-17,3.2-33.4-7.9-36.6-24.9C386.1,266,397.2,249.6,414.2,246.3z">

            <animateTransform attributeName="transform"
                attributeType="XML"
                type="rotate"
                from="0 420.035 277.073"
                to="360 420.035 277.073"
                dur="1s"
                repeatCount="indefinite" />
        </path>
</g>
</svg>
