<?xml version="1.0" encoding="utf-8"?>
<!-- Generator: Adobe Illustrator 19.0.0, SVG Export Plug-In . SVG Version: 6.00 Build 0)  -->
<svg version="1.1" id="Bottom" xmlns="http://www.w3.org/2000/svg" xmlns:xlink="http://www.w3.org/1999/xlink" x="0px" y="0px"
	 viewBox="0 0 2105 874" style="enable-background:new 0 0 2105 874;" xml:space="preserve">
<style type="text/css">
	.st0{fill:#FFFFFF;}
</style>

<path id="Bottom_Part" class="st0" d="M39.6,257c0-9.6,7.8-17.4,17.4-17.4c7.1,0,13.2,4.3,15.9,10.4H88v-21.5c0-1.9,0.8-3.7,2.1-5
	l22.4-22c-2.4-6.2-1-13.6,4.1-18.5c6.8-6.7,17.8-6.6,24.6,0.2s6.6,17.8-0.2,24.6c-5.1,5-12.4,6.2-18.6,3.7L102,231.4v21.7l18.3,12.8
	h48.7l17.2-25c1.3-1.9,3.5-3,5.8-3h49l-14,14h-31.3l-17.2,25c-1.3,1.9-3.5,3-5.8,3h-54.6c-1.4,0-2.8-0.4-4-1.3L93,264H72.9
	c-2.7,6.1-8.8,10.4-15.9,10.4C47.4,274.4,39.6,266.6,39.6,257z M324,117.1V92.9c6.1-2.7,10.4-8.8,10.4-15.9
	c0-9.6-7.8-17.4-17.4-17.4s-17.4,7.8-17.4,17.4c0,7.1,4.3,13.2,10.4,15.9V120c0,1.8,0.7,3.6,2,4.9l20.9,21.1l9.9-9.9L324,117.1z
	 M388.1,49l-21.7,21.5l-23.3-23.3c1.4-2,1.2-4.9-0.6-6.7c-2.1-2.1-5.4-2.1-7.4,0s-2.1,5.4,0,7.4c1.8,1.8,4.6,2,6.7,0.6l24.7,24.7
	L388.9,51h29.6c-1.5,0.8-3,1.8-4.3,3.1c-4.2,4.2-5.8,10.1-4.8,15.5L430,49H388.1z M197.2,261L156,299.6v19.9
	c-4.2,1.1-7.3,4.9-7.3,9.4c0,0.4,0,0.8,0.1,1.2L160,319v-17.6l38.8-36.4H214l4-4H197.2z M57,222.8c4.7,0,8.6-3.3,9.6-7.8h9.3
	l25.2-25.2v-38L155.4,97h19.7l-19.2,19.2c-3.8-2.5-8.9-2.1-12.3,1.3c-3.8,3.8-3.8,10,0,13.8c3.8,3.8,10,3.8,13.8,0
	c3.3-3.3,3.7-8.5,1.3-12.3l57-57.1h52.4L293,86.9V69.6c4.4-0.9,7.8-4.9,7.8-9.6c0-5.4-4.4-9.8-9.8-9.8c-5.4,0-9.8,4.4-9.8,9.8
	c0,4.7,3.3,8.6,7.8,9.6v7.6L269.8,58h-55.7l-34.9,35h-25.4L97,150.2v38L74.2,211h-7.6c-0.9-4.4-4.9-7.8-9.6-7.8
	c-5.4,0-9.8,4.4-9.8,9.8S51.6,222.8,57,222.8z M174,144h-16.1c-2.7-6.1-8.8-10.4-15.9-10.4c-9.6,0-17.4,7.8-17.4,17.4
	s7.8,17.4,17.4,17.4c7.1,0,13.2-4.3,15.9-10.4h13.2l10.9,11v1.1c-6.1,2.7-10.4,8.8-10.4,15.9c0,9.6,7.8,17.4,17.4,17.4
	s17.4-7.8,17.4-17.4c0-7.1-4.3-13.2-10.4-15.9v-4c0-1.8-0.7-3.6-2-4.9l-15-15.1C177.7,144.7,175.9,144,174,144z M258,221l4-4H161.9
	l-20.2,19.3c-3.8-2.7-9-2.4-12.5,0.9c-3.9,3.8-4,9.9-0.2,13.8c3.8,3.9,9.9,4,13.8,0.2c3.3-3.2,3.9-8.2,1.6-12l19.1-18.3H258z
	 M218.5,95c-1.8,0-3.5,0.7-4.8,1.9l-20.5,19c-1.4,1.3-2.2,3.2-2.2,5.1v29c0,3.9,3.1,7,7,7h52.1l2.5,2.6c-2.5,6.2-1.2,13.5,3.8,18.6
	c6.7,6.8,17.7,6.9,24.6,0.2c6.8-6.7,6.9-17.7,0.2-24.6c-5-5.1-12.3-6.4-18.5-4l-4.6-4.7c-1.3-1.3-3.1-2.1-5-2.1h-48v-18.9l16.2-15.1
	H243c1.9,0,3.7-0.7,5-2.1l2.1-2.1c6.2,2.4,13.6,1.1,18.5-4c6.8-6.8,6.7-17.8-0.1-24.6c-6.8-6.8-17.8-6.7-24.6,0.1
	c-5,5-6.3,12.4-3.8,18.6l0,0H218.5z M36,337.3c2.6,0,4.7-1.8,5.2-4.3h19.4L90,362.9V389l2-2v-24.9L61.4,331H41.2
	c-0.5-2.4-2.6-4.3-5.2-4.3c-2.9,0-5.3,2.4-5.3,5.3S33.1,337.3,36,337.3z M82.3,320.3c2.4-6.2,1.1-13.5-3.9-18.6
	c-6.8-6.8-17.8-6.8-24.6,0c-6.8,6.8-6.8,17.8,0,24.6c5,5,12.3,6.3,18.6,3.9l38.2,38.2l9.9-9.9L82.3,320.3z M120.9,325.1
	c2.7-3.8,2.4-9.1-1.1-12.6c-3.8-3.8-10-3.8-13.8,0c-3.8,3.8-3.8,10,0,13.8c3.2,3.2,8.2,3.7,12,1.5l16.6,16.6l2.8-2.8L120.9,325.1z
	 M307,150.2l-19.1-19.6c2.7-3.8,2.4-9.1-1-12.5c-3.8-3.9-10-3.9-13.8-0.1c-3.9,3.8-3.9,10-0.1,13.8c3.2,3.3,8.2,3.8,12,1.5
	l18.1,18.5V176l4-4V150.2z M608.1,199.4l-29.2,29.2c-0.7-0.5-1.5-0.7-2.3-0.8l-5.9,5.9c0.1,1.1,0.6,2.2,1.5,3.1
	c2.1,2.1,5.4,2.1,7.4,0c1.8-1.8,2-4.6,0.6-6.7l29.2-29.2c2,1.4,4.9,1.2,6.7-0.6c2.1-2.1,2.1-5.4,0-7.4c-0.9-0.9-1.9-1.3-3.1-1.5
	l-5.9,5.9C607.4,198,607.7,198.7,608.1,199.4z M693.9,432.9l-13-12.9c-1.3-1.3-3.1-2-4.9-2h-25.9l-14.2-14c-1.3-1.3-3.1-2-4.9-2
	h-62.5c-1.8,0-3.6,0.7-4.9,2l-0.3,0.3c-6.2-2.4-13.5-1.2-18.6,3.8c-6.8,6.7-6.9,17.7-0.1,24.6c6.7,6.8,17.7,6.9,24.6,0.1
	c4.6-4.5,6.1-11,4.6-16.8h54.4l14.2,14c1.3,1.3,3.1,2,4.9,2h25.9l8.9,8.8v6.6l13-13C694.7,433.8,694.4,433.3,693.9,432.9z M647,448
	v-8h-15.1l-7.9-8h-39.8l-22,22h-22.3l-10-10.1c2.7-3.8,2.3-9.1-1-12.5c-3.8-3.8-10-3.9-13.8-0.1c-2.9,2.9-3.6,7.1-2.2,10.6
	c-1.3-1.2-3-1.9-4.8-1.9h-32.9c-1.8,0-3.6,0.7-4.9,2l-18.1,18h-7l-6.1-10.2V432h29.8l13.1-13.1c3.8,2.3,8.7,1.8,12-1.5
	c3.8-3.8,3.8-10,0-13.8c-3.8-3.8-10-3.8-13.8,0c-3.4,3.4-3.8,8.7-1.1,12.6L467.2,428H439h-1h-61.6l-4,4H435v18h0.9l-6,10h-75
	c-1-2.3-2.5-4.4-4.4-6L326,478.5c3.2,3.6,7.8,5.9,13,5.9c7.1,0,13.2-4.3,15.9-10.4H455c1.8,0,3.6-0.7,4.9-2l18.1-18h27.1l20.7,20.9
	c1.3,1.3,3.1,2.1,5,2.1h70.4l24.2,24c0.5,0.5,1.1,1,1.8,1.3l13.3-13.3h-7.2l-24.2-24c-1.3-1.3-3.1-2-4.9-2h-70.3l-15.5-15.7
	c2.8,1.2,6.1,1,8.8-0.7l11.2,11.4h25.6l22-22h36.5l7.7,7.8V458h6v3.8l15.7,15.8l2.8-2.8L640,460.2V458h7v-6h30.4l4-4H647z
	 M658.4,181l16.4,16.5l13.2-13.1v-44.3c2.4-0.5,4.3-2.6,4.3-5.2c0-2.9-2.4-5.3-5.3-5.3s-5.3,2.4-5.3,5.3c0,2.6,1.8,4.7,4.3,5.2v43.4
	l-11.2,11.1L659.2,179h-33.8l-2,2H658.4z M571.2,552.8c-1.8-1.8-4.6-2-6.7-0.6l-7.1-7.1h-41.5l33.9,34.5l1.4-1.4L520.7,547h35.9
	l6.6,6.6c-1.4,2-1.2,4.9,0.6,6.7c1.1,1.1,2.4,1.6,3.8,1.5l5.1-5.1C572.8,555.2,572.3,553.8,571.2,552.8z M519.9,602.6
	c-0.8,0.8-1.5,1.8-2.1,2.8L464.9,553h-32l-32.8-32.6c2.6-6.3,1.3-13.8-3.8-18.9c-6.7-6.7-17.4-6.7-24.2-0.2v-3.8l16.4-16.4h25.4
	c0.5,2.4,2.6,4.3,5.2,4.3c2.9,0,5.3-2.4,5.3-5.3s-2.4-5.3-5.3-5.3c-2.6,0-4.7,1.8-5.2,4.3h-26.3L370,496.6v6.9
	c-4.5,6.1-4.5,14.4,0,20.5v9.1L353.6,550h-28.7l-14.8-14.6c1.4-2.1,1.1-4.9-0.7-6.7c-2.1-2-5.4-2-7.4,0c-2,2.1-2,5.4,0,7.4
	c1.8,1.8,4.6,2,6.7,0.6l15.3,15.2h30.3l17.6-18v-7.6c4.9,4.7,11.9,5.9,17.9,3.7l37.1,36.9h32l39.8,39.4l-23,22l12.4,12.5l9.9-9.9
	l-2.3-2.4l20.5-19.7c-0.2,1.3-0.3,2.6-0.1,3.9l13.9-13.9C526.6,598.6,522.7,599.8,519.9,602.6z M585,520.1c-5.3,0-9.7,3.3-11.6,7.9
	H482v30.1l38.9,38.9h11.4l9.9-9.9l-0.1-0.1h-17L492,553.9V538h81.9c2,3.9,5.9,6.7,10.6,6.9l12.9-12.9
	C597.1,525.4,591.7,520.1,585,520.1z M706,362.7l-23.8-24.2c2.6-3.8,2.3-9-1.1-12.4c-3.8-3.8-10-3.9-13.8-0.1s-3.9,10-0.1,13.8
	c3.3,3.3,8.3,3.8,12.1,1.4l22.7,23.1v47.5l7.8,7.8l2.8-2.8l-6.6-6.6V362.7z M584.6,276H615v-38.8c2.4-0.5,4.3-2.6,4.3-5.2
	c0-2.9-2.4-5.3-5.3-5.3s-5.3,2.4-5.3,5.3c0,2.6,1.8,4.7,4.3,5.2V274h-27.6l-27.5-27.5l-1.4,1.4L584.6,276z M639,170h12.8
	c2,0,3.9-0.8,5.2-2.3l7.3-8c1.2-1.3,1.8-3,1.8-4.7v-4.1c6.1-2.7,10.4-8.8,10.4-15.9c0-2.1-0.4-4-1-5.9l-24.9,24.9l-1.7,1.9h-0.2
	l-13,13C636.5,169.7,637.7,170,639,170z M699,171.3c2.6,0,4.7-1.8,5.2-4.3H738v35h12.8c0.5,2.4,2.6,4.3,5.2,4.3
	c2.9,0,5.3-2.4,5.3-5.3s-2.4-5.3-5.3-5.3c-2.6,0-4.7,1.8-5.2,4.3H740v-35h-35.8c-0.5-2.4-2.6-4.3-5.2-4.3c-2.9,0-5.3,2.4-5.3,5.3
	S696.1,171.3,699,171.3z M409.8,511.8c-2.1,2-2.1,5.4-0.1,7.4s5.4,2.1,7.4,0.1c1.8-1.8,2.1-4.6,0.7-6.7l20.3-19.7h30.3l20-20.2
	l38.3,38.2h53.1c0.5,2.4,2.6,4.3,5.2,4.3c2.9,0,5.3-2.4,5.3-5.3s-2.4-5.3-5.3-5.3c-2.6,0-4.7,1.8-5.2,4.3h-52.2l-39.1-39l-20.9,21
	h-30.2l-20.8,20.3C414.5,509.9,411.7,510.1,409.8,511.8z M343,525.3c2.6,0,4.7-1.8,5.2-4.3H359v-23.8c2.4-0.5,4.3-2.6,4.3-5.2
	c0-2.9-2.4-5.3-5.3-5.3c-2.9,0-5.3,2.4-5.3,5.3c0,2.6,1.8,4.7,4.3,5.2V519h-8.8c-0.5-2.4-2.6-4.3-5.2-4.3c-2.9,0-5.3,2.4-5.3,5.3
	S340.1,525.3,343,525.3z M505.5,394c1.9,0,3.7-0.8,5-2.1l33.4-33.9h55.8c1.9,0,3.7-0.8,5-2.1l30.3-31c1.3-1.3,2-3.1,2-4.9v-24h21.2
	l7.5,7.3c-2.3,3.8-1.8,8.7,1.5,12c3.8,3.8,10,3.8,13.8-0.1c3.8-3.8,3.8-10-0.1-13.8c-3.4-3.4-8.7-3.7-12.5-1l-8.5-8.4H637v-3.9
	l15.5-15.2c6.2,2.5,13.5,1.3,18.6-3.7c6.9-6.7,7-17.7,0.3-24.6c-6.7-6.9-17.7-7-24.6-0.3c-5.1,5-6.4,12.3-4.1,18.5l-17.6,17.3
	c-1.3,1.3-2.1,3.1-2.1,5v6.9h-37.2l-28-28h-17.4l-4,4h19.7l28,28H623v21.2L596.8,344h-9.5c2.1-1.8,3.5-4.5,3.5-7.5
	c0-5.4-4.4-9.8-9.8-9.8c-4.9,0-8.9,3.6-9.6,8.3h-14.6L524,302.2v-13.8l11.2-11l-4-4.1L519,285.5l1,1v17.3l35.1,35.2h16.4
	c0.5,2,1.6,3.7,3.2,5H541c-1.9,0-3.7,0.8-5,2.1L502.6,380h-38.7l-8.2-8.3l27.4-27.4c3.8,2.5,8.9,2.1,12.3-1.3c3.8-3.8,3.8-10,0-13.8
	c-3.8-3.8-10-3.8-13.8,0c-3.3,3.3-3.8,8.5-1.3,12.3L451.7,370h-17.2l-4,4h21.7l6,6h-33.7l-14,14H505.5z M468,526.7
	c-2.6,0-4.7,1.8-5.2,4.3H450v-18.8c2.4-0.5,4.3-2.6,4.3-5.2c0-2.9-2.4-5.3-5.3-5.3c-2.9,0-5.3,2.4-5.3,5.3c0,2.6,1.8,4.7,4.3,5.2
	V533h14.8c0.5,2.4,2.6,4.3,5.2,4.3c2.9,0,5.3-2.4,5.3-5.3S470.9,526.7,468,526.7z M287.4,550.8c2.1,2.1,5.4,2.1,7.4,0s2.1-5.4,0-7.4
	c-1.8-1.8-4.6-2-6.7-0.6l-13.2-13.2l-1.4,1.4l13.2,13.2C285.4,546.2,285.6,549,287.4,550.8z M628.6,386h-29.4
	c-0.5-2.4-2.6-4.3-5.2-4.3c-2.9,0-5.3,2.4-5.3,5.3s2.4,5.3,5.3,5.3c2.6,0,4.7-1.8,5.2-4.3h30.2l25.3-25H673v34.8
	c-2.4,0.5-4.3,2.6-4.3,5.2c0,2.9,2.4,5.3,5.3,5.3s5.3-2.4,5.3-5.3c0-2.6-1.8-4.7-4.3-5.2V361h-21.2L628.6,386z M326.2,519
	c6.8-6.8,6.8-17.8,0-24.6c-3.1-3.1-7.1-4.8-11.1-5l-18.5,18.5c0.3,4.1,1.9,8.1,5.1,11.2C308.4,525.8,319.4,525.8,326.2,519z
	 M811,266.5c0-1.3-0.5-2.6-1.4-3.5l-29-29.5c-0.9-1-2.2-1.5-3.6-1.5h-36.7l-22.8-22.6c-0.9-0.9-2.2-1.4-3.5-1.4h-63.7
	c-1.9-4.4-6.3-7.4-11.3-7.4c-6.9,0-12.4,5.6-12.4,12.4s5.6,12.4,12.4,12.4c5.1,0,9.4-3,11.3-7.4h61.6l22.8,22.6
	c0.9,0.9,2.2,1.4,3.5,1.4h36.7l26.1,26.5V305c0,1.3,0.5,2.6,1.5,3.6l9.3,9.1l7.1-7.1l-7.8-7.7V266.5z M745,354.6l-3.2-3.2
	c2.5-6.2,1.3-13.5-3.7-18.6c-6.7-6.9-17.7-7-24.6-0.3c-6.9,6.7-7,17.7-0.3,24.6c5,5.1,12.3,6.5,18.5,4.1l1.2,1.2v34l14-14v-22.9
	C747,357.7,746.3,355.9,745,354.6z M789,303c0-1.9-0.7-3.6-2-4.9l-9-9c-1.3-1.3-3.1-2.1-5-2.1h-16.1c-1.9,0-3.7,0.7-5,2.1L735.1,306
	h-7L714,292.1v-9.2c6.1-2.7,10.4-8.8,10.4-15.9c0-9.6-7.8-17.4-17.4-17.4s-17.4,7.8-17.4,17.4c0,7.1,4.3,13.2,10.4,15.9V295
	c0,1.9,0.8,3.7,2.1,5l18.3,18c1.3,1.3,3.1,2,4.9,2H738c1.9,0,3.7-0.7,5-2.1l16.8-16.9h10.3l4.9,4.9V337c0,1.9,0.8,3.7,2.1,5l5.2,5.1
	l9.9-9.9l-3.2-3.1V303z M650.1,337.4c2,1.4,4.9,1.2,6.7-0.6c2.1-2.1,2.1-5.4,0-7.4c-2.1-2.1-5.4-2.1-7.4,0c-1.8,1.8-2,4.6-0.6,6.7
	L618.6,366h-50l-48.3,48.3c-2-1.4-4.9-1.2-6.7,0.6c-2.1,2.1-2.1,5.4,0,7.4c2.1,2.1,5.4,2.1,7.4,0c1.8-1.8,2-4.6,0.6-6.7l47.7-47.7
	h50L650.1,337.4z M1483,138c-1.9,0-3.6,0.7-5,2l-15.9,16h-6.7l-3.4-3.7v-1.4c6.1-2.7,10.4-8.8,10.4-15.9c0-9.6-7.8-17.4-17.4-17.4
	s-17.4,7.8-17.4,17.4c0,7.1,4.3,13.2,10.4,15.9v4.1c0,1.7,0.6,3.4,1.8,4.7l7.3,8c1.3,1.5,3.2,2.3,5.2,2.3h12.8c1.9,0,3.6-0.7,5-2
	l15.9-16h21.5l14-14H1483z M1352.1,289.1c-1.3-1.3-3.1-2.1-5-2.1H1331c-1.9,0-3.6,0.7-5,2.1l-9,9c-1.3,1.3-2,3.1-2,4.9v31
	l-11.9,11.7c-1.3,1.3-2.1,3.1-2.1,5v7.6l28-28v-24.5l4.9-4.9h10.3l7.1,7.1l9.9-9.9L1352.1,289.1z M1386.5,209.4l-22.8,22.6H1327
	c-1.3,0-2.6,0.5-3.6,1.5l-29,29.5c-0.9,0.9-1.4,2.2-1.4,3.5v36.4l-10.5,10.3c-1,0.9-1.5,2.2-1.5,3.6V373l-10.6,10.8
	c-0.9,0.9-1.4,2.2-1.4,3.5v3.1l22-22v-49.5l10.5-10.3c1-0.9,1.5-2.2,1.5-3.6v-36.5l26.1-26.5h36.7c1.3,0,2.6-0.5,3.5-1.4l22.8-22.6
	h49.4l10-10H1390C1388.7,208,1387.4,208.5,1386.5,209.4z M1405,160.7c-2.6,0-4.7,1.8-5.2,4.3H1364v35h-10.8
	c-0.5-2.4-2.6-4.3-5.2-4.3c-2.9,0-5.3,2.4-5.3,5.3s2.4,5.3,5.3,5.3c2.6,0,4.7-1.8,5.2-4.3h12.8v-35h33.8c0.5,2.4,2.6,4.3,5.2,4.3
	c2.9,0,5.3-2.4,5.3-5.3S1407.9,160.7,1405,160.7z M1429.2,194.7l-11.2-11.1v-43.4c2.4-0.5,4.3-2.6,4.3-5.2c0-2.9-2.4-5.3-5.3-5.3
	s-5.3,2.4-5.3,5.3c0,2.6,1.8,4.7,4.3,5.2v44.3l13.2,13.1l16.4-16.5h32.8l2-2h-35.7L1429.2,194.7z M1570.9,83H1522V73h-27v35h39.8
	c0.5,2.4,2.6,4.3,5.2,4.3c2.9,0,5.3-2.4,5.3-5.3s-2.4-5.3-5.3-5.3c-2.6,0-4.7,1.8-5.2,4.3H1497V75h23v10h50.1l2.2,2.2l1.4-1.4
	L1570.9,83z M1261,369c0-3.3-2.7-6-6-6s-6,2.7-6,6c0,2.6,1.7,4.8,4,5.7v31.7l4-4v-27.7C1259.3,373.8,1261,371.6,1261,369z
	 M1538.8,118.6l-0.6-0.6h-32.6c-0.7-4.7-4.8-8.3-9.6-8.3c-5.4,0-9.8,4.4-9.8,9.8s4.4,9.8,9.8,9.8c4.5,0,8.3-3.1,9.4-7.3h31.1
	l0.4,0.4l2.8-2.8L1538.8,118.6z M1573.3,54.3c-6.7,6.9-6.6,17.9,0.3,24.6c1.2,1.2,2.6,2.2,4.1,3l23.5-23.5c-0.8-1.6-1.9-3-3.2-4.3
	C1591,47.3,1580,47.4,1573.3,54.3z M1529.9,760c0-2.4-1.7-4.3-3.9-4.8v-15.6l-8-7.7v-28.3l-3.4-3.4c1.2-1.9,1-4.5-0.6-6.1
	c-1.9-1.9-5-1.9-6.9,0c-1.9,1.9-1.9,5,0,6.9c1.7,1.7,4.2,1.9,6.1,0.6l2.9,2.9v28.4l8,7.7v14.8c-2.2,0.5-3.9,2.4-3.9,4.8
	c0,2.7,2.2,4.9,4.9,4.9S1529.9,762.7,1529.9,760z M1523,617.3c2.9,0,5.3-2.4,5.3-5.3s-2.4-5.3-5.3-5.3c-2.6,0-4.7,1.8-5.2,4.3H1500
	l28.4-28h22.4l37.3-38h-41.5l-7.1,7.1c-2-1.4-4.9-1.2-6.7,0.6c-2.1,2.1-2.1,5.4,0,7.4s5.4,2.1,7.4,0c1.8-1.8,2-4.6,0.6-6.7l6.6-6.6
	h35.9l-33.4,34h-22.3l-32.5,32h22.7C1518.3,615.4,1520.4,617.3,1523,617.3z M1979.4,151c0-9.6-7.8-17.4-17.4-17.4
	c-7.1,0-13.2,4.3-15.9,10.4H1930c-1.9,0-3.7,0.7-5,2.1l-15,15.1c-1.3,1.3-2,3.1-2,4.9v4c-6.1,2.7-10.4,8.8-10.4,15.9
	c0,9.6,7.8,17.4,17.4,17.4s17.4-7.8,17.4-17.4c0-7.1-4.3-13.2-10.4-15.9V169l10.9-11h13.2c2.7,6.1,8.8,10.4,15.9,10.4
	C1971.6,168.4,1979.4,160.6,1979.4,151z M1655,501.7c-2.9,0-5.3,2.4-5.3,5.3c0,2.6,1.8,4.7,4.3,5.2V531h-12.8
	c-0.5-2.4-2.6-4.3-5.2-4.3c-2.9,0-5.3,2.4-5.3,5.3s2.4,5.3,5.3,5.3c2.6,0,4.7-1.8,5.2-4.3h14.8v-20.8c2.4-0.5,4.3-2.6,4.3-5.2
	C1660.3,504.1,1657.9,501.7,1655,501.7z M1734,533.2V524c4.5-6.1,4.5-14.4,0-20.5v-6.9l-17.6-17.6h-26.3c-0.5-2.4-2.6-4.3-5.2-4.3
	c-2.9,0-5.3,2.4-5.3,5.3s2.4,5.3,5.3,5.3c2.6,0,4.7-1.8,5.2-4.3h25.4l16.4,16.4v3.8c-6.8-6.5-17.5-6.4-24.2,0.2
	c-5.1,5-6.4,12.4-3.9,18.6l-32.7,32.9h-32l-52.9,52.4c-0.5-1-1.2-1.9-2.1-2.8c-4.8-4.8-12.7-4.8-17.5,0c-3.7,3.7-4.6,9.1-2.6,13.6
	l-63.7,63.8h-53.2l-13.9-14h19.9l32.7-33h44.2l36-36h17l37.9-39v-30h-90.4c-1.8-4.6-6.3-7.9-11.6-7.9c-6.9,0-12.4,5.6-12.4,12.4
	s5.6,12.4,12.4,12.4c4.9,0,9.1-2.8,11.1-6.9h80.9v16l-32.1,33h-17l-36,36h-44.3l-32.7,33h-25.6h-2.3h-12.4
	c-1.8-4.6-6.3-7.9-11.6-7.9c-6.9,0-12.4,5.6-12.4,12.4s5.6,12.4,12.4,12.4c4.9,0,9.1-2.8,11.1-6.9h11.1l23.8,24h61.5l66.8-66.9
	c4.4,1.5,9.4,0.6,12.9-2.9c3-3,4.2-7.2,3.4-11.1l20,19.6l-47.6,47.5v15.2c-5.8,2.8-9.9,8.7-9.9,15.6c0,9.6,7.8,17.4,17.4,17.4
	s17.4-7.8,17.4-17.4c0-7.3-4.5-13.5-10.9-16.1V682l53.5-53.4l-22.5-22.1l39.9-39.5h32.1l36.8-37c6.1,2.3,13.2,1.1,18.2-3.6v7.6
	l17.6,18h7.8l2-2h-8.9L1734,533.2z M1670.7,336h36.4c2.7,6.1,8.8,10.4,15.9,10.4c9.6,0,17.4-7.8,17.4-17.4s-7.8-17.4-17.4-17.4
	c-7.1,0-13.2,4.3-15.9,10.4h-33.5l-5.6-5.6l-9.9,9.9l7.6,7.6C1667.1,335.3,1668.8,336,1670.7,336z M1548,673.3l33.3-33.6l-10.7-10.4
	l-58.6,58.6l20,20v57.6c-4.4,0.9-7.8,4.9-7.8,9.6c0,2.8,1.2,5.3,3,7.1l13.8-13.8c-1.3-1.4-3.1-2.4-5.1-2.8v-59.3l-18.3-18.3l53-53
	l5,4.8l-31.6,31.9v73.2l10.4,10.1l2.8-2.8l-9.3-8.9V673.3z M1519,515.3c2.6,0,4.7-1.8,5.2-4.3h53.1l38.3-38.2l20.1,20.2h30.3
	l20.3,19.7c-1.4,2.1-1.1,4.9,0.7,6.7c2.1,2,5.4,2,7.4-0.1c2-2.1,2-5.4-0.1-7.4c-1.8-1.8-4.6-2-6.7-0.5l-20.8-20.3h-30.2l-20.9-21
	l-39.1,39h-52.2c-0.5-2.4-2.6-4.3-5.2-4.3c-2.9,0-5.3,2.4-5.3,5.3S1516.1,515.3,1519,515.3z M1710.3,274.2l10.7-10.7v1.7l32.2,32.9
	h91.3l38.5,37.6l0,19.4h32.9h2h35.2l29.9-29.9c-2.7-3.8-2.4-9.1,1.1-12.6c3.6-3.6,9.4-3.8,13.2-0.5l-47,47H1918v19h13.4l-14,14H1866
	c-3.9,0-7-3.1-7-7v-24.8l-33.9-33.3h-10.6c2.1,0.7,3.7,2.6,3.7,5c0,2.6-1.8,4.7-4.3,5.2v31.4l37.9,38.4h36.5l7,7l-1.4,1.4l-6.4-6.4
	h-36.5l-39.1-39.6v-32.2c-2.4-0.5-4.3-2.6-4.3-5.2c0-2.4,1.6-4.3,3.7-5H1765c-1.9,0-3.7-0.8-5-2.1l-22.5-22.9h-55.1l4-4h47.2
	L1710.3,274.2z M1757.2,302l10.8,11h60.1c1.8,0,3.6,0.7,4.9,2l38,37.3c1.3,1.3,2.1,3.1,2.1,5V378h41v-19h-34.9l0-21.7l-36.1-35.3
	H1757.2z M1940.5,221l19.1,18.3c-2.3,3.8-1.7,8.8,1.6,12c3.9,3.8,10.1,3.6,13.8-0.2c3.8-3.9,3.6-10.1-0.2-13.8
	c-3.4-3.3-8.7-3.6-12.5-0.9l-20.2-19.3h-115.2l-26.9-30.6v-2l-3.8,3.8l28.9,32.8H1940.5z M1847.6,178.2c5-5.1,6.2-12.4,3.8-18.6
	l2.5-2.6h52.1c3.9,0,7-3.1,7-7v-29c0-1.9-0.8-3.8-2.2-5.1l-20.5-19c-0.5-0.4-1-0.8-1.6-1.1l-13.2,13.2h7.3l16.2,15.1V143h-48
	c-1.9,0-3.7,0.8-5,2.1l-4.6,4.7c-1.8-0.7-3.7-1-5.6-1.1l-17.9,17.9c0.1,4.3,1.9,8.6,5.2,11.8C1829.9,185.1,1840.9,185,1847.6,178.2z
	 M1874,291.4l44,44v-30.3c2.4-0.5,4.3-2.6,4.3-5.2c0-2.9-2.4-5.3-5.3-5.3s-5.3,2.4-5.3,5.3c0,2.6,1.8,4.7,4.3,5.2v25.4l-40.6-40.6
	c1.4-2,1.2-4.9-0.6-6.7c-2.1-2.1-5.4-2.1-7.4,0s-2.1,5.4,0,7.4C1869.2,292.6,1872,292.8,1874,291.4z M1749.5,246.8l29.7,30.2h69.7
	l12.3-12h44.1l37.8,36.4v18.2c-4.2,1.1-7.3,4.9-7.3,9.4c0,5.4,4.4,9.8,9.8,9.8s9.8-4.4,9.8-9.8c0-4.9-3.6-8.9-8.3-9.6v-19.7
	l-40.2-38.6h-47.3l-12.3,12h-66.3l-28.4-28.9c2.5-3.5,2.5-8.4-0.3-11.8l-13.7,13.7C1741.6,248.6,1746,248.8,1749.5,246.8z
	 M1798.8,252h109.6l17.2,25c1.3,1.9,3.5,3,5.8,3h54.6c1.4,0,2.8-0.4,4-1.3L2011,264h20.2c1.4,3.2,3.7,5.8,6.6,7.7l23.9-23.9
	c-3.1-4.9-8.5-8.1-14.7-8.1c-7.1,0-13.2,4.3-15.9,10.4H2016v-21.5c0-1.9-0.8-3.7-2.1-5l-22.4-22c2.4-6.2,1-13.6-4.1-18.5
	c-6.8-6.7-17.8-6.6-24.6,0.2c-6.7,6.8-6.6,17.8,0.2,24.6c5.1,5,12.4,6.2,18.6,3.7l20.3,19.9v21.7l-18.3,12.8h-48.7l-17.2-25
	c-1.3-1.9-3.5-3-5.8-3h-110.3l-27.2-28.1l-9.9,9.9l29.1,30C1795,251.2,1796.9,252,1798.8,252z M1422.8,579l2.2-2.2v51.1l51-51.5
	v-24.2c2.4-0.5,4.3-2.6,4.3-5.2c0-2.9-2.4-5.3-5.3-5.3s-5.3,2.4-5.3,5.3c0,2.6,1.8,4.7,4.3,5.2v23.4l-47,47.5v-48.2l43.3-42.9h13.9
	l17.8,16.9v19.3l-72.8,73.8h-31.3l-10.4-10.6c2.9-4,2.6-9.7-1-13.4c-4-4.1-10.6-4.1-14.7-0.1s-4.1,10.6-0.1,14.7
	c3.5,3.5,8.8,4,12.9,1.5l11.7,11.8h34.7l75.2-76.2v-22.6l-20.2-19.2h-17.1l-41.7,41.2V561h-3.6l-2,2h3.6v8.2l-3.8,3.8h-11.7l-4,4
	H1422.8z M1946.5,131.3c3.8,3.8,10,3.8,13.8,0c3.8-3.8,3.8-10,0-13.8c-3.3-3.3-8.5-3.8-12.3-1.3L1928.9,97h19.7l54.4,54.8v38
	l25.2,25.2h9.3c0.9,4.4,4.9,7.8,9.6,7.8c5.4,0,9.8-4.4,9.8-9.8s-4.4-9.8-9.8-9.8c-4.7,0-8.6,3.3-9.6,7.8h-7.6l-22.8-22.8v-38
	L1950.3,93h-25.4l-16.7-16.7l-2.8,2.8l39.9,39.9C1942.7,122.9,1943.2,128,1946.5,131.3z M1578.2,474.9l20.7-20.9h27.1l18.1,18
	c1.3,1.3,3.1,2,4.9,2h100.1c2.7,6.1,8.8,10.4,15.9,10.4c9.6,0,17.4-7.8,17.4-17.4s-7.8-17.4-17.4-17.4c-7.1,0-13.2,4.3-15.9,10.4
	h-75l-6.1-10.2V432h92.7l40.5,40h13.9l-18.6,18.6c-6.2-2.4-13.5-1.1-18.6,3.9c-6.8,6.8-6.8,17.8,0,24.6c2.3,2.3,5.1,3.8,8,4.5
	l21.1-21.1c-0.2-0.7-0.4-1.3-0.6-1.9l24.6-24.5c1.1-1.1,1.8-2.5,2-4h4.5l4-4h-8.4v-44.8c0-0.8-0.1-1.6-0.4-2.3l27.9,27.9l27.9-27.9
	h-2.2l-24.2,23.7l-72.9-72.9c2.6-3.8,2.2-9-1.2-12.4c-3.8-3.8-10-3.8-13.8,0c-3.8,3.8-3.8,10,0,13.8c3.3,3.3,8.3,3.7,12.1,1.4
	l24.6,24.6c-1.1-0.7-2.4-1.1-3.8-1.1h-61.3l-15.7-15.9c-1.3-1.3-3.1-2.1-5-2.1h-79.2l6-6h103l28.1-28.1c3.8,2.3,8.7,1.8,12-1.5
	c3.8-3.8,3.8-10,0-13.8c-3.8-3.8-10-3.8-13.8,0c-3.4,3.4-3.8,8.7-1.1,12.6l-26.9,26.9h-100.8l-18.9-18.9l-2.8,2.8l17.9,17.9
	l-8.3,8.3h-35.7l-11.4,11.4l0.5,0.5c1.3,1.3,3.1,2.1,5,2.1h123.6l15.7,15.9c1.3,1.3,3.1,2.1,5,2.1h61.4l14.8,14.2V468h-16.2
	l-40.5-40H1666h-2h-27.2l-11.9-11.9c2.7-3.8,2.4-9.1-1.1-12.6c-3.8-3.8-10-3.8-13.8,0c-3.8,3.8-3.8,10,0,13.8
	c3.2,3.2,8.2,3.7,12,1.5l13.1,13.1h28.8v18h0.9l-6,10h-7l-18.1-18c-1.3-1.3-3.1-2-4.9-2H1596c-1.8,0-3.5,0.7-4.8,1.9
	c1.4-3.5,0.7-7.8-2.2-10.6c-3.8-3.8-10-3.8-13.8,0.1c-3.4,3.4-3.7,8.6-1.1,12.4l-9.9,10.2h-22.3l-5.7-5.7l-2.8,2.8l6.9,6.9h25.6
	l11.1-11.4c2.7,1.7,6,1.9,8.9,0.7l-15.5,15.7h-48.9l-14,14h65.8C1575.1,477,1576.9,476.3,1578.2,474.9z M1745,497.2V521h10.8
	c0.5,2.4,2.6,4.3,5.2,4.3c2.9,0,5.3-2.4,5.3-5.3s-2.4-5.3-5.3-5.3c-2.6,0-4.7,1.8-5.2,4.3h-8.8v-21.8c2.4-0.5,4.3-2.6,4.3-5.2
	c0-2.9-2.4-5.3-5.3-5.3s-5.3,2.4-5.3,5.3C1740.7,494.6,1742.6,496.7,1745,497.2z M1582.9,422.3c2.1,2.1,5.4,2.1,7.4,0s2.1-5.4,0-7.4
	c-1.8-1.8-4.6-2-6.7-0.6l-6.7-6.7l-1.4,1.4l6.7,6.7C1580.9,417.7,1581.1,420.5,1582.9,422.3z"/>
</svg>
