<?xml version="1.0" encoding="utf-8"?>
<!-- Generator: Adobe Illustrator 19.0.0, SVG Export Plug-In . SVG Version: 6.00 Build 0)  -->
<svg version="1.1" id="Loading_Circles" xmlns="http://www.w3.org/2000/svg" xmlns:xlink="http://www.w3.org/1999/xlink" x="0px"
	 y="0px" viewBox="0 0 960 960" style="enable-background:new 0 0 960 960;" xml:space="preserve">
	<style type="text/css">
	.st0{fill:#BABABA;}
	.st1{fill:#606060;}
	.st2{fill:#848484;}
	</style>

<g id="Counter_clockwise">
	<path id="Middle" class="st0" d="M699.5,260.5c-58.6-58.6-136.4-90.8-219.3-90.8c-13.7,0-27.2,0.9-40.5,2.6l-1.1-8.6
		c13.6-1.8,27.4-2.8,41.3-2.8l0-4c-134.6,0-255,85.4-299.4,212.4l3.8,1.3c22.9-65.4,66.2-119.6,121.2-156.5l4.3,6.5
		c-17.4,11.5-33.7,24.8-48.8,39.8c-0.2,0.2-0.3,0.3-0.5,0.5l14,14c-12.6,12.9-23.9,26.9-33.9,41.9l1.7,1.1
		c10-15.1,21.2-29,33.5-41.7l0.3,0.3c49-49.3,115.7-80.9,189.6-84.6l-0.5-9.8c0.2,0,0.4,0,0.6,0c79.6-3.9,156,23.5,215,77.1
		c58.9,53.4,93.5,126.6,97.5,206l-10.4,0.5c0.2,4.6,0.3,9.3,0.3,14c0,15.7-1.3,31.1-3.7,46.1l-9.5-1.3
		c8.9-58.2-0.9-119.1-30.5-173.2l-3,1.7c55.2,100.9,40.6,226.2-36.4,311.7l2.6,2.3c9-10,17.2-20.6,24.5-31.6l6.9,4.9
		c-20.8,30.9-47.5,57.5-78.4,78.4l6.1,9.1c-0.2,0.1-0.4,0.3-0.6,0.4c-50.6,31-108,47.2-166.6,47.4v14.1c0.2,0,0.3,0,0.5,0
		c82.8,0,160.7-32.3,219.3-90.8s90.8-136.4,90.8-219.3C790.3,396.9,758.1,319.1,699.5,260.5z">

	        <animateTransform attributeName="transform"
	            attributeType="XML"
	            type="rotate"
	            from="360 480 480"
	            to="0 480 480"
	            dur="4s"
	            repeatCount="indefinite" />
    </path>

	<path id="Inner" class="st0" d="M297.3,626.5l-0.6-0.8l15.6-12.5l0.6,0.8L297.3,626.5z M292.2,619.9l-0.6-0.8l16.1-11.9l0.6,0.8
		L292.2,619.9z M287.3,613.2l-0.6-0.9l16.5-11.3l0.5,0.8L287.3,613.2z M282.7,606.2l-0.6-0.9l16.9-10.7l0.5,0.8L282.7,606.2z
		 M278.3,599.1l-0.5-0.9l17.3-10.1l0.5,0.8L278.3,599.1z M274.2,591.9l-0.5-0.9l17.6-9.5l0.5,0.9L274.2,591.9z M270.3,584.4
		l-0.5-0.9l17.9-8.9l0.4,0.9L270.3,584.4z M266.7,576.9l-0.4-0.9l18.2-8.2l0.4,0.9L266.7,576.9z M263.4,569.3l-0.4-1l18.5-7.5
		l0.4,0.9L263.4,569.3z M260.3,561.5l-0.4-1l18.8-6.9l0.3,0.9L260.3,561.5z M257.6,553.6l-0.3-1l19-6.2l0.3,0.9L257.6,553.6z
		 M255.1,545.6l-0.3-1l19.2-5.5l0.3,0.9L255.1,545.6z M252.9,537.6l-0.2-1l19.4-4.8l0.2,0.9L252.9,537.6z M251,529.5l-0.2-1
		l19.6-4.1l0.2,0.9L251,529.5z M249.4,521.3l-0.2-1l19.7-3.4l0.2,0.9L249.4,521.3z M248.1,513.1l-0.1-1l19.8-2.7l0.1,0.9
		L248.1,513.1z M247.1,504.8l-0.1-1l19.9-2l0.1,0.9L247.1,504.8z M246.3,496.5l-0.1-1.1l20-1.3l0.1,0.9L246.3,496.5z M245.9,488.2
		l0-1.1l20-0.6l0,0.9L245.9,488.2z M265.8,480h-20l0-1.1l20,0.2L265.8,480z M265.9,472.2l-20-0.7l0-1.1l20,0.8L265.9,472.2z
		 M266.3,464.6l-20-1.4l0.1-1.1l19.9,1.5L266.3,464.6z M267,457l-19.9-2.1l0.1-1.1l19.9,2.2L267,457z M267.9,449.4l-19.8-2.8l0.2-1
		l19.8,2.9L267.9,449.4z M269.2,441.8l-19.7-3.5l0.2-1l19.7,3.6L269.2,441.8z M270.6,434.4l-19.5-4.2l0.2-1l19.5,4.3L270.6,434.4z
		 M272.4,426.9l-19.4-5l0.3-1l19.4,5L272.4,426.9z M274.4,419.5l-19.2-5.6l0.3-1l19.2,5.7L274.4,419.5z M276.7,412.2l-19-6.3l0.3-1
		l18.9,6.4L276.7,412.2z M279.3,405l-18.7-7l0.4-1l18.7,7.1L279.3,405z M282.1,397.9l-18.5-7.7l0.4-1l18.4,7.8L282.1,397.9z
		 M285.1,390.9l-18.2-8.3l0.4-1l18.1,8.4L285.1,390.9z M288.4,384l-17.9-9l0.5-0.9l17.8,9.1L288.4,384z M292,377.2l-17.5-9.6
		l0.5-0.9l17.5,9.7L292,377.2z M295.8,370.6l-17.2-10.2l0.5-0.9l17.1,10.3L295.8,370.6z M299.8,364.1L283,353.3l0.6-0.9l16.8,10.9
		L299.8,364.1z M304.1,357.8l-16.4-11.4l0.6-0.8l16.4,11.5L304.1,357.8z M308.5,351.6l-16-12l0.6-0.8l15.9,12.1L308.5,351.6z
		 M313.2,345.5L297.7,333l0.7-0.8l15.5,12.7L313.2,345.5z M318.1,339.7L303,326.6l0.7-0.8l15,13.2L318.1,339.7z M323.2,334
		l-14.6-13.6l0.7-0.8l14.6,13.7L323.2,334z M328.5,328.5l-14.1-14.1l0.7-0.7l14.1,14.2L328.5,328.5z M334,323.2l-13.7-14.6l0.8-0.7
		l13.6,14.7L334,323.2z M339.7,318.1L326.6,303l0.8-0.7l13,15.2L339.7,318.1z M345.6,313.2L333,297.6l0.8-0.6l12.5,15.6L345.6,313.2
		z M351.6,308.5l-12-16l0.8-0.6l11.9,16L351.6,308.5z M357.8,304l-11.4-16.4l0.9-0.6l11.3,16.5L357.8,304z M364.1,299.8L353.3,283
		l0.9-0.6l10.8,16.9L364.1,299.8z M370.6,295.8l-10.2-17.2l0.9-0.5l10.1,17.2L370.6,295.8z M377.2,292l-9.6-17.5l0.9-0.5l9.5,17.6
		L377.2,292z M383.9,288.5l-9-17.9l0.9-0.5l8.9,17.9L383.9,288.5z M390.8,285.2l-8.3-18.2l0.9-0.4l8.3,18.2L390.8,285.2z
		 M397.8,282.1l-7.7-18.5l1-0.4l7.6,18.5L397.8,282.1z M404.9,279.3l-7-18.7l1-0.4l6.9,18.8L404.9,279.3z M412,276.8l-6.3-19l1-0.3
		l6.3,19L412,276.8z M419.3,274.5l-5.7-19.2l1-0.3l5.6,19.2L419.3,274.5z M656.7,633.8l-15.1-13.1l0.6-0.7l15.2,13L656.7,633.8z
		 M662,627.4l-15.5-12.6l0.6-0.7l15.6,12.5L662,627.4z M667.2,620.8l-16-12l0.6-0.8l16,12L667.2,620.8z M672.1,614.1l-16.4-11.5
		l0.5-0.8l16.4,11.4L672.1,614.1z M676.7,607.2l-16.8-10.9l0.5-0.8l16.8,10.8L676.7,607.2z M681.1,600.1L664,589.8l0.5-0.8
		l17.2,10.2L681.1,600.1z M685.3,592.8l-17.5-9.6l0.5-0.9l17.6,9.6L685.3,592.8z M689.2,585.5l-17.8-9l0.4-0.8l17.9,8.9L689.2,585.5
		z M692.8,578l-18.2-8.4l0.4-0.9l18.2,8.3L692.8,578z M696.2,570.3l-18.4-7.7l0.4-0.9l18.5,7.6L696.2,570.3z M699.2,562.6l-18.7-7
		l0.3-0.9l18.7,7L699.2,562.6z M702,554.7l-18.9-6.4l0.3-0.9l19,6.3L702,554.7z M704.6,546.8l-19.2-5.7l0.3-0.9l19.2,5.6
		L704.6,546.8z M706.8,538.7l-19.4-5l0.2-0.9l19.4,4.9L706.8,538.7z M708.7,530.6l-19.5-4.3l0.2-0.9l19.6,4.2L708.7,530.6z
		 M710.4,522.4l-19.7-3.6l0.2-1l19.7,3.5L710.4,522.4z M711.7,514.2l-19.8-2.9l0.1-1l19.8,2.8L711.7,514.2z M712.8,505.9l-19.9-2.2
		l0.1-1l19.9,2.1L712.8,505.9z M713.6,497.6l-20-1.4l0.1-1l20,1.4L713.6,497.6z M714,489.2l-20-0.7l0-1l20,0.7L714,489.2z
		 M714.2,481l-20,0l0-0.9h20L714.2,481z M694.1,473.2l0-1l20-0.7l0,1L694.1,473.2z M693.8,465.6l-0.1-1l19.9-1.4l0.1,1L693.8,465.6z
		 M693.1,458l-0.1-0.9l19.9-2.1l0.1,1L693.1,458z M692.2,450.5l-0.1-0.9l19.8-2.8l0.1,1L692.2,450.5z M691,442.9l-0.2-0.9l19.7-3.5
		l0.2,1L691,442.9z M689.6,435.5l-0.2-0.9l19.5-4.2l0.2,1L689.6,435.5z M687.9,428.1l-0.2-0.9l19.4-4.9l0.3,1L687.9,428.1z
		 M685.9,420.7l-0.3-0.9l19.2-5.6l0.3,1L685.9,420.7z M683.7,413.4l-0.3-0.9l19-6.3l0.3,1L683.7,413.4z M681.2,406.2l-0.3-0.9
		l18.8-6.9l0.4,1L681.2,406.2z M678.4,399.1l-0.4-0.9l18.5-7.7l0.4,1L678.4,399.1z M675.4,392.1l-0.4-0.9l18.2-8.3l0.4,0.9
		L675.4,392.1z M672.2,385.3l-0.4-0.9l17.9-8.9l0.5,0.9L672.2,385.3z M668.7,378.5l-0.4-0.8l17.6-9.6l0.5,0.9L668.7,378.5z
		 M665,371.8l-0.5-0.8l17.2-10.2l0.5,0.9L665,371.8z M661,365.3l-0.5-0.8l16.8-10.8l0.6,0.9L661,365.3z M656.8,359l-0.5-0.8
		l16.4-11.4l0.6,0.9L656.8,359z M652.4,352.8l-0.6-0.8l16-11.9l0.6,0.8L652.4,352.8z M647.7,346.7l-0.6-0.8l15.6-12.5l0.6,0.8
		L647.7,346.7z">

	        <animateTransform attributeName="transform"
	            attributeType="XML"
	            type="rotate"
	            from="360 480 480"
	            to="0 480 480"
	            dur="8s"
	            repeatCount="indefinite" />
    </path>

	<path id="Outer" class="st0" d="M908.9,480h-15c0-228.2-185.7-413.9-413.9-413.9S66.1,251.8,66.1,480c0,70.5,18.1,140.2,52.2,201.4
		l-8.3,4.6l0,0l-4.8,2.7c21.1,37.7,47.7,72,79.1,101.9c31.4,29.9,67.1,54.9,105.9,74l1.6-3.2c0,0,0,0,0,0l5.1-10.2
		c57.2,28.3,119.2,42.6,183.2,42.6v15c-38.3,0-75.4-4.9-111.3-14.5l-7.6,27.4c-59.4-16.5-113.9-44.1-161.9-82
		c-46.4-36.7-84.8-81.6-114.1-133.3c-29.3-51.7-48.1-107.7-55.8-166.3c-8-60.7-3.7-121.6,12.7-181l24.4,6.7
		c4.9-17.9,11-35.5,18.3-52.7c21.6-51.1,52.5-96.9,91.9-136.3c39.4-39.4,85.2-70.3,136.3-91.9c52.9-22.4,109-33.7,166.9-33.7
		c40.1,0,79.3,5.4,117.2,16.2l7.7-27.9c0.1,0,0.2,0.1,0.3,0.1c59.5,16.5,114.1,44.1,162.1,82.1c46.4,36.7,84.8,81.6,114.1,133.3
		c0.1,0.1,0.1,0.2,0.2,0.3l-27.3,15.4c7.7,13.7,14.6,27.8,20.8,42.4C897.5,365.9,908.9,422.1,908.9,480z M893.1,557.4l-7.8-1.6
		c-25.4,127.2-110,237-226.4,293.7l3,6.1c-35.5,17.3-73.5,29.6-113,36.2l1.3,7.9c64.3-10.7,126.3-36.7,179.4-75.1
		c52.8-38.3,96.7-88.8,127-146.2l-5.8-3C870.5,638.2,884.9,598.3,893.1,557.4z">

	        <animateTransform attributeName="transform"
	            attributeType="XML"
	            type="rotate"
	            from="360 480 480"
	            to="0 480 480"
	            dur="10s"
	            repeatCount="indefinite" />
    </path>

</g>
<path id="Clockwise_1_" class="st1" d="M158.6,687.8c-1.1-1.7-2.2-3.5-3.3-5.2l16.9-10.6c1,1.7,2.1,3.3,3.1,4.9L158.6,687.8z
	 M151.6,676.4c-1.1-1.8-2.1-3.5-3.1-5.3l17.3-10c1,1.7,2,3.4,3,5L151.6,676.4z M144.9,664.9c-1-1.8-2-3.6-2.9-5.4l17.6-9.4
	c0.9,1.7,1.8,3.4,2.8,5.1L144.9,664.9z M138.7,653.1c-0.9-1.8-1.8-3.7-2.7-5.5l18-8.8c0.9,1.8,1.7,3.5,2.6,5.2L138.7,653.1z
	 M132.8,641.1c-0.9-1.9-1.7-3.7-2.6-5.6l18.3-8.1c0.8,1.8,1.6,3.5,2.4,5.3L132.8,641.1z M253.2,756.6l-19,23.2
	c-20.9-17.1-40.1-36.5-57-57.6l4.2-3.4c-5.9-7.4-11.5-14.9-16.9-22.7c0,0-1.3-1.6-1.9-2.4l16.6-11.2c0.5,0.8,12,17,17.6,24l3.9-3.1
	C216.2,722.9,233.9,740.7,253.2,756.6z M234,180.3c-20.8,17.1-40,36.5-56.8,57.7l3.9,3.1c-21.8,27.3-39.7,57.3-53.4,89.7
	c-20,47.2-30.1,97.3-30.1,149c0,50.6,9.7,99.8,28.9,146.2c0,0,0.6,2,1,2.9l18.4-7.8c-0.4-0.9-1.2-2.6-1.2-2.6
	c-17.7-42.8-27.5-89.6-27.5-138.7c0-85.5,29.7-164.2,79.4-226.4l4.2,3.3c15.6-19.5,33.2-37.4,52.4-53.2L234,180.3z M797.9,265.7
	l-16.6,11.2c-0.5-0.8-1.6-2.5-1.6-2.5c-5.1-7.4-10.4-14.5-16-21.5l-4.4,3.5c-15.6-19.4-33.2-37.3-52.6-53.1l19-23.2
	c20.9,17.1,40.1,36.5,57,57.6l-3.6,2.9c5.9,7.3,11.5,14.9,16.8,22.6C796,263.3,797.3,264.9,797.9,265.7z M830.2,324
	c-0.8-1.9-1.7-3.7-2.6-5.6l-18.1,8.4c0.8,1.8,1.6,3.5,2.4,5.3L830.2,324z M824.6,311.9c-0.9-1.8-1.8-3.7-2.7-5.5l-17.8,9.1
	c0.9,1.7,1.7,3.5,2.6,5.2L824.6,311.9z M818.5,300c-1-1.8-1.9-3.6-2.9-5.4l-17.5,9.7c0.9,1.7,1.9,3.4,2.8,5.1L818.5,300z M812,288.4
	c-1-1.8-2.1-3.5-3.1-5.3l-17.1,10.3c1,1.7,2,3.3,3,5L812,288.4z M805.2,276.9c-1.1-1.7-2.2-3.5-3.3-5.2l-16.8,10.9
	c1.1,1.6,2.1,3.3,3.1,4.9L805.2,276.9z M863,479.7c0-50.6-9.7-99.8-28.9-146.1c0,0-0.6-2-1-2.9l-18.4,7.8c0.4,0.9,1.2,2.6,1.2,2.6
	c17.7,42.7,27.5,89.6,27.5,138.6c0,85.8-29.9,164.7-79.8,226.9l-4.3-3.4c-15.6,19.5-33.2,37.4-52.4,53.2l19.1,23.2
	c20.8-17.1,40-36.5,56.8-57.7l-3.8-3c22-27.4,40.1-57.6,53.9-90.2C852.9,581.5,863,531.4,863,479.7z">

	        <animateTransform attributeName="transform"
	            attributeType="XML"
	            type="rotate"
	            from="0 480 480"
	            to="360 480 480"
	            dur="6s"
	            repeatCount="indefinite" />
    </path>

<path id="Static_1_" class="st2" d="M480.1,829.6c-93,0-181.2-36.4-247.3-102.4S130.4,573.4,130.4,480s36.4-181.2,102.4-247.2
	S386.6,130.4,480,130.4c90.3,0,175.9,34.3,241.2,96.6l-2.1,2.2c-64.7-61.7-149.7-95.7-239.2-95.7c-191.1,0-346.6,155.5-346.6,346.6
	s155.7,346.6,346.7,346.6V829.6z M719.2,719.2c63.9-63.9,99.1-148.9,99.1-239.2s-35.2-175.3-99.1-239.2s-149.2-99.1-239.2-99.1v2
	c185,0,336.3,150.9,336.3,336.3S665.5,816.3,480,816.3c-37.8,0-74.8-6.2-110.2-18.5l-0.7,1.9c35.6,12.3,72.8,18.6,110.8,18.6
	C570.4,818.3,655.3,783.1,719.2,719.2z M232.9,480c0,0,0.2-0.2,0.2-0.4c0-136.3,110.1-247,247.1-247.3v-14.9
	c-70,0.1-135.7,27.4-185.2,76.8C245.4,343.8,218,409.5,218,479.6c0,0.2-0.1,0.4-0.1,0.4H232.9z M742.6,479.7c0,7.6-0.3,15.2-1,22.7
	l-14.9-1.3c0.6-7.1,0.9-14.2,0.9-21.4c0-35.4-7.5-69-20.9-99.5l6.4-2.8c-2.9-6.7-6.2-13.3-9.7-19.8c-11.8-21.6-26.4-41-43.2-57.9
	l5.5-5.5C715.3,343.8,742.6,409.7,742.6,479.7z M643.8,674.6l5.1,6.1c-47.2,39.7-106.3,61.4-168.7,61.4c-70.1,0-136-27.3-185.5-76.8
	l10.7-10.7c28.9,28.9,64.8,50.6,105,62.5l-2,6.8c65.2,19.2,134,11.8,193.7-20.8C617,694.9,631,685.3,643.8,674.6z"/>
</svg>
