<svg id="Layer_1" data-name="Layer 1" xmlns="http://www.w3.org/2000/svg" viewBox="0 0 432.93 567.18" style=""><title>aleksandar2</title><g id="_0.75" data-name="0.75"><path d="M204.21,297.2c-8.49-3-19.41-5.63-25.89,2.6-6.81,8.66-7.26,21.73-5.45,32.1,2.2,12.58,8.52,24,15.36,34.61,5.13,8,11.21,18.4,22.28,16.22,2.36-.46,1.36-4.08-1-3.61-10.18,2-16.58-11.94-20.95-19.12-4.88-8-9.21-16.51-11.38-25.71s-2.28-19.89,2-28.68c4.91-10.19,15.23-7.92,24.07-4.8,2.28.81,3.26-2.81,1-3.61Z" transform="translate(-96.22 -87.92)" style="fill:#7f1416" class="ubLkzifg_0"></path><path d="M210.87,371c-3.39,42-7.77,84-11.16,126-.19,2.4,3.56,2.39,3.75,0,3.39-42,7.77-84,11.16-126,.2-2.41-3.56-2.4-3.75,0Z" transform="translate(-96.22 -87.92)" style="fill:#7f1416" class="ubLkzifg_1"></path><path d="M389.82,479.47c1.32,26.15,1.48,52.36-8.49,77.07-9.27,23-26.35,42.94-49.33,52.89a81,81,0,0,1-35.85,6.72c-13.87-.65-25.87-6.29-38.46-11.58-23.38-9.82-50.23-13.6-64.7-36.89-14.16-22.78-11.44-56.73,9.23-74.85,1.81-1.6-.85-4.24-2.66-2.66-17.85,15.66-23.38,43.68-16.11,65.85a62,62,0,0,0,20.84,29.69c10.85,8.37,24.15,12.45,37,16.76,13.87,4.66,27,12.15,41.24,15.52a79.52,79.52,0,0,0,37.53-.55c25.08-6.29,45.62-23.66,58.24-46,16.1-28.43,16.92-60.24,15.32-92-.12-2.41-3.87-2.42-3.75,0Z" transform="translate(-96.22 -87.92)" style="fill:#7f1416" class="ubLkzifg_2"></path></g><g id="_0.65" data-name="0.65"><path d="M212.2,362.83c1.21,18.72,2.44,37.59,7.42,55.67s14,35.54,28.53,47.46" transform="translate(-96.22 -87.92)" style="fill:none;stroke:#7f1416;stroke-miterlimit:10;stroke-width:3px" class="ubLkzifg_3"></path><path d="M220.39,341.5c-.12-9.88-5.56-18.9-7.39-28.61-1-5.44-.89-11-.77-16.57l1.17-49.79" transform="translate(-96.22 -87.92)" style="fill:none;stroke:#7f1416;stroke-miterlimit:10;stroke-width:3px" class="ubLkzifg_4"></path><path d="M223.51,223a37,37,0,0,0-8.41,20.5" transform="translate(-96.22 -87.92)" style="fill:none;stroke:#7f1416;stroke-miterlimit:10;stroke-width:3px" class="ubLkzifg_5"></path><path d="M325.06,249a38.89,38.89,0,0,1-17.28-6.1l.64,2.65a66.87,66.87,0,0,0-8.62-5.59l2.65,4.47c-4.37-1.86-8.89-3.76-13.65-3.78-4.53,0-8.87,1.68-13.08,3.34l-30.2,11.95a31.49,31.49,0,0,1,4-12.91l12.64-12.49c.57.13-.22,1.06-.63.65s-.15-1.12.18-1.6c3.85-5.67,12.33-4.76,19-3.21l10.77,2.51c.4.09.88.25,1,.66s-.66.7-.69.28l20.42,3.61c5.71,1,12.53,3,14,8.59l.93-5.91a22.9,22.9,0,0,1,5.39,14.43" transform="translate(-96.22 -87.92)" style="fill:none;stroke:#7f1416;stroke-miterlimit:10;stroke-width:3px" class="ubLkzifg_6"></path><path d="M334.58,249l-.28-12.66A14.51,14.51,0,0,1,334,253" transform="translate(-96.22 -87.92)" style="fill:none;stroke:#7f1416;stroke-miterlimit:10;stroke-width:3px" class="ubLkzifg_7"></path><path d="M388.86,261.92a53.41,53.41,0,0,1,6.52-8.92,7.14,7.14,0,0,1,2.93-2.23,7.59,7.59,0,0,1,3.32,0A122.09,122.09,0,0,1,416.39,254l-3.29-2.84,17.31,3.13,1.23-2.67c8,7.61,16.48,16.41,16.82,27.41" transform="translate(-96.22 -87.92)" style="fill:none;stroke:#7f1416;stroke-miterlimit:10;stroke-width:3px" class="ubLkzifg_8"></path><path d="M448.23,276a66,66,0,0,1-1.13,20.93,8.74,8.74,0,0,0-2.64-6.25l.48,2.45a74.94,74.94,0,0,0-11.13-12.85,8.7,8.7,0,0,0,4.77.28l-9.91-9.27,5.35,1.25c-12.87-8.38-29.13-9-44.49-9.35" transform="translate(-96.22 -87.92)" style="fill:none;stroke:#7f1416;stroke-miterlimit:10;stroke-width:3px" class="ubLkzifg_9"></path><path d="M345,335.55c-2.78-2.1-6.22-4.32-9.49-3.14-2.08.75-3.44,3.79-1.71,5.16,1.37,1.08,3.36.25,4.83-.68s3.27-2,4.83-1.2" transform="translate(-96.22 -87.92)" style="fill:none;stroke:#7f1416;stroke-miterlimit:10;stroke-width:3px" class="ubLkzifg_10"></path><path d="M371,337.26a22.8,22.8,0,0,0-8.95,1.47,3.42,3.42,0,0,0-1.2.69,2.37,2.37,0,0,0-.16,2.72,7,7,0,0,0,2.05,2,3,3,0,0,0,1.73.78c.89,0,1.56-.78,2.11-1.48l4.54-5.88" transform="translate(-96.22 -87.92)" style="fill:none;stroke:#7f1416;stroke-miterlimit:10;stroke-width:3px" class="ubLkzifg_11"></path><path d="M329.5,345.62a12.37,12.37,0,0,1-9.18-20.79" transform="translate(-96.22 -87.92)" style="fill:none;stroke:#7f1416;stroke-miterlimit:10;stroke-width:3px" class="ubLkzifg_12"></path><path d="M371.33,351.74c7.21-2.95,11.47-11.13,11-18.9s-5-14.91-11-19.82" transform="translate(-96.22 -87.92)" style="fill:none;stroke:#7f1416;stroke-miterlimit:10;stroke-width:3px" class="ubLkzifg_13"></path><path d="M350,378.5l-6.45-4.94a6.68,6.68,0,0,0-2-1.19,6,6,0,0,0-4.05.67c-8.63,3.83-15.74,11-24.94,13.18" transform="translate(-96.22 -87.92)" style="fill:none;stroke:#7f1416;stroke-miterlimit:10;stroke-width:3px" class="ubLkzifg_14"></path><path d="M350.58,379.13a23.78,23.78,0,0,1,7.11-4.29,3.73,3.73,0,0,1,1.91-.33,3.94,3.94,0,0,1,1.68.93c7.1,5.62,14.34,11.39,19.28,19" transform="translate(-96.22 -87.92)" style="fill:none;stroke:#7f1416;stroke-miterlimit:10;stroke-width:3px" class="ubLkzifg_15"></path><path d="M384.07,392.93a2.84,2.84,0,0,1,.81,2.93c-1-1.14-2.84-.74-4.37-.72-3.66,0-6.72-2.59-10-4.19-4.87-2.37-10.49-2.52-15.91-2.43-4,.07-8.8-.21-10.69-3.72" transform="translate(-96.22 -87.92)" style="fill:none;stroke:#7f1416;stroke-miterlimit:10;stroke-width:3px" class="ubLkzifg_16"></path><path d="M327,384.09a23.34,23.34,0,0,0,17.08,2" transform="translate(-96.22 -87.92)" style="fill:none;stroke:#7f1416;stroke-miterlimit:10;stroke-width:3px" class="ubLkzifg_17"></path><path d="M327.54,385.66a60.57,60.57,0,0,1-29-.3" transform="translate(-96.22 -87.92)" style="fill:none;stroke:#7f1416;stroke-miterlimit:10;stroke-width:3px" class="ubLkzifg_18"></path><path d="M298.94,383.41a26.29,26.29,0,0,0-6.42,3,8.82,8.82,0,0,0-3.8,5.81l10.55-7.09" transform="translate(-96.22 -87.92)" style="fill:none;stroke:#7f1416;stroke-miterlimit:10;stroke-width:3px" class="ubLkzifg_19"></path><path d="M286.55,395.53a5.16,5.16,0,0,0,.92,6" transform="translate(-96.22 -87.92)" style="fill:none;stroke:#7f1416;stroke-miterlimit:10;stroke-width:3px" class="ubLkzifg_20"></path><path d="M225.42,213.75l-5,1.51a27.08,27.08,0,0,0,3.64-7.68l-3.49,1.6a47.64,47.64,0,0,0,5.93-9L222,202.52l6.32-8.11c1.18-1.51,2.42-3.24,2.18-5.14a33,33,0,0,0-5.76,4.11,35.89,35.89,0,0,0,6.93-10.83" transform="translate(-96.22 -87.92)" style="fill:none;stroke:#7f1416;stroke-miterlimit:10;stroke-width:3px" class="ubLkzifg_21"></path><path d="M226.45,213.47l-6.09,8.26,5.13-2a4.34,4.34,0,0,1-1.51,2.78" transform="translate(-96.22 -87.92)" style="fill:none;stroke:#7f1416;stroke-miterlimit:10;stroke-width:3px" class="ubLkzifg_22"></path><path d="M390,282.46a7,7,0,0,0-.34,6.67,10.14,10.14,0,0,0,4.9,4.77,11.54,11.54,0,0,0,9.15.53,9.22,9.22,0,0,0,5.74-6.94" transform="translate(-96.22 -87.92)" style="fill:none;stroke:#7f1416;stroke-miterlimit:10;stroke-width:3px" class="ubLkzifg_23"></path><path d="M397.94,282.39a2.84,2.84,0,1,0,.6-.23" transform="translate(-96.22 -87.92)" style="fill:none;stroke:#7f1416;stroke-miterlimit:10;stroke-width:3px" class="ubLkzifg_24"></path><path d="M291,266.4a1.72,1.72,0,0,0-1.3,2.59,2.24,2.24,0,0,0,3.15.36,3.25,3.25,0,0,0,1-3.24,8.51,8.51,0,0,0-4.39.29" transform="translate(-96.22 -87.92)" style="fill:none;stroke:#7f1416;stroke-miterlimit:10;stroke-width:3px" class="ubLkzifg_25"></path><path d="M323.44,277.06A37.77,37.77,0,0,0,313,269.45" transform="translate(-96.22 -87.92)" style="fill:none;stroke:#7f1416;stroke-miterlimit:10;stroke-width:3px" class="ubLkzifg_26"></path><path d="M314.39,270.08c-7.21-5.77-17.1-7.39-26.24-6.08s-17.69,5.27-25.79,9.71a15.86,15.86,0,0,0,8.7-.82" transform="translate(-96.22 -87.92)" style="fill:none;stroke:#7f1416;stroke-miterlimit:10;stroke-width:3px" class="ubLkzifg_27"></path><path d="M310.59,267.65a5.82,5.82,0,0,1-2.38,10.18" transform="translate(-96.22 -87.92)" style="fill:none;stroke:#7f1416;stroke-miterlimit:10;stroke-width:3px" class="ubLkzifg_28"></path><path d="M281.82,266.75a11.33,11.33,0,0,0,7.47,10.9c4.5,1.44,10-.89,11.76-5.27a14.94,14.94,0,0,0,.65-6.88" transform="translate(-96.22 -87.92)" style="fill:none;stroke:#7f1416;stroke-miterlimit:10;stroke-width:3px" class="ubLkzifg_29"></path><path d="M253.06,467.55c-.4.63.55,1.25,1.3,1.36a13,13,0,0,0,4.12-.06,1.16,1.16,0,0,1,.64,0c.6.25.32,1.16.47,1.79.23,1,1.59,1.25,2.59,1s2-.83,3-.63c1.52.29,2.46,2.21,4,2.2,1.08,0,2.33-.95,3.1-.18a4.07,4.07,0,0,1,.55,1.15c.62,1.26,2.4,1.35,3.76,1s2.78-1,4.12-.58c1.57.51,3,2.42,4.44,1.69" transform="translate(-96.22 -87.92)" style="fill:none;stroke:#7f1416;stroke-miterlimit:10;stroke-width:3px" class="ubLkzifg_30"></path><path d="M286.46,476.8c1.92,1.35,4.53,1.08,6.82.55a1.84,1.84,0,0,1,1-.05c.89.31.77,1.63,1.28,2.42.63,1,2.1.95,3.22.58s2.29-.93,3.42-.58c1.51.47,2.6,2.49,4.12,2,.65-.2,1.16-.87,1.85-.84,1.28.06,1.36,2.26,2.59,2.64s2.42-1.19,3.49-.59c.36.21.55.61.83.92,1.74,1.88,5-.81,7.39.17" transform="translate(-96.22 -87.92)" style="fill:none;stroke:#7f1416;stroke-miterlimit:10;stroke-width:3px" class="ubLkzifg_31"></path><path d="M324.46,484.49A123,123,0,0,0,358,486.62c11.2-1,22.3-4.06,32-9.81" transform="translate(-96.22 -87.92)" style="fill:none;stroke:#7f1416;stroke-miterlimit:10;stroke-width:3px" class="ubLkzifg_32"></path><path d="M389.82,476.71a6.46,6.46,0,0,0,3.65-.09c1.13-.49,1.92-2,1.26-3a3.37,3.37,0,0,0,4.07-2.31,3.32,3.32,0,0,1,.39-1.25c.64-.89,2.15-.48,3-1.19s.58-2,1-3c.75-1.83,3.44-2.06,4.46-3.76.86-1.43.38-3.67,1.8-4.54.47-.28,1.05-.34,1.54-.57,2-.92,1.68-3.77,1.76-6a1.32,1.32,0,0,1,.26-.87,2,2,0,0,1,1.08-.43c2.4-.66,2.51-4,2.1-6.45.37.87,1.82.62,2.26-.21a3.72,3.72,0,0,0-.07-2.76,4.1,4.1,0,0,1-.19-2.77" transform="translate(-96.22 -87.92)" style="fill:none;stroke:#7f1416;stroke-miterlimit:10;stroke-width:3px" class="ubLkzifg_33"></path><path d="M234,450a3.39,3.39,0,0,1-.25,1.78,7.92,7.92,0,0,0,2.83,0,2.68,2.68,0,0,0,0,2.36,1.8,1.8,0,0,0,2.06.93c.62-.2,1.33-.78,1.79-.33a1,1,0,0,1,.24.59c.17,1.06.34,2.47,1.39,2.64.4.07.83-.1,1.21,0,.7.25.72,1.19.92,1.9a2.82,2.82,0,0,0,2.57,2c.58,0,1.27-.1,1.62.35a1.32,1.32,0,0,1,.24.63,5.87,5.87,0,0,0,1.37,3.3,5.54,5.54,0,0,0,3.54,1" transform="translate(-96.22 -87.92)" style="fill:none;stroke:#7f1416;stroke-miterlimit:10;stroke-width:3px" class="ubLkzifg_34"></path><path d="M418.65,437.62l2.1,1.79,1.56-4.91c.19.85,1.5.94,2.11.32a3.74,3.74,0,0,0,.76-2.44l.35-5.45a5.8,5.8,0,0,0,2.51.67,57.28,57.28,0,0,0,.46-10l1.83.86c1.87-3.32.25-7.73,1.93-11.14.51-1.05,1.32-1.94,1.83-3a13.33,13.33,0,0,0,1-4.86,136.17,136.17,0,0,1,5.28-28.45" transform="translate(-96.22 -87.92)" style="fill:none;stroke:#7f1416;stroke-miterlimit:10;stroke-width:3px" class="ubLkzifg_35"></path><path d="M456,271.07l-8.52,63.7c-1.89,14.13-3.83,28.45-9.27,41.62" transform="translate(-96.22 -87.92)" style="fill:none;stroke:#7f1416;stroke-miterlimit:10;stroke-width:3px" class="ubLkzifg_36"></path><path d="M415.5,167.71c18.73,8.93,30.77,28.31,35.86,48.43s4.19,41.2,3.26,61.93" transform="translate(-96.22 -87.92)" style="fill:none;stroke:#7f1416;stroke-miterlimit:10;stroke-width:3px" class="ubLkzifg_37"></path><path d="M229.43,187a148.06,148.06,0,0,1,20.34-33.7,14.43,14.43,0,0,1,2.9-2.94c3.76-2.61,8.87-1.36,13.25,0a3.68,3.68,0,0,0,.62-2.77,30.25,30.25,0,0,0,9.39,1.9l.15-3.49,7.92,1.91c1.4.34,3,.66,4.23,0s1.71-2.84.42-3.49a10.66,10.66,0,0,1,8.19,2.81" transform="translate(-96.22 -87.92)" style="fill:none;stroke:#7f1416;stroke-miterlimit:10;stroke-width:3px" class="ubLkzifg_38"></path><path d="M296.75,147.8c2.67-1.81,6.12-3.68,8.93-2.09a4,4,0,0,0,1.65.75c.8,0,1.44-.63,2.18-.93a5.51,5.51,0,0,1,3.06.1c3.87.8,7.85.84,11.79,1.18a78.48,78.48,0,0,1,43.39,18" transform="translate(-96.22 -87.92)" style="fill:none;stroke:#7f1416;stroke-miterlimit:10;stroke-width:3px" class="ubLkzifg_39"></path><path d="M368.5,165.5q6.81-4.73,14-8.9a16,16,0,0,1-2.63,6.58,88.43,88.43,0,0,0,12.5-3.29,14.12,14.12,0,0,1-1.76,5.26l12.9-5c.54-.21,1.24-.39,1.65,0a1.53,1.53,0,0,1,.3,1l.31,3.68a11.26,11.26,0,0,1,5.69-2.23,1.82,1.82,0,0,0,.43,2.87,3.71,3.71,0,0,0,2.63-.2,2.88,2.88,0,0,1,2.6.11c.71.56.39,2.07-.5,1.92" transform="translate(-96.22 -87.92)" style="fill:none;stroke:#7f1416;stroke-miterlimit:10;stroke-width:3px" class="ubLkzifg_40"></path><path d="M191.21,296,190,283.18c-.13-1.47-2.12-3.22-2.49-1.79a17.78,17.78,0,0,0,1.42-7.85l-2.52.92.84-10.27a9.89,9.89,0,0,1-2.58-8.78,7.42,7.42,0,0,0,4.73-2.43l-4.85-6.56,3.77-1.94a25.54,25.54,0,0,0-3.69-5.3c1.55-2.79,1.59-6.14,1.67-9.34a207,207,0,0,1,6.25-45.74c.67-2.65,3-6,5.3-4.52a17.44,17.44,0,0,0-.88-6.49l3.63.3a15.19,15.19,0,0,0-.52-7.91c1.79,1.61,4.14-1.68,3.65-4s-1.89-5-.47-6.95a15.91,15.91,0,0,0,6.17.68l-.91-6a8,8,0,0,0,4.87,1.41l.13-4.66L217.4,147l.86-4a1.71,1.71,0,0,0,2.38.08" transform="translate(-96.22 -87.92)" style="fill:none;stroke:#7f1416;stroke-miterlimit:10;stroke-width:3px" class="ubLkzifg_41"></path><path d="M221.29,143.49a132,132,0,0,1,88.56-53.76l-1.08,3.69,9.18-3-1.77,4L328,94l-.39,4.11A209.24,209.24,0,0,1,363,94.33" transform="translate(-96.22 -87.92)" style="fill:none;stroke:#7f1416;stroke-miterlimit:10;stroke-width:3px" class="ubLkzifg_42"></path><path d="M363.23,95.93a16.11,16.11,0,0,0,7.71-.44L369,99.07a106.61,106.61,0,0,1,14.62-.71,7.84,7.84,0,0,0-1.26,3.93A49.49,49.49,0,0,1,404.72,107l-3.58,2.3c17.16,6.18,35.12,15,43.16,31.32" transform="translate(-96.22 -87.92)" style="fill:none;stroke:#7f1416;stroke-miterlimit:10;stroke-width:3px" class="ubLkzifg_43"></path><path d="M444,142.47a4,4,0,0,0-4.13,0l10,11.15a24.56,24.56,0,0,0-7.42-2.07,44.78,44.78,0,0,1,13.73,17.9,4.77,4.77,0,0,0-5.2.59l4,4.3a13,13,0,0,0-4.8,1.78l5.32,2.49c-2.11,2.63,2.67,5.69,3,9.05.15,1.66-.86,3.19-1.12,4.84-.32,2.12.62,4.21,1.49,6.18a108.86,108.86,0,0,1,9,49.66l-3.69-3.87a20.45,20.45,0,0,1,1.75,6.17,7,7,0,0,1-4.17-1.91,42.77,42.77,0,0,1-7,34.56" transform="translate(-96.22 -87.92)" style="fill:none;stroke:#7f1416;stroke-miterlimit:10;stroke-width:3px" class="ubLkzifg_44"></path><path d="M379.32,288.74a4.41,4.41,0,0,1-1.81-.6,1.51,1.51,0,0,1-.68-1.66,2,2,0,0,1,.53-.74c2.41-2.38,5.81-3.51,9.15-4a36.55,36.55,0,0,1,18.89,2.34,49,49,0,0,1,15.94,10.59,13.17,13.17,0,0,1,3.52,4.9,12.69,12.69,0,0,1-6.53-.19" transform="translate(-96.22 -87.92)" style="fill:none;stroke:#7f1416;stroke-miterlimit:10;stroke-width:3px" class="ubLkzifg_45"></path><path d="M393,487.47a48.76,48.76,0,0,1,17.71,4.79,13,13,0,0,0,3.76,1.43,16.81,16.81,0,0,0,4.24-.26c6.31-.65,12.43,2.07,18.19,4.72,6.18,2.85,12.4,5.72,18,9.65a58.77,58.77,0,0,1,10.78,9.88" transform="translate(-96.22 -87.92)" style="fill:none;stroke:#7f1416;stroke-miterlimit:10;stroke-width:3px" class="ubLkzifg_46"></path><path d="M451.06,503.84c4.13-4.53,10.84-5.69,17-5.39s12.21,1.77,18.33,1.38c4.71-.29,9.5-1.68,14.06-.46,5.75,1.53,9.63,6.76,13,11.66" transform="translate(-96.22 -87.92)" style="fill:none;stroke:#7f1416;stroke-miterlimit:10;stroke-width:3px" class="ubLkzifg_47"></path><path d="M514.35,510.19a27,27,0,0,1,13.86,5.63" transform="translate(-96.22 -87.92)" style="fill:none;stroke:#7f1416;stroke-miterlimit:10;stroke-width:3px" class="ubLkzifg_48"></path><path d="M199.91,489.44A237.51,237.51,0,0,0,162,516" transform="translate(-96.22 -87.92)" style="fill:none;stroke:#7f1416;stroke-miterlimit:10;stroke-width:3px" class="ubLkzifg_49"></path><path d="M168.05,510c-7.88.32-17,1.26-21.4,7.77-3.09,4.51-3.94,11.54-9.23,12.92a15.85,15.85,0,0,1-5,.06c-6.81-.42-13.55,2-19.38,5.51s-10.85,8.24-15.84,12.89" transform="translate(-96.22 -87.92)" style="fill:none;stroke:#7f1416;stroke-miterlimit:10;stroke-width:3px" class="ubLkzifg_50"></path><path d="M395.38,493.27c15.49,23.49,13.25,55.91-1.28,80s-39.57,40.47-66.22,49.52a94.43,94.43,0,0,1-23,5.16c-8.32.64-16.68-.35-25-1.33a208.91,208.91,0,0,1-24.28-3.83c-28.84-6.91-53.24-25.55-76.69-43.71a19.32,19.32,0,0,1-4.79-4.71c-1.73-2.77-1.94-6.19-2.1-9.45l-1.13-22.66c-.29-6-.58-12,.87-17.82,1.86-7.43,6.43-13.84,10.91-20.06,3.24-4.51,7.59-9.54,13.11-8.92" transform="translate(-96.22 -87.92)" style="fill:none;stroke:#7f1416;stroke-miterlimit:10;stroke-width:3px" class="ubLkzifg_51"></path><path d="M398.28,284.52c.09-.2-.39-.14-.33.08s.34.26.57.27l1.42,0c-.27.72-1.66.29-1.46-.46a1.45,1.45,0,0,1,1.55.17c-.12-.19-.49-.05-.46.18a.27.27,0,0,0,.5,0" transform="translate(-96.22 -87.92)" style="fill:none;stroke:#7f1416;stroke-miterlimit:10;stroke-width:3px" class="ubLkzifg_52"></path><path d="M291,267.67l.28.88c-.48-.18-.09-1.11.38-.88" transform="translate(-96.22 -87.92)" style="fill:none;stroke:#7f1416;stroke-miterlimit:10;stroke-width:3px" class="ubLkzifg_53"></path><path d="M308.66,387.59,320,393.08c7.73,3.75,15.65,7.56,24.18,8.59,11.27,1.36,22.48-2.24,33.26-5.78" transform="translate(-96.22 -87.92)" style="fill:none;stroke:#7f1416;stroke-miterlimit:10;stroke-width:3px" class="ubLkzifg_54"></path><path d="M359,362" transform="translate(-96.22 -87.92)" style="fill:none;stroke:#7f1416;stroke-miterlimit:10;stroke-width:3px" class="ubLkzifg_55"></path><path d="M356.46,355.51a16.9,16.9,0,0,0,2.74,6.54c.69,1,1.32,2.56,2.54,3,.32.12,3.14,0,2.77-.53,2.73,4.07,3.94,9.43,9.93,7.53,2.81,9.65,16.26,12.83,15.06,24.44" transform="translate(-96.22 -87.92)" style="fill:none;stroke:#7f1416;stroke-miterlimit:10;stroke-width:3px" class="ubLkzifg_56"></path><path d="M340.31,361.94a9.65,9.65,0,0,1-4.28-.75c.37,1.91-1.7,3.4-3.59,3.89a54.34,54.34,0,0,1-5.39.82,24.42,24.42,0,0,0-10.83,4.56,22.88,22.88,0,0,1-3.32,2.34,11.09,11.09,0,0,1-1.73.68c-2.59.78-5.43,1-7.69,2.45a13.8,13.8,0,0,1-1.64,1.1c-1,.48-2.09.55-3.08,1a8.53,8.53,0,0,0-2.05,1.44L291.48,384c-2.76,2.37-5.8,5.53-5,9.07" transform="translate(-96.22 -87.92)" style="fill:none;stroke:#7f1416;stroke-miterlimit:10;stroke-width:3px" class="ubLkzifg_57"></path><path d="M340.45,361.42c3.18-1.94,6.38-3.88,7.59-7.66" transform="translate(-96.22 -87.92)" style="fill:none;stroke:#7f1416;stroke-miterlimit:10;stroke-width:3px" class="ubLkzifg_58"></path><path d="M352.73,385.84c1.54,2.29,5.66,1.89,6.74-.65.84,2.11,4.47,2.09,5.3,0l4.12,3.94" transform="translate(-96.22 -87.92)" style="fill:none;stroke:#7f1416;stroke-miterlimit:10;stroke-width:3px" class="ubLkzifg_59"></path></g><g id="_0.5" data-name="0.5"><path d="M202.16,321.93a34.76,34.76,0,0,0-13.06-15.75,2.78,2.78,0,0,0-2-.64,2.7,2.7,0,0,0-1.26.8c-5.79,5.66-6.17,15-4.08,22.8s6.2,15,8.21,22.86" transform="translate(-96.22 -87.92)" style="fill:none;stroke:#7f1416;stroke-miterlimit:10;stroke-width:2px" class="ubLkzifg_60"></path><path d="M192,309.1c-5,2.25-5.37,9-5,14.45.51,8.16,2.47,20.28,3,28.45" transform="translate(-96.22 -87.92)" style="fill:none;stroke:#7f1416;stroke-miterlimit:10;stroke-width:2px" class="ubLkzifg_61"></path><path d="M210,326.5c-4.55,5-8.86,11.13-9.11,16.59s3.58,11.45,9,11.59c0-8.56,0-19.62.07-28.18" transform="translate(-96.22 -87.92)" style="fill:none;stroke:#7f1416;stroke-miterlimit:10;stroke-width:2px" class="ubLkzifg_62"></path><path d="M213.28,333.46c-.88-3.79-2.49-7.36-3.72-11-4.35-13.06-3.89-27.16-3.38-40.91" transform="translate(-96.22 -87.92)" style="fill:none;stroke:#7f1416;stroke-miterlimit:10;stroke-width:2px" class="ubLkzifg_63"></path><path d="M381.49,267.47a56.46,56.46,0,0,0-6.24,4.39,13.45,13.45,0,0,0-3.18,3.34c-2.39,3.93-.84,9.05,1.29,13.13A54.46,54.46,0,0,0,382.44,301" transform="translate(-96.22 -87.92)" style="fill:none;stroke:#7f1416;stroke-miterlimit:10;stroke-width:2px" class="ubLkzifg_64"></path><path d="M347.91,349.78c-1.68-4.16-6.79-6-11.25-5.54s-8.58,2.48-12.82,3.93a47.54,47.54,0,0,1-20.26,2.28l1.76,2.66a55,55,0,0,0-11.33-.24,4,4,0,0,0,1.86,3l-9.28.2c-1,0-2.16.14-2.66,1a4.54,4.54,0,0,0-.25,2.12c-.21,5.35-9.18,6.44-10.09,11.71l3.49.21a15.43,15.43,0,0,1-3.49,5.37l2.27.95a28.54,28.54,0,0,0-3.83,9.06" transform="translate(-96.22 -87.92)" style="fill:none;stroke:#7f1416;stroke-miterlimit:10;stroke-width:2px" class="ubLkzifg_65"></path><path d="M213.5,333a15.81,15.81,0,0,1,3.62,6.86,5.33,5.33,0,0,0,1.28-2.34,76.15,76.15,0,0,1,5.34,10.88l1.67-1.92,11.73,23.17c1.92,3.8,3.91,7.69,7.09,10.52s7.88,4.38,11.79,2.71a9,9,0,0,0,.41,4.08,12.31,12.31,0,0,0,4.45-1.44c-.54,2.43,2.55,4.38,5,3.78s4.11-2.71,5.61-4.69" transform="translate(-96.22 -87.92)" style="fill:none;stroke:#7f1416;stroke-miterlimit:10;stroke-width:2px" class="ubLkzifg_66"></path><path d="M371.48,351.52,382.54,359l1.38-1.45a16.23,16.23,0,0,0,8.06,6.62,31.69,31.69,0,0,1,14.39,18.13,8,8,0,0,0-2.93-2.24l3.14,10.93-3.71-1.56a23,23,0,0,1,2.18,10.12" transform="translate(-96.22 -87.92)" style="fill:none;stroke:#7f1416;stroke-miterlimit:10;stroke-width:2px" class="ubLkzifg_67"></path><path d="M405.27,385.81a43,43,0,0,0,7.19,8.16,9.28,9.28,0,0,0,1.27-3.45,8.21,8.21,0,0,0,3.6,3.1c1.53.5,3.58-.29,3.78-1.88a6.16,6.16,0,0,1,.12-1.67c.58-1.37,2.75-.68,4-1.42,1.47-.86,1.41-3.39,3-4a12.25,12.25,0,0,1,1.72-.21c3.27-.67,2.51-7,5.81-7.51a5.18,5.18,0,0,0,1.31-.19c.69-.29.94-1.13,1.11-1.86l.9-3.86" transform="translate(-96.22 -87.92)" style="fill:none;stroke:#7f1416;stroke-miterlimit:10;stroke-width:2px" class="ubLkzifg_68"></path><path d="M370.81,351.8l-8-4.9c-.44-.27-1-.55-1.44-.29-1,.58.21,2.74-.89,3.19l-2.28-1.68c-.18,1.9-.85,4.32-2.75,4.46-1.19.09-2.19-.84-3-1.7l-2.13-2.22" transform="translate(-96.22 -87.92)" style="fill:none;stroke:#7f1416;stroke-miterlimit:10;stroke-width:2px" class="ubLkzifg_69"></path><path d="M416.63,299.65c-6.47,1.32-13.25.27-19.49-1.92s-12-5.47-17.77-8.73" transform="translate(-96.22 -87.92)" style="fill:none;stroke:#7f1416;stroke-miterlimit:10;stroke-width:2px" class="ubLkzifg_70"></path><path d="M270.56,273.42A34.07,34.07,0,0,0,285.84,280c11.94,1.66,24.08-4.87,35.88-2.39" transform="translate(-96.22 -87.92)" style="fill:none;stroke:#7f1416;stroke-miterlimit:10;stroke-width:2px" class="ubLkzifg_71"></path><path d="M319.19,267.51a21.94,21.94,0,0,0-10.26-6.63,34.27,34.27,0,0,0-10.59-1.11,79.76,79.76,0,0,0-38.45,11" transform="translate(-96.22 -87.92)" style="fill:none;stroke:#7f1416;stroke-miterlimit:10;stroke-width:2px" class="ubLkzifg_72"></path><path d="M314.49,281c-5.68,1.07-11.18,2.94-16.83,4.19s-11.57,1.86-17.17.42" transform="translate(-96.22 -87.92)" style="fill:none;stroke:#7f1416;stroke-miterlimit:10;stroke-width:2px" class="ubLkzifg_73"></path><path d="M320.28,410.28a27.8,27.8,0,0,1,8.71-6.94c-.59.71.25,1.85,1.18,1.91a4.76,4.76,0,0,0,2.54-1,2.7,2.7,0,0,1,2.62-.34c.79.46,1.24,1.65,2.14,1.55.59-.07.94-.67,1.45-1,1.13-.65,2.47.35,3.35,1.31s2.07,2.07,3.28,1.61a7.74,7.74,0,0,0,1.5-1.09,2.7,2.7,0,0,1,4,1.9l2.05-2.93a15.93,15.93,0,0,1,5.16,11.27c-.26-.82-1.49-.86-2.16-.33a9.83,9.83,0,0,0-1.51,2.07c-.51.68-1.45,1.23-2.2.82-.44-.24-.68-.74-1.1-1-1.87-1.09-3.34,3.42-5.36,2.65-.57-.22-.93-.83-1.51-1-1.49-.41-2.52,2.3-4,1.85a3.88,3.88,0,0,0-4-2.86c-1.51.15-3.55,1-4.19-.41-.26-.54-.12-1.26-.55-1.68-1-1-3,1.15-3.83.08-.4-.5-.08-1.28-.34-1.87-.37-.87-1.6-.8-2.55-.85s-2.11-1-1.47-1.74l-2.38.1a3.71,3.71,0,0,1,.67-3" transform="translate(-96.22 -87.92)" style="fill:none;stroke:#7f1416;stroke-miterlimit:10;stroke-width:2px" class="ubLkzifg_74"></path><path d="M431.64,299.32a47.24,47.24,0,0,0-42.18-24.17c-4.59.16-9.43,1.13-12.76,4.29" transform="translate(-96.22 -87.92)" style="fill:none;stroke:#7f1416;stroke-miterlimit:10;stroke-width:2px" class="ubLkzifg_75"></path><path d="M318,423.67a91.43,91.43,0,0,1,41,3.24" transform="translate(-96.22 -87.92)" style="fill:none;stroke:#7f1416;stroke-miterlimit:10;stroke-width:2px" class="ubLkzifg_76"></path><path d="M380.94,293.09a71,71,0,0,0,23.55,11" transform="translate(-96.22 -87.92)" style="fill:none;stroke:#7f1416;stroke-miterlimit:10;stroke-width:2px" class="ubLkzifg_77"></path><path d="M393.05,488.27a124.74,124.74,0,0,1,45.69,70.79" transform="translate(-96.22 -87.92)" style="fill:none;stroke:#7f1416;stroke-miterlimit:10;stroke-width:2px" class="ubLkzifg_78"></path><path d="M107.46,557.49c1.85-9.36,4.81-20.13,13.62-23.78" transform="translate(-96.22 -87.92)" style="fill:none;stroke:#7f1416;stroke-miterlimit:10;stroke-width:2px" class="ubLkzifg_79"></path><path d="M140.53,531a40.35,40.35,0,0,1-14.46,25.72c-2.29,1.86-4.82,3.49-6.74,5.72-6.36,7.38-4.31,18.76-.25,27.62s9.88,17.4,10.14,27.14" transform="translate(-96.22 -87.92)" style="fill:none;stroke:#7f1416;stroke-miterlimit:10;stroke-width:2px" class="ubLkzifg_80"></path><path d="M291,406.5a29.35,29.35,0,0,0,0,3.11,1.73,1.73,0,0,0,.24.9c1,1.44,3.31-1.95,4.73-.89.7.51.42,1.59.55,2.45a3.17,3.17,0,0,0,3,2.39,8.7,8.7,0,0,0,4-.93,7.54,7.54,0,0,0,.52,4.57c.79,1.34,2.91,2,3.93.8a3.79,3.79,0,0,0,5.59,1.35,10.5,10.5,0,0,0,3,3.19" transform="translate(-96.22 -87.92)" style="fill:none;stroke:#7f1416;stroke-miterlimit:10;stroke-width:2px" class="ubLkzifg_81"></path><path d="M360.62,426.68l4.76,1.6a1.5,1.5,0,0,0,1.24.05c.33-.2.45-.62.67-.95,1-1.63,3.5-.55,5.35,0,.88.27,2.23,0,2.2-.88,0-.41-.34-.77-.32-1.18,0-.87,1.3-.94,2.15-.73l4.89,1.26c1.6-1.93-1.18-5.83,1-7,1.13-.59,3,.08,3.47-1.1.37-.94-.75-1.77-1-2.74a2.35,2.35,0,0,1,1.68-2.59,6.83,6.83,0,0,1,3.36,0,39.5,39.5,0,0,1-4.92-6.46l3.92.31L386,400.58l2.46-.15a5.5,5.5,0,0,0-1-2.87l3.51-.08" transform="translate(-96.22 -87.92)" style="fill:none;stroke:#7f1416;stroke-miterlimit:10;stroke-width:2px" class="ubLkzifg_82"></path><path d="M311.52,249.94a24.53,24.53,0,0,1,16.42,19.57" transform="translate(-96.22 -87.92)" style="fill:none;stroke:#7f1416;stroke-miterlimit:10;stroke-width:2px" class="ubLkzifg_83"></path><path d="M381,477.76a4.91,4.91,0,0,0,3.89.45,3.47,3.47,0,0,0-.51-2.45,4.24,4.24,0,0,1,2.65.6" transform="translate(-96.22 -87.92)" style="fill:none;stroke:#7f1416;stroke-miterlimit:10;stroke-width:2px" class="ubLkzifg_84"></path><path d="M322.17,322.6a26.9,26.9,0,0,1,13.22-11.37" transform="translate(-96.22 -87.92)" style="fill:none;stroke:#7f1416;stroke-miterlimit:10;stroke-width:2px" class="ubLkzifg_85"></path><path d="M170.58,548.12a32.88,32.88,0,0,1-2.3,20.09c-2.91,6.34-7.75,11.57-11.38,17.53-12.11,19.87-8.38,48,8.49,64" transform="translate(-96.22 -87.92)" style="fill:none;stroke:#7f1416;stroke-miterlimit:10;stroke-width:2px" class="ubLkzifg_86"></path><path d="M378.44,594.81c-4.53,11.54-9.13,23.21-16.25,33.36-5.86,8.33-13.75,16.7-13.07,26.87" transform="translate(-96.22 -87.92)" style="fill:none;stroke:#7f1416;stroke-miterlimit:10;stroke-width:2px" class="ubLkzifg_87"></path><path d="M402,561a134.46,134.46,0,0,1-12,63" transform="translate(-96.22 -87.92)" style="fill:none;stroke:#7f1416;stroke-miterlimit:10;stroke-width:2px" class="ubLkzifg_88"></path><path d="M415.86,496.2a94.78,94.78,0,0,1,21.29,20.69" transform="translate(-96.22 -87.92)" style="fill:none;stroke:#7f1416;stroke-miterlimit:10;stroke-width:2px" class="ubLkzifg_89"></path></g><style data-made-with="vivus-instant">.ubLkzifg_0{stroke-dasharray:257 259;stroke-dashoffset:258;animation:ubLkzifg_draw 2000ms linear 0ms forwards;}.ubLkzifg_1{stroke-dasharray:265 267;stroke-dashoffset:266;animation:ubLkzifg_draw 2000ms linear 11ms forwards;}.ubLkzifg_2{stroke-dasharray:801 803;stroke-dashoffset:802;animation:ubLkzifg_draw 2000ms linear 22ms forwards;}.ubLkzifg_3{stroke-dasharray:113 115;stroke-dashoffset:114;animation:ubLkzifg_draw 2000ms linear 33ms forwards;}.ubLkzifg_4{stroke-dasharray:97 99;stroke-dashoffset:98;animation:ubLkzifg_draw 2000ms linear 44ms forwards;}.ubLkzifg_5{stroke-dasharray:23 25;stroke-dashoffset:24;animation:ubLkzifg_draw 2000ms linear 56ms forwards;}.ubLkzifg_6{stroke-dasharray:226 228;stroke-dashoffset:227;animation:ubLkzifg_draw 2000ms linear 67ms forwards;}.ubLkzifg_7{stroke-dasharray:31 33;stroke-dashoffset:32;animation:ubLkzifg_draw 2000ms linear 78ms forwards;}.ubLkzifg_8{stroke-dasharray:92 94;stroke-dashoffset:93;animation:ubLkzifg_draw 2000ms linear 89ms forwards;}.ubLkzifg_9{stroke-dasharray:118 120;stroke-dashoffset:119;animation:ubLkzifg_draw 2000ms linear 101ms forwards;}.ubLkzifg_10{stroke-dasharray:28 30;stroke-dashoffset:29;animation:ubLkzifg_draw 2000ms linear 112ms forwards;}.ubLkzifg_11{stroke-dasharray:29 31;stroke-dashoffset:30;animation:ubLkzifg_draw 2000ms linear 123ms forwards;}.ubLkzifg_12{stroke-dasharray:29 31;stroke-dashoffset:30;animation:ubLkzifg_draw 2000ms linear 134ms forwards;}.ubLkzifg_13{stroke-dasharray:47 49;stroke-dashoffset:48;animation:ubLkzifg_draw 2000ms linear 146ms forwards;}.ubLkzifg_14{stroke-dasharray:43 45;stroke-dashoffset:44;animation:ubLkzifg_draw 2000ms linear 157ms forwards;}.ubLkzifg_15{stroke-dasharray:40 42;stroke-dashoffset:41;animation:ubLkzifg_draw 2000ms linear 168ms forwards;}.ubLkzifg_16{stroke-dasharray:47 49;stroke-dashoffset:48;animation:ubLkzifg_draw 2000ms linear 179ms forwards;}.ubLkzifg_17{stroke-dasharray:18 20;stroke-dashoffset:19;animation:ubLkzifg_draw 2000ms linear 191ms forwards;}.ubLkzifg_18{stroke-dasharray:30 32;stroke-dashoffset:31;animation:ubLkzifg_draw 2000ms linear 202ms forwards;}.ubLkzifg_19{stroke-dasharray:27 29;stroke-dashoffset:28;animation:ubLkzifg_draw 2000ms linear 213ms forwards;}.ubLkzifg_20{stroke-dasharray:7 9;stroke-dashoffset:8;animation:ubLkzifg_draw 2000ms linear 224ms forwards;}.ubLkzifg_21{stroke-dasharray:70 72;stroke-dashoffset:71;animation:ubLkzifg_draw 2000ms linear 235ms forwards;}.ubLkzifg_22{stroke-dasharray:20 22;stroke-dashoffset:21;animation:ubLkzifg_draw 2000ms linear 247ms forwards;}.ubLkzifg_23{stroke-dasharray:33 35;stroke-dashoffset:34;animation:ubLkzifg_draw 2000ms linear 258ms forwards;}.ubLkzifg_24{stroke-dasharray:18 20;stroke-dashoffset:19;animation:ubLkzifg_draw 2000ms linear 269ms forwards;}.ubLkzifg_25{stroke-dasharray:15 17;stroke-dashoffset:16;animation:ubLkzifg_draw 2000ms linear 280ms forwards;}.ubLkzifg_26{stroke-dasharray:13 15;stroke-dashoffset:14;animation:ubLkzifg_draw 2000ms linear 292ms forwards;}.ubLkzifg_27{stroke-dasharray:65 67;stroke-dashoffset:66;animation:ubLkzifg_draw 2000ms linear 303ms forwards;}.ubLkzifg_28{stroke-dasharray:13 15;stroke-dashoffset:14;animation:ubLkzifg_draw 2000ms linear 314ms forwards;}.ubLkzifg_29{stroke-dasharray:36 38;stroke-dashoffset:37;animation:ubLkzifg_draw 2000ms linear 325ms forwards;}.ubLkzifg_30{stroke-dasharray:38 40;stroke-dashoffset:39;animation:ubLkzifg_draw 2000ms linear 337ms forwards;}.ubLkzifg_31{stroke-dasharray:42 44;stroke-dashoffset:43;animation:ubLkzifg_draw 2000ms linear 348ms forwards;}.ubLkzifg_32{stroke-dasharray:68 70;stroke-dashoffset:69;animation:ubLkzifg_draw 2000ms linear 359ms forwards;}.ubLkzifg_33{stroke-dasharray:58 60;stroke-dashoffset:59;animation:ubLkzifg_draw 2000ms linear 370ms forwards;}.ubLkzifg_34{stroke-dasharray:33 35;stroke-dashoffset:34;animation:ubLkzifg_draw 2000ms linear 382ms forwards;}.ubLkzifg_35{stroke-dasharray:83 85;stroke-dashoffset:84;animation:ubLkzifg_draw 2000ms linear 393ms forwards;}.ubLkzifg_36{stroke-dasharray:108 110;stroke-dashoffset:109;animation:ubLkzifg_draw 2000ms linear 404ms forwards;}.ubLkzifg_37{stroke-dasharray:125 127;stroke-dashoffset:126;animation:ubLkzifg_draw 2000ms linear 415ms forwards;}.ubLkzifg_38{stroke-dasharray:99 101;stroke-dashoffset:100;animation:ubLkzifg_draw 2000ms linear 426ms forwards;}.ubLkzifg_39{stroke-dasharray:77 79;stroke-dashoffset:78;animation:ubLkzifg_draw 2000ms linear 438ms forwards;}.ubLkzifg_40{stroke-dasharray:81 83;stroke-dashoffset:82;animation:ubLkzifg_draw 2000ms linear 449ms forwards;}.ubLkzifg_41{stroke-dasharray:201 203;stroke-dashoffset:202;animation:ubLkzifg_draw 2000ms linear 460ms forwards;}.ubLkzifg_42{stroke-dasharray:176 178;stroke-dashoffset:177;animation:ubLkzifg_draw 2000ms linear 471ms forwards;}.ubLkzifg_43{stroke-dasharray:113 115;stroke-dashoffset:114;animation:ubLkzifg_draw 2000ms linear 483ms forwards;}.ubLkzifg_44{stroke-dasharray:198 200;stroke-dashoffset:199;animation:ubLkzifg_draw 2000ms linear 494ms forwards;}.ubLkzifg_45{stroke-dasharray:67 69;stroke-dashoffset:68;animation:ubLkzifg_draw 2000ms linear 505ms forwards;}.ubLkzifg_46{stroke-dasharray:81 83;stroke-dashoffset:82;animation:ubLkzifg_draw 2000ms linear 516ms forwards;}.ubLkzifg_47{stroke-dasharray:69 71;stroke-dashoffset:70;animation:ubLkzifg_draw 2000ms linear 528ms forwards;}.ubLkzifg_48{stroke-dasharray:16 18;stroke-dashoffset:17;animation:ubLkzifg_draw 2000ms linear 539ms forwards;}.ubLkzifg_49{stroke-dasharray:47 49;stroke-dashoffset:48;animation:ubLkzifg_draw 2000ms linear 550ms forwards;}.ubLkzifg_50{stroke-dasharray:86 88;stroke-dashoffset:87;animation:ubLkzifg_draw 2000ms linear 561ms forwards;}.ubLkzifg_51{stroke-dasharray:428 430;stroke-dashoffset:429;animation:ubLkzifg_draw 2000ms linear 573ms forwards;}.ubLkzifg_52{stroke-dasharray:8 10;stroke-dashoffset:9;animation:ubLkzifg_draw 2000ms linear 584ms forwards;}.ubLkzifg_53{stroke-dasharray:3 5;stroke-dashoffset:4;animation:ubLkzifg_draw 2000ms linear 595ms forwards;}.ubLkzifg_54{stroke-dasharray:73 75;stroke-dashoffset:74;animation:ubLkzifg_draw 2000ms linear 606ms forwards;}.ubLkzifg_55{stroke-dasharray:0 2;stroke-dashoffset:1;animation:ubLkzifg_draw 2000ms linear 617ms forwards;}.ubLkzifg_56{stroke-dasharray:58 60;stroke-dashoffset:59;animation:ubLkzifg_draw 2000ms linear 629ms forwards;}.ubLkzifg_57{stroke-dasharray:68 70;stroke-dashoffset:69;animation:ubLkzifg_draw 2000ms linear 640ms forwards;}.ubLkzifg_58{stroke-dasharray:12 14;stroke-dashoffset:13;animation:ubLkzifg_draw 2000ms linear 651ms forwards;}.ubLkzifg_59{stroke-dasharray:21 23;stroke-dashoffset:22;animation:ubLkzifg_draw 2000ms linear 662ms forwards;}.ubLkzifg_60{stroke-dasharray:73 75;stroke-dashoffset:74;animation:ubLkzifg_draw 2000ms linear 674ms forwards;}.ubLkzifg_61{stroke-dasharray:45 47;stroke-dashoffset:46;animation:ubLkzifg_draw 2000ms linear 685ms forwards;}.ubLkzifg_62{stroke-dasharray:64 66;stroke-dashoffset:65;animation:ubLkzifg_draw 2000ms linear 696ms forwards;}.ubLkzifg_63{stroke-dasharray:53 55;stroke-dashoffset:54;animation:ubLkzifg_draw 2000ms linear 707ms forwards;}.ubLkzifg_64{stroke-dasharray:42 44;stroke-dashoffset:43;animation:ubLkzifg_draw 2000ms linear 719ms forwards;}.ubLkzifg_65{stroke-dasharray:119 121;stroke-dashoffset:120;animation:ubLkzifg_draw 2000ms linear 730ms forwards;}.ubLkzifg_66{stroke-dasharray:101 103;stroke-dashoffset:102;animation:ubLkzifg_draw 2000ms linear 741ms forwards;}.ubLkzifg_67{stroke-dasharray:80 82;stroke-dashoffset:81;animation:ubLkzifg_draw 2000ms linear 752ms forwards;}.ubLkzifg_68{stroke-dasharray:55 57;stroke-dashoffset:56;animation:ubLkzifg_draw 2000ms linear 764ms forwards;}.ubLkzifg_69{stroke-dasharray:30 32;stroke-dashoffset:31;animation:ubLkzifg_draw 2000ms linear 775ms forwards;}.ubLkzifg_70{stroke-dasharray:40 42;stroke-dashoffset:41;animation:ubLkzifg_draw 2000ms linear 786ms forwards;}.ubLkzifg_71{stroke-dasharray:53 55;stroke-dashoffset:54;animation:ubLkzifg_draw 2000ms linear 797ms forwards;}.ubLkzifg_72{stroke-dasharray:64 66;stroke-dashoffset:65;animation:ubLkzifg_draw 2000ms linear 808ms forwards;}.ubLkzifg_73{stroke-dasharray:35 37;stroke-dashoffset:36;animation:ubLkzifg_draw 2000ms linear 820ms forwards;}.ubLkzifg_74{stroke-dasharray:106 108;stroke-dashoffset:107;animation:ubLkzifg_draw 2000ms linear 831ms forwards;}.ubLkzifg_75{stroke-dasharray:65 67;stroke-dashoffset:66;animation:ubLkzifg_draw 2000ms linear 842ms forwards;}.ubLkzifg_76{stroke-dasharray:42 44;stroke-dashoffset:43;animation:ubLkzifg_draw 2000ms linear 853ms forwards;}.ubLkzifg_77{stroke-dasharray:27 29;stroke-dashoffset:28;animation:ubLkzifg_draw 2000ms linear 865ms forwards;}.ubLkzifg_78{stroke-dasharray:86 88;stroke-dashoffset:87;animation:ubLkzifg_draw 2000ms linear 876ms forwards;}.ubLkzifg_79{stroke-dasharray:29 31;stroke-dashoffset:30;animation:ubLkzifg_draw 2000ms linear 887ms forwards;}.ubLkzifg_80{stroke-dasharray:98 100;stroke-dashoffset:99;animation:ubLkzifg_draw 2000ms linear 898ms forwards;}.ubLkzifg_81{stroke-dasharray:41 43;stroke-dashoffset:42;animation:ubLkzifg_draw 2000ms linear 910ms forwards;}.ubLkzifg_82{stroke-dasharray:74 76;stroke-dashoffset:75;animation:ubLkzifg_draw 2000ms linear 921ms forwards;}.ubLkzifg_83{stroke-dasharray:27 29;stroke-dashoffset:28;animation:ubLkzifg_draw 2000ms linear 932ms forwards;}.ubLkzifg_84{stroke-dasharray:10 12;stroke-dashoffset:11;animation:ubLkzifg_draw 2000ms linear 943ms forwards;}.ubLkzifg_85{stroke-dasharray:18 20;stroke-dashoffset:19;animation:ubLkzifg_draw 2000ms linear 955ms forwards;}.ubLkzifg_86{stroke-dasharray:111 113;stroke-dashoffset:112;animation:ubLkzifg_draw 2000ms linear 966ms forwards;}.ubLkzifg_87{stroke-dasharray:68 70;stroke-dashoffset:69;animation:ubLkzifg_draw 2000ms linear 977ms forwards;}.ubLkzifg_88{stroke-dasharray:65 67;stroke-dashoffset:66;animation:ubLkzifg_draw 2000ms linear 988ms forwards;}.ubLkzifg_89{stroke-dasharray:30 32;stroke-dashoffset:31;animation:ubLkzifg_draw 2000ms linear 1000ms forwards;}@keyframes ubLkzifg_draw{100%{stroke-dashoffset:0;}}@keyframes ubLkzifg_fade{0%{stroke-opacity:1;}94.44444444444444%{stroke-opacity:1;}100%{stroke-opacity:0;}}</style></svg>