<!--?xml version="1.0" encoding="utf-8"?-->
<!-- Generator: Adobe Illustrator 20.1.0, SVG Export Plug-In . SVG Version: 6.00 Build 0)  -->
<svg version="1.1" id="Alex" xmlns="http://www.w3.org/2000/svg" xmlns:xlink="http://www.w3.org/1999/xlink" x="0px" y="0px" viewBox="0 0 465.7 734.3" style="" xml:space="preserve">
<style type="text/css">
	.st0{fill:none;stroke:#800000;stroke-width:3;stroke-linecap:round;stroke-linejoin:round;stroke-miterlimit:10;}
	.st1{fill:none;stroke:#800000;stroke-width:3;stroke-linejoin:round;stroke-miterlimit:10;}
	.st2{fill:none;stroke:#800000;stroke-width:3;stroke-miterlimit:10;}
	.st3{fill:none;stroke:#800000;stroke-width:5;stroke-miterlimit:10;}
	.st4{fill:none;stroke:#800000;stroke-width:7;stroke-miterlimit:10;}
	.st5{fill:none;stroke:#800000;stroke-width:5;stroke-linecap:round;stroke-linejoin:round;stroke-miterlimit:10;}
	.st6{fill:none;stroke:#800000;stroke-width:5;stroke-linejoin:round;stroke-miterlimit:10;}
	.st7{fill:none;stroke:#800000;stroke-width:4;stroke-linecap:round;stroke-linejoin:round;stroke-miterlimit:2;}
</style>
<path id="lips" class="st0 NwVfvyUd_0" d="M174.8,328.7c0.2,0.5,0,1.1-0.6,1.3c-0.3,0.1-0.7,0.4-1,0.5c-0.3,0.1-0.7,0-0.9-0.2
	c-0.2,0.2-0.5,0.2-0.7,0c0,0,0,0,0,0c-0.1,0-0.3-0.1-0.4-0.1c-0.6,0.2-1.3-0.1-1.6-0.6c0-0.1,0-0.1-0.1-0.1c0,0,0,0,0,0
	c-0.4,0.3-1,0.3-1.3,0c0,0-0.1,0-0.1-0.1c0,0.2,0,0.3,0.1,0.5c0,0.1-0.1,0.2-0.2,0.2c0,0.5,0,1-0.1,1.5c0,0.1-0.2,0.1-0.2,0
	c-0.1-0.8-0.1-1.6-0.1-2.4c-0.1,0.1-0.2,0.1-0.2,0c0,0,0-0.1,0-0.1c-0.1,0.1-0.3,0.3-0.4,0.4c-0.3,0.5-1,0.7-1.6,0.5
	c-0.5,0.5-1.3,0.5-1.8,0c-0.8-0.9-0.5-0.7-1.4,0.2c-0.6,0.5-1.6,0.3-1.8-0.5c-0.1,1.1-0.5,1.9-1.3,2.6c-0.6,0.7-1.6,0.5-1.7-0.4
	c-0.2,0.3-0.6,0.4-0.9,0.3c-0.1,0.1-0.2,0.2-0.3,0.3c-0.3,0.3-0.8,0.4-1.2,0.3c0,0-0.1,0-0.1,0l-0.2,0.1c-0.1,0.3-0.2,0.7-0.2,1
	c-0.3,1-2,0.9-1.9-0.3c0,0,0,0,0,0c-0.5,0.2-0.9,0.3-1.4,0.5c-0.5,0.2-1.2,0-1.5-0.4c-0.3-0.3-0.4-0.6-0.6-0.8
	c-1.9,1.1-4.5,2.6-7.3,3.9c0,0.1,0,0.1-0.1,0.2c-0.2,0.5-0.8,0.6-1.2,0.3c-3.1,1.3-6.3,2-8.6,1.1c-0.1,0-0.2,0.1-0.3,0.1
	c0,0,0,0,0,0c0,0.1,0,0.3,0,0.4c0,0,0,0,0,0c0.1,0,0.1,0.1,0,0.1c0,0,0,0,0,0c0,0.1,0,0.2,0,0.3c0,0.7-1.1,0.9-1.3,0.2
	c-0.1,0.3-0.7,0.3-0.8-0.1c-0.2-1-0.3-2-0.2-2.9c-0.1-0.2-0.1-0.4,0-0.6c0,0,0.1-0.1,0.1-0.1c-0.6,0.1-1.1-0.3-1.2-0.8
	c-0.3-0.1-0.7-0.3-0.7-0.3c-0.2,0.1-0.4,0-0.6-0.1c3.1,0.3,6.1,0.5,9.6-0.7c1.3-0.4,2.6-0.9,3.8-1.4c0,0,0.1,0,0.1,0
	c0.1,0,0.1,0,0.2,0c0,0,0-0.1,0-0.1c1.7-0.6,3.4-1.3,5.2-1.8c0,0.2,0,0.4-0.1,0.5c0.6-0.3,1.2-0.6,1.7-0.9c0,0,0,0,0,0
	c0.8-0.2,1.6-0.4,2.5-0.5c0.1,0,0.1,0,0.2,0l0,0c0.8-0.1,1.7-0.3,2.6-0.4c0,0,0.1,0.1,0.1,0.1c0.1,0,0.2,0,0.3,0
	c0.1,0,0.2,0.1,0.3,0.1c0-0.1,0-0.2,0.1-0.3c0.1,0,0.3,0,0.4-0.1c1.1-0.1,2.1-0.3,3.2-0.4c0,0,0.1,0,0.1,0c0,0.2,0.1,0.3,0.1,0.5
	c0.1-0.2,0.3-0.3,0.4-0.5c0,0,0,0,0.1,0c0,0,0,0,0.1,0c0.3,0,0.5-0.1,0.8-0.1c0.3,0.1,0.5,0.4,0.4,0.7c0.3-0.3,0.5-0.6,0.8-0.8
	c1.1-0.1,2.3-0.2,3.4-0.2c0.1,0,0.1,0,0.2,0c1.1,0,2.3-0.1,3.4,0c1.9,0,4,0.2,6.5,0.5L174.8,328.7z M176.2,328.9c0,0.1,0,0.2,0,0.3
	c0,0.9,1.3,1.3,1.7,0.5c0.1-0.1,0.1-0.3,0.2-0.4L176.2,328.9z M102,324.8C102,324.9,102,324.9,102,324.8c0.1,0,0.2-0.1,0.3-0.2
	c0,0,0.1,0,0.1,0c3.4-3.2,7.6-5.4,12.4-6.2c5.7-0.9,11.4,0.6,17-1.4c4.6-1.6,8.4-4,13.3-4.9c9.3-1.6,19.6-0.7,28.9,1.1
	c6.7,1.3,13.4,4.8,20.2,6.8c2,0.3,4.1,0.4,6.1,0.3c1.5-0.1,4.1-0.1,5.9-0.9c1.1-0.3,2.2-0.8,3.2-1.5c1,10.6-18.7,17.1-25.6,20.1
	c-6.9,3-14,5.6-21.1,8.2c-7.3,2.7-14.7,5.8-22.3,7.6c-6.9,1.7-14.7,1.8-21.8,1.1c-3.8-0.3-8.4-1.2-11.3-3.8c-1.2-1-2.1-2.4-3-3.7
	c-2.4-3.9-3.5-7.8-7.8-10.1c-0.1,0.3-0.6,0.3-0.8,0c-1.1-1.6,0.6-5.2,1.3-6.6c1.1-2.2,2.7-4.4,4.7-6
	C101.9,324.9,101.9,324.9,102,324.8C101.9,324.8,102,324.8,102,324.8z M188.4,328c2.2,0.7,4.1,1.8,6,3c0.9-0.4,1.9-0.9,2.8-1.3
	c2.4-1.2,4.5-2.3,6.3-3.8C198.7,327.9,193.6,328.3,188.4,328z M150,318.6c0.1,0.3,0.2,0.7,0.5,1.1c0.1,0.1,0.2,0.1,0.3,0.2
	c0.3,0.1,0.7-0.1,0.8-0.4c0-0.2,0.1-0.4,0.1-0.6c0.1,0,0.2,0.1,0.3,0.1c0.2,0,0.3,0,0.5-0.1c0.1-0.1,0.1-0.1,0.2-0.2
	c0,0,0-0.1,0.1-0.1c0.1,0,0.2,0.1,0.2,0.1c0.1,0,0.2,0,0.3,0s0.2,0,0.2-0.1c0.1,0,0.1-0.1,0.2-0.2c0,0,0,0,0,0
	c0.1,0.1,0.2,0.1,0.3,0.1c0.1,0,0.2,0,0.3,0c0,0,0,0,0,0c0.2,0,0.5-0.2,0.6-0.4c0.3-0.1,0.6-0.2,0.9-0.4c0.1,0,0.3,0,0.4,0
	c0.1,0,0.1,0,0.2,0c0,0,0.1,0,0.1,0c0.1,0,0.2-0.1,0.3-0.2c0.1,0.2,0.2,0.3,0.4,0.4c0.1,0,0.2,0.1,0.2,0.1c0.1,0,0.2,0,0.3,0.1
	c0.1,0,0.2,0,0.3,0c0,0,0,0,0,0c0.1,0.1,0.1,0.2,0.2,0.2c0.1,0.1,0.3,0.2,0.5,0.2c0.2,0.1,0.5,0,0.7-0.1c0.2-0.1,0.3-0.2,0.4-0.4
	l0.2-0.3c0.2,0.1,0.4,0.2,0.6,0.3c0.6,0.3,1.1-0.5,0.9-1.1c0-0.1-0.1-0.1-0.2-0.2c-0.2-0.1-0.3-0.3-0.5-0.5
	c-0.2-0.2-0.3-0.3-0.5-0.5c-0.2-0.2-0.4-0.3-0.6-0.3c-0.2,0-0.5,0.1-0.6,0.3c0,0-0.1,0.1-0.1,0.1c-0.1-0.1-0.1-0.1-0.2-0.2
	c-0.1-0.1-0.3-0.2-0.5-0.2c-0.1,0-0.2,0-0.3,0c0,0,0-0.1,0-0.1c0-0.2-0.3-0.4-0.4-0.6c-0.1-0.1-0.2-0.2-0.3-0.2
	c-0.1-0.1-0.3-0.1-0.4-0.1c-0.3,0-0.6,0.1-0.7,0.3c0,0,0,0,0,0l-0.1-0.2c-0.1-0.2-0.3-0.3-0.4-0.4c-0.2-0.1-0.4-0.1-0.6-0.1
	c-0.4,0.1-0.7,0.3-0.9,0.7c0,0.1-0.1,0.2-0.1,0.3c-0.1,0-0.1-0.1-0.2-0.1c0,0-0.1,0-0.1,0c0,0-0.1,0-0.1,0c-0.1,0-0.1,0-0.2,0
	c0,0,0,0,0,0c-0.4,0-0.7,0.1-0.8,0.5c-0.2-0.1-0.5,0-0.7,0.1l0,0c0-0.1-0.1-0.2-0.2-0.2c0,0,0,0,0,0c-0.1,0-0.2-0.1-0.3,0
	c0-0.1,0-0.1,0-0.2c0-0.7-1-0.7-1,0c0,0.1,0,0.3,0,0.4c0,0.2-0.1,0.4-0.1,0.6C150.2,316.9,149.8,317.8,150,318.6z M147.1,317.1
	c0,0.2,0,0.5,0,0.7c0,0.1,0.1,0.2,0.1,0.3c0,0,0,0.1,0,0.1c0,0.1,0.1,0.3,0.1,0.4c0,0.1,0.1,0.1,0.2,0.1c0.1,0.1,0.3,0.1,0.4,0.1
	c0.2,0,0.4-0.1,0.5-0.3c0.1-0.3,0.2-0.5,0.3-0.8c0.1-0.3,0.1-0.5,0.2-0.8c0.1-0.5,0-1.1-0.1-1.6c0-0.1,0-0.1-0.1-0.1
	c0-0.2,0-0.3-0.1-0.4c-0.1-0.2-0.3-0.2-0.5-0.2c-0.2,0-0.4,0.1-0.5,0.4c0,0,0,0.1,0,0.1c-0.1,0.1-0.2,0.2-0.2,0.3
	c-0.1,0.2-0.1,0.4-0.2,0.6C147.1,316.3,147.1,316.7,147.1,317.1z M143.2,320.8c0.4,0.2,0.8,0.2,1.2-0.1c0.2,0,0.4,0,0.6-0.1
	c0.3,0,0.6-0.2,0.6-0.6c0-0.3,0-0.6,0-0.9c0.1-0.2,0.1-0.4,0.1-0.7c0,0,0,0,0,0c0-0.1,0-0.2-0.1-0.3c0,0,0-0.1,0-0.1
	c0.1-0.3,0.1-0.5,0.1-0.8c0,0,0,0,0,0c0,0,0-0.1,0-0.1h0c0-0.2-0.2-0.4-0.4-0.4s-0.4,0-0.5,0.2c-0.3-0.2-0.7,0.1-0.7,0.4
	c0,0.1,0,0.1,0,0.2c0,0,0,0,0,0c-0.4,0-0.9,0.3-0.9,0.7c-0.1,0.4-0.2,0.7-0.4,1.1C142.5,319.8,142.7,320.5,143.2,320.8z
	 M137.3,322.1c0,0.4,0.5,0.4,0.6,0.2c0,0,0-0.1,0.1-0.1c0.2,0.1,0.4,0.1,0.6-0.1c0.2-0.3,0.4-0.6,0.6-0.9c0.2-0.3,0.3-0.5,0.2-0.9
	c-0.1-0.4-0.6-0.6-0.9-0.4c-0.1,0.1-0.2,0.1-0.2,0.2c-0.1,0-0.3,0-0.4,0.1c0,0,0,0,0,0c0-0.3-0.5-0.3-0.5,0
	C137.3,320.9,137.3,321.5,137.3,322.1z M111.2,325.2C111.2,325.2,111.2,325.3,111.2,325.2C111.2,325.3,111.3,325.3,111.2,325.2
	c0.1,0.1,0.1,0.1,0.1,0.1c0-0.1,0.1-0.1,0.1-0.2c0,0.2,0.2,0.3,0.4,0.3c0.1,0,0.1,0,0.2,0c0.2,0,0.5-0.1,0.6-0.4
	c0.1-0.2,0.1-0.3,0.2-0.5c0,0.1,0,0.1,0,0.2c0,0.1,0,0.1,0.1,0.1c0,0,0,0,0,0c0,0,0.1,0,0.1,0c0.1,0.2,0.2,0.3,0.3,0.5
	c0.5,0.5,1,0.6,1.5,0.3c0.5,0.1,1,0,1.3-0.2c0,0,0,0,0,0c0.2,0.1,0.4,0.2,0.6,0.2c0.5,0.6,1.6,0.3,1.6-0.6h0c0-0.1,0-0.1,0-0.2
	c0,0,0,0,0,0c0-0.1,0.1-0.1,0.1-0.2c0.1-0.1,0.1-0.1,0.2-0.2c0-0.1,0-0.2,0-0.4c0,0,0,0,0-0.1c0,0,0,0,0-0.1c0,0,0.1-0.1,0.1-0.1
	c0.1-0.2,0.2-0.3,0.2-0.5c0-0.1,0-0.2,0.1-0.3c0-0.2,0-0.4-0.2-0.5c-0.1-0.1-0.2-0.1-0.3-0.1s-0.2,0-0.3,0.1c-0.1,0-0.1,0-0.2,0
	c-0.2,0-0.4-0.1-0.6-0.1c-0.6-0.2-1.3-0.5-1.7-0.4c-0.2,0-0.3,0.1-0.5,0.2c-0.2,0-0.3,0-0.4,0.1c-0.1,0-0.2,0-0.2,0c0,0,0,0,0,0
	c-0.1,0-0.2,0-0.2,0.1l0,0c-0.2,0.1-0.5,0.2-0.7,0.4c0,0,0,0,0,0c-0.1,0-0.1,0.1-0.2,0.1c0,0,0,0,0,0c0-0.1,0-0.2-0.1-0.3
	c-0.1-0.1-0.3-0.2-0.5-0.2c-0.1,0-0.2,0-0.2,0.1c0-0.1,0-0.2,0-0.4c0-0.2-0.2-0.3-0.4-0.4c-0.1,0-0.1,0-0.2,0
	c-0.2,0-0.4,0.1-0.4,0.3c0,0.1,0,0.1,0,0.2c0,0.7-0.1,1.3-0.1,2c0,0.2-0.1,0.3-0.1,0.5C111.3,324.8,111.2,325,111.2,325.2z
	 M104,329.8c0,1.5,2.3,1.5,2.4,0c0,0,0,0,0,0c0.5,0,1-0.3,1.2-0.8c0.4-0.1,0.8-0.4,0.9-0.9c0,0,0,0,0,0c0.5-0.5,0.7-1.3,0.5-2
	c0.1-0.1,0.2-0.2,0.2-0.3c0.1,0,0.2,0.1,0.2,0.1s0.2,0,0.2,0c0,0.1,0,0.1,0.1,0.2c0,0,0,0,0,0c0,0,0,0.1,0.1,0.1c0,0,0.1,0,0.1,0.1
	c0.1,0,0.2,0,0.2-0.2c0.1-0.2,0.1-0.3,0.1-0.5c0-0.2,0-0.3-0.1-0.5c0-0.1-0.1-0.1-0.1-0.2c0,0,0,0,0-0.1c0-0.1-0.1-0.1-0.1-0.2
	c0-0.1,0-0.2,0-0.3c0-0.1,0-0.1-0.1-0.1c0,0,0,0-0.1,0s0,0,0,0.1c0,0.1,0,0.1,0,0.2c0,0.1,0,0.1,0,0.2c-0.1,0-0.1,0-0.2,0
	c-0.1,0-0.2,0.1-0.2,0.1c-0.1-0.1-0.2-0.1-0.4-0.2c0,0-0.1,0-0.1,0c0,0-0.1,0-0.1,0c0-0.1,0-0.2,0-0.4c0,0,0-0.1,0-0.1
	c-0.1-0.2-0.2-0.3-0.4-0.4c0-0.1-0.1-0.1-0.1-0.2c-0.1-0.1-0.2-0.1-0.4-0.1c-0.3,0-0.7,0.3-0.7,0.6c0,0,0,0,0,0c0,0,0,0,0,0
	c0,0-0.1,0-0.1,0.1c-0.1,0.1-0.2,0.1-0.2,0.3c0,0,0,0.1,0,0.1c-0.1,0-0.2,0-0.2,0.1c0-0.2-0.2-0.3-0.3-0.3c-0.1,0-0.1,0-0.2,0
	c-0.1,0-0.1,0.1-0.1,0.2c-0.1,0.3-0.1,0.5-0.1,0.8c0,0.1,0,0.2,0,0.3c0,0,0,0,0,0c-0.1,0.1-0.3,0.2-0.4,0.3c0,0,0,0,0,0.1
	c0,0.1,0,0.1,0,0.2c0,0.1,0,0.2,0,0.3c0,0.1,0,0.2,0,0.3c-0.1,0-0.1,0.1-0.1,0.1c0,0-0.1,0.1-0.1,0.1c-0.5,0.5-0.8,1.1-0.9,1.8
	c0,0.1,0,0.1,0,0.2C104,329.5,104,329.6,104,329.8z M125,334.2C125,334.2,125,334.2,125,334.2c-0.1-0.1-0.3-0.1-0.4-0.1c0,0,0,0,0,0
	c0,0.1-0.1,0.2-0.1,0.2c-0.4-0.3-1-0.3-1.3,0.1c-0.2-0.1-0.5,0-0.8,0.1c-0.2,0-0.5,0.1-0.7,0.2c0-0.1-0.1-0.1-0.1-0.2
	c-0.2-0.3-0.7-0.3-1-0.1c-0.1,0-0.1,0.1-0.2,0.1c-0.1,0.2-0.3,0.3-0.4,0.4c-0.1,0-0.2,0-0.3,0.1c-0.1,0-0.1,0.1-0.2,0.1
	c-0.1,0-0.2,0.1-0.2,0.1c-0.1-0.3-0.5-0.6-0.8-0.4c-0.2,0.1-0.4,0.2-0.5,0.2c-0.2-0.2-0.5-0.2-0.8-0.2c-0.1-0.1-0.3-0.3-0.4-0.4
	c-2.7,0.6-5.2,1.7-7.7,3c-0.1,0.2-0.2,0.3-0.4,0.5c-0.3,0.3-0.6,0.6-0.9,0.9l-0.1,0.1c-0.4,0.4-0.7,0.7-1,1.1
	c1.1-0.1,2.2-0.4,3.3-0.9c0.1,0,0.2-0.1,0.3-0.1c1.2-0.4,2.3-0.9,3.5-1.2c0.3,0.1,0.7,0.1,0.9-0.2c1.4-0.2,2.8-0.1,4.1,0.7
	c0.4,0.2,0.8,0.2,1.2,0c0.6-0.3,1.2-0.6,1.8-1c0.1,0,0.3,0,0.4-0.1c0,0.4-0.1,0.7-0.1,1.1c-0.1,0.9,1.3,1.1,1.6,0.2
	c0.2-0.6,0.3-1.1,0.4-1.6c0.1-0.1,0.2-0.2,0.2-0.3c0.2-0.4,0.4-0.7,0.6-1.1c0.2-0.4,0.2-0.8,0-1.1
	C124.9,334.5,124.9,334.4,125,334.2z"></path>
<path id="ear_4" class="st1 NwVfvyUd_1" d="M362.7,296.7c-0.6,1.8-1.5,3.3-2.4,4.8c-1.6,1.2-2.6,3.1-3.5,4.8c-1.1,2.2-2.9,4.9-2.7,7.5
	c0.1,1.5,1.1,3.7,2.3,4.7c1.9,1.6,3.8,0.1,6-0.1c1.7-0.1,1.4-2.1,0.4-2.5c0.1,0,0.1-0.1,0-0.1c-0.1,0-0.1,0.1,0,0.1c0,0-0.1,0-0.1,0
	c0-0.1,0-0.1-0.1-0.2c-3.1-3.8,0.3-7.7,1.5-11.4c0.8-2.4,1-5.2,0.3-7.6C364,295.8,362.9,295.9,362.7,296.7z"></path>
<path id="ear_3" class="st2 NwVfvyUd_2" d="M367,270c-0.1,0.1-0.1,0.1-0.1,0.2c0,0-0.1,0-0.1,0.1c-1.3,1.5-1.1,3.5-1.3,5.4
	c-0.3,3-0.5,5.9-1.4,8.8c-0.4,1.3,1.5,2.1,2.2,0.9c0.9-1.6,1.6-2.8,3.3-3.4c1-0.3,2-0.3,3-0.8c2.5-1.2,3.8-4.9,7.1-4.2
	c0.3,0.1,0.5-0.1,0.7-0.2c4.8,2,9.7,4.3,10,9.7c0.2,2.9-0.3,6.5-1.3,9.3c-0.9,2.7-3,4.3-4,6.8c-0.2,0.6,0.3,1.2,0.9,1.2
	c7.4,0,9.3-13.7,8.5-19.1c-1.1-7.2-9.7-9.5-16.5-10.3c-0.1-0.5-0.4-0.9-1-1.1c-2.2-0.6-4.3-1-6.3-2.2
	C369.8,270.5,368.1,268.9,367,270z"></path>
<path id="ear_2" class="st1 NwVfvyUd_3" d="M370.3,259.8c0,0.2,0.1,0.3,0.2,0.4c0.2,1,1.2,1.8,2.2,1c0.1-0.1,0.2-0.2,0.3-0.2c0,0,0,0,0,0
	c0,0,0,0,0,0c2-1.6,3.5-3.6,4.5-5.8c0.3-0.6,0.5-1.3,0.7-2c0.1-0.4,0.2-0.7,0.2-1.1c0,0,0,0,0-0.1c1.5-4,1-8.3,4.5-11.4
	c0.2-0.2,0.3-0.5,0.4-0.7c0.2-0.1,0.3-0.2,0.5-0.3c0.3,0.1,0.6,0,0.9-0.1c0.6-0.1,1.1-0.3,1.7-0.4c1-0.1,2,0.1,3,0.4
	c0.1,0.2,0.3,0.3,0.6,0.4c2,1,3.8,2.2,5.7,3.4c2.2,1.7,4,3.7,5.5,6.2c2.5,4.5,2.8,9.8,4.5,14.6c0,0.1,0.1,0.2,0.2,0.2
	c0,0.2,0,0.4,0.1,0.6c0.1,0.9,1.3,0.9,1.4,0c0.1-1.1,0.1-2.3,0.1-3.4c2.3-8.3-3.5-17.8-10.8-22.6c-1.6-1.6-3.4-3.2-5.4-4
	c-5.8-2.5-9.8,0.4-12.1,5.4c-0.4,0.3-0.7,0.6-1,1c-0.4,0-0.7,0.1-0.9,0.6c-0.9,2.4-2.2,4.6-3.4,6.8c-0.3,0.4-0.5,0.7-0.8,1.1
	c-0.1,0.2-0.1,0.4-0.1,0.6C371.3,253.3,370.1,256.3,370.3,259.8z"></path>
<path id="ear_1" class="st2 NwVfvyUd_4" d="M405.5,285.6c-1.2,3.6-1.5,7-3.3,10.4c-1.4,2.5-2.3,4.1-3.1,6.9c-1,3.3-3,6.3-5.6,8.6
	c-1.6,1.4-3,1.6-3.1,3.6c0,0,0,0,0,0.1l0.6,0.4c0.4,0.2,0.9,0.2,1.3,0c4.6-2.7,7.7-6.8,9-12c1.4-6,6.5-11.2,5.7-17.7
	C406.8,285,405.8,284.7,405.5,285.6z"></path>
<path id="left_eyebrow" class="st3 NwVfvyUd_5" d="M73.8,190c-0.5,2.5-0.8,5.2-1.6,7.6c0.4-0.1,0.8-0.2,1.1-0.3c0.2-0.2,0.5-0.4,0.8-0.5
	c7.8-2.1,15.7-2.5,23.8-2.2c4.1,0.1,8.2,0.3,12.2,0.6c2.2,0.2,4.3,0.6,6.5,1c0.1,0.1,0.1,0.1,0.2,0.2c0.6,0.3,1.4-0.1,1.4-0.8
	c0.2-0.1,0.4-0.4,0.3-0.7c0,0,0,0,0,0c0-0.2,0-0.4,0-0.6c-0.2-0.4-0.3-0.7-0.6-0.9c-0.8-1.8-1.2-3.5-1.5-5.7c-0.1-1.1-1.6-1.4-2-0.3
	c-0.1,0.2-0.1,0.4-0.1,0.5c-0.1-0.1-0.3-0.1-0.4-0.2c-0.4-0.2-0.8-0.2-1.2,0c-0.3-0.7-0.6-1.3-0.9-2c-0.4-0.9-1.6-1-1.9,0
	c0,0.1,0,0.1,0,0.2c-0.2,0.1-0.4,0.2-0.6,0.3c-0.1,0-0.2,0.1-0.4,0.1c-0.1,0-0.3-0.1-0.4-0.1c-0.4-0.5-0.8-1.1-1.3-1.6
	c-0.4-0.5-1.1-0.4-1.5,0c-0.2-0.1-0.4-0.1-0.7-0.1c0,0,0,0,0,0c-0.9-0.7-1.9-1.4-2.8-2.1c-0.7-0.5-1.4-0.2-1.9,0.4
	c-1.1-0.4-2.2-0.8-3.3-1.1v0c-0.1,0-0.2-0.1-0.3-0.1c-0.1,0-0.1,0-0.2,0c-0.5,0-0.9,0.1-1.2,0.3c-0.9,0-1.8-0.1-2.8-0.2
	c-1.2-0.1-1.8,0.7-1.8,1.7c-0.5,0.1-1,0.1-1.6,0.2c-0.5,0-0.9,0.2-1.2,0.5c-1,0-2,0.1-3.1,0.1c-0.9,0-1.5,0.6-1.7,1.4
	c-1.1,0-2.1,0-3.2-0.1c-1-0.1-1.6,0.5-1.9,1.3c-0.7,0-1.4,0.3-1.8,0.9c-0.6-0.2-1.3,0-1.8,0.5c-0.4,0.4-0.6,1.1-0.6,1.7c0,0,0,0,0,0
	C74,190,73.9,190,73.8,190z"></path>
<path id="right_eyebrow" class="st3 NwVfvyUd_6" d="M156.1,175.9c-1.1,1.6-2,3.3-2.9,4.9c-0.3-0.4-1.1-0.4-1.4,0.1c-0.1-0.1-0.3-0.1-0.3,0
	c-0.5,1.1-0.9,2.2-1.2,3.3c-0.1,0.1-0.2,0.3-0.2,0.4c-0.2-0.4-0.8-0.4-0.9,0c-0.1,0.4-0.2,0.8-0.2,1.1c2.3-1.4,5.3-2.4,7.1-3.2
	c4.3-2,8.7-3.6,13.2-4.9c9.8-2.8,20.2-4.4,30.2-5.8c10.3-1.4,20.8-0.8,31.1-0.2c6.9,0.4,11.9,1.4,18.6,3
	c-3.6-3.8-9.9-11.9-11.3-12.2c-7.1-1.8-14.6-3-22-3c-0.1-0.6-0.6-1-1.4-1c-4.6,0.4-9.2,1.8-13.6,3.6c0.1-0.3-0.2-0.7-0.6-0.6
	c-2.1,0.7-4.2,1.5-6.2,2.3c-0.1,0-0.2,0-0.3,0.1c-0.4,0.1-0.8,0.3-1.1,0.5c0,0,0,0-0.1,0c-0.1,0.1-0.3,0.1-0.6,0.2
	c-0.1-0.3-0.4-0.5-0.7-0.3c0,0-0.6,0.5-1.2,0.8c0-0.4-0.4-1-0.9-0.8c-0.3,0.1-0.6,0.3-0.9,0.4c-0.1,0-0.2,0-0.3,0
	c-0.2,0.1-0.5,0.2-0.7,0.4c-0.2,0.1-0.4,0.2-0.6,0.2c-0.4,0.1-0.8,0.2-1.3,0.3c-0.2-0.1-0.4-0.1-0.5,0c-0.2,0.1-0.5,0.2-0.7,0.3
	c-0.6,0.2-1.2,0.3-1.8,0.5c-0.1-0.1-0.3-0.1-0.5,0c-0.1,0-0.2,0.1-0.3,0.2c-0.3,0.1-0.6,0.2-0.9,0.3c-0.1-0.3-0.6-0.5-0.8-0.2
	c-0.2,0.2-0.4,0.5-0.6,0.7c-0.9,0.3-1.8,0.6-2.6,0.9c0.3-0.3-0.2-0.9-0.5-0.6c-1.5,0.9-3,1.8-4.5,2.8c0,0,0,0,0,0
	c-1.2,0.4-2.4,0.8-3.6,1.2c-1,0.4-2,0.8-2.9,1.2c0.1-0.3-0.3-0.4-0.5-0.3c-0.6,0.5-1.2,1-1.8,1.5c-0.8,0.5-1.5,1-2.3,1.6
	c-0.3-0.1-0.6,0-0.7,0.3c0,0,0,0,0,0c-0.2,0-0.3,0-0.5,0.2c-0.3-0.2-0.7-0.1-1,0.3c0,0,0,0,0,0.1c0-0.1,0-0.2,0-0.4
	C158.3,175.3,156.7,175,156.1,175.9z"></path>
<path id="right_reflection" class="st4 NwVfvyUd_7" d="M224.6,181.2c0,0,7.2,40.7-67.4,50.4c0,0,2.1,2.3,12,1.2c9.9-1.1,43.9-4.3,61-12.2
	c0,0,6-2.4,6.3-9.6c0.3-7.2,0.3-19.4-1.6-23.2C233,183.9,233,181.7,224.6,181.2z"></path>
<path id="left_reflection" class="st4 NwVfvyUd_8" d="M98.5,206.8c0,0,0.8,38.8-54.9,49.4c0,0,2.3,1.2,10,0.8c7.7-0.4,32.2-7.4,40.6-11.5
	c8.4-4.1,15.5-17.5,12.5-36.3C106.6,209.2,105.6,206.6,98.5,206.8z"></path>
<path id="right_nostril" class="st3 NwVfvyUd_9" d="M121.9,275c0.2,0.7,0.8,1.4,1.8,2c2,1.2,5.3,0.9,7.4,0.5c1.9-0.3,3.5-1.3,5.6-1.3
	c2.1,0,4,1.1,6,1.2c3.2,0.2,8.9-2,8.1-6.2c-0.4-1.9-2.3-2.4-3.9-2.9c-1.3-0.3-2.8-0.7-4.3-1c-1.6-0.5-3.3-0.7-5-0.5
	c-0.3,0-0.6,0-0.9,0c-1.5,0.1-2.9,0.6-4.2,1.1c-2.8,0.8-5.8,1.6-8.2,2.9c-1.3,0.6-2.4,2.7-2.4,2.8C121.7,273.9,121.8,275,121.9,275z
	"></path>
<path id="left_cheek_2_" class="st5 NwVfvyUd_10" d="M60.1,266.8c0.2,0-0.2,6.4-0.3,7c-0.5,2.6-1.5,5-2.4,7.5c-0.6,1.4-1.1,2.9-1.6,4.4
	c-1.6,5.3-1.6,10.9-1.9,16.3c-0.3,5.3,1.1,10.9,2.6,15.9c1.2,3.8,2.6,7.6,4.2,11.2l0.5,1.2c5,12,10.2,24.4,14.6,36.8
	c0.8,2.1,1.5,4.3,2.3,6.4c3.6,10.1,7.2,20.6,11.5,30.6c2.5,5.9,4.7,10.8,7.2,15.6c1.2,2.2,2.3,4.5,3.9,6.5c1.8,2.4,4.2,4,6.6,5.7
	c2.2,1.7,4.5,3.3,6.7,5c9.6,7.1,18.3,13.8,25.3,23.6c6.6,9.3,11,19.6,14.2,30.5c3.1,10.6,6.3,21.3,7.5,32.2c1.1,10,6.5,42,5.3,48.5
	c-5.9-7.4-9-12.4-9-12.4c-1.5,15.3-3.1,39.4,4.6,52.7c2,3.4,4.6,6.5,7.1,9.6c11.7,14.1,27.6,33.5,39.3,47.6"></path>
<path id="left_nostril" class="st6 NwVfvyUd_11" d="M100.3,279.4c0.1,0.1,0.2,0.1,0.3,0c0,0,0,0,0,0c0.1,0.2,0.2,0.5,0.6,0.6
	c1.8,0.7,4.1,1.3,6,0.9c0.5-0.1,0.7-0.5,0.6-1c0,0,0,0,0.1-0.1c0.9-1.3-1.9-3.2-2.7-3.8c-1.3-1-3.1-2.4-4.7-1.1c-0.9,0.8-1,2-0.4,3
	c-0.1,0.1-0.2,0.2-0.2,0.4C99.9,278.7,100,279.2,100.3,279.4z"></path>
<path id="hair" class="st3 NwVfvyUd_12" d="M307.8,220.2c3.2,11.2,3.5,22.1,3.8,33.7c0.2,9.3,6.5,13.2,15.3,12c9.7-1.3,20.7-4.5,27.1-12.4
	c3.2-4,10.1-11.8,10.6-12.3c6.6-6.2,14.1-13.2,23.7-13.7c10.2-0.6,15.7,7.2,19.1,15.7c2.9,7.2,4.5,14.8,4.9,22.4c0,0.1,0,0.1,0,0.2
	c-1.7,14.4-5.2,28.3-9.3,42.1c-0.2,0.4-0.9,4.5-2.9,9.2s-7.3,9.9-8.5,11.2c-2.7,2.1-5.6,3.9-8.5,5.5c-2.1,1.1-4.4,2-6.2,3.6
	c-2.5,2.2-3.8,4.3-6.7,6.1c-8.7,5.3-7.5,17.4-7.9,26.4c-0.7,14.4-1.7,28.8-2,43.2c-0.2,7.5-0.2,14.9,0.6,22.4
	c0.6,5.9,1.1,12.3,3.6,17.7c-0.4,7.3,0.3,14.6,3.7,21.1c0.7,1.3,2.6,0.4,2.3-1c-1.4-6.5-2.2-12.8-2.4-19l0-0.4c0-1.7,0-3.5,0.1-5.2
	l0-0.4c0.2-4.3,0.7-8.7,1.6-13.2c2.5-12.5,5.7-24.8,9.2-37c6.9-24.7,15.1-48.9,22.8-73.3c7.2-23,13.6-46.5,15.4-70.6
	c1.8-24.7,1.2-50.3-1.3-75c-1.3-12.6-3.5-25.1-7.8-37c-1.2-3.4-4.3-11.5-8.6-13.9c-1.3-2-2.7-3.8-4.4-5c-1.4-1-2.9-1.4-4.5-1.9
	c-1.1-1.2-2.3-2.3-3.6-3.3c-3.5-4.8-7.2-9.4-12.1-13.1c-4.3-3.2-8.6-6.3-13.1-9.3c-3.7-2.5-11.2-7.5-8.9-13c0.8-1.9-0.1-4-2.4-4.1
	l-8.5-0.5c0.1-4.3-2.4-8.3-6.1-10.9c-3.2-2.2-6.9-3.3-10.4-4.9c-3.9-1.8-7.7-3.9-11.5-5.9c-14.2-7.6-28.9-14.3-44-19.8
	c-12.7-4.6-25.7-8.4-38.9-11.4c-0.2-0.2-0.3-0.4-0.6-0.5c-4.6-2.8-12-6.8-17.3-4.6c-0.1,0-0.1,0.1-0.1,0.1c-3.7-1-7.4-1.8-11.2-2.3
	c-5.7-0.8-11.5-0.5-17.3-1.1c-1.2-0.3-2.5-0.4-3.8-0.5c-0.4-0.1-0.8-0.1-1.2-0.2c-0.8-0.2-1.4,0-1.9,0.3c-1.1,0.1-2.3,0.3-3.4,0.6
	c-0.5-0.1-1-0.2-1.5-0.3c-2-0.3-4.1-0.3-6.1-0.2c-2.3,0-2.4,3-0.5,3.8c2.1,0.9,4.3,1.6,6.5,2.2c-18.7,2.9-36.8,8.7-53.9,17.2
	c-1.7,0.8-0.8,3.4,0.9,3.4c3.4,0,6.8,0.4,10,1.2c-13.3,2-26,6.5-37.6,13.6c-1.3,0.8-0.9,3.1,0.8,3c4.3-0.3,8.4-0.1,12.6,0.5
	c-12.7,5.4-24.3,12.8-34.5,22.1c-1.3,1.2,0.3,3,1.8,2.3c3.1-1.5,6.2-2.3,9.4-2.7c-2.5,3.4-5.1,6.8-7.6,10.2
	c-2.3,3.1-5.4,6.1-6.4,9.8c-2.4,9.1-5.5,17.8-9.9,26.2c-0.7,1.4,1.3,2.6,2.1,1.3c0.8-1.2,1.5-2.4,2.3-3.5c-2.2,7-5.2,13.6-9,20.1
	c-0.7,1.3,0.8,3,2.1,2.1c0.8-0.5,1.5-1,2.3-1.5c-2.3,8.2-5.9,15.9-10.7,23.1c-1.1,1.7,1.4,3.5,2.8,2.1c1.1-1,2.1-2.1,3.2-3.1
	c-2,8.8-4.1,17.6-6.1,26.4c-0.3,1.5,1.4,2.6,2.6,1.5c2-1.9,4.1-3.8,6.1-5.7c-0.8,3.1-1.2,6.2-1.3,9.5c0,0.1,0,0.1,0,0.2
	c0,0,0,0,0,0.1c0,0.4,0.1,0.9,0.1,1.3c0,0.1,0,0.2,0,0.2c1.5-0.4,3.1-0.9,4.6-1.5c2.3-0.8,4.6-1.7,7-2.1c0.2-0.4,0.4-0.8,0.6-1.3
	c2-6.5,3.7-13.2,5.4-19.9c1.7-6.3,3.3-12.7,4.9-19c1.7-6.5,2.8-14.1,7.2-19.4c3.3-3.9,7.6-6.7,10.8-10.8c3.2-4.1,5.6-8.7,9.2-12.5
	c7.5-7.8,19.4-11.4,29.7-15.2c-0.3,0.8-0.5,1.7-0.6,2.7c-0.1,1.1,1.2,1.5,2,1.1c2.4-1.2,4.7-2.4,7.1-3.6c1-0.5,2.1-1.1,3.1-1.6
	c0.3-0.1,6.3-2.1,5.7-1c-0.6,1.2,0.6,2.4,1.8,1.8c3-1.4,6-2.9,8.9-4.3c1.4-0.7,2.7-1.3,4.1-2l1.6-0.8c1.2-0.8,2.5-1.1,4-0.9
	c-1.3,0.7-0.4,3.1,1,2.5c6.4-2.7,13-4.3,19.9-4.7c-0.8,1.4-1.6,2.7-2.5,4.1c-0.6,1,0.4,2.4,1.6,2c7.1-1.9,14.1-2.5,21.4-1.9
	c-0.1,1.1,0.5,2.2,1.6,2.9c1.8,1.1,4.3,0.7,6.2,0.6c2.5-0.1,5-0.1,7.6-0.2c-1.2,1.1-2.2,2.4-3.1,4c-0.6,1,0.1,2.6,1.4,2.5
	c7.3-0.8,14.6-0.9,21.9-0.3c-4.4,4.2-8.7,8.5-13.1,12.7c-1.1,1.1,0,3.6,1.7,2.9c8.4-3.5,17.1-6,26-7.2c-10.5,13.5-5.7,33.8,3.8,46.8
	c6.8,9.4,15.4,17.2,22.6,26.2c4.1,5.1,7.7,10.7,10.7,16.5C304.2,208.4,306.5,214.3,307.8,220.2z"></path>
<path id="beard" class="st7 NwVfvyUd_13" d="M91,389.8c-0.1-0.3-0.1-0.5-0.2-0.8c-0.3-1.2-0.7-2.3-1-3.5c-0.1-0.4,0-0.8,0.2-1.1
	c0-0.4-0.1-0.8-0.1-1.1c-0.3-1-0.2-0.7-0.2-1.9c-0.3-2.2-0.7-4.5-1.2-6.7c-0.1-0.4,0.1-0.7,0.4-0.9c0-0.2-0.1-0.5-0.1-0.7
	c-0.1-0.1-0.2-0.2-0.2-0.3l-0.2-0.5c-0.1-0.3,0.1-0.7,0.4-0.9c0,0,0.1,0,0.1,0c0-1,0.2-2.2,0.3-2.5c0.2-0.3,0.5-0.4,0.7-0.3
	c0-0.9,0-1.9,0-2.8c0-0.8,1-0.8,1.3-0.3c0.1-1.2,0.3-2.3,0.4-3.5c0.1-0.6,0.8-0.8,1.1-0.3c1.2,1.8,2.6,3.5,4,5.1c0,0,0,0,0,0
	c-0.1-0.2-0.1-0.4-0.2-0.6c-0.3-0.9,1.1-1.4,1.5-0.6c0.4,0.8,0.8,1.7,1.2,2.5c0.8-0.2,1.7,0.3,1.8,1.3c0,0.8,0.1,1.5,0.2,2.3
	c0.1,0.1,0.1,0.2,0.2,0.3c0.6-0.1,1.2,0.2,1.4,0.8c0.1,0.3,0.2,0.6,0.3,1c0.4,0,0.9,0.2,1,0.7c0.1,0.3,0.2,0.5,0.2,0.8
	c1-0.4,1.6,0.2,2.1,1.2c0.2,0.1,0.4,0.3,0.6,0.6c0,0,0,0,0,0c0,0.1,0,0.2,0,0.2c0,0,0,0,0,0c0.1,0.6,0.2,1.3,0.3,1.9
	c0.2,0.3,0.5,0.7,0.7,1c0.4-0.1,0.9,0.1,1,0.5c0.2-0.2,0.6-0.3,1-0.1c0.3-0.6,1.4-0.7,1.5,0.1c0.1,0.7,0.2,1.4,0.3,2.1
	c0.4-0.1,1,0.1,1.1,0.6c0.1,0.3,0.1,0.6,0.2,0.8c0.5-0.5,1.6-0.4,1.8,0.4c0,0,0,0.1,0,0.1c0.4-0.5,1.2-0.6,1.6-0.1
	c0.5,0,1.1,0.3,1,0.9c0,0.1,0,0.2,0,0.4c0,0.1,0,0.1,0,0.2c0,0.4,0.1,0.8,0.1,1.2c0.3,0.3,0.6,0.6,0.9,0.9c0.1-0.4,0.7-0.7,1.1-0.3
	c0.3,0.4,0.4,0.7,0.5,1c0.4-0.6,1.1-0.5,1.5-0.1c0.4,0,0.9,0.2,1,0.7c0,0.1,0.1,0.3,0.1,0.4c0.3,0.1,0.5,0.2,0.7,0.6
	c0.1,0.1,0.1,0.2,0.2,0.3c0.2,0,0.4-0.1,0.6-0.1c1.7,0,2.4,1.3,2.4,2.6c0,0,0,0,0,0c0.1-0.5,0.1-0.9,0.2-1.4
	c0.1-0.3,0.5-0.3,0.6-0.1c0.4,0.6,0.7,1.3,0.9,2.1c0.2,0.1,0.4,0.1,0.6,0.1c0.1-0.3,0.1-0.6,0.2-0.8c0.2-0.6,1.1-0.5,1.1,0.2
	c0,0.3,0,0.6,0.1,0.9c0.3,0,0.6,0.1,0.8,0.1c0.1-0.4,0.2-0.8,0.4-1.2c0.2-0.7,1.2-0.5,1.2,0.2c0,0,0,0.1,0,0.1
	c0.4-0.6,1.7-0.2,1.5,0.7c0,0,0,0.1,0,0.1c0.1,0,0.3,0.1,0.3,0.2c0.4,0,0.7,0,1.1,0c0.2,0,0.4,0,0.5,0c0.1-0.5,0.2-1,0.3-1.5
	c0.1-0.8,1.5-0.6,1.4,0.2c0,0.4-0.1,0.9-0.1,1.3c0.1,0,0.2,0,0.2,0c0.2-0.5,0.3-1,0.5-1.5c0.3-0.7,1.1-0.4,1.3,0.1
	c0.2,0.1,0.3,0.2,0.3,0.4c0,0.2,0,0.4-0.1,0.6c0,0,0,0,0-0.1c0.3-0.7,1.4-0.3,1.4,0.4c0.2,0,0.4,0,0.7,0c0-0.1,0-0.1,0-0.2
	c0.3-1.1,1.9-0.9,2,0.1c0,0,0,0,0,0c0,0,0,0,0,0c0-0.1,0.1-0.3,0.1-0.4c0.3-0.8,1.5-0.6,1.6,0.1c1-0.4,1.6-1,2.7-2.3
	c0.2-0.3,0.5-0.4,0.8-0.4c0.2-0.6,0.4-1.1,0.8-1.6c0.3-0.4,1.2-0.5,1.3,0.2c0.1,0.4,0.1,0.7,0.1,1.1c0.1-0.2,0.3-0.4,0.5-0.6
	c0.4-0.5,1.1-0.1,1.1,0.5c0.1-0.1,0.2-0.2,0.3-0.3c0.2-0.6,0.4-1.2,0.6-1.7c0.2-0.4,1-0.2,0.9,0.2c0,0,0,0,0,0.1
	c0.1-0.1,0.1-0.1,0.2-0.2c0.1-1.4,0.4-2.7,0.8-4.1c0.3-1.1,1.7-0.6,1.6,0.4c0.2,0.1,0.3,0.2,0.3,0.4c0.1-0.3,0.2-0.7,0.4-1
	c0.2-0.5,1.1-0.3,0.9,0.2c-0.1,0.2-0.1,0.3-0.2,0.5c0.1-0.1,0.1-0.1,0.2-0.2c0.2-0.2,0.5-0.3,0.7-0.4c0.2-0.5,0.4-1.1,0.7-1.6
	c0.2-0.5,0.8-0.5,1.2-0.2c0.1-1.1,0.2-2.2,0.3-3.2c0.1-1.1,1.8-1.2,1.8,0c0,0.2,0,0.5,0,0.7c0.1-0.2,0.2-0.3,0.2-0.5
	c0.1-0.4,0.2-0.8,0.3-1.2c0.1-0.3,0.3-0.5,0.6-0.6c0.7-1.4,1.4-2.9,2.2-4.3c0.8-1.6,2.8-0.6,3,0.8l0,0c0.8-1,1.5-1.9,2.3-2.9
	c0.6-0.8,2.2-0.6,2.5,0.3l0.7,1.7c0.2,0.1,0.4,0.2,0.5,0.4c0,0,0.1,0,0.1-0.1c0.1-0.2,0.1-0.4,0.2-0.7c0.1-0.4,0.5-0.7,0.9-0.8
	c0.2-0.4,0.5-0.5,0.9-0.5c0.1-0.2,0.3-0.4,0.4-0.6c0.2-0.3,0.5-0.3,0.8-0.3c0.8-0.9,1.4-1.8,2.1-2.9c0.6-1,2.3-1.2,2.8,0
	c0.2,0.4,0.3,0.7,0.5,1.1c2-1.6,3.6-3.4,4.9-5.8c0.4-0.8,1.8-1.1,2.4-0.5c0.1-0.2,0.1-0.3,0.2-0.5c0.3-0.8,1.5-0.2,1.3,0.5
	c-0.1,0.3-0.1,0.6-0.2,0.9c0.2-0.2,0.4-0.4,0.6-0.6c0.1-0.1,0.1-0.2,0.2-0.2c0.4-1.2,0.8-2.3,1.4-3.5c0.5-0.9,1.7-0.5,1.8,0.3
	c0.1-0.1,0.2-0.2,0.4-0.2c0.3-0.2,0.5-0.4,0.8-0.6c0.3-0.8,0.7-1.6,1.1-2.3c0.4-0.7,1.5-0.5,1.7,0.1c0,0,0-0.1,0.1-0.1
	c0.5-1,1.9-0.2,1.6,0.7c0,0,0,0,0,0c0,0,0,0.1-0.1,0.1c0.2-0.3,0.4-0.7,0.6-1c0.3-0.5,0.9-0.4,1.2-0.1c0,0,0-0.1,0.1-0.1
	c0.4-0.7,1.7-0.4,1.6,0.4c0,0.1,0,0.2,0,0.3c0,0.1,0,0.3,0,0.5c0,0,0,0,0,0c-0.1,0.2-0.1,0.3-0.2,0.5c0,0,0.1,0,0.1-0.1
	c0.4-3.1,0.7-6.2,1.6-9c0.4-1.1,1.7-0.8,1.9,0.1c0.2,0.2,0.4,0.4,0.4,0.7c0,0,0,0,0,0c0,0.3,0,0.7,0,1c0.3-0.1,0.7,0,1,0.3
	c0.1-0.6,0.1-1.1,0.3-1.6c0,0,0,0,0,0c0.3-1.1,2.2-1.3,2.4,0c0,0,0,0,0,0l0.5-3.2c0.1-0.7,0.9-0.5,1.1,0c1.3-3.2,2.7-6.5,4-9.7
	c0.1-0.3,0.3-0.5,0.5-0.7c0.2-1.1,0.5-2.2,0.8-3.2c0.4-1.3,2.2-0.7,2,0.5c-0.1,0.9-0.3,1.7-0.6,2.5c0.2,0.1,0.3,0.3,0.4,0.4
	c0.2-0.7,0.5-1.4,0.7-2.1c0.2-0.8,1.4-0.4,1.2,0.3c-0.1,0.5-0.2,1.1-0.3,1.7c0.1,0.1,0.1,0.2,0.1,0.4c0,0.1-0.1,0.3-0.1,0.4
	c1-0.1,2,0.8,1.8,2.1c-0.7,4.3-1,8.6-0.9,12.9c0.1-0.7,0.2-1.3,0.3-2c-0.1,0-0.3-0.1-0.3-0.3c0.1-0.8,0.3-1.5,0.4-2.3
	c0-0.2,0.3-0.2,0.4-0.1c0.1-0.4,0.2-0.9,0.3-1.3c0.1-0.4,0.7-0.3,0.8,0.1c0,0.8,0,1.6,0,2.4c0.4,0,0.7,0.3,0.7,0.7
	c0,0.8-0.1,1.7-0.1,2.5c0.2,0,0.4,0.2,0.4,0.4c0,0.1,0,0.1,0,0.2c0.1,0.2,0.1,0.4,0.1,0.6c-0.1,0.3-0.2,0.6-0.3,0.9
	c1.1,1,1.2,2.3,1.2,3.8c0.1,0.2,0.1,0.3,0.2,0.6c0.1,0.6,0.1,1.3,0.1,1.9c0.1,0.4,0.2,0.8,0.4,1.2c0.1,0,0.3,0.1,0.4,0.1
	c0.2-1.3,2.4-1.2,2.3,0.2c-0.1,1.3-0.3,2.6-0.5,3.9c0.1,0.3,0.3,0.5,0.4,0.8c0.8-0.1,1.5,0.3,1.7,1.2c0.9,4.1,1.7,8.2,2.6,12.2
	c0.1,0.5,0,0.9-0.3,1.2c0.5,1.7,1.1,3.4,1.9,5.1c0.6,1.4-1.5,2.5-2.4,1.4c0,0-0.1-0.1-0.1-0.1c0.1,1,0.3,1.9,0.7,2.9
	c0.3,0.8-0.6,1.9-1.5,1.5l-0.9-0.4c-0.6,2.1-0.9,4.1-0.8,6.3c0,0.5-0.3,0.8-0.7,0.9c0,0.4-0.1,0.8-0.4,1.1l-0.2,0.2
	c-0.3,0.3-0.7,0.4-1.1,0.4c-0.1,0.2-0.1,0.5-0.2,0.7c-0.1,0.3-0.4,0.5-0.6,0.7c0,2.6,0,5.2,0,7.9c0,0.9-1.1,1.4-1.8,1
	c0,0.2,0,0.4,0,0.6c0,1.7-2.1,1.7-2.7,0.4c-0.2,0.4-0.3,0.9-0.5,1.3c0.3,1.9,0.5,3.8,0.8,5.7c0.3,1.2-1.3,1.8-1.9,0.9
	c0,0.8,0.1,1.7,0.1,2.5c0.1,1.2-1.5,1.7-2.3,1.1c-0.2,1.7-0.4,3.3-0.9,5c-0.3,1-1.4,1-1.9,0.3c-0.1,0.2-0.3,0.3-0.6,0.4
	c0,0.4-0.1,0.7-0.1,1.1c-0.1,0.6-0.5,1-1,1.1c-0.2,1.2-0.3,2.5-0.4,3.7c-0.1,0.8-0.9,1-1.4,0.7c-0.4,1-0.7,2.4-2,2.5
	c-0.6,0-0.9-0.1-1.2-0.4c-0.4,0.6-0.8,1.1-1.3,1.5c-0.3,0.3-0.7,0.3-1.1,0.1c-0.8-0.4-0.8-1.2-0.6-2c0.1-0.5,0.2-1,0.3-1.5
	c-0.1,0-0.2,0-0.2,0.1c0,0,0,0,0,0.1c-0.1,0.5-0.2,0.9-0.4,1.4c0,1.4,0.1,2.8,0.1,4.3c0.1,1.3-1.7,1.4-2.1,0.3
	c-0.1-0.4-0.3-0.7-0.4-1.1c-0.1,0.3-0.2,0.6-0.4,0.9c-0.5,0.8-1.7,0.9-2.2,0.1c0.1,0.4,0.1,0.7,0.2,1.1c0.2,0.9-1.1,1.6-1.6,0.7
	c-0.1-0.2-0.2-0.3-0.2-0.5c-0.1,0.8-1,1.1-1.5,0.4c-0.2-0.3-0.4-0.7-0.7-1c-0.3,0.1-0.8-0.1-0.8-0.5c0-0.3-0.1-0.6-0.1-0.9
	c-0.1-0.2-0.2-0.3-0.3-0.5c-0.4,0-0.7,0-1.1,0c-0.3,0.1-0.6,0.2-0.9,0.4c0,0,0,0,0,0.1c0,0.1,0,0.2,0.1,0.3c0.2,0.5,0.3,1,0.4,1.5
	c0.3,0.8-1.1,1.4-1.4,0.6c0-0.1-0.1-0.1-0.1-0.2l0,0c0,0,0,0,0,0c-0.1-0.3-0.2-0.6-0.4-0.9c0,0,0,0,0,0c0,0.1-0.1,0.3-0.2,0.4
	c-0.1,0.5-0.3,1-0.4,1.5c-0.1,0.2-0.3,0.3-0.5,0.2c-0.2,0.1-0.4,0.1-0.5-0.1c-0.1-0.2-0.3-0.3-0.4-0.5l-1.2,2.7
	c-0.5,1.1-2.2,0.3-1.9-0.8l0.5-1.6c-0.2,0-0.5,0-0.7-0.3c-0.2-0.2-0.3-0.4-0.5-0.6c0.2,0.3,0.4,0.6,0.6,0.9c0.3,0.5-0.2,1.1-0.7,1
	c0.1,0.3,0.3,0.6,0.4,1c0.4,0.9-0.7,1.5-1.3,0.7c-0.1-0.2-0.3-0.4-0.4-0.6c-0.2,0.5-0.3,1-0.5,1.4c-0.2,0.6-1.3,0.6-1.2-0.2
	c0.1-1.1,0.3-2.1,0.6-3.2c-0.1-0.1-0.1-0.3-0.2-0.5c0,0-0.1,0-0.1,0c-0.2,0-0.4,0-0.6,0c0.1,1.6,0.1,3.2,0.2,4.8
	c0.1,1.1-1.6,1.6-2.1,0.6c-0.9-1.7-1.7-3.4-2.4-5.1c-0.1,0-0.3,0-0.4,0c0,0.1,0,0.1,0,0.2c0.2,0.9,0.5,1.8,0.7,2.7
	c0.3,0.9-1,1.2-1.4,0.4c-0.4-1.1-0.8-2.1-1.1-3.2c-0.2,0-0.3,0-0.5,0c0,0.8,0.1,1.5,0.1,2.3c0,1.2-1.7,1.6-2.2,0.6
	c-0.5-0.9-1-1.9-1.5-2.8c-0.1,0-0.2,0-0.3,0c-0.1,0.2-0.3,0.3-0.5,0.4c0.4,1,0.7,2,1.1,3c0.2,0.6-0.7,1-1,0.4
	c-0.2-0.4-0.4-0.8-0.5-1.1c0,0.1,0,0.1-0.1,0.2c0.1,0.4,0.3,0.8,0.4,1.2c0.2,0.6-0.7,0.9-1,0.4c-0.2-0.3-0.3-0.7-0.5-1
	c-0.4-0.1-0.7-0.3-0.9-0.7c-0.1-0.4-0.3-0.8-0.4-1.2c0,0,0,0,0,0c-0.1,0.4-0.3,0.7-0.6,0.9c0.3,0.9,0.6,1.9,0.8,2.8
	c0.2,0.6-0.7,0.9-1,0.4c-0.5-0.8-1-1.7-1.4-2.7c-0.2,0.1-0.4,0.1-0.6,0.2c0.1,0.4,0.2,0.8,0.3,1.2c0.2,0.8-0.8,1.4-1.4,0.8
	c-0.4-0.5-0.8-0.9-1.2-1.4c-0.8,0.2-1.5,0.4-2.3,0.6c0.1,0.3,0.1,0.5,0.1,0.8c0,0.5-0.7,0.7-1,0.4c-0.3-0.3-0.5-0.5-0.7-0.8
	c-0.2,0-0.3,0.1-0.5,0.1c-0.4,0.1-0.8,0.1-1.1-0.1c-0.1,0-0.2,0-0.3,0.1c-1,0.2-1.8-0.2-2.1-0.9c-0.2,0.1-0.3,0.1-0.5,0
	c-0.3-0.2-0.5-0.4-0.7-0.7c0,0.4,0,0.7-0.1,1.1c-0.1,0.5-0.8,0.8-1.2,0.5c-0.1-0.1-0.2-0.1-0.3-0.2c-0.2,0.4-0.7,0.4-1,0.3
	c-0.1,0.5-0.2,0.9-0.3,1.4c-0.2,1.1-1.6,0.8-1.9,0c-0.5-1.2-1.1-2.4-1.7-3.5c-0.5-0.5-0.8-1.3-1.2-2c0-0.1-0.1-0.1-0.2-0.2l-0.2,1.8
	c-0.1,0.9-1.2,1.3-1.7,0.5c-0.3-0.5-0.7-1-1-1.5c-0.1,0-0.2,0-0.3,0c0.1,0.6-0.7,1.2-1.3,1c-0.4-0.1-0.7-0.3-1-0.5
	c0,0.3,0.1,0.7,0.2,1c0.2,1.1-1.2,1.7-1.8,0.8l-2.4-3.8c0,0-0.1,0-0.1,0c-0.3,0-0.5,0-0.8,0c0.3,0.7-0.5,1.5-1.2,1.1
	c-0.1-0.1-0.2-0.1-0.3-0.2c-0.4,0.2-0.8,0.2-1.3,0c-0.7-0.4-1.3-0.9-1.8-1.4c-0.1,0-0.2-0.1-0.3-0.2c-0.1-0.1-0.3-0.3-0.4-0.4
	c-0.3,0-0.6-0.1-0.8-0.4c-0.3-0.4-0.5-0.9-0.8-1.3c0,0.1-0.1,0.3-0.1,0.4c-0.2,0.9-1.5,1-1.9,0.2c-0.1-0.1-2.5-1.5-3.2-2.1
	c-1.2-1-2.3-2-3.4-3c-0.4-0.3-0.7-0.7-1-1c-0.3-0.3-1.3-1.1-1.4-1.2c-0.3-0.3-0.7-0.6-1.1-0.8c-0.2-0.1-0.7-0.3-0.8-0.4
	c-0.6-0.4-1.2-0.7-1.7-1c-3.6-2.8-10.9-8.5-10.8-8.5c-2.7-2.5-4.3-5.8-5.9-9.1c-2.4-4.9-4.4-9.9-6.8-15.8L91,389.8z"></path>
<path id="Glasses" class="st3 NwVfvyUd_14" d="M300.8,202.6c-2.7-1.1-3.3-1.8-5.8-2.8c-5.4-2.1-10.6-4.5-15.8-7.2c-7-3.6-15.2-9.2-23.4-8.9
	c-1.1-9.1-16.3-8-16.3-8c-35.3-3.6-56.6,2.1-70.1,5.6s-17,8.7-30.7,13.6c-13.8,5-22,3.3-27.1,4.2s-21.2-1.2-21.2-1.2
	c-31,2.7-39.3,8.2-52.6,14.8C24.4,219.2,26,230.7,26,230.7c-0.5,8.4,0.2,14.9,0.2,14.9c2,20,13.2,19.9,13.2,19.9
	c22.4,0.4,45-4.4,57.5-11.1c-0.1,0.1-0.1,0.2-0.2,0.3c-4,6.6-5.8,15.8-2.7,23.2c1.7,4.1,5.5,9.1,10.1,10c0.3,0.1,0.7-0.4,0.4-0.6
	c-4.1-3.8-8.2-6.2-9.9-12c-0.7-2.4-0.9-5.1-0.7-7.6c0.2-2.4,0.5-4.9,1.5-7c1.3-2.8,2.5-5.7,3.9-8.5c1.4-2.8,3.1-5.3,4.9-7.9
	c0.6-0.9,1.2-1.8,1.8-2.7c1.4-3,2.9-5.9,4.3-8.8c1.2-2.4,1.9-5,2.6-7.6c0.3-1.3,0.7-2.5,0.8-3.8c0.2-1.4,0.6-2.7,1.3-3.8
	c0.4-0.6,0.8-1.1,1.2-1.7c2.3-3,5.1-6.2,9.2-5.9c2,0.1,3.8,0.9,5.5,1.9c1.6,1,3.4,2.2,4.5,3.6c1.5,1.9,2.3,4.5,3.5,6.6
	c1.1,2,2.3,4,3.6,6c1.9,2.9,4,5.7,6.5,8.1c2.5,2.4,5.5,4.9,9,5.6c0.6,0.1,1.2,0.1,1.8,0.2c21.9,1.6,64.3-8,74.2-10.5
	c9.8-2.5,10.9-11.5,10.9-11.5s-1.3-8.4,6.2-11.2c6.4-2.3,6.6-6.7,6.6-8c0.1,0,0.2-0.1,0.3-0.2c7.5,4.1,15.7,6.9,23.7,9.7
	c4.9,1.7,9.8,3.2,14.8,4.5c4.5,1.2,11,5.5,11.2,5.5C306.5,214.1,304.1,208.2,300.8,202.6z M99,247.6c0,0-41.3,15.5-57.3,12.6
	c0,0-8.2-2.1-8.1-12c0.1-9.9-3-20.5,4.4-27.4c0,0,26.5-20.5,65.9-16.8c0,0,5.2,1.3,6.7,8.2C112,219,110.5,235.4,99,247.6z
	 M231.4,222.3c-9.1,4.6-64.5,14.5-74.3,12.8c0,0-7.4-0.8-14.6-20.6c0,0-6.1-15.3,11.9-22.8c18-7.5,45.1-12.8,78.3-12.5
	c0,0,6.7,2.7,6.7,16.4C239.4,209.3,240.5,217.8,231.4,222.3z"></path>
<path class="st5 NwVfvyUd_15" d="M335.5,323.7c0,0,2.5,37.1-2.5,54c-4.9,16.8-13.2,26.4-24.6,32.8c-16,9-34.7,18.6-66,21.7"></path>
<path class="st0 NwVfvyUd_16" d="M222,322.9c0,0,10.4-21.8-2.3-30.1c-11.3-7.3-8.9-6.5-15.7-14.3"></path>
<path class="st0 NwVfvyUd_17" d="M89.6,299.4c-1.3,3.1-2.8,6.3-4.8,8.9c-3.4,4.5-6.1,7.2-7.2,13c-1,5.2-1.3,11.6,1.6,16.3"></path>
<path class="st0 NwVfvyUd_18" d="M150,248.1c3.5-0.1,7.2,0.7,10.3,2.4c6.7,3.8,9.1,13.2,7.5,20.4c-1.6,7-8.6,9.7-15.1,10.1"></path>
<path class="st6 NwVfvyUd_19" d="M158.1,509.6c-3.9-6.1-17.7-5.4-22.2,0.3c-4.5,5.7-4.1,14-1.1,20.6s8.2,11.9,13,17.3c42.5,48,58,108,73.5,170.2
	c22.3-25.9,40.7-50.2,59.9-78.5c6-8.9,12.1-18.4,12.9-29c1.1-13.1-5.8-25.6-6.4-38.8c-0.7-16.4,8.7-31.7,20.5-43.1
	c11.8-11.4,26-19.9,38.8-30.2c17-13.7,31.4-30.7,42.2-49.7c3.3-5.8,6.1-13.3,2.3-18.7c-2.7-3.8-8.1-5-12.8-4.1
	c-4.6,0.9-4,0.6-7.9,3.2"></path>
<path class="st6 NwVfvyUd_20" d="M151.7,487.5c-37.6,11.8-72.2,41.9-90.3,76.9c14.2-5,28.2-5.6,39.4-15.7c11.1-10.2,19.9-10.7,34.8-13.1"></path>
<path class="st6 NwVfvyUd_21" d="M293.8,547.4c7.6-15.6,31-22.9,48.1-20.6s32.5,11.8,46.5,21.9c14.1,10.1,27.8,21.2,44,27.3
	c-3.8-25.7-2.6-52.1,3.7-77.3c2.1-8.4,4.7-17,3.5-25.5c-1.8-12-11-21.6-21-28.6c-10-7-21.1-9.1-30.2-17.2"></path>
<path class="st3 NwVfvyUd_22" d="M253.6,677.9c54.3-26.8,80.9-101.7,134.9-129.2"></path>
<style>.NwVfvyUd_0{stroke-dasharray:578 580;stroke-dashoffset:579;animation:NwVfvyUd_draw 1333ms ease-in-out 0ms forwards;}.NwVfvyUd_1{stroke-dasharray:58 60;stroke-dashoffset:59;animation:NwVfvyUd_draw 1333ms ease-in-out 30ms forwards;}.NwVfvyUd_2{stroke-dasharray:127 129;stroke-dashoffset:128;animation:NwVfvyUd_draw 1333ms ease-in-out 60ms forwards;}.NwVfvyUd_3{stroke-dasharray:143 145;stroke-dashoffset:144;animation:NwVfvyUd_draw 1333ms ease-in-out 90ms forwards;}.NwVfvyUd_4{stroke-dasharray:73 75;stroke-dashoffset:74;animation:NwVfvyUd_draw 1333ms ease-in-out 121ms forwards;}.NwVfvyUd_5{stroke-dasharray:117 119;stroke-dashoffset:118;animation:NwVfvyUd_draw 1333ms ease-in-out 151ms forwards;}.NwVfvyUd_6{stroke-dasharray:225 227;stroke-dashoffset:226;animation:NwVfvyUd_draw 1333ms ease-in-out 181ms forwards;}.NwVfvyUd_7{stroke-dasharray:217 219;stroke-dashoffset:218;animation:NwVfvyUd_draw 1333ms ease-in-out 212ms forwards;}.NwVfvyUd_8{stroke-dasharray:182 184;stroke-dashoffset:183;animation:NwVfvyUd_draw 1333ms ease-in-out 242ms forwards;}.NwVfvyUd_9{stroke-dasharray:68 70;stroke-dashoffset:69;animation:NwVfvyUd_draw 1333ms ease-in-out 272ms forwards;}.NwVfvyUd_10{stroke-dasharray:480 482;stroke-dashoffset:481;animation:NwVfvyUd_draw 1333ms ease-in-out 303ms forwards;}.NwVfvyUd_11{stroke-dasharray:25 27;stroke-dashoffset:26;animation:NwVfvyUd_draw 1333ms ease-in-out 333ms forwards;}.NwVfvyUd_12{stroke-dasharray:1876 1878;stroke-dashoffset:1877;animation:NwVfvyUd_draw 1333ms ease-in-out 363ms forwards;}.NwVfvyUd_13{stroke-dasharray:680 682;stroke-dashoffset:681;animation:NwVfvyUd_draw 1333ms ease-in-out 393ms forwards;}.NwVfvyUd_14{stroke-dasharray:1253 1255;stroke-dashoffset:1254;animation:NwVfvyUd_draw 1333ms ease-in-out 424ms forwards;}.NwVfvyUd_15{stroke-dasharray:167 169;stroke-dashoffset:168;animation:NwVfvyUd_draw 1333ms ease-in-out 454ms forwards;}.NwVfvyUd_16{stroke-dasharray:55 57;stroke-dashoffset:56;animation:NwVfvyUd_draw 1333ms ease-in-out 484ms forwards;}.NwVfvyUd_17{stroke-dasharray:42 44;stroke-dashoffset:43;animation:NwVfvyUd_draw 1333ms ease-in-out 515ms forwards;}.NwVfvyUd_18{stroke-dasharray:54 56;stroke-dashoffset:55;animation:NwVfvyUd_draw 1333ms ease-in-out 545ms forwards;}.NwVfvyUd_19{stroke-dasharray:633 635;stroke-dashoffset:634;animation:NwVfvyUd_draw 1333ms ease-in-out 575ms forwards;}.NwVfvyUd_20{stroke-dasharray:203 205;stroke-dashoffset:204;animation:NwVfvyUd_draw 1333ms ease-in-out 606ms forwards;}.NwVfvyUd_21{stroke-dasharray:335 337;stroke-dashoffset:336;animation:NwVfvyUd_draw 1333ms ease-in-out 636ms forwards;}.NwVfvyUd_22{stroke-dasharray:189 191;stroke-dashoffset:190;animation:NwVfvyUd_draw 1333ms ease-in-out 666ms forwards;}@keyframes NwVfvyUd_draw{100%{stroke-dashoffset:0;}}@keyframes NwVfvyUd_fade{0%{stroke-opacity:1;}93.54838709677419%{stroke-opacity:1;}100%{stroke-opacity:0;}}</style></svg>
