<svg id="Layer_1" data-name="Layer 1" xmlns="http://www.w3.org/2000/svg" viewBox="0 0 483.51 694.61" style=""><title>daria2</title><g id="_0.65" data-name="0.65"><path d="M287,385c-2,4.36-6.66,6.78-11,8.89l-13.62,6.66c-3.61,1.76-7.27,3.54-11.23,4.23a39.33,39.33,0,0,1-7.36.4c-4.67-.06-9.52-.26-13.66-2.41a16,16,0,0,1-7.52-8.48c-1.32-3.52-.93-8.23,2.36-10.06" transform="translate(-54.71 -91.4)" style="fill:none;stroke:#7f1416;stroke-miterlimit:10;stroke-width:3px" class="lqOJIXLu_0"></path><path d="M288.33,385.3c-13.91-1.91-22.37-16.91-35.58-21.66-3.51-1.26-7.7-1.65-10.72.53-1.65,1.19-2.75,3-4.29,4.32" transform="translate(-54.71 -91.4)" style="fill:none;stroke:#7f1416;stroke-miterlimit:10;stroke-width:3px" class="lqOJIXLu_1"></path><path d="M236.76,369.24,232,364.36a2.44,2.44,0,0,0-4.27,0c-2.49,2.54-5,5.17-6.39,8.45s-1.24,7.44,1.23,10" transform="translate(-54.71 -91.4)" style="fill:none;stroke:#7f1416;stroke-miterlimit:10;stroke-width:3px" class="lqOJIXLu_2"></path><path d="M284.29,386.25a34.2,34.2,0,0,1-18.54-1c-3.77-1.3-7.31-3.26-11.18-4.21-6.38-1.57-13.08-.28-19.52,1l-10,2" transform="translate(-54.71 -91.4)" style="fill:none;stroke:#7f1416;stroke-miterlimit:10;stroke-width:3px" class="lqOJIXLu_3"></path><path d="M236,343.4c-.15,6.82-2.06,11.17-5.7,16.93" transform="translate(-54.71 -91.4)" style="fill:none;stroke:#7f1416;stroke-miterlimit:10;stroke-width:3px" class="lqOJIXLu_4"></path><path d="M319.4,234.33a394.84,394.84,0,0,0,5.43,65.59c3.5,20.88,10.45,40.45,15.07,61,9.28,41.33,11.51,88.38,25,128.76" transform="translate(-54.71 -91.4)" style="fill:none;stroke:#7f1416;stroke-miterlimit:10;stroke-width:3px" class="lqOJIXLu_5"></path><path d="M350.89,424.91l7.78,101.82c2.2,28.87,4.45,58,12.71,85.75s23.1,54.39,46.28,71.74" transform="translate(-54.71 -91.4)" style="fill:none;stroke:#7f1416;stroke-miterlimit:10;stroke-width:3px" class="lqOJIXLu_6"></path><path d="M356.29,455.57c10.69,36.06,16.8,73.35,27.28,109.48,10.95,37.75,30,65.76,49.65,98.74,17.35,29.15,16.75,84.36,5.7,116.54" transform="translate(-54.71 -91.4)" style="fill:none;stroke:#7f1416;stroke-miterlimit:10;stroke-width:3px" class="lqOJIXLu_7"></path><path d="M324,93c-24-.57-46.85,3.33-67.41,13.82s-38.42,25.75-53.92,42.85c-8.5,9.38-16.39,19.41-22.26,30.62-12.81,24.42-12.73,49.94-17.17,76.1q-7.78,45.94-15.55,91.9l1.26-6.15c-8,34-8.37,69.27-10.36,104.15s-3.18,64.25-17.45,96.14" transform="translate(-54.71 -91.4)" style="fill:none;stroke:#7f1416;stroke-miterlimit:10;stroke-width:3px" class="lqOJIXLu_8"></path><path d="M303.1,93.3c47-2.41,92.88,5.24,121.48,44.52,30.62,42.06,39.94,96,50.71,145.69,22.94,105.81,43.23,213,56.77,320.39,3.19,25.3,6,50.84,4,76.27-.9,12.06-2.85,24-3.78,36.09A214.47,214.47,0,0,0,535.1,771" transform="translate(-54.71 -91.4)" style="fill:none;stroke:#7f1416;stroke-miterlimit:10;stroke-width:3px" class="lqOJIXLu_9"></path></g><g id="_0.75" data-name="0.75"><path d="M222.08,155.41c-10.07,7.92-16.59,19.66-20.38,31.91s-5.07,25.1-6.34,37.86c-.93,9.42-1.85,19.11.78,28.2,4,13.73,11.12,26,5.16,40.51-5.86,14.24-6.63,24.36-3.82,39.87,3.66,20.24,7.38,40.68,15.45,59.59,5.64,13.21,13.41,25.7,16.3,39.77" transform="translate(-54.71 -91.4)" style="fill:none;stroke:#7f1416;stroke-miterlimit:10;stroke-width:2px" class="lqOJIXLu_10"></path><path d="M267.71,451.89c7.45,19.29,21.4,31.87,27.3,51.69,1.89,6.33,2.12,18.12-1,23.92" transform="translate(-54.71 -91.4)" style="fill:none;stroke:#7f1416;stroke-miterlimit:10;stroke-width:2px" class="lqOJIXLu_11"></path><path d="M225.05,421a58.51,58.51,0,0,0,6.66,16.54c3.19,5,7.73,9.39,13.32,11.49a33.75,33.75,0,0,0,8.74,1.82c16.13,1.59,33.9-4,48-11.74" transform="translate(-54.71 -91.4)" style="fill:none;stroke:#7f1416;stroke-miterlimit:10;stroke-width:2px" class="lqOJIXLu_12"></path><path d="M348.09,415.33c-4.62,6.49-7.2,6.44-15.19,9.84-12.86,5.47-24.4,10.9-39.21,18" transform="translate(-54.71 -91.4)" style="fill:none;stroke:#7f1416;stroke-miterlimit:10;stroke-width:2px" class="lqOJIXLu_13"></path><path d="M236.49,381.61c.62,1.37,2.6,1.27,4,.8s3.19-1,4.28,0c.43.41.71,1,1.28,1.2,1.07.31,1.7-1.2,2.68-1.73s2.33.1,3.46.52,2.8.32,3.06-.86" transform="translate(-54.71 -91.4)" style="fill:none;stroke:#7f1416;stroke-miterlimit:10;stroke-width:2px" class="lqOJIXLu_14"></path><path d="M223.57,258.19a8.76,8.76,0,0,0,5.42,16" transform="translate(-54.71 -91.4)" style="fill:none;stroke:#7f1416;stroke-miterlimit:10;stroke-width:2px" class="lqOJIXLu_15"></path><path d="M206.64,263.62a13.68,13.68,0,0,0,7,13.41" transform="translate(-54.71 -91.4)" style="fill:none;stroke:#7f1416;stroke-miterlimit:10;stroke-width:2px" class="lqOJIXLu_16"></path><path d="M289.81,384.48a28.49,28.49,0,0,0-13.51-5.94" transform="translate(-54.71 -91.4)" style="fill:none;stroke:#7f1416;stroke-miterlimit:10;stroke-width:2px" class="lqOJIXLu_17"></path><path d="M217.23,485.12c3.11,9.34,6.27,19,5.52,28.8-.6,8.05-3.8,15.65-6.95,23.09" transform="translate(-54.71 -91.4)" style="fill:none;stroke:#7f1416;stroke-miterlimit:10;stroke-width:2px" class="lqOJIXLu_18"></path><path d="M226.89,450.3c12.36,25.93,21,65.85,15.78,94.1" transform="translate(-54.71 -91.4)" style="fill:none;stroke:#7f1416;stroke-miterlimit:10;stroke-width:2px" class="lqOJIXLu_19"></path><path d="M340.48,522.36c-32.69-.41-65.68,12.16-98.82,24.84" transform="translate(-54.71 -91.4)" style="fill:none;stroke:#7f1416;stroke-miterlimit:10;stroke-width:2px" class="lqOJIXLu_20"></path><path d="M194.55,237.44c-.62,20.88,5.56,41.77,2.83,62.49" transform="translate(-54.71 -91.4)" style="fill:none;stroke:#7f1416;stroke-miterlimit:10;stroke-width:2px" class="lqOJIXLu_21"></path><path d="M196.18,302.28a44.18,44.18,0,0,0-.41,29.35" transform="translate(-54.71 -91.4)" style="fill:none;stroke:#7f1416;stroke-miterlimit:10;stroke-width:2px" class="lqOJIXLu_22"></path><path d="M219.24,536.3,240,550.58c2.57,1.77,5.46,4.26,4.94,7.34,4.6.61,8,4.4,11,8l11.51,13.62c1.28,1.52,2.56,3,3.79,4.6,1.59,2,3.08,4.13,4.72,6.12,1.44,1.76,3,3.43,4.53,5.1l17.07,18.45c4.21,4.55,8.42,9.1,13,13.24,8.71,7.8,18.76,14,29.2,19.28,5.39,2.72,10.9,5.2,16.41,7.68l20.29,9.15c10.65,4.79,21.29,9.59,32,14.29" transform="translate(-54.71 -91.4)" style="fill:none;stroke:#7f1416;stroke-miterlimit:10;stroke-width:2px" class="lqOJIXLu_23"></path><path d="M217.42,537.28l-52.67,9.36c-2.87.51-5.8,1-8.66.5-3.5-.63-6.53-2.73-9.81-4.13-9.39-4-20.18-2.06-30,.63C100,548.1,82.72,555.81,75.78,571.2" transform="translate(-54.71 -91.4)" style="fill:none;stroke:#7f1416;stroke-miterlimit:10;stroke-width:2px" class="lqOJIXLu_24"></path><path d="M77.07,570.58,55,577" transform="translate(-54.71 -91.4)" style="fill:none;stroke:#7f1416;stroke-miterlimit:10;stroke-width:2px" class="lqOJIXLu_25"></path><path d="M417.52,683a14.71,14.71,0,0,1,11.74,3.18,9,9,0,0,0,3.24,2.19,11.7,11.7,0,0,0,2.9.07,8.18,8.18,0,0,1,6.66,3.58" transform="translate(-54.71 -91.4)" style="fill:none;stroke:#7f1416;stroke-miterlimit:10;stroke-width:2px" class="lqOJIXLu_26"></path><path d="M377.74,511.55c10.43,37.74,21.33,76.26,43.7,108.4,6.55,9.39,14,18.15,20,27.94,19.83,32.57,21,73.44,14.22,111" transform="translate(-54.71 -91.4)" style="fill:none;stroke:#7f1416;stroke-miterlimit:10;stroke-width:2px" class="lqOJIXLu_27"></path></g><g id="_0.5" data-name="0.5"><path d="M255.69,315a22.84,22.84,0,0,1,3.95,7.35" transform="translate(-54.71 -91.4)" style="fill:none;stroke:#7f1416;stroke-miterlimit:10;stroke-width:3px" class="lqOJIXLu_28"></path><path d="M264.32,318.36c5.32,2.93,7,9.86,6.78,15.94-.07,2.26-.4,4.72-2,6.29-2.17,2.12-5.81,1.77-8.49.36s-4.85-3.64-7.46-5.18-6.11-2.27-8.58-.51" transform="translate(-54.71 -91.4)" style="fill:none;stroke:#7f1416;stroke-miterlimit:10;stroke-width:3px" class="lqOJIXLu_29"></path><path d="M225.74,245l12.18,12.92a11.36,11.36,0,0,1,3.06,4.57,10.83,10.83,0,0,1-.32,5.2,159,159,0,0,1-14.45,38.56c-3,5.61-6.41,11.55-5.68,17.86,1.15,9.91,11.58,15.58,20.72,19.59" transform="translate(-54.71 -91.4)" style="fill:none;stroke:#7f1416;stroke-miterlimit:10;stroke-width:3px" class="lqOJIXLu_30"></path><path d="M239,272.49c-6.58,1.32-12.76,4.24-19.34,5.57a16.53,16.53,0,0,1-7,.19,7.56,7.56,0,0,1-5.36-4.22" transform="translate(-54.71 -91.4)" style="fill:none;stroke:#7f1416;stroke-miterlimit:10;stroke-width:3px" class="lqOJIXLu_31"></path><path d="M206.23,276.32c1.1,4.07,5.8,6.29,10,6s8-2.45,11.67-4.57" transform="translate(-54.71 -91.4)" style="fill:none;stroke:#7f1416;stroke-miterlimit:10;stroke-width:3px" class="lqOJIXLu_32"></path><path d="M200.51,264.86c1.66-4.34,6-7.28,10.52-8.21s9.29-.09,13.69,1.38" transform="translate(-54.71 -91.4)" style="fill:none;stroke:#7f1416;stroke-miterlimit:10;stroke-width:3px" class="lqOJIXLu_33"></path><path d="M195.19,244.48c9.93,4.66,22.55-.38,32.22,4.79" transform="translate(-54.71 -91.4)" style="fill:none;stroke:#7f1416;stroke-miterlimit:10;stroke-width:3px" class="lqOJIXLu_34"></path><path d="M195.37,231.27c4,2.19,9.08,1,13.56,2.09,5.52,1.32,9.63,5.9,12.77,10.62" transform="translate(-54.71 -91.4)" style="fill:none;stroke:#7f1416;stroke-miterlimit:10;stroke-width:3px" class="lqOJIXLu_35"></path><path d="M217.89,238.38,216,233.77c5.39,3.87,9,9.66,12.55,15.29" transform="translate(-54.71 -91.4)" style="fill:none;stroke:#7f1416;stroke-miterlimit:10;stroke-width:3px" class="lqOJIXLu_36"></path><path d="M261.18,232.94a17.85,17.85,0,0,0,.81,14.4" transform="translate(-54.71 -91.4)" style="fill:none;stroke:#7f1416;stroke-miterlimit:10;stroke-width:3px" class="lqOJIXLu_37"></path><path d="M261.36,232.67a5.62,5.62,0,0,0,.22,2.7,12.55,12.55,0,0,1,7.91-5.4,6.32,6.32,0,0,0-2.71,3.21,26.44,26.44,0,0,1,12.57-3.89" transform="translate(-54.71 -91.4)" style="fill:none;stroke:#7f1416;stroke-miterlimit:10;stroke-width:3px" class="lqOJIXLu_38"></path><path d="M317,237.72a131.22,131.22,0,0,0-18.39-.28c-5.48.37-11.15,2-14.94,6" transform="translate(-54.71 -91.4)" style="fill:none;stroke:#7f1416;stroke-miterlimit:10;stroke-width:3px" class="lqOJIXLu_39"></path><path d="M261.3,247.84l21.4-4.36" transform="translate(-54.71 -91.4)" style="fill:none;stroke:#7f1416;stroke-miterlimit:10;stroke-width:3px" class="lqOJIXLu_40"></path><path d="M317.07,226.66c-.13-.86-1-1.36-1.83-1.69a28.4,28.4,0,0,0-9.78-2.16,18,18,0,0,1,3.57,1.83,29.7,29.7,0,0,0-13.62,0" transform="translate(-54.71 -91.4)" style="fill:none;stroke:#7f1416;stroke-miterlimit:10;stroke-width:3px" class="lqOJIXLu_41"></path><path d="M295.33,224.7a12.1,12.1,0,0,1,5,1.61" transform="translate(-54.71 -91.4)" style="fill:none;stroke:#7f1416;stroke-miterlimit:10;stroke-width:3px" class="lqOJIXLu_42"></path><path d="M299.66,226.27a181.78,181.78,0,0,0-21,3.31" transform="translate(-54.71 -91.4)" style="fill:none;stroke:#7f1416;stroke-miterlimit:10;stroke-width:3px" class="lqOJIXLu_43"></path><path d="M320.93,258.91a48.91,48.91,0,0,0-23.14-2.29c-4.81.69-10.11,2.62-11.94,7.12" transform="translate(-54.71 -91.4)" style="fill:none;stroke:#7f1416;stroke-miterlimit:10;stroke-width:3px" class="lqOJIXLu_44"></path><path d="M310,257.06a20,20,0,0,0-10.82.49,56.22,56.22,0,0,0-10,4.42,19.36,19.36,0,0,0-4.54,2.95,6.72,6.72,0,0,0-2.29,4.76" transform="translate(-54.71 -91.4)" style="fill:none;stroke:#7f1416;stroke-miterlimit:10;stroke-width:3px" class="lqOJIXLu_45"></path><path d="M281.9,270.56c1.77.24,3.57-.28,5.36-.2,2.76.13,5.23,1.66,7.85,2.53,3.31,1.1,6.86,1.15,10.35,1.18,6.21.07,10.26.54,16.34-.73" transform="translate(-54.71 -91.4)" style="fill:none;stroke:#7f1416;stroke-miterlimit:10;stroke-width:3px" class="lqOJIXLu_46"></path><path d="M305.82,256.48A9.23,9.23,0,1,0,321.3,265" transform="translate(-54.71 -91.4)" style="fill:none;stroke:#7f1416;stroke-miterlimit:10;stroke-width:3px" class="lqOJIXLu_47"></path><path d="M320.68,277.41a112.22,112.22,0,0,1-19.35,1.93" transform="translate(-54.71 -91.4)" style="fill:none;stroke:#7f1416;stroke-miterlimit:10;stroke-width:3px" class="lqOJIXLu_48"></path><path d="M301.36,275a6.85,6.85,0,0,0-1.24,3.83l6.49-4.05-.31,4.2" transform="translate(-54.71 -91.4)" style="fill:none;stroke:#7f1416;stroke-miterlimit:10;stroke-width:3px" class="lqOJIXLu_49"></path><path d="M310.91,274.34l.38,3.48a7.47,7.47,0,0,1,4.39-3.59l3.6,3.49" transform="translate(-54.71 -91.4)" style="fill:none;stroke:#7f1416;stroke-miterlimit:10;stroke-width:3px" class="lqOJIXLu_50"></path><path d="M288.25,256.58c7.55-4,16.57-3.56,25.09-3" transform="translate(-54.71 -91.4)" style="fill:none;stroke:#7f1416;stroke-miterlimit:10;stroke-width:3px" class="lqOJIXLu_51"></path><path d="M310.44,259.16a3.26,3.26,0,0,0-1.29,3.17,3.11,3.11,0,0,0,.68,1.47,3.16,3.16,0,1,0,.85-4.76" transform="translate(-54.71 -91.4)" style="fill:none;stroke:#7f1416;stroke-miterlimit:10;stroke-width:3px" class="lqOJIXLu_52"></path><path d="M221,328c1.2,3.5,1.47,7.39,3.47,10.5a11,11,0,0,0,9.17,4.93" transform="translate(-54.71 -91.4)" style="fill:none;stroke:#7f1416;stroke-miterlimit:10;stroke-width:3px" class="lqOJIXLu_53"></path><path d="M243,391c-.09-.92,1-1.59,1.91-1.45a4.65,4.65,0,0,1,2.31,1.44c.73.09.07-1.5.73-1.82.26-.12.56.05.79.22a3.49,3.49,0,0,0,2.35.91c.85-.11,1.53-1.25.93-1.86a23.09,23.09,0,0,0,4.66.88l-.11-1.23a14,14,0,0,1,5.42,1.33" transform="translate(-54.71 -91.4)" style="fill:none;stroke:#7f1416;stroke-miterlimit:10;stroke-width:3px" class="lqOJIXLu_54"></path><path d="M230,385.92a6,6,0,0,0-2.57,3.32,5.05,5.05,0,0,1,3.64-1.87,4.64,4.64,0,0,0-1.33,2.33l4.54-1.73a4.06,4.06,0,0,0-1.61,2.69" transform="translate(-54.71 -91.4)" style="fill:none;stroke:#7f1416;stroke-miterlimit:10;stroke-width:3px" class="lqOJIXLu_55"></path><path d="M229.33,386.66a7.43,7.43,0,0,0-4.32,1" transform="translate(-54.71 -91.4)" style="fill:none;stroke:#7f1416;stroke-miterlimit:10;stroke-width:3px" class="lqOJIXLu_56"></path><path d="M285,274.33l8.69,3.27" transform="translate(-54.71 -91.4)" style="fill:none;stroke:#7f1416;stroke-miterlimit:10;stroke-width:3px" class="lqOJIXLu_57"></path><path d="M286.91,265.38a14.17,14.17,0,0,0,6.81,6.85" transform="translate(-54.71 -91.4)" style="fill:none;stroke:#7f1416;stroke-miterlimit:10;stroke-width:3px" class="lqOJIXLu_58"></path><path d="M237.2,265.38a7,7,0,0,1-2.53,8" transform="translate(-54.71 -91.4)" style="fill:none;stroke:#7f1416;stroke-miterlimit:10;stroke-width:3px" class="lqOJIXLu_59"></path><path d="M278,378.75a44.58,44.58,0,0,1-8.89-4.85" transform="translate(-54.71 -91.4)" style="fill:none;stroke:#7f1416;stroke-miterlimit:10;stroke-width:3px" class="lqOJIXLu_60"></path><path d="M265.7,386.64l2,2.32" transform="translate(-54.71 -91.4)" style="fill:none;stroke:#7f1416;stroke-miterlimit:10;stroke-width:3px" class="lqOJIXLu_61"></path><path d="M270.06,387.61l1.29,1.37" transform="translate(-54.71 -91.4)" style="fill:none;stroke:#7f1416;stroke-miterlimit:10;stroke-width:3px" class="lqOJIXLu_62"></path><path d="M230.78,378.63a4.21,4.21,0,0,0,5,2.69" transform="translate(-54.71 -91.4)" style="fill:none;stroke:#7f1416;stroke-miterlimit:10;stroke-width:3px" class="lqOJIXLu_63"></path><path d="M234.69,379a10.25,10.25,0,0,0,3.62,1.8" transform="translate(-54.71 -91.4)" style="fill:none;stroke:#7f1416;stroke-miterlimit:10;stroke-width:3px" class="lqOJIXLu_64"></path><path d="M237,388a4.16,4.16,0,0,0-.68,2.66" transform="translate(-54.71 -91.4)" style="fill:none;stroke:#7f1416;stroke-miterlimit:10;stroke-width:3px" class="lqOJIXLu_65"></path><path d="M222.39,154.48a12.63,12.63,0,0,0-6.08-.14,20.57,20.57,0,0,0-11.46,7.2c-2.94,3.54-3,24.69-4.34,29.09" transform="translate(-54.71 -91.4)" style="fill:none;stroke:#7f1416;stroke-miterlimit:10;stroke-width:3px" class="lqOJIXLu_66"></path><path d="M249.1,145.75a31,31,0,0,0-7.45-12.06" transform="translate(-54.71 -91.4)" style="fill:none;stroke:#7f1416;stroke-miterlimit:10;stroke-width:3px" class="lqOJIXLu_67"></path><path d="M241,135a17.64,17.64,0,0,1,3.05,9.65" transform="translate(-54.71 -91.4)" style="fill:none;stroke:#7f1416;stroke-miterlimit:10;stroke-width:3px" class="lqOJIXLu_68"></path><path d="M243.51,146.18l-5.27-4.51.79,4a27.75,27.75,0,0,0-7.05-2.88l3.08,4.63-6.57-2.58,3.13,5.7a8.48,8.48,0,0,0-5.87-2.54,8.79,8.79,0,0,1,2.26,4.48c-3-.9-6-1.89-8.95-3,1.63,1.44,3.34,3,4,5.08" transform="translate(-54.71 -91.4)" style="fill:none;stroke:#7f1416;stroke-miterlimit:10;stroke-width:3px" class="lqOJIXLu_69"></path><path d="M251.09,143A27.52,27.52,0,0,1,254,136.5,27.35,27.35,0,0,0,252.8,146" transform="translate(-54.71 -91.4)" style="fill:none;stroke:#7f1416;stroke-miterlimit:10;stroke-width:3px" class="lqOJIXLu_70"></path><path d="M252.79,146.4A26.64,26.64,0,0,1,263,136.49a25.24,25.24,0,0,0-3.76,6.72c2.31-3.18,6.36-4.48,10.14-5.6a17,17,0,0,0-4.06,5.59" transform="translate(-54.71 -91.4)" style="fill:none;stroke:#7f1416;stroke-miterlimit:10;stroke-width:3px" class="lqOJIXLu_71"></path><path d="M266.42,143.84a83.88,83.88,0,0,1,11.15-4.46,11.94,11.94,0,0,0-3.06,4.37,17.35,17.35,0,0,1,9.94-3l-3.11,2.82a40.14,40.14,0,0,1,14.25,0,9.19,9.19,0,0,0-4.58,2.8,14.77,14.77,0,0,1,11.05,2l-2.83,2.12A16.37,16.37,0,0,1,309,158" transform="translate(-54.71 -91.4)" style="fill:none;stroke:#7f1416;stroke-miterlimit:10;stroke-width:3px" class="lqOJIXLu_72"></path><path d="M283.64,137.91c8.15-.58,15.93,4.43,20.7,11.07s7,14.73,8.81,22.7" transform="translate(-54.71 -91.4)" style="fill:none;stroke:#7f1416;stroke-miterlimit:10;stroke-width:3px" class="lqOJIXLu_73"></path><path d="M309,133.15c4.91,13.36,6.32,37.81,5,52-.55,6.07-1.3,12.14-1.19,18.23.22,12.64,4.1,24.89,7.95,36.94" transform="translate(-54.71 -91.4)" style="fill:none;stroke:#7f1416;stroke-miterlimit:10;stroke-width:3px" class="lqOJIXLu_74"></path><path d="M311.82,166.7a93.12,93.12,0,0,1,1.85,16.3" transform="translate(-54.71 -91.4)" style="fill:none;stroke:#7f1416;stroke-miterlimit:10;stroke-width:3px" class="lqOJIXLu_75"></path><path d="M305.28,128.19c10.84,13.74,15.8,26.32,16.88,43.78a139.37,139.37,0,0,1-.62,18.94c-1.89,25.27-2.76,50.78.81,75.87" transform="translate(-54.71 -91.4)" style="fill:none;stroke:#7f1416;stroke-miterlimit:10;stroke-width:3px" class="lqOJIXLu_76"></path><path d="M277.67,268.67l2-4.32" transform="translate(-54.71 -91.4)" style="fill:none;stroke:#7f1416;stroke-miterlimit:10;stroke-width:3px" class="lqOJIXLu_77"></path><path d="M243.29,353.34a7.4,7.4,0,0,1-2.94,7" transform="translate(-54.71 -91.4)" style="fill:none;stroke:#7f1416;stroke-miterlimit:10;stroke-width:3px" class="lqOJIXLu_78"></path><path d="M244.31,405.46c6.24.77,12.59,2.87,18.67,1.29" transform="translate(-54.71 -91.4)" style="fill:none;stroke:#7f1416;stroke-miterlimit:10;stroke-width:3px" class="lqOJIXLu_79"></path><path d="M420.4,593c8.83,18.47,20.93,35.22,29.83,53.66a175.85,175.85,0,0,1,10.58,123.66" transform="translate(-54.71 -91.4)" style="fill:none;stroke:#7f1416;stroke-miterlimit:10;stroke-width:3px" class="lqOJIXLu_80"></path><path d="M389.39,296.83l15.19,101.22c3,19.89,6,39.8,9.86,59.54a670.92,670.92,0,0,0,45.33,143.28c5.09,11.43,10.5,22.73,14.9,34.43A216.22,216.22,0,0,1,488,725" transform="translate(-54.71 -91.4)" style="fill:none;stroke:#7f1416;stroke-miterlimit:10;stroke-width:3px" class="lqOJIXLu_81"></path><path d="M397.57,417.86c-1,24.74-1.9,49.73,2.65,74.07,11.87,63.34,59,114.22,80.4,175" transform="translate(-54.71 -91.4)" style="fill:none;stroke:#7f1416;stroke-miterlimit:10;stroke-width:3px" class="lqOJIXLu_82"></path><path d="M240.88,446.91c7.08,10.9,17.68,18.9,27.5,27.41s22.93,18.41,26.63,30.86" transform="translate(-54.71 -91.4)" style="fill:none;stroke:#7f1416;stroke-miterlimit:10;stroke-width:3px" class="lqOJIXLu_83"></path><path d="M219.87,434.15c13.38,36.11,48.19,61.56,59.57,98.35" transform="translate(-54.71 -91.4)" style="fill:none;stroke:#7f1416;stroke-miterlimit:10;stroke-width:3px" class="lqOJIXLu_84"></path><path d="M251.78,124.35c4.22-8.34,16-16.18,25.41-17.26s19.32,1.83,26.15,8.36a44.75,44.75,0,0,1,8.85,12.9c15.34,31.21,12.32,67.9,9,102.52" transform="translate(-54.71 -91.4)" style="fill:none;stroke:#7f1416;stroke-miterlimit:10;stroke-width:3px" class="lqOJIXLu_85"></path><path d="M180.33,190.63c-12.08,26.42-13.12,56.3-17,85.1-5.79,42.94-18.3,85.09-19.52,128.41a248,248,0,0,0,6.3,62.86c3.09,13.34,7.3,26.47,9.16,40s1.21,27.94-5,40.16" transform="translate(-54.71 -91.4)" style="fill:none;stroke:#7f1416;stroke-miterlimit:10;stroke-width:3px" class="lqOJIXLu_86"></path><path d="M172.57,299.06c2.26,37-8.63,73.45-13.51,110.23-2.1,15.82-3.07,32.1.75,47.6,4.35,17.62,14.79,33.95,14.9,52.1" transform="translate(-54.71 -91.4)" style="fill:none;stroke:#7f1416;stroke-miterlimit:10;stroke-width:3px" class="lqOJIXLu_87"></path><path d="M165.57,370.47a207,207,0,0,0,6.68,119.23" transform="translate(-54.71 -91.4)" style="fill:none;stroke:#7f1416;stroke-miterlimit:10;stroke-width:3px" class="lqOJIXLu_88"></path><path d="M166.32,395.51c-4.4,25,1.08,50.47,5.11,75.5s6.45,51.62-3.54,74.93" transform="translate(-54.71 -91.4)" style="fill:none;stroke:#7f1416;stroke-miterlimit:10;stroke-width:3px" class="lqOJIXLu_89"></path><path d="M184.07,405.64c1.65,18.14,3.31,36.36,7.53,54.08,6.16,25.83,17.75,50.74,18.21,77.29" transform="translate(-54.71 -91.4)" style="fill:none;stroke:#7f1416;stroke-miterlimit:10;stroke-width:3px" class="lqOJIXLu_90"></path><path d="M193.89,468.49c3.33,20,10.44,49.92,4.57,69.32" transform="translate(-54.71 -91.4)" style="fill:none;stroke:#7f1416;stroke-miterlimit:10;stroke-width:3px" class="lqOJIXLu_91"></path><path d="M189.79,491a92.12,92.12,0,0,1-1.66,51.3" transform="translate(-54.71 -91.4)" style="fill:none;stroke:#7f1416;stroke-miterlimit:10;stroke-width:3px" class="lqOJIXLu_92"></path><path d="M217.19,487.56a63.88,63.88,0,0,1,9.1,29.68c.32,6.48-.51,13.41-4.56,18.49" transform="translate(-54.71 -91.4)" style="fill:none;stroke:#7f1416;stroke-miterlimit:10;stroke-width:3px" class="lqOJIXLu_93"></path><path d="M193.89,322.31c1.3,19.54,2.62,39.22,7.56,58.17s13.8,37.35,28.15,50.68" transform="translate(-54.71 -91.4)" style="fill:none;stroke:#7f1416;stroke-miterlimit:10;stroke-width:3px" class="lqOJIXLu_94"></path><path d="M198.59,182.05c-8.21,20.24-16.58,41.42-14.74,63.18s13.71,42.59,9.84,64" transform="translate(-54.71 -91.4)" style="fill:none;stroke:#7f1416;stroke-miterlimit:10;stroke-width:3px" class="lqOJIXLu_95"></path><path d="M251.78,141.77c5.19-6.26,10.44-12.58,16.91-17.51S283,115.82,291.15,116a18.71,18.71,0,0,1,5.67.93c7.19,2.48,13.22,9.89,16.52,16.74" transform="translate(-54.71 -91.4)" style="fill:none;stroke:#7f1416;stroke-miterlimit:10;stroke-width:3px" class="lqOJIXLu_96"></path><path d="M263.28,136.16c5.69-5.09,12.43-9.18,19.86-10.92s15.6-1,22.14,3,10.72,11.19,13.63,20" transform="translate(-54.71 -91.4)" style="fill:none;stroke:#7f1416;stroke-miterlimit:10;stroke-width:3px" class="lqOJIXLu_97"></path><path d="M325.12,439.71,318.91,459" transform="translate(-54.71 -91.4)" style="fill:none;stroke:#7f1416;stroke-miterlimit:10;stroke-width:3px" class="lqOJIXLu_98"></path><path d="M415.12,680.5a10.14,10.14,0,0,1,.39,5.21,17.78,17.78,0,0,1-3.23,6.64A69.57,69.57,0,0,1,401,705" transform="translate(-54.71 -91.4)" style="fill:none;stroke:#7f1416;stroke-miterlimit:10;stroke-width:3px" class="lqOJIXLu_99"></path><path d="M423,683a22.35,22.35,0,0,1-6.09,17.26" transform="translate(-54.71 -91.4)" style="fill:none;stroke:#7f1416;stroke-miterlimit:10;stroke-width:3px" class="lqOJIXLu_100"></path><path d="M226.89,546.39a30.83,30.83,0,0,0-13.73,6.15" transform="translate(-54.71 -91.4)" style="fill:none;stroke:#7f1416;stroke-miterlimit:10;stroke-width:3px" class="lqOJIXLu_101"></path><path d="M223,542a76.49,76.49,0,0,0-25.19,7.25" transform="translate(-54.71 -91.4)" style="fill:none;stroke:#7f1416;stroke-miterlimit:10;stroke-width:3px" class="lqOJIXLu_102"></path><path d="M245.53,560.84l-13.72,11.67" transform="translate(-54.71 -91.4)" style="fill:none;stroke:#7f1416;stroke-miterlimit:10;stroke-width:3px" class="lqOJIXLu_103"></path><path d="M251.54,565.54a60.17,60.17,0,0,1-9.17,7.52" transform="translate(-54.71 -91.4)" style="fill:none;stroke:#7f1416;stroke-miterlimit:10;stroke-width:3px" class="lqOJIXLu_104"></path><path d="M344.35,649a30.27,30.27,0,0,1-6.66,9.34" transform="translate(-54.71 -91.4)" style="fill:none;stroke:#7f1416;stroke-miterlimit:10;stroke-width:3px" class="lqOJIXLu_105"></path><path d="M352.46,653.08a20,20,0,0,1-6.18,6.51" transform="translate(-54.71 -91.4)" style="fill:none;stroke:#7f1416;stroke-miterlimit:10;stroke-width:3px" class="lqOJIXLu_106"></path><path d="M327.62,642.32a6.18,6.18,0,0,1-3.94,4.07" transform="translate(-54.71 -91.4)" style="fill:none;stroke:#7f1416;stroke-miterlimit:10;stroke-width:3px" class="lqOJIXLu_107"></path><path d="M275,591.69,269.68,597" transform="translate(-54.71 -91.4)" style="fill:none;stroke:#7f1416;stroke-miterlimit:10;stroke-width:3px" class="lqOJIXLu_108"></path><path d="M440.31,693.67a15.54,15.54,0,0,1-.62,6.67" transform="translate(-54.71 -91.4)" style="fill:none;stroke:#7f1416;stroke-miterlimit:10;stroke-width:3px" class="lqOJIXLu_109"></path><path d="M230,262.79a2.39,2.39,0,0,0-2.33.87,3.72,3.72,0,0,0-.73,2.47,3.35,3.35,0,0,0,.46,1.67,2.8,2.8,0,0,0,3.46.93,3.33,3.33,0,0,0,1.78-3.22,4.17,4.17,0,0,0-2-3.17" transform="translate(-54.71 -91.4)" style="fill:none;stroke:#7f1416;stroke-miterlimit:10;stroke-width:3px" class="lqOJIXLu_110"></path><path d="M226.49,273.83a13.62,13.62,0,0,0,8.53-1.3" transform="translate(-54.71 -91.4)" style="fill:none;stroke:#7f1416;stroke-miterlimit:10;stroke-width:3px" class="lqOJIXLu_111"></path><path d="M224.15,152.92c-3.34-4.36-10.37-4.11-14.87-1s-7.08,8.3-9.48,13.24" transform="translate(-54.71 -91.4)" style="fill:none;stroke:#7f1416;stroke-miterlimit:10;stroke-width:3px" class="lqOJIXLu_112"></path><path d="M213,139c3.73-1.55,9-6.21,13-6.55A18.24,18.24,0,0,1,237.61,135c3.76,2.5,6.09,6.6,8.25,10.57" transform="translate(-54.71 -91.4)" style="fill:none;stroke:#7f1416;stroke-miterlimit:10;stroke-width:3px" class="lqOJIXLu_113"></path><path d="M221,130.88c10.33-8.88,20,.25,24.32,8.74" transform="translate(-54.71 -91.4)" style="fill:none;stroke:#7f1416;stroke-miterlimit:10;stroke-width:3px" class="lqOJIXLu_114"></path><path d="M248,141.65c-.68-7.58,1.59-15.22,5.43-21.78s9.2-12.12,15-17.07" transform="translate(-54.71 -91.4)" style="fill:none;stroke:#7f1416;stroke-miterlimit:10;stroke-width:3px" class="lqOJIXLu_115"></path><path d="M280.38,98.21c4.19-1.47,8.83-.48,13,1,25.25,8.56,45.4,34,51.91,59.25" transform="translate(-54.71 -91.4)" style="fill:none;stroke:#7f1416;stroke-miterlimit:10;stroke-width:3px" class="lqOJIXLu_116"></path><path d="M319.1,93.05a92.21,92.21,0,0,1,55.21,37.23" transform="translate(-54.71 -91.4)" style="fill:none;stroke:#7f1416;stroke-miterlimit:10;stroke-width:3px" class="lqOJIXLu_117"></path><path d="M478.48,457.12A1514.65,1514.65,0,0,1,516.15,786" transform="translate(-54.71 -91.4)" style="fill:none;stroke:#7f1416;stroke-miterlimit:10;stroke-width:3px" class="lqOJIXLu_118"></path><path d="M332.16,93.44c38.81,11.25,70.75,43.7,81.37,82.69" transform="translate(-54.71 -91.4)" style="fill:none;stroke:#7f1416;stroke-miterlimit:10;stroke-width:3px" class="lqOJIXLu_119"></path><path d="M318.82,134.9c24.77,58.77,24.65,123.78,29.57,186.3,2.47,31.3,6.07,62.74,14.72,93,9.23,32.32,40.5,114.44,50.42,146.62" transform="translate(-54.71 -91.4)" style="fill:none;stroke:#7f1416;stroke-miterlimit:10;stroke-width:3px" class="lqOJIXLu_120"></path><path d="M344.73,391.06c9.38,41.47,40.86,112.09,56.23,146.75" transform="translate(-54.71 -91.4)" style="fill:none;stroke:#7f1416;stroke-miterlimit:10;stroke-width:3px" class="lqOJIXLu_121"></path><path d="M321.54,190.91c-2,26-1.18,36.49,3.85,62.09,2.78,14.17,7.67,27.84,10.85,41.93,5.56,24.64,5.84,50.13,6.1,75.39" transform="translate(-54.71 -91.4)" style="fill:none;stroke:#7f1416;stroke-miterlimit:10;stroke-width:3px" class="lqOJIXLu_122"></path><path d="M227.62,265.3a2.44,2.44,0,0,1,3.68-.27" transform="translate(-54.71 -91.4)" style="fill:none;stroke:#7f1416;stroke-miterlimit:10;stroke-width:3px" class="lqOJIXLu_123"></path><path d="M309.68,263a2.58,2.58,0,0,1,5.11-.63" transform="translate(-54.71 -91.4)" style="fill:none;stroke:#7f1416;stroke-miterlimit:10;stroke-width:3px" class="lqOJIXLu_124"></path><path d="M309,262.41a1.84,1.84,0,0,0-2,1.71,3.53,3.53,0,0,0,1.19,2.68,5.79,5.79,0,0,0,4.2,1.74,4.57,4.57,0,0,0,3.83-2.31c1.14-2.15.16-4.81.6-7.2,1.33.18,2,1.7,2.18,3a7.81,7.81,0,0,1-2.17,6.33,6.57,6.57,0,0,1-6.39,1.62,8.91,8.91,0,0,1-3.08-1.88,7.53,7.53,0,0,1-2.18-2.8c-1.06-2.67.54-5.84,3-7.38a3.13,3.13,0,0,1-.54,2.93" transform="translate(-54.71 -91.4)" style="fill:none;stroke:#7f1416;stroke-miterlimit:10;stroke-width:3px" class="lqOJIXLu_125"></path><path d="M226.38,265a2.63,2.63,0,0,0-3.27,1.92,4,4,0,0,0,1.45,3.8,8.28,8.28,0,0,0,3.93,1.6c2.34.41,5.17.15,6.45-1.84a2.54,2.54,0,0,0,.38-2,1.57,1.57,0,0,0-1.57-1.16,1.43,1.43,0,0,1,.49-1.55c.93-.53,1.79.8,2.06,1.84-.9-2.24-2.37-4.43-4.61-5.32s-5.29.1-5.93,2.42l.21-3.83c0-.33-.05-.77-.38-.81a.62.62,0,0,0-.47.21,5.48,5.48,0,0,0-1.86,4,4.3,4.3,0,0,0-.1-3.83,14.54,14.54,0,0,0-1.12,7.28" transform="translate(-54.71 -91.4)" style="fill:none;stroke:#7f1416;stroke-miterlimit:10;stroke-width:3px" class="lqOJIXLu_126"></path><path d="M228,260.67l-.6-.57a3.69,3.69,0,0,0,.29,2.63,1.85,1.85,0,0,0-.19-2.17c-.6-.49-1.79.26-1.34.9" transform="translate(-54.71 -91.4)" style="fill:none;stroke:#7f1416;stroke-miterlimit:10;stroke-width:3px" class="lqOJIXLu_127"></path><path d="M306.67,260.33l-.54,1.95c1.18-1.77,2.67-3.73,4.8-3.85a6.08,6.08,0,0,1,2.15.37,24.69,24.69,0,0,1,4.08,1.69" transform="translate(-54.71 -91.4)" style="fill:none;stroke:#7f1416;stroke-miterlimit:10;stroke-width:3px" class="lqOJIXLu_128"></path></g><style data-made-with="vivus-instant">.lqOJIXLu_0{stroke-dasharray:86 88;stroke-dashoffset:87;animation:lqOJIXLu_draw 2000ms linear 0ms forwards;}.lqOJIXLu_1{stroke-dasharray:60 62;stroke-dashoffset:61;animation:lqOJIXLu_draw 2000ms linear 7ms forwards;}.lqOJIXLu_2{stroke-dasharray:34 36;stroke-dashoffset:35;animation:lqOJIXLu_draw 2000ms linear 15ms forwards;}.lqOJIXLu_3{stroke-dasharray:61 63;stroke-dashoffset:62;animation:lqOJIXLu_draw 2000ms linear 23ms forwards;}.lqOJIXLu_4{stroke-dasharray:19 21;stroke-dashoffset:20;animation:lqOJIXLu_draw 2000ms linear 31ms forwards;}.lqOJIXLu_5{stroke-dasharray:261 263;stroke-dashoffset:262;animation:lqOJIXLu_draw 2000ms linear 39ms forwards;}.lqOJIXLu_6{stroke-dasharray:276 278;stroke-dashoffset:277;animation:lqOJIXLu_draw 2000ms linear 46ms forwards;}.lqOJIXLu_7{stroke-dasharray:344 346;stroke-dashoffset:345;animation:lqOJIXLu_draw 2000ms linear 54ms forwards;}.lqOJIXLu_8{stroke-dasharray:558 560;stroke-dashoffset:559;animation:lqOJIXLu_draw 2000ms linear 62ms forwards;}.lqOJIXLu_9{stroke-dasharray:785 787;stroke-dashoffset:786;animation:lqOJIXLu_draw 2000ms linear 70ms forwards;}.lqOJIXLu_10{stroke-dasharray:293 295;stroke-dashoffset:294;animation:lqOJIXLu_draw 2000ms linear 78ms forwards;}.lqOJIXLu_11{stroke-dasharray:84 86;stroke-dashoffset:85;animation:lqOJIXLu_draw 2000ms linear 85ms forwards;}.lqOJIXLu_12{stroke-dasharray:95 97;stroke-dashoffset:96;animation:lqOJIXLu_draw 2000ms linear 93ms forwards;}.lqOJIXLu_13{stroke-dasharray:62 64;stroke-dashoffset:63;animation:lqOJIXLu_draw 2000ms linear 101ms forwards;}.lqOJIXLu_14{stroke-dasharray:22 24;stroke-dashoffset:23;animation:lqOJIXLu_draw 2000ms linear 109ms forwards;}.lqOJIXLu_15{stroke-dasharray:23 25;stroke-dashoffset:24;animation:lqOJIXLu_draw 2000ms linear 117ms forwards;}.lqOJIXLu_16{stroke-dasharray:17 19;stroke-dashoffset:18;animation:lqOJIXLu_draw 2000ms linear 125ms forwards;}.lqOJIXLu_17{stroke-dasharray:15 17;stroke-dashoffset:16;animation:lqOJIXLu_draw 2000ms linear 132ms forwards;}.lqOJIXLu_18{stroke-dasharray:54 56;stroke-dashoffset:55;animation:lqOJIXLu_draw 2000ms linear 140ms forwards;}.lqOJIXLu_19{stroke-dasharray:97 99;stroke-dashoffset:98;animation:lqOJIXLu_draw 2000ms linear 148ms forwards;}.lqOJIXLu_20{stroke-dasharray:103 105;stroke-dashoffset:104;animation:lqOJIXLu_draw 2000ms linear 156ms forwards;}.lqOJIXLu_21{stroke-dasharray:63 65;stroke-dashoffset:64;animation:lqOJIXLu_draw 2000ms linear 164ms forwards;}.lqOJIXLu_22{stroke-dasharray:30 32;stroke-dashoffset:31;animation:lqOJIXLu_draw 2000ms linear 171ms forwards;}.lqOJIXLu_23{stroke-dasharray:242 244;stroke-dashoffset:243;animation:lqOJIXLu_draw 2000ms linear 179ms forwards;}.lqOJIXLu_24{stroke-dasharray:155 157;stroke-dashoffset:156;animation:lqOJIXLu_draw 2000ms linear 187ms forwards;}.lqOJIXLu_25{stroke-dasharray:23 25;stroke-dashoffset:24;animation:lqOJIXLu_draw 2000ms linear 195ms forwards;}.lqOJIXLu_26{stroke-dasharray:28 30;stroke-dashoffset:29;animation:lqOJIXLu_draw 2000ms linear 203ms forwards;}.lqOJIXLu_27{stroke-dasharray:267 269;stroke-dashoffset:268;animation:lqOJIXLu_draw 2000ms linear 210ms forwards;}.lqOJIXLu_28{stroke-dasharray:9 11;stroke-dashoffset:10;animation:lqOJIXLu_draw 2000ms linear 218ms forwards;}.lqOJIXLu_29{stroke-dasharray:53 55;stroke-dashoffset:54;animation:lqOJIXLu_draw 2000ms linear 226ms forwards;}.lqOJIXLu_30{stroke-dasharray:119 121;stroke-dashoffset:120;animation:lqOJIXLu_draw 2000ms linear 234ms forwards;}.lqOJIXLu_31{stroke-dasharray:35 37;stroke-dashoffset:36;animation:lqOJIXLu_draw 2000ms linear 242ms forwards;}.lqOJIXLu_32{stroke-dasharray:26 28;stroke-dashoffset:27;animation:lqOJIXLu_draw 2000ms linear 250ms forwards;}.lqOJIXLu_33{stroke-dasharray:28 30;stroke-dashoffset:29;animation:lqOJIXLu_draw 2000ms linear 257ms forwards;}.lqOJIXLu_34{stroke-dasharray:33 35;stroke-dashoffset:34;animation:lqOJIXLu_draw 2000ms linear 265ms forwards;}.lqOJIXLu_35{stroke-dasharray:31 33;stroke-dashoffset:32;animation:lqOJIXLu_draw 2000ms linear 273ms forwards;}.lqOJIXLu_36{stroke-dasharray:25 27;stroke-dashoffset:26;animation:lqOJIXLu_draw 2000ms linear 281ms forwards;}.lqOJIXLu_37{stroke-dasharray:15 17;stroke-dashoffset:16;animation:lqOJIXLu_draw 2000ms linear 289ms forwards;}.lqOJIXLu_38{stroke-dasharray:31 33;stroke-dashoffset:32;animation:lqOJIXLu_draw 2000ms linear 296ms forwards;}.lqOJIXLu_39{stroke-dasharray:35 37;stroke-dashoffset:36;animation:lqOJIXLu_draw 2000ms linear 304ms forwards;}.lqOJIXLu_40{stroke-dasharray:22 24;stroke-dashoffset:23;animation:lqOJIXLu_draw 2000ms linear 312ms forwards;}.lqOJIXLu_41{stroke-dasharray:31 33;stroke-dashoffset:32;animation:lqOJIXLu_draw 2000ms linear 320ms forwards;}.lqOJIXLu_42{stroke-dasharray:6 8;stroke-dashoffset:7;animation:lqOJIXLu_draw 2000ms linear 328ms forwards;}.lqOJIXLu_43{stroke-dasharray:22 24;stroke-dashoffset:23;animation:lqOJIXLu_draw 2000ms linear 335ms forwards;}.lqOJIXLu_44{stroke-dasharray:39 41;stroke-dashoffset:40;animation:lqOJIXLu_draw 2000ms linear 343ms forwards;}.lqOJIXLu_45{stroke-dasharray:33 35;stroke-dashoffset:34;animation:lqOJIXLu_draw 2000ms linear 351ms forwards;}.lqOJIXLu_46{stroke-dasharray:41 43;stroke-dashoffset:42;animation:lqOJIXLu_draw 2000ms linear 359ms forwards;}.lqOJIXLu_47{stroke-dasharray:35 37;stroke-dashoffset:36;animation:lqOJIXLu_draw 2000ms linear 367ms forwards;}.lqOJIXLu_48{stroke-dasharray:20 22;stroke-dashoffset:21;animation:lqOJIXLu_draw 2000ms linear 375ms forwards;}.lqOJIXLu_49{stroke-dasharray:16 18;stroke-dashoffset:17;animation:lqOJIXLu_draw 2000ms linear 382ms forwards;}.lqOJIXLu_50{stroke-dasharray:15 17;stroke-dashoffset:16;animation:lqOJIXLu_draw 2000ms linear 390ms forwards;}.lqOJIXLu_51{stroke-dasharray:26 28;stroke-dashoffset:27;animation:lqOJIXLu_draw 2000ms linear 398ms forwards;}.lqOJIXLu_52{stroke-dasharray:20 22;stroke-dashoffset:21;animation:lqOJIXLu_draw 2000ms linear 406ms forwards;}.lqOJIXLu_53{stroke-dasharray:22 24;stroke-dashoffset:23;animation:lqOJIXLu_draw 2000ms linear 414ms forwards;}.lqOJIXLu_54{stroke-dasharray:26 28;stroke-dashoffset:27;animation:lqOJIXLu_draw 2000ms linear 421ms forwards;}.lqOJIXLu_55{stroke-dasharray:20 22;stroke-dashoffset:21;animation:lqOJIXLu_draw 2000ms linear 429ms forwards;}.lqOJIXLu_56{stroke-dasharray:5 7;stroke-dashoffset:6;animation:lqOJIXLu_draw 2000ms linear 437ms forwards;}.lqOJIXLu_57{stroke-dasharray:10 12;stroke-dashoffset:11;animation:lqOJIXLu_draw 2000ms linear 445ms forwards;}.lqOJIXLu_58{stroke-dasharray:10 12;stroke-dashoffset:11;animation:lqOJIXLu_draw 2000ms linear 453ms forwards;}.lqOJIXLu_59{stroke-dasharray:9 11;stroke-dashoffset:10;animation:lqOJIXLu_draw 2000ms linear 460ms forwards;}.lqOJIXLu_60{stroke-dasharray:11 13;stroke-dashoffset:12;animation:lqOJIXLu_draw 2000ms linear 468ms forwards;}.lqOJIXLu_61{stroke-dasharray:4 6;stroke-dashoffset:5;animation:lqOJIXLu_draw 2000ms linear 476ms forwards;}.lqOJIXLu_62{stroke-dasharray:2 4;stroke-dashoffset:3;animation:lqOJIXLu_draw 2000ms linear 484ms forwards;}.lqOJIXLu_63{stroke-dasharray:7 9;stroke-dashoffset:8;animation:lqOJIXLu_draw 2000ms linear 492ms forwards;}.lqOJIXLu_64{stroke-dasharray:5 7;stroke-dashoffset:6;animation:lqOJIXLu_draw 2000ms linear 500ms forwards;}.lqOJIXLu_65{stroke-dasharray:3 5;stroke-dashoffset:4;animation:lqOJIXLu_draw 2000ms linear 507ms forwards;}.lqOJIXLu_66{stroke-dasharray:50 52;stroke-dashoffset:51;animation:lqOJIXLu_draw 2000ms linear 515ms forwards;}.lqOJIXLu_67{stroke-dasharray:15 17;stroke-dashoffset:16;animation:lqOJIXLu_draw 2000ms linear 523ms forwards;}.lqOJIXLu_68{stroke-dasharray:11 13;stroke-dashoffset:12;animation:lqOJIXLu_draw 2000ms linear 531ms forwards;}.lqOJIXLu_69{stroke-dasharray:66 68;stroke-dashoffset:67;animation:lqOJIXLu_draw 2000ms linear 539ms forwards;}.lqOJIXLu_70{stroke-dasharray:17 19;stroke-dashoffset:18;animation:lqOJIXLu_draw 2000ms linear 546ms forwards;}.lqOJIXLu_71{stroke-dasharray:41 43;stroke-dashoffset:42;animation:lqOJIXLu_draw 2000ms linear 554ms forwards;}.lqOJIXLu_72{stroke-dasharray:80 82;stroke-dashoffset:81;animation:lqOJIXLu_draw 2000ms linear 562ms forwards;}.lqOJIXLu_73{stroke-dasharray:50 52;stroke-dashoffset:51;animation:lqOJIXLu_draw 2000ms linear 570ms forwards;}.lqOJIXLu_74{stroke-dasharray:109 111;stroke-dashoffset:110;animation:lqOJIXLu_draw 2000ms linear 578ms forwards;}.lqOJIXLu_75{stroke-dasharray:17 19;stroke-dashoffset:18;animation:lqOJIXLu_draw 2000ms linear 585ms forwards;}.lqOJIXLu_76{stroke-dasharray:143 145;stroke-dashoffset:144;animation:lqOJIXLu_draw 2000ms linear 593ms forwards;}.lqOJIXLu_77{stroke-dasharray:5 7;stroke-dashoffset:6;animation:lqOJIXLu_draw 2000ms linear 601ms forwards;}.lqOJIXLu_78{stroke-dasharray:8 10;stroke-dashoffset:9;animation:lqOJIXLu_draw 2000ms linear 609ms forwards;}.lqOJIXLu_79{stroke-dasharray:19 21;stroke-dashoffset:20;animation:lqOJIXLu_draw 2000ms linear 617ms forwards;}.lqOJIXLu_80{stroke-dasharray:189 191;stroke-dashoffset:190;animation:lqOJIXLu_draw 2000ms linear 625ms forwards;}.lqOJIXLu_81{stroke-dasharray:443 445;stroke-dashoffset:444;animation:lqOJIXLu_draw 2000ms linear 632ms forwards;}.lqOJIXLu_82{stroke-dasharray:268 270;stroke-dashoffset:269;animation:lqOJIXLu_draw 2000ms linear 640ms forwards;}.lqOJIXLu_83{stroke-dasharray:81 83;stroke-dashoffset:82;animation:lqOJIXLu_draw 2000ms linear 648ms forwards;}.lqOJIXLu_84{stroke-dasharray:116 118;stroke-dashoffset:117;animation:lqOJIXLu_draw 2000ms linear 656ms forwards;}.lqOJIXLu_85{stroke-dasharray:181 183;stroke-dashoffset:182;animation:lqOJIXLu_draw 2000ms linear 664ms forwards;}.lqOJIXLu_86{stroke-dasharray:363 365;stroke-dashoffset:364;animation:lqOJIXLu_draw 2000ms linear 671ms forwards;}.lqOJIXLu_87{stroke-dasharray:214 216;stroke-dashoffset:215;animation:lqOJIXLu_draw 2000ms linear 679ms forwards;}.lqOJIXLu_88{stroke-dasharray:122 124;stroke-dashoffset:123;animation:lqOJIXLu_draw 2000ms linear 687ms forwards;}.lqOJIXLu_89{stroke-dasharray:153 155;stroke-dashoffset:154;animation:lqOJIXLu_draw 2000ms linear 695ms forwards;}.lqOJIXLu_90{stroke-dasharray:135 137;stroke-dashoffset:136;animation:lqOJIXLu_draw 2000ms linear 703ms forwards;}.lqOJIXLu_91{stroke-dasharray:71 73;stroke-dashoffset:72;animation:lqOJIXLu_draw 2000ms linear 710ms forwards;}.lqOJIXLu_92{stroke-dasharray:53 55;stroke-dashoffset:54;animation:lqOJIXLu_draw 2000ms linear 718ms forwards;}.lqOJIXLu_93{stroke-dasharray:51 53;stroke-dashoffset:52;animation:lqOJIXLu_draw 2000ms linear 726ms forwards;}.lqOJIXLu_94{stroke-dasharray:118 120;stroke-dashoffset:119;animation:lqOJIXLu_draw 2000ms linear 734ms forwards;}.lqOJIXLu_95{stroke-dasharray:131 133;stroke-dashoffset:132;animation:lqOJIXLu_draw 2000ms linear 742ms forwards;}.lqOJIXLu_96{stroke-dasharray:79 81;stroke-dashoffset:80;animation:lqOJIXLu_draw 2000ms linear 750ms forwards;}.lqOJIXLu_97{stroke-dasharray:71 73;stroke-dashoffset:72;animation:lqOJIXLu_draw 2000ms linear 757ms forwards;}.lqOJIXLu_98{stroke-dasharray:21 23;stroke-dashoffset:22;animation:lqOJIXLu_draw 2000ms linear 765ms forwards;}.lqOJIXLu_99{stroke-dasharray:30 32;stroke-dashoffset:31;animation:lqOJIXLu_draw 2000ms linear 773ms forwards;}.lqOJIXLu_100{stroke-dasharray:19 21;stroke-dashoffset:20;animation:lqOJIXLu_draw 2000ms linear 781ms forwards;}.lqOJIXLu_101{stroke-dasharray:16 18;stroke-dashoffset:17;animation:lqOJIXLu_draw 2000ms linear 789ms forwards;}.lqOJIXLu_102{stroke-dasharray:27 29;stroke-dashoffset:28;animation:lqOJIXLu_draw 2000ms linear 796ms forwards;}.lqOJIXLu_103{stroke-dasharray:19 21;stroke-dashoffset:20;animation:lqOJIXLu_draw 2000ms linear 804ms forwards;}.lqOJIXLu_104{stroke-dasharray:12 14;stroke-dashoffset:13;animation:lqOJIXLu_draw 2000ms linear 812ms forwards;}.lqOJIXLu_105{stroke-dasharray:12 14;stroke-dashoffset:13;animation:lqOJIXLu_draw 2000ms linear 820ms forwards;}.lqOJIXLu_106{stroke-dasharray:10 12;stroke-dashoffset:11;animation:lqOJIXLu_draw 2000ms linear 828ms forwards;}.lqOJIXLu_107{stroke-dasharray:6 8;stroke-dashoffset:7;animation:lqOJIXLu_draw 2000ms linear 835ms forwards;}.lqOJIXLu_108{stroke-dasharray:8 10;stroke-dashoffset:9;animation:lqOJIXLu_draw 2000ms linear 843ms forwards;}.lqOJIXLu_109{stroke-dasharray:7 9;stroke-dashoffset:8;animation:lqOJIXLu_draw 2000ms linear 851ms forwards;}.lqOJIXLu_110{stroke-dasharray:19 21;stroke-dashoffset:20;animation:lqOJIXLu_draw 2000ms linear 859ms forwards;}.lqOJIXLu_111{stroke-dasharray:9 11;stroke-dashoffset:10;animation:lqOJIXLu_draw 2000ms linear 867ms forwards;}.lqOJIXLu_112{stroke-dasharray:33 35;stroke-dashoffset:34;animation:lqOJIXLu_draw 2000ms linear 875ms forwards;}.lqOJIXLu_113{stroke-dasharray:41 43;stroke-dashoffset:42;animation:lqOJIXLu_draw 2000ms linear 882ms forwards;}.lqOJIXLu_114{stroke-dasharray:31 33;stroke-dashoffset:32;animation:lqOJIXLu_draw 2000ms linear 890ms forwards;}.lqOJIXLu_115{stroke-dasharray:46 48;stroke-dashoffset:47;animation:lqOJIXLu_draw 2000ms linear 898ms forwards;}.lqOJIXLu_116{stroke-dasharray:96 98;stroke-dashoffset:97;animation:lqOJIXLu_draw 2000ms linear 906ms forwards;}.lqOJIXLu_117{stroke-dasharray:69 71;stroke-dashoffset:70;animation:lqOJIXLu_draw 2000ms linear 914ms forwards;}.lqOJIXLu_118{stroke-dasharray:332 334;stroke-dashoffset:333;animation:lqOJIXLu_draw 2000ms linear 921ms forwards;}.lqOJIXLu_119{stroke-dasharray:122 124;stroke-dashoffset:123;animation:lqOJIXLu_draw 2000ms linear 929ms forwards;}.lqOJIXLu_120{stroke-dasharray:439 441;stroke-dashoffset:440;animation:lqOJIXLu_draw 2000ms linear 937ms forwards;}.lqOJIXLu_121{stroke-dasharray:158 160;stroke-dashoffset:159;animation:lqOJIXLu_draw 2000ms linear 945ms forwards;}.lqOJIXLu_122{stroke-dasharray:182 184;stroke-dashoffset:183;animation:lqOJIXLu_draw 2000ms linear 953ms forwards;}.lqOJIXLu_123{stroke-dasharray:5 7;stroke-dashoffset:6;animation:lqOJIXLu_draw 2000ms linear 960ms forwards;}.lqOJIXLu_124{stroke-dasharray:8 10;stroke-dashoffset:9;animation:lqOJIXLu_draw 2000ms linear 968ms forwards;}.lqOJIXLu_125{stroke-dasharray:60 62;stroke-dashoffset:61;animation:lqOJIXLu_draw 2000ms linear 976ms forwards;}.lqOJIXLu_126{stroke-dasharray:65 67;stroke-dashoffset:66;animation:lqOJIXLu_draw 2000ms linear 984ms forwards;}.lqOJIXLu_127{stroke-dasharray:9 11;stroke-dashoffset:10;animation:lqOJIXLu_draw 2000ms linear 992ms forwards;}.lqOJIXLu_128{stroke-dasharray:16 18;stroke-dashoffset:17;animation:lqOJIXLu_draw 2000ms linear 1000ms forwards;}@keyframes lqOJIXLu_draw{100%{stroke-dashoffset:0;}}@keyframes lqOJIXLu_fade{0%{stroke-opacity:1;}94.44444444444444%{stroke-opacity:1;}100%{stroke-opacity:0;}}</style></svg>