<svg id="Layer_1" data-name="Layer 1" xmlns="http://www.w3.org/2000/svg" viewBox="0 0 318.66 561.8" style=""><title>dragan</title><g id="_0.55" data-name="0.55"><path d="M348.89,109.15a42.89,42.89,0,0,0,27.6,8.13,13.7,13.7,0,0,0-6.64,2.12c14.61,4.54,30.57,7.6,46.84,15" transform="translate(-142.8 -89.19)" style="fill:none;stroke:#7f1416;stroke-miterlimit:10;stroke-width:3px" class="enbnVVwa_0"></path><path d="M349.21,107.45c-15.61-4.9-32.46-1.12-48.38,2.68-8.88,2.12-17.9,4.3-25.77,8.93" transform="translate(-142.8 -89.19)" style="fill:none;stroke:#7f1416;stroke-miterlimit:10;stroke-width:3px" class="enbnVVwa_1"></path><path d="M275.21,118.28l1.7,4.59a12.9,12.9,0,0,0-6.53,1.21l3.66,4-10.16,4.74,6.11,2.39c-4.76.11-8.47,4.6-9.46,9.25s0,9.47.8,14.17A128.22,128.22,0,0,1,238,254.42" transform="translate(-142.8 -89.19)" style="fill:none;stroke:#7f1416;stroke-miterlimit:10;stroke-width:3px" class="enbnVVwa_2"></path><path d="M237,253c-2.53-9.74-9.49-16.4-19.36-18.33" transform="translate(-142.8 -89.19)" style="fill:none;stroke:#7f1416;stroke-miterlimit:10;stroke-width:3px" class="enbnVVwa_3"></path></g><g id="_0.75" data-name="0.75"><path d="M208,326l.17,47.79c0,10.49-.37,22.15-7.73,29.63" transform="translate(-142.8 -89.19)" style="fill:none;stroke:#7f1416;stroke-miterlimit:10;stroke-width:3px" class="enbnVVwa_4"></path><path d="M228.43,327.44c14,32,28.54,64.68,52.32,90.32,23.61,25.46,83.74,60.61,112.48,23.29,4.91-6.38,8.15-13.87,12.64-20.55,5.05-7.5,11.61-13.87,16.94-21.18,9.12-12.5,13.83-29,17.57-43.81,4.34-17.17,10.47-34,10.63-52,.07-7.33-.6-14.77,1.08-21.9,1.28-5.41,3.88-10.42,5.37-15.78a40.39,40.39,0,0,0,0-21.65" transform="translate(-142.8 -89.19)" style="fill:none;stroke:#7f1416;stroke-miterlimit:10;stroke-width:3px" class="enbnVVwa_5"></path><path d="M457,245c10.22-40.38-6.48-86.22-40.29-110.56" transform="translate(-142.8 -89.19)" style="fill:none;stroke:#7f1416;stroke-miterlimit:10;stroke-width:3px" class="enbnVVwa_6"></path><path d="M373.52,454.87q-11.72,43.19-27.32,85.2" transform="translate(-142.8 -89.19)" style="fill:none;stroke:#7f1416;stroke-miterlimit:10;stroke-width:3px" class="enbnVVwa_7"></path><path d="M362,498.8c5.17,10.67,1.89,23.75-4.57,33.69s-15.7,17.69-23.78,26.36a142,142,0,0,0-37.6,91" transform="translate(-142.8 -89.19)" style="fill:none;stroke:#7f1416;stroke-miterlimit:10;stroke-width:3px" class="enbnVVwa_8"></path><path d="M299.17,650.88c-1.57-19.76,10.56-39.87,28.76-47.7,11.92-5.13,27.64-6.88,32.69-18.83,1-2.45,1.49-5.15,2.83-7.45,4.86-8.34,17.13-6.72,26.28-9.8a24.1,24.1,0,0,0,15.64-17.84c1-4.94.71-10.88,4.73-13.92,3.59-2.72,8.82-1.51,12.68.82a27.47,27.47,0,0,1,12,29.8" transform="translate(-142.8 -89.19)" style="fill:none;stroke:#7f1416;stroke-miterlimit:10;stroke-width:3px" class="enbnVVwa_9"></path><path d="M434,566.06c-.21,1.19-2,.32-2.68-.7L413.7,537.17" transform="translate(-142.8 -89.19)" style="fill:none;stroke:#7f1416;stroke-miterlimit:10;stroke-width:3px" class="enbnVVwa_10"></path><path d="M379.8,452.89c25,28.49,44.06,67.11,56.17,101.72" transform="translate(-142.8 -89.19)" style="fill:none;stroke:#7f1416;stroke-miterlimit:10;stroke-width:3px" class="enbnVVwa_11"></path><path d="M306.8,596c-.88-4.81-6.41-7.23-11.28-7.64s-10,.3-14.47-1.75c-5.95-2.75-8.73-9.48-11.12-15.57-22.07-56.25-55.15-108.17-71.81-166.25-1.68-5.88-3.2-12-2.17-18.05s5.27-11.91,11.29-13" transform="translate(-142.8 -89.19)" style="fill:none;stroke:#7f1416;stroke-miterlimit:10;stroke-width:3px" class="enbnVVwa_12"></path><path d="M267,562a60.22,60.22,0,0,1,42.1,30" transform="translate(-142.8 -89.19)" style="fill:none;stroke:#7f1416;stroke-miterlimit:10;stroke-width:3px" class="enbnVVwa_13"></path><path d="M222.44,528.66c17.68,12.66,35.06,31.28,48.13,48.67" transform="translate(-142.8 -89.19)" style="fill:none;stroke:#7f1416;stroke-miterlimit:10;stroke-width:3px" class="enbnVVwa_14"></path><path d="M207,371.09c-10.28-.5-17.89,9-23.65,17.53q-14.22,21-28.45,42.07c-4.11,6.08-8.31,12.36-9.88,19.53-1.42,6.46-.6,13.18.36,19.72a506.5,506.5,0,0,0,23.29,94.61,256.77,256.77,0,0,1,53.73-35.89c5.8-2.89,12.6-5.6,18.56-3.06,4.48,1.91,7.3,6.32,9.83,10.48l15.62,25.69" transform="translate(-142.8 -89.19)" style="fill:none;stroke:#7f1416;stroke-miterlimit:10;stroke-width:3px" class="enbnVVwa_15"></path><path d="M357.19,509.33c2.66,6.51,4,12.08,2.63,19" transform="translate(-142.8 -89.19)" style="fill:none;stroke:#7f1416;stroke-miterlimit:10;stroke-width:3px" class="enbnVVwa_16"></path><path d="M237.73,129.12l-1.82-4.73,6.56.4,7.8-9.31c-.74,1.6,2,2.32,3.72,1.81,12.68-3.85,23.34-12.67,35.89-16.92,7.34-2.48,15.12-3.33,22.83-4.16l42.44-4.55c10.59-1.13,21.78-2.16,31.44,2.32l-8,4.26L404,103c1.45.27,3.12.72,3.69,2.07s-1.46,3.13-2.29,1.91a45,45,0,0,1,21.54,20.52c1.1-.38-1.14-.09-.69,1l7.2,17.29" transform="translate(-142.8 -89.19)" style="fill:none;stroke:#7f1416;stroke-miterlimit:10;stroke-width:3px" class="enbnVVwa_17"></path><path d="M220.78,240.08a21.13,21.13,0,0,0-21.77-13" transform="translate(-142.8 -89.19)" style="fill:none;stroke:#7f1416;stroke-miterlimit:10;stroke-width:3px" class="enbnVVwa_18"></path><path d="M199,227c.9-15.35,1.81-30.71,3.77-46,1.41-11,3.72-22.62,11.47-30.52,2-2.07,4.6-4.52,3.82-7.31a3.77,3.77,0,0,0,2.87-5l5,.79-.88-3.9,4.68-.25a6.44,6.44,0,0,1,8.46-4.22" transform="translate(-142.8 -89.19)" style="fill:none;stroke:#7f1416;stroke-miterlimit:10;stroke-width:3px" class="enbnVVwa_19"></path><path d="M227.29,328.51a22,22,0,0,1-22.08-4.74,43.16,43.16,0,0,1-6.74-9.3c-9.46-15.86-19.12-32.3-21.54-50.61-1.07-8.15-.58-16.78,3.24-24.07s11.48-12.91,19.7-12.65" transform="translate(-142.8 -89.19)" style="fill:none;stroke:#7f1416;stroke-miterlimit:10;stroke-width:3px" class="enbnVVwa_20"></path><path d="M327.4,350.58c3.82,3,8.9,3.78,13.71,4.54a349.61,349.61,0,0,1,63.12,16.12" transform="translate(-142.8 -89.19)" style="fill:none;stroke:#7f1416;stroke-miterlimit:10;stroke-width:3px" class="enbnVVwa_21"></path><path d="M327.22,350.63c4.27,6.07,12,8.35,19,11,9.63,3.6,18.76,8.54,28.6,11.55s20.85,3.92,30.15-.48" transform="translate(-142.8 -89.19)" style="fill:none;stroke:#7f1416;stroke-miterlimit:10;stroke-width:3px" class="enbnVVwa_22"></path><path d="M399.89,370.94a4.2,4.2,0,0,0-.35,3.05" transform="translate(-142.8 -89.19)" style="fill:none;stroke:#7f1416;stroke-miterlimit:10;stroke-width:3px" class="enbnVVwa_23"></path></g><g id="_0.4" data-name="0.4"><path d="M408.88,276.14c4.45,7.16,13,10.67,21.26,12.37,3.26.67,7.24,1.75,8,5" transform="translate(-142.8 -89.19)" style="fill:none;stroke:#7f1416;stroke-miterlimit:10" class="enbnVVwa_24"></path><path d="M356.05,265a43.71,43.71,0,0,1-41.88-2.74" transform="translate(-142.8 -89.19)" style="fill:none;stroke:#7f1416;stroke-miterlimit:10" class="enbnVVwa_25"></path><path d="M313.51,262.35a22.84,22.84,0,0,0-7,.52" transform="translate(-142.8 -89.19)" style="fill:none;stroke:#7f1416;stroke-miterlimit:10" class="enbnVVwa_26"></path></g><g id="_1" data-name="1"><path d="M336.23,243.7l-10.16.81a1.2,1.2,0,0,0-.77.24,1.16,1.16,0,0,0-.31.79,7.11,7.11,0,0,0,.79,4" transform="translate(-142.8 -89.19)" style="fill:none;stroke:#7f1416;stroke-miterlimit:10;stroke-width:2px" class="enbnVVwa_27"></path></g><g id="_0.5" data-name="0.5"><path d="M406.59,543.89a245.67,245.67,0,0,0-34.22-86.13" transform="translate(-142.8 -89.19)" style="fill:none;stroke:#7f1416;stroke-miterlimit:10;stroke-width:2px" class="enbnVVwa_28"></path><path d="M364.51,517.25c-1.44,7.32,6.12,17.47,9.8,24,4.42,7.83,5.75,17,7,25.88" transform="translate(-142.8 -89.19)" style="fill:none;stroke:#7f1416;stroke-miterlimit:10;stroke-width:2px" class="enbnVVwa_29"></path><path d="M227.24,252.52c3.36,4.63,1.23,11.12-1.43,16.18s-5.84,10.67-4.21,16.15c.79,2.62,2.6,4.8,3.87,7.22s1.94,5.53.43,7.81" transform="translate(-142.8 -89.19)" style="fill:none;stroke:#7f1416;stroke-miterlimit:10;stroke-width:2px" class="enbnVVwa_30"></path><path d="M227.38,306.36a11.63,11.63,0,0,1-6,2.16,26.6,26.6,0,0,1-29.49-30.26c-.73,4.35,1.69,8.6,4.51,12,7.32,8.77,19.61,15,31,16.12" transform="translate(-142.8 -89.19)" style="fill:none;stroke:#7f1416;stroke-miterlimit:10;stroke-width:2px" class="enbnVVwa_31"></path><path d="M216.43,264.69c2.63,1.85,2.92,5.83,1.51,8.72s-4.07,4.93-6.63,6.87l-6.72,5.07a13.67,13.67,0,0,1-.84-12.77c1.85-4.05,8.28-7.24,12.68-7.89" transform="translate(-142.8 -89.19)" style="fill:none;stroke:#7f1416;stroke-miterlimit:10;stroke-width:2px" class="enbnVVwa_32"></path><path d="M216.34,254.77c-2.9-3.8-4.46-8.44-7-12.49s-6.61-7.73-11.38-7.6c-3.87.11-7.3,2.77-9.35,6s-3,7.12-3.82,10.89c-1.06,4.74-1.9,10.22,1.12,14-.09-4.17-.16-8.47,1.41-12.33s5.21-7.21,9.38-7.06a15.55,15.55,0,0,1,5.71,1.73l12.7,5.76" transform="translate(-142.8 -89.19)" style="fill:none;stroke:#7f1416;stroke-miterlimit:10;stroke-width:2px" class="enbnVVwa_33"></path><path d="M359.82,460a33.22,33.22,0,0,1-6.63,16.16" transform="translate(-142.8 -89.19)" style="fill:none;stroke:#7f1416;stroke-miterlimit:10;stroke-width:2px" class="enbnVVwa_34"></path><path d="M423.81,354.84c3.54,10.77-3.67,21.83-10.5,30.88" transform="translate(-142.8 -89.19)" style="fill:none;stroke:#7f1416;stroke-miterlimit:10;stroke-width:2px" class="enbnVVwa_35"></path><path d="M403.62,377c.06,4.73-4,8.55-8.39,10.4-6.84,2.92-14.76,2.52-21.81.16s-13.34-6.54-19.23-11.08c-8.25-6.37-16.7-16.78-24.16-24.07" transform="translate(-142.8 -89.19)" style="fill:none;stroke:#7f1416;stroke-miterlimit:10;stroke-width:2px" class="enbnVVwa_36"></path><path d="M330,352.4l28.25-2c5.44-.39,11.17-.73,16.09,1.61,4.07,1.94,7.39,5.63,11.85,6.31,2.91.45,5.87-.48,8.8-.18,3.91.39,7.25,2.9,10.29,5.4a11.72,11.72,0,0,1,3.31,3.64,4.16,4.16,0,0,1-.41,4.64c-1.15,1.18-3.55,1-4.11-.58" transform="translate(-142.8 -89.19)" style="fill:none;stroke:#7f1416;stroke-miterlimit:10;stroke-width:2px" class="enbnVVwa_37"></path><path d="M390.07,323.41a19.12,19.12,0,0,0-10.93-4,56.23,56.23,0,0,0-11.79.75c2.19,2.63,6,3.12,9.45,2.79s6.8-1.29,10.19-.83" transform="translate(-142.8 -89.19)" style="fill:none;stroke:#7f1416;stroke-miterlimit:10;stroke-width:2px" class="enbnVVwa_38"></path><path d="M379,331.07c-9.42-1.77-17.89-6.58-22.34-15.07" transform="translate(-142.8 -89.19)" style="fill:none;stroke:#7f1416;stroke-miterlimit:10;stroke-width:2px" class="enbnVVwa_39"></path><path d="M403.14,256.56c1.61,12.44,3.86,23.26,6.4,34.89a29.81,29.81,0,0,0,2.26,7.31c.95,1.85,2.28,3.49,3.26,5.32,2.66,5,1,13.75-2.49,18.06-3.86,4.79-11.39,7.07-17.3,6.24" transform="translate(-142.8 -89.19)" style="fill:none;stroke:#7f1416;stroke-miterlimit:10;stroke-width:2px" class="enbnVVwa_40"></path><path d="M403.49,257.83a10.57,10.57,0,0,1-.57-5.57c.9-3.39,4.72-4.95,8.06-6l6-1.92" transform="translate(-142.8 -89.19)" style="fill:none;stroke:#7f1416;stroke-miterlimit:10;stroke-width:2px" class="enbnVVwa_41"></path><path d="M456.54,252.76a26,26,0,0,1-6.53.13,4,4,0,0,0,1-3l-11.9,1.42,2.39-1.35a66.76,66.76,0,0,1-18.16-1.51,2.14,2.14,0,0,1-1-.41,1.91,1.91,0,0,1-.33-1.89c1.07-4.46,6.17-6.64,10.74-7.1a60.34,60.34,0,0,1,13,.56c4.63.54,9.84,1.42,12.43,5.29" transform="translate(-142.8 -89.19)" style="fill:none;stroke:#7f1416;stroke-miterlimit:10;stroke-width:2px" class="enbnVVwa_42"></path><path d="M304.49,246.92c6.77-1.87,11.68-8,18.43-10a32.25,32.25,0,0,1,8.56-.85c8.52-.08,18.22.34,23.77,6.81,4.06,4.73,5.25,12.11,10.81,14.93" transform="translate(-142.8 -89.19)" style="fill:none;stroke:#7f1416;stroke-miterlimit:10;stroke-width:2px" class="enbnVVwa_43"></path><path d="M410.69,267.77c4.39-5.52,12.74-6.7,19.32-4.18s11.62,8,15.39,14" transform="translate(-142.8 -89.19)" style="fill:none;stroke:#7f1416;stroke-miterlimit:10;stroke-width:2px" class="enbnVVwa_44"></path><path d="M445,277.75a50.87,50.87,0,0,1-34.58-7.15,2.59,2.59,0,0,1-1.25-1.32c-.17-.6.35-1.38.95-1.21" transform="translate(-142.8 -89.19)" style="fill:none;stroke:#7f1416;stroke-miterlimit:10;stroke-width:2px" class="enbnVVwa_45"></path><path d="M425.29,262.48a7.18,7.18,0,0,1-2.54,13.66" transform="translate(-142.8 -89.19)" style="fill:none;stroke:#7f1416;stroke-miterlimit:10;stroke-width:2px" class="enbnVVwa_46"></path><path d="M407.33,262.58c1.75-4.46,7.35-5.85,12.14-6,5.57-.14,11.29.64,16.23,3.24s9,7.18,10.09,12.65" transform="translate(-142.8 -89.19)" style="fill:none;stroke:#7f1416;stroke-miterlimit:10;stroke-width:2px" class="enbnVVwa_47"></path><path d="M441,278.53a11.36,11.36,0,0,1,5.67,9" transform="translate(-142.8 -89.19)" style="fill:none;stroke:#7f1416;stroke-miterlimit:10;stroke-width:2px" class="enbnVVwa_48"></path><path d="M310.55,246.94c-5.52,2.87-13,4.06-16.05,3" transform="translate(-142.8 -89.19)" style="fill:none;stroke:#7f1416;stroke-miterlimit:10;stroke-width:2px" class="enbnVVwa_49"></path><path d="M418.26,267a1.64,1.64,0,1,0,1.32-1.66c-1.28.25-1.6,2.39-.42,2.93s2.58-1.27,1.68-2.22c-.74-.48-1.79.68-1.24,1.37" transform="translate(-142.8 -89.19)" style="fill:none;stroke:#7f1416;stroke-miterlimit:10;stroke-width:2px" class="enbnVVwa_50"></path><path d="M359.08,258.67c-6.89-2.94-9.55-12-16.43-15a21.68,21.68,0,0,0-6-1.31,41.53,41.53,0,0,0-11.78-.13,46,46,0,0,0-7.5,2.21l-7.71,2.77" transform="translate(-142.8 -89.19)" style="fill:none;stroke:#7f1416;stroke-miterlimit:10;stroke-width:2px" class="enbnVVwa_51"></path><path d="M309.69,247.65a79.87,79.87,0,0,0,39.62,10.7,47.34,47.34,0,0,1,9.53.48" transform="translate(-142.8 -89.19)" style="fill:none;stroke:#7f1416;stroke-miterlimit:10;stroke-width:2px" class="enbnVVwa_52"></path><path d="M323.84,243.82a8.38,8.38,0,0,0,1.2,7.35,9.52,9.52,0,0,0,6.47,3.82,9,9,0,0,0,3.14-.11,8.15,8.15,0,0,0,6-10.53" transform="translate(-142.8 -89.19)" style="fill:none;stroke:#7f1416;stroke-miterlimit:10;stroke-width:2px" class="enbnVVwa_53"></path><path d="M332.29,245.57A1,1,0,0,0,331,246a1.56,1.56,0,0,0,0,1.48,1.8,1.8,0,0,0,1.25.93,1.29,1.29,0,0,0,1.34-.7,1.44,1.44,0,0,0,.11-.71,1.65,1.65,0,0,0-1.41-1.53,1.15,1.15,0,0,0-1.14,1.5" transform="translate(-142.8 -89.19)" style="fill:none;stroke:#7f1416;stroke-miterlimit:10;stroke-width:2px" class="enbnVVwa_54"></path><path d="M351.77,252.68a4.4,4.4,0,0,1-2.43,5" transform="translate(-142.8 -89.19)" style="fill:none;stroke:#7f1416;stroke-miterlimit:10;stroke-width:2px" class="enbnVVwa_55"></path><path d="M372.79,235.47c-.45-3.39-.93-6.85-2.47-9.9s-4.4-5.66-7.81-6l1.08,1.74a24.26,24.26,0,0,0-16.28-3.07,12.21,12.21,0,0,0-11-3.36l2.44,1.66a24.63,24.63,0,0,0-12-.38l3.07-1.54a42.36,42.36,0,0,0-14.18,3.87" transform="translate(-142.8 -89.19)" style="fill:none;stroke:#7f1416;stroke-miterlimit:10;stroke-width:2px" class="enbnVVwa_56"></path><path d="M294.54,242.4c4.47-1.39,8.11-4.58,11.9-7.33a71.63,71.63,0,0,1,9-5.56c5.52-2.85,12.27-4.93,17.79-2.09l.57-2.17,22.75,5.58-.86-2.21,6,3a.93.93,0,0,0-.43-1.22,32.72,32.72,0,0,1,10.41,4.95" transform="translate(-142.8 -89.19)" style="fill:none;stroke:#7f1416;stroke-miterlimit:10;stroke-width:2px" class="enbnVVwa_57"></path><path d="M294.86,242.29c-.48-2.08.35-4.23,1.33-6.13,4.34-8.47,13.62-15.67,22.55-18.95" transform="translate(-142.8 -89.19)" style="fill:none;stroke:#7f1416;stroke-miterlimit:10;stroke-width:2px" class="enbnVVwa_58"></path><path d="M439.79,271a6.09,6.09,0,0,1-3.79,7.27" transform="translate(-142.8 -89.19)" style="fill:none;stroke:#7f1416;stroke-miterlimit:10;stroke-width:2px" class="enbnVVwa_59"></path><path d="M334.4,245.6c-2.58-1.72-6.71.22-7,3.31s3.46,5.77,6.27,4.45c3-1.42,3.09-6.47.21-8.17s-7.1.45-7.68,3.74a16.86,16.86,0,0,0-.75-3.79l.35,1.49.76-2,.93,1.09,2.69-2,.83,1.42a2.51,2.51,0,0,0,.6-1.54l.88,1.86a13.89,13.89,0,0,1,3.45-.56l.18,2,1.05-2.15a6.71,6.71,0,0,1,.42,2.59l1.45-2.69-.13,4.43a2.15,2.15,0,0,1,.24-1.55A7.21,7.21,0,0,1,337,253" transform="translate(-142.8 -89.19)" style="fill:none;stroke:#7f1416;stroke-miterlimit:10;stroke-width:2px" class="enbnVVwa_60"></path><path d="M415.94,264.17a4.51,4.51,0,0,0-1.56,4.15,6.91,6.91,0,0,0,12.79,2.85c.74-1.23,1-2.93.1-4a4.24,4.24,0,0,0-2.12-1.12,21.6,21.6,0,0,0-8.08-.64,3.14,3.14,0,0,1,2.55,0c2.45.68,5.32,1.78,5.84,4.27a4,4,0,0,1-3.85,4.48A4.94,4.94,0,0,1,417,270a4,4,0,0,1,1.22-3.74,4.72,4.72,0,0,1-2.42,1.08,9.59,9.59,0,0,1,10-2.58" transform="translate(-142.8 -89.19)" style="fill:none;stroke:#7f1416;stroke-miterlimit:10;stroke-width:2px" class="enbnVVwa_61"></path><path d="M416,268a3.59,3.59,0,0,0,.35,2" transform="translate(-142.8 -89.19)" style="fill:none;stroke:#7f1416;stroke-miterlimit:10;stroke-width:2px" class="enbnVVwa_62"></path><path d="M417.76,267.38a3.91,3.91,0,1,0,7.19,0" transform="translate(-142.8 -89.19)" style="fill:none;stroke:#7f1416;stroke-miterlimit:10;stroke-width:2px" class="enbnVVwa_63"></path><path d="M355.61,307a14,14,0,0,0,3.06,12.3" transform="translate(-142.8 -89.19)" style="fill:none;stroke:#7f1416;stroke-miterlimit:10;stroke-width:2px" class="enbnVVwa_64"></path></g><g id="_0.25" data-name="0.25"><path d="M360.92,296.1c-6.32,2.09-10.9,7.47-15.14,12.6-6.84,8.29-13,13.5-21.92,19.56a30.83,30.83,0,0,0-6.6,5.42" transform="translate(-142.8 -89.19)" style="fill:none;stroke:#7f1416;stroke-miterlimit:10;stroke-width:0.75px" class="enbnVVwa_65"></path><path d="M426.08,235.07a40.77,40.77,0,0,0,7.8-12.62" transform="translate(-142.8 -89.19)" style="fill:none;stroke:#7f1416;stroke-miterlimit:10;stroke-width:0.75px" class="enbnVVwa_66"></path><path d="M391.76,171.41a110.24,110.24,0,0,1,6.46,39.09" transform="translate(-142.8 -89.19)" style="fill:none;stroke:#7f1416;stroke-miterlimit:10;stroke-width:0.75px" class="enbnVVwa_67"></path><path d="M384.91,365c-1.87-.3-6,1.34-7.44,2.6a29.75,29.75,0,0,0-7.21-4.22,10,10,0,0,0-8.13.27,10.75,10.75,0,0,0-5.23-4.48c-2.21-.74-5-.15-6.24,1.82a26,26,0,0,0-10.48-5.35c-1.54-.38-3.39-.53-4.5.61" transform="translate(-142.8 -89.19)" style="fill:none;stroke:#7f1416;stroke-miterlimit:10;stroke-width:0.75px" class="enbnVVwa_68"></path><path d="M388.51,241.51a47.5,47.5,0,0,0,8.07-8.45" transform="translate(-142.8 -89.19)" style="fill:none;stroke:#7f1416;stroke-miterlimit:10;stroke-width:0.75px" class="enbnVVwa_69"></path><path d="M360,370.37c1.47-1.42,3.95-1,5.67.08s3,2.76,4.7,3.92a.77.77,0,0,0,.55.2c.26,0,.42-.29.59-.5a2.79,2.79,0,0,1,3.61-.23,7.84,7.84,0,0,1,2.35,3.13l.58-1.24" transform="translate(-142.8 -89.19)" style="fill:none;stroke:#7f1416;stroke-miterlimit:10;stroke-width:0.75px" class="enbnVVwa_70"></path><path d="M346.67,363.61c1.46.23,2.2,2.17,3.67,2.32a5.86,5.86,0,0,0,2.1-.53,5.31,5.31,0,0,1,4.72,1.28,15.65,15.65,0,0,1,3.1,4" transform="translate(-142.8 -89.19)" style="fill:none;stroke:#7f1416;stroke-miterlimit:10;stroke-width:0.75px" class="enbnVVwa_71"></path><path d="M387,365.59a70.7,70.7,0,0,0,13.94,3.6" transform="translate(-142.8 -89.19)" style="fill:none;stroke:#7f1416;stroke-miterlimit:10;stroke-width:0.75px" class="enbnVVwa_72"></path><path d="M374.32,362.74a21.17,21.17,0,0,0,10.92-1.15,2.48,2.48,0,0,1-.24,1.75,5.26,5.26,0,0,0,5.36,1.05,1.46,1.46,0,0,0-.31,2,3.42,3.42,0,0,0,1.8,1.25,11.63,11.63,0,0,0,4.82.73" transform="translate(-142.8 -89.19)" style="fill:none;stroke:#7f1416;stroke-miterlimit:10;stroke-width:0.75px" class="enbnVVwa_73"></path><path d="M377.66,377.3a4,4,0,0,1,7.18-.2c.18.34.41.77.79.73a1,1,0,0,0,.42-.2,6,6,0,0,1,7.36.58" transform="translate(-142.8 -89.19)" style="fill:none;stroke:#7f1416;stroke-miterlimit:10;stroke-width:0.75px" class="enbnVVwa_74"></path><path d="M400,376c-.68-.25-1,.83-1.36,1.43a2,2,0,0,1-2.26.55,5.66,5.66,0,0,1-2-1.5,7.31,7.31,0,0,1-.31,1.86l-1.34-1.3,4.75-.74c.36-.05.8.5.43.47" transform="translate(-142.8 -89.19)" style="fill:none;stroke:#7f1416;stroke-miterlimit:10;stroke-width:0.75px" class="enbnVVwa_75"></path><path d="M396.64,377.32a.4.4,0,0,0,.68.26c.31-.11,0-.71-.27-.51" transform="translate(-142.8 -89.19)" style="fill:none;stroke:#7f1416;stroke-miterlimit:10;stroke-width:0.75px" class="enbnVVwa_76"></path><path d="M336.88,249.15a.76.76,0,0,1-1.42.14c-.17-.65.92-1.16,1.3-.6l.64,1.73a2.06,2.06,0,0,0,.88-.71.73.73,0,0,0-.2-1c-.35-.17-.82.31-.57.6-1-.94-.87-3.08-2.25-3.3-1-.17-1.76,1.05-2.78,1.28a1.4,1.4,0,0,0-1.43-.95,2.33,2.33,0,0,0,1.42,1.29" transform="translate(-142.8 -89.19)" style="fill:none;stroke:#7f1416;stroke-miterlimit:10;stroke-width:0.75px" class="enbnVVwa_77"></path><path d="M385.77,256.87a206.1,206.1,0,0,1,5.48,38.53" transform="translate(-142.8 -89.19)" style="fill:none;stroke:#7f1416;stroke-miterlimit:10;stroke-width:0.75px" class="enbnVVwa_78"></path><path d="M317.26,333.68c-2.48,2.58-4.48,7.83-4.63,11.41s.89,6.86,1.06,10.31a18.29,18.29,0,0,1-.36,4.77" transform="translate(-142.8 -89.19)" style="fill:none;stroke:#7f1416;stroke-miterlimit:10;stroke-width:0.75px" class="enbnVVwa_79"></path></g><style data-made-with="vivus-instant">.enbnVVwa_0{stroke-dasharray:86 88;stroke-dashoffset:87;animation:enbnVVwa_draw 2000ms linear 0ms forwards;}.enbnVVwa_1{stroke-dasharray:77 79;stroke-dashoffset:78;animation:enbnVVwa_draw 2000ms linear 12ms forwards;}.enbnVVwa_2{stroke-dasharray:165 167;stroke-dashoffset:166;animation:enbnVVwa_draw 2000ms linear 25ms forwards;}.enbnVVwa_3{stroke-dasharray:29 31;stroke-dashoffset:30;animation:enbnVVwa_draw 2000ms linear 37ms forwards;}.enbnVVwa_4{stroke-dasharray:80 82;stroke-dashoffset:81;animation:enbnVVwa_draw 2000ms linear 50ms forwards;}.enbnVVwa_5{stroke-dasharray:447 449;stroke-dashoffset:448;animation:enbnVVwa_draw 2000ms linear 63ms forwards;}.enbnVVwa_6{stroke-dasharray:125 127;stroke-dashoffset:126;animation:enbnVVwa_draw 2000ms linear 75ms forwards;}.enbnVVwa_7{stroke-dasharray:90 92;stroke-dashoffset:91;animation:enbnVVwa_draw 2000ms linear 88ms forwards;}.enbnVVwa_8{stroke-dasharray:172 174;stroke-dashoffset:173;animation:enbnVVwa_draw 2000ms linear 101ms forwards;}.enbnVVwa_9{stroke-dasharray:223 225;stroke-dashoffset:224;animation:enbnVVwa_draw 2000ms linear 113ms forwards;}.enbnVVwa_10{stroke-dasharray:37 39;stroke-dashoffset:38;animation:enbnVVwa_draw 2000ms linear 126ms forwards;}.enbnVVwa_11{stroke-dasharray:117 119;stroke-dashoffset:118;animation:enbnVVwa_draw 2000ms linear 139ms forwards;}.enbnVVwa_12{stroke-dasharray:267 269;stroke-dashoffset:268;animation:enbnVVwa_draw 2000ms linear 151ms forwards;}.enbnVVwa_13{stroke-dasharray:54 56;stroke-dashoffset:55;animation:enbnVVwa_draw 2000ms linear 164ms forwards;}.enbnVVwa_14{stroke-dasharray:69 71;stroke-dashoffset:70;animation:enbnVVwa_draw 2000ms linear 177ms forwards;}.enbnVVwa_15{stroke-dasharray:350 352;stroke-dashoffset:351;animation:enbnVVwa_draw 2000ms linear 189ms forwards;}.enbnVVwa_16{stroke-dasharray:20 22;stroke-dashoffset:21;animation:enbnVVwa_draw 2000ms linear 202ms forwards;}.enbnVVwa_17{stroke-dasharray:262 264;stroke-dashoffset:263;animation:enbnVVwa_draw 2000ms linear 215ms forwards;}.enbnVVwa_18{stroke-dasharray:28 30;stroke-dashoffset:29;animation:enbnVVwa_draw 2000ms linear 227ms forwards;}.enbnVVwa_19{stroke-dasharray:119 121;stroke-dashoffset:120;animation:enbnVVwa_draw 2000ms linear 240ms forwards;}.enbnVVwa_20{stroke-dasharray:140 142;stroke-dashoffset:141;animation:enbnVVwa_draw 2000ms linear 253ms forwards;}.enbnVVwa_21{stroke-dasharray:80 82;stroke-dashoffset:81;animation:enbnVVwa_draw 2000ms linear 265ms forwards;}.enbnVVwa_22{stroke-dasharray:85 87;stroke-dashoffset:86;animation:enbnVVwa_draw 2000ms linear 278ms forwards;}.enbnVVwa_23{stroke-dasharray:4 6;stroke-dashoffset:5;animation:enbnVVwa_draw 2000ms linear 291ms forwards;}.enbnVVwa_24{stroke-dasharray:36 38;stroke-dashoffset:37;animation:enbnVVwa_draw 2000ms linear 303ms forwards;}.enbnVVwa_25{stroke-dasharray:44 46;stroke-dashoffset:45;animation:enbnVVwa_draw 2000ms linear 316ms forwards;}.enbnVVwa_26{stroke-dasharray:8 10;stroke-dashoffset:9;animation:enbnVVwa_draw 2000ms linear 329ms forwards;}.enbnVVwa_27{stroke-dasharray:17 19;stroke-dashoffset:18;animation:enbnVVwa_draw 2000ms linear 341ms forwards;}.enbnVVwa_28{stroke-dasharray:94 96;stroke-dashoffset:95;animation:enbnVVwa_draw 2000ms linear 354ms forwards;}.enbnVVwa_29{stroke-dasharray:54 56;stroke-dashoffset:55;animation:enbnVVwa_draw 2000ms linear 367ms forwards;}.enbnVVwa_30{stroke-dasharray:51 53;stroke-dashoffset:52;animation:enbnVVwa_draw 2000ms linear 379ms forwards;}.enbnVVwa_31{stroke-dasharray:105 107;stroke-dashoffset:106;animation:enbnVVwa_draw 2000ms linear 392ms forwards;}.enbnVVwa_32{stroke-dasharray:57 59;stroke-dashoffset:58;animation:enbnVVwa_draw 2000ms linear 405ms forwards;}.enbnVVwa_33{stroke-dasharray:112 114;stroke-dashoffset:113;animation:enbnVVwa_draw 2000ms linear 417ms forwards;}.enbnVVwa_34{stroke-dasharray:18 20;stroke-dashoffset:19;animation:enbnVVwa_draw 2000ms linear 430ms forwards;}.enbnVVwa_35{stroke-dasharray:34 36;stroke-dashoffset:35;animation:enbnVVwa_draw 2000ms linear 443ms forwards;}.enbnVVwa_36{stroke-dasharray:93 95;stroke-dashoffset:94;animation:enbnVVwa_draw 2000ms linear 455ms forwards;}.enbnVVwa_37{stroke-dasharray:94 96;stroke-dashoffset:95;animation:enbnVVwa_draw 2000ms linear 468ms forwards;}.enbnVVwa_38{stroke-dasharray:45 47;stroke-dashoffset:46;animation:enbnVVwa_draw 2000ms linear 481ms forwards;}.enbnVVwa_39{stroke-dasharray:28 30;stroke-dashoffset:29;animation:enbnVVwa_draw 2000ms linear 493ms forwards;}.enbnVVwa_40{stroke-dasharray:88 90;stroke-dashoffset:89;animation:enbnVVwa_draw 2000ms linear 506ms forwards;}.enbnVVwa_41{stroke-dasharray:23 25;stroke-dashoffset:24;animation:enbnVVwa_draw 2000ms linear 518ms forwards;}.enbnVVwa_42{stroke-dasharray:87 89;stroke-dashoffset:88;animation:enbnVVwa_draw 2000ms linear 531ms forwards;}.enbnVVwa_43{stroke-dasharray:74 76;stroke-dashoffset:75;animation:enbnVVwa_draw 2000ms linear 544ms forwards;}.enbnVVwa_44{stroke-dasharray:43 45;stroke-dashoffset:44;animation:enbnVVwa_draw 2000ms linear 556ms forwards;}.enbnVVwa_45{stroke-dasharray:40 42;stroke-dashoffset:41;animation:enbnVVwa_draw 2000ms linear 569ms forwards;}.enbnVVwa_46{stroke-dasharray:19 21;stroke-dashoffset:20;animation:enbnVVwa_draw 2000ms linear 582ms forwards;}.enbnVVwa_47{stroke-dasharray:48 50;stroke-dashoffset:49;animation:enbnVVwa_draw 2000ms linear 594ms forwards;}.enbnVVwa_48{stroke-dasharray:12 14;stroke-dashoffset:13;animation:enbnVVwa_draw 2000ms linear 607ms forwards;}.enbnVVwa_49{stroke-dasharray:17 19;stroke-dashoffset:18;animation:enbnVVwa_draw 2000ms linear 620ms forwards;}.enbnVVwa_50{stroke-dasharray:18 20;stroke-dashoffset:19;animation:enbnVVwa_draw 2000ms linear 632ms forwards;}.enbnVVwa_51{stroke-dasharray:57 59;stroke-dashoffset:58;animation:enbnVVwa_draw 2000ms linear 645ms forwards;}.enbnVVwa_52{stroke-dasharray:52 54;stroke-dashoffset:53;animation:enbnVVwa_draw 2000ms linear 658ms forwards;}.enbnVVwa_53{stroke-dasharray:33 35;stroke-dashoffset:34;animation:enbnVVwa_draw 2000ms linear 670ms forwards;}.enbnVVwa_54{stroke-dasharray:12 14;stroke-dashoffset:13;animation:enbnVVwa_draw 2000ms linear 683ms forwards;}.enbnVVwa_55{stroke-dasharray:7 9;stroke-dashoffset:8;animation:enbnVVwa_draw 2000ms linear 696ms forwards;}.enbnVVwa_56{stroke-dasharray:85 87;stroke-dashoffset:86;animation:enbnVVwa_draw 2000ms linear 708ms forwards;}.enbnVVwa_57{stroke-dasharray:92 94;stroke-dashoffset:93;animation:enbnVVwa_draw 2000ms linear 721ms forwards;}.enbnVVwa_58{stroke-dasharray:37 39;stroke-dashoffset:38;animation:enbnVVwa_draw 2000ms linear 734ms forwards;}.enbnVVwa_59{stroke-dasharray:9 11;stroke-dashoffset:10;animation:enbnVVwa_draw 2000ms linear 746ms forwards;}.enbnVVwa_60{stroke-dasharray:82 84;stroke-dashoffset:83;animation:enbnVVwa_draw 2000ms linear 759ms forwards;}.enbnVVwa_61{stroke-dasharray:79 81;stroke-dashoffset:80;animation:enbnVVwa_draw 2000ms linear 772ms forwards;}.enbnVVwa_62{stroke-dasharray:3 5;stroke-dashoffset:4;animation:enbnVVwa_draw 2000ms linear 784ms forwards;}.enbnVVwa_63{stroke-dasharray:16 18;stroke-dashoffset:17;animation:enbnVVwa_draw 2000ms linear 797ms forwards;}.enbnVVwa_64{stroke-dasharray:14 16;stroke-dashoffset:15;animation:enbnVVwa_draw 2000ms linear 810ms forwards;}.enbnVVwa_65{stroke-dasharray:59 61;stroke-dashoffset:60;animation:enbnVVwa_draw 2000ms linear 822ms forwards;}.enbnVVwa_66{stroke-dasharray:15 17;stroke-dashoffset:16;animation:enbnVVwa_draw 2000ms linear 835ms forwards;}.enbnVVwa_67{stroke-dasharray:40 42;stroke-dashoffset:41;animation:enbnVVwa_draw 2000ms linear 848ms forwards;}.enbnVVwa_68{stroke-dasharray:56 58;stroke-dashoffset:57;animation:enbnVVwa_draw 2000ms linear 860ms forwards;}.enbnVVwa_69{stroke-dasharray:12 14;stroke-dashoffset:13;animation:enbnVVwa_draw 2000ms linear 873ms forwards;}.enbnVVwa_70{stroke-dasharray:23 25;stroke-dashoffset:24;animation:enbnVVwa_draw 2000ms linear 886ms forwards;}.enbnVVwa_71{stroke-dasharray:17 19;stroke-dashoffset:18;animation:enbnVVwa_draw 2000ms linear 898ms forwards;}.enbnVVwa_72{stroke-dasharray:15 17;stroke-dashoffset:16;animation:enbnVVwa_draw 2000ms linear 911ms forwards;}.enbnVVwa_73{stroke-dasharray:29 31;stroke-dashoffset:30;animation:enbnVVwa_draw 2000ms linear 924ms forwards;}.enbnVVwa_74{stroke-dasharray:19 21;stroke-dashoffset:20;animation:enbnVVwa_draw 2000ms linear 936ms forwards;}.enbnVVwa_75{stroke-dasharray:17 19;stroke-dashoffset:18;animation:enbnVVwa_draw 2000ms linear 949ms forwards;}.enbnVVwa_76{stroke-dasharray:2 4;stroke-dashoffset:3;animation:enbnVVwa_draw 2000ms linear 962ms forwards;}.enbnVVwa_77{stroke-dasharray:21 23;stroke-dashoffset:22;animation:enbnVVwa_draw 2000ms linear 974ms forwards;}.enbnVVwa_78{stroke-dasharray:39 41;stroke-dashoffset:40;animation:enbnVVwa_draw 2000ms linear 987ms forwards;}.enbnVVwa_79{stroke-dasharray:28 30;stroke-dashoffset:29;animation:enbnVVwa_draw 2000ms linear 1000ms forwards;}@keyframes enbnVVwa_draw{100%{stroke-dashoffset:0;}}@keyframes enbnVVwa_fade{0%{stroke-opacity:1;}94.44444444444444%{stroke-opacity:1;}100%{stroke-opacity:0;}}</style></svg>