<svg id="Layer_1" data-name="Layer 1" xmlns="http://www.w3.org/2000/svg" viewBox="0 0 358.16 594.98" style=""><title>hristijan</title><g id="_0.55" data-name="0.55"><path d="M267.13,141.72c-8.78.44-13,4.55-19.86,10.05a87.9,87.9,0,0,0-28.1,40.2,23.67,23.67,0,0,1,5.66-8,146.5,146.5,0,0,0-6.57,27,4.33,4.33,0,0,1,3.56-2.82c-11.95,28.58-2,61.11-9.09,86.06" transform="translate(-139.33 -84.59)" style="fill:none;stroke:#7f1416;stroke-miterlimit:10;stroke-width:2px" class="fAUbbkuZ_0"></path><path d="M213.27,290a60.16,60.16,0,0,0-11.84-25.89" transform="translate(-139.33 -84.59)" style="fill:none;stroke:#7f1416;stroke-miterlimit:10;stroke-width:2px" class="fAUbbkuZ_1"></path><path d="M430.41,275.55c-.75-9.74-1.5-19.48-2.4-29.21-1.61-17.61-3.73-35.35-9.48-52.08s-15.44-32.55-29.78-42.91" transform="translate(-139.33 -84.59)" style="fill:none;stroke:#7f1416;stroke-miterlimit:10;stroke-width:2px" class="fAUbbkuZ_2"></path></g><g id="_0.65" data-name="0.65"><path d="M263.72,415.58c15.77,5.82,28,19,44,24.34s34.14,6.15,49-1.7c7.14-3.77,13.18-9.33,20.06-13.55,3.65-2.25,7.52-4.1,11.25-6.21a163.32,163.32,0,0,0,21.59-15.75" transform="translate(-139.33 -84.59)" style="fill:none;stroke:#7f1416;stroke-miterlimit:10;stroke-width:2px" class="fAUbbkuZ_3"></path><path d="M212.12,346.9C216.69,376,236.37,402.36,263,415" transform="translate(-139.33 -84.59)" style="fill:none;stroke:#7f1416;stroke-miterlimit:10;stroke-width:2px" class="fAUbbkuZ_4"></path></g><g id="_0.75" data-name="0.75"><path d="M201.61,264.48q-4.37-19.05-7.59-38.33c-1-6.22-2-12.5-1.8-18.8.44-13.79,6.46-27,14.89-37.91S221,151.7,232,143.39" transform="translate(-139.33 -84.59)" style="fill:none;stroke:#7f1416;stroke-miterlimit:10;stroke-width:3px" class="fAUbbkuZ_5"></path><path d="M388.87,151.23a107.51,107.51,0,0,1,45,45.3,46.14,46.14,0,0,1,4.76,12.67c1.63,8.68-.68,17.55-2.18,26.26-2,11.5-2.81,19.36-1.9,31" transform="translate(-139.33 -84.59)" style="fill:none;stroke:#7f1416;stroke-miterlimit:10;stroke-width:3px" class="fAUbbkuZ_6"></path><path d="M209.87,345.65c-4.77,2.55-10.93-.82-13.5-5.59s-2.6-10.42-3-15.82a110.55,110.55,0,0,0-3.74-21.88c-1.38-5-3.13-10-3.69-15.14a34,34,0,0,1,4.29-20.4,7.8,7.8,0,0,1,2.2-2.66c3.35-2.27,8.9.77,11.71,3.67" transform="translate(-139.33 -84.59)" style="fill:none;stroke:#7f1416;stroke-miterlimit:10;stroke-width:3px" class="fAUbbkuZ_7"></path><path d="M213,290c-1.67,30.08-3.28,60.76,4.5,89.87,2.74,10.26,6.7,20.35,13.13,28.81A102.7,102.7,0,0,0,244,422.57c15.71,14.08,32.7,27.22,52.27,35.09s42.12,10.06,61.72,2.25c20-8,35.74-28,45.59-46.27,12.41-23.06,26.26-44.37,26.92-71.56.14-5.59-.29-11.19.07-16.78.34-5.33,1.4-10.6,1.85-15.93,1-11.41-.34-24.24-2.15-35.55" transform="translate(-139.33 -84.59)" style="fill:none;stroke:#7f1416;stroke-miterlimit:10;stroke-width:3px" class="fAUbbkuZ_8"></path><path d="M218.94,385" transform="translate(-139.33 -84.59)" style="fill:none;stroke:#7f1416;stroke-miterlimit:10;stroke-width:3px" class="fAUbbkuZ_9"></path><path d="M430.63,277.07l2.83-8.27c.46-1.34,1-2.82,2.32-3.4,2.74-1.25,5,2.47,5.63,5.42a75.07,75.07,0,0,1,.79,25.37c-1.18,8.42-3.8,16.85-2.58,25.27.74,5.1,2.88,10.08,2.34,15.2s-5.55,10.34-10.33,8.43" transform="translate(-139.33 -84.59)" style="fill:none;stroke:#7f1416;stroke-miterlimit:10;stroke-width:3px" class="fAUbbkuZ_10"></path><path d="M355.42,368.2A245,245,0,0,1,312,368" transform="translate(-139.33 -84.59)" style="fill:none;stroke:#7f1416;stroke-miterlimit:10;stroke-width:3px" class="fAUbbkuZ_11"></path><path d="M226.08,403q-.54,18.75.35,37.5" transform="translate(-139.33 -84.59)" style="fill:none;stroke:#7f1416;stroke-miterlimit:10;stroke-width:3px" class="fAUbbkuZ_12"></path><path d="M225.64,424c-4.84,1.86-9.84,3.82-13.48,7.52-5,5.1-6.71,12.76-11.6,18a19.44,19.44,0,0,1-16.58,5.9l-1.6,3.71a4.43,4.43,0,0,0-6.06,1.76c-.41.85-.52,1.81-.88,2.68-1,2.43-3.67,3.76-6.26,4.13s-5.23,0-7.85.07a22.5,22.5,0,0,0-20.54,16.86" transform="translate(-139.33 -84.59)" style="fill:none;stroke:#7f1416;stroke-miterlimit:10;stroke-width:3px" class="fAUbbkuZ_13"></path><path d="M398.32,422.48,396.75,482c-.15,5.68-.3,11.37-.87,17" transform="translate(-139.33 -84.59)" style="fill:none;stroke:#7f1416;stroke-miterlimit:10;stroke-width:3px" class="fAUbbkuZ_14"></path><path d="M398.26,445.17c29.68,10.6,52.79,37.79,58.49,68.78" transform="translate(-139.33 -84.59)" style="fill:none;stroke:#7f1416;stroke-miterlimit:10;stroke-width:3px" class="fAUbbkuZ_15"></path><path d="M456.35,514.92c-19.3-6.22-41.91-.56-56,14-3.92,4.06-7.4,8.86-12.55,11.17-5.92,2.65-13,1.48-19,3.94-5.27,2.16-9.16,7-11.06,12.35s-2,11.24-1.24,16.88a12.56,12.56,0,0,1-12.69-8.71" transform="translate(-139.33 -84.59)" style="fill:none;stroke:#7f1416;stroke-miterlimit:10;stroke-width:3px" class="fAUbbkuZ_16"></path><path d="M342.63,564.38a54.13,54.13,0,0,1,31.21-33.76,29.08,29.08,0,0,0,6-2.78c2.17-1.51,3.73-3.72,5.33-5.84,4.56-6,9.94-11.82,16.88-14.89a22.2,22.2,0,0,0-5.46-7.68" transform="translate(-139.33 -84.59)" style="fill:none;stroke:#7f1416;stroke-miterlimit:10;stroke-width:3px" class="fAUbbkuZ_17"></path><path d="M225.83,432.68c-2.52,3.28,0,7.93,2.45,11.25l18.79,25.25c5,6.72,10.14,13.57,17,18.36,5.26,3.66,11.32,6,17.05,8.82a95.42,95.42,0,0,1,17.65,11.41" transform="translate(-139.33 -84.59)" style="fill:none;stroke:#7f1416;stroke-miterlimit:10;stroke-width:3px" class="fAUbbkuZ_18"></path><path d="M311.72,523.15c1.26,2.3-.35,5.35-2.73,6.44s-5.18.66-7.68-.14c9.9,13.16,20.25,26.72,34.75,34.52" transform="translate(-139.33 -84.59)" style="fill:none;stroke:#7f1416;stroke-miterlimit:10;stroke-width:3px" class="fAUbbkuZ_19"></path><path d="M337.34,564.42,364.39,673c1.13-5.13-.21-10.44-1.49-15.53A680.12,680.12,0,0,1,347.11,571" transform="translate(-139.33 -84.59)" style="fill:none;stroke:#7f1416;stroke-miterlimit:10;stroke-width:3px" class="fAUbbkuZ_20"></path><path d="M141.15,485.28c-.75-.06.38-1,1.06-.68,5.3,2.4,10.77,4.93,14.63,9.29,2.49,2.82,4.17,6.27,6.49,9.24,8.92,11.39,26.2,14.45,33.49,27" transform="translate(-139.33 -84.59)" style="fill:none;stroke:#7f1416;stroke-miterlimit:10;stroke-width:3px" class="fAUbbkuZ_21"></path><path d="M176.06,468.84c5.26,8.54,14.88,13.33,24.32,16.71s19.41,5.9,27.62,11.67" transform="translate(-139.33 -84.59)" style="fill:none;stroke:#7f1416;stroke-miterlimit:10;stroke-width:3px" class="fAUbbkuZ_22"></path><path d="M391.41,150.32c-1.54-13-9.58-24.57-19.59-33s-21.94-14.27-33.73-20c-11.5-5.58-23.53-11.28-36.31-11.2-12.15.08-23.58,5.38-34.56,10.57" transform="translate(-139.33 -84.59)" style="fill:none;stroke:#7f1416;stroke-miterlimit:10;stroke-width:3px" class="fAUbbkuZ_23"></path><path d="M266.32,141.58a75.83,75.83,0,0,0-52.49,9.19A44.94,44.94,0,0,1,243,134" transform="translate(-139.33 -84.59)" style="fill:none;stroke:#7f1416;stroke-miterlimit:10;stroke-width:3px" class="fAUbbkuZ_24"></path><path d="M243,132.23a48,48,0,0,0-14.4,3l17.72-11.49a22.12,22.12,0,0,0-9,1.52l10.61-7.94" transform="translate(-139.33 -84.59)" style="fill:none;stroke:#7f1416;stroke-miterlimit:10;stroke-width:3px" class="fAUbbkuZ_25"></path><path d="M246.31,117,235,119.67a96.11,96.11,0,0,1,24.24-12" transform="translate(-139.33 -84.59)" style="fill:none;stroke:#7f1416;stroke-miterlimit:10;stroke-width:3px" class="fAUbbkuZ_26"></path><path d="M259.22,107.68c-4.37.07-11.6-.73-15.88.18A35.87,35.87,0,0,1,267,97.08" transform="translate(-139.33 -84.59)" style="fill:none;stroke:#7f1416;stroke-miterlimit:10;stroke-width:3px" class="fAUbbkuZ_27"></path><path d="M443,480.67c21.43,7.42,37.85,24.53,53.39,41.06" transform="translate(-139.33 -84.59)" style="fill:none;stroke:#7f1416;stroke-miterlimit:10;stroke-width:3px" class="fAUbbkuZ_28"></path><path d="M303.21,528.28a416.74,416.74,0,0,1-75.06-30.57" transform="translate(-139.33 -84.59)" style="fill:none;stroke:#7f1416;stroke-miterlimit:10;stroke-width:3px" class="fAUbbkuZ_29"></path></g><g id="_0.25" data-name="0.25"><path d="M266.62,272.32a3.71,3.71,0,0,0,.51,3.2" transform="translate(-139.33 -84.59)" style="fill:none;stroke:#7f1416;stroke-miterlimit:10;stroke-width:0.75px" class="fAUbbkuZ_30"></path><path d="M298,267.83a5.82,5.82,0,0,1-1.84,9.82" transform="translate(-139.33 -84.59)" style="fill:none;stroke:#7f1416;stroke-miterlimit:10;stroke-width:0.75px" class="fAUbbkuZ_31"></path><path d="M301.61,256.78a67.14,67.14,0,0,1,10.81,6.9c2.48,1.94,5,4.54,4.79,7.68a10.15,10.15,0,0,1-1.54,4c-1.77,3.11-3.66,6.16-5.67,9.12" transform="translate(-139.33 -84.59)" style="fill:none;stroke:#7f1416;stroke-miterlimit:10;stroke-width:0.75px" class="fAUbbkuZ_32"></path><path d="M339.6,324.83a2.06,2.06,0,0,1-1.16,2,5.56,5.56,0,0,1-2.39.48,44.27,44.27,0,0,1-7.89-.41" transform="translate(-139.33 -84.59)" style="fill:none;stroke:#7f1416;stroke-miterlimit:10;stroke-width:0.75px" class="fAUbbkuZ_33"></path><path d="M325.71,286.17a20,20,0,0,1-2,7.5" transform="translate(-139.33 -84.59)" style="fill:none;stroke:#7f1416;stroke-miterlimit:10;stroke-width:0.75px" class="fAUbbkuZ_34"></path><path d="M354.37,261.21a23.78,23.78,0,0,0-6.14,6.31,9.39,9.39,0,0,0-1.59,3.55c-.61,3.4,1.75,6.57,4.11,9.08,1.52,1.63,3.11,3.18,4.75,4.68" transform="translate(-139.33 -84.59)" style="fill:none;stroke:#7f1416;stroke-miterlimit:10;stroke-width:0.75px" class="fAUbbkuZ_35"></path><path d="M355.52,276.72a4.23,4.23,0,0,1,1.37,1.12,45.76,45.76,0,0,0,7.8,6.63" transform="translate(-139.33 -84.59)" style="fill:none;stroke:#7f1416;stroke-miterlimit:10;stroke-width:0.75px" class="fAUbbkuZ_36"></path><path d="M302.12,280.6a75.83,75.83,0,0,1-8.29,4.57" transform="translate(-139.33 -84.59)" style="fill:none;stroke:#7f1416;stroke-miterlimit:10;stroke-width:0.75px" class="fAUbbkuZ_37"></path><path d="M391.26,270.25a5.28,5.28,0,0,1-2.07,4.92" transform="translate(-139.33 -84.59)" style="fill:none;stroke:#7f1416;stroke-miterlimit:10;stroke-width:0.75px" class="fAUbbkuZ_38"></path><path d="M263,208.92a58.47,58.47,0,0,1,26-.27" transform="translate(-139.33 -84.59)" style="fill:none;stroke:#7f1416;stroke-miterlimit:10;stroke-width:0.75px" class="fAUbbkuZ_39"></path><path d="M386.37,207.19a111.86,111.86,0,0,1-78.71,3.32" transform="translate(-139.33 -84.59)" style="fill:none;stroke:#7f1416;stroke-miterlimit:10;stroke-width:0.75px" class="fAUbbkuZ_40"></path><path d="M324.54,204.74A248.16,248.16,0,0,0,357,207.09" transform="translate(-139.33 -84.59)" style="fill:none;stroke:#7f1416;stroke-miterlimit:10;stroke-width:0.75px" class="fAUbbkuZ_41"></path><path d="M343.66,283.83a25.8,25.8,0,0,0,3.4,11.57" transform="translate(-139.33 -84.59)" style="fill:none;stroke:#7f1416;stroke-miterlimit:10;stroke-width:0.75px" class="fAUbbkuZ_42"></path></g><g id="_0.5" data-name="0.5"><path d="M206,287.49A39.62,39.62,0,0,0,193.91,273a1.79,1.79,0,0,0-1.18-.48c-.64.05-1,.72-1.29,1.3a39.52,39.52,0,0,0-2.47,24.8" transform="translate(-139.33 -84.59)" style="fill:none;stroke:#7f1416;stroke-miterlimit:10;stroke-width:2px" class="fAUbbkuZ_43"></path><path d="M210.92,294.54c-2-1-4.51,0-5.86,1.81s-1.82,4-2.21,6.2c-.5,2.8-.94,5.71-.17,8.45s3.08,5.24,5.92,5.3c-.08-3.73-1.52-7.29-2-11s.39-8,3.6-9.94" transform="translate(-139.33 -84.59)" style="fill:none;stroke:#7f1416;stroke-miterlimit:10;stroke-width:2px" class="fAUbbkuZ_44"></path><path d="M198.51,279.23A41.27,41.27,0,0,0,196,294c0,3.17.31,6.75-1.84,9.08a1.29,1.29,0,0,1-1.1.53,1.4,1.4,0,0,1-.77-.69A23.67,23.67,0,0,1,189,295" transform="translate(-139.33 -84.59)" style="fill:none;stroke:#7f1416;stroke-miterlimit:10;stroke-width:2px" class="fAUbbkuZ_45"></path><path d="M382.54,150.41a3.71,3.71,0,0,0,3.32-1.47c-.51,2.16,2.84,3.93,4.33,2.29" transform="translate(-139.33 -84.59)" style="fill:none;stroke:#7f1416;stroke-miterlimit:10;stroke-width:2px" class="fAUbbkuZ_46"></path><path d="M432.45,286.47a25.69,25.69,0,0,1,3.17-10.88c.35-.62.92-1.32,1.6-1.14s.79.76.95,1.29c2,6.56,3.14,13.58,1.49,20.23-.52,2.12-1.33,4.17-2,6.24a72.26,72.26,0,0,0-3.72,18.28" transform="translate(-139.33 -84.59)" style="fill:none;stroke:#7f1416;stroke-miterlimit:10;stroke-width:2px" class="fAUbbkuZ_47"></path><path d="M295,370.4c6.19.89,12.26-1.77,18.25-3.59a70.61,70.61,0,0,1,38.49-.67c6,1.61,12.06,4,18.27,3.43" transform="translate(-139.33 -84.59)" style="fill:none;stroke:#7f1416;stroke-miterlimit:10;stroke-width:2px" class="fAUbbkuZ_48"></path><path d="M316,388.26a81,81,0,0,0,16.52,1.26l.6-1.16a2.88,2.88,0,0,0,3.3,1.72c.56-.14,1.06-.46,1.62-.64a3.58,3.58,0,0,1,3.81,1.14l1-1.91a21.45,21.45,0,0,0,11.45.81c-3.42,1.55-7.29,3.68-7.83,7.39a1.55,1.55,0,0,0-2.68-.63,2.73,2.73,0,0,0-.36,1.05l-.76,3.63a19.64,19.64,0,0,0-4.36-2.77,3.74,3.74,0,0,0-.41,2.34c-1.5-.08-1.74-2.22-2.75-3.33-1.41-1.54-3.94-.77-5.83.11a15.41,15.41,0,0,0,0-2.8,18.53,18.53,0,0,1-6.72-.29,2.5,2.5,0,0,1-1.61-.85c-.36-.51-.17-1.4.45-1.5a10.1,10.1,0,0,1-6.11-2.76" transform="translate(-139.33 -84.59)" style="fill:none;stroke:#7f1416;stroke-miterlimit:10;stroke-width:2px" class="fAUbbkuZ_49"></path><path d="M307.06,272.93a25.74,25.74,0,0,0-12.82-6.36,45.34,45.34,0,0,0-14.43-.24,24.67,24.67,0,0,0-5.53,1.19,41,41,0,0,0-5.54,2.88,54,54,0,0,1-11.26,4.72" transform="translate(-139.33 -84.59)" style="fill:none;stroke:#7f1416;stroke-miterlimit:10;stroke-width:2px" class="fAUbbkuZ_50"></path><path d="M262,273.82l7.23,3.22a40,40,0,0,0,5.86,2.24,30.13,30.13,0,0,0,9.57.72,59,59,0,0,0,22.8-6.13" transform="translate(-139.33 -84.59)" style="fill:none;stroke:#7f1416;stroke-miterlimit:10;stroke-width:2px" class="fAUbbkuZ_51"></path><path d="M276.49,267.64a5.79,5.79,0,0,0,.54,6.78,8,8,0,0,0,6.55,2.59,8.83,8.83,0,0,0,5.41-2.14,7.21,7.21,0,0,0,2.45-5.2,5,5,0,0,0-1-3.22" transform="translate(-139.33 -84.59)" style="fill:none;stroke:#7f1416;stroke-miterlimit:10;stroke-width:2px" class="fAUbbkuZ_52"></path><path d="M258.76,270.89c2.88-3.14,7.06-4.8,11.24-5.6s8.47-.82,12.71-1.24c4.43-.44,8.85-1.31,13.29-1s9.05,1.91,11.69,5.5" transform="translate(-139.33 -84.59)" style="fill:none;stroke:#7f1416;stroke-miterlimit:10;stroke-width:2px" class="fAUbbkuZ_53"></path><path d="M283,269.16a1.22,1.22,0,1,0,1.16.39,1.24,1.24,0,0,0-1.85.07,1.17,1.17,0,0,0,.54,1.74,1.13,1.13,0,0,0,1.43-1.08,1,1,0,0,0-.81-.9,1,1,0,0,0-.46.05,1.06,1.06,0,0,0-.63.75" transform="translate(-139.33 -84.59)" style="fill:none;stroke:#7f1416;stroke-miterlimit:10;stroke-width:2px" class="fAUbbkuZ_54"></path><path d="M327.18,323.12a17.5,17.5,0,0,0-2.9-2.87,5.94,5.94,0,0,0-3.8-1.26,8.07,8.07,0,0,0-2.35.61,57.09,57.09,0,0,0-5.5,2.39,28,28,0,0,0,4.36.77c1.81.18,3.63.18,5.44.19h4.07" transform="translate(-139.33 -84.59)" style="fill:none;stroke:#7f1416;stroke-miterlimit:10;stroke-width:2px" class="fAUbbkuZ_55"></path><path d="M340.06,324.24l2.95-2.6a8,8,0,0,1,3.9-2.29c2.29-.32,4.33,1.34,6,2.9a18.82,18.82,0,0,1-10.44.38" transform="translate(-139.33 -84.59)" style="fill:none;stroke:#7f1416;stroke-miterlimit:10;stroke-width:2px" class="fAUbbkuZ_56"></path><path d="M352.93,273.43c2.82-2.61,5.74-5.29,9.34-6.64a22.63,22.63,0,0,1,6.1-1.22,46.36,46.36,0,0,1,32,9.58" transform="translate(-139.33 -84.59)" style="fill:none;stroke:#7f1416;stroke-miterlimit:10;stroke-width:2px" class="fAUbbkuZ_57"></path><path d="M397.16,273.5c-5.62.21-10.62,3.52-16.07,4.91a24.47,24.47,0,0,1-19.66-3.49,13.92,13.92,0,0,0-1.93-1.22c-2-.93-4.33-.54-6.5-.13" transform="translate(-139.33 -84.59)" style="fill:none;stroke:#7f1416;stroke-miterlimit:10;stroke-width:2px" class="fAUbbkuZ_58"></path><path d="M368,266.65a5.73,5.73,0,0,0,.85,6.59,7.82,7.82,0,0,0,2.73,1.74,9.31,9.31,0,0,0,2.88.72,7.24,7.24,0,0,0,7.66-8.51" transform="translate(-139.33 -84.59)" style="fill:none;stroke:#7f1416;stroke-miterlimit:10;stroke-width:2px" class="fAUbbkuZ_59"></path><path d="M374.05,269.13a.38.38,0,0,0-.57.22.6.6,0,0,0,.26.63.88.88,0,0,0,1.11-.1.89.89,0,0,0,.08-1.11.65.65,0,1,0,0,1" transform="translate(-139.33 -84.59)" style="fill:none;stroke:#7f1416;stroke-miterlimit:10;stroke-width:2px" class="fAUbbkuZ_60"></path><path d="M401,268.82c-4.44-2.56-9.08-5.19-14.19-5.51a44,44,0,0,0-6.48.33,66,66,0,0,1-7.83.2c-3.45-.11-6.94-.48-10.33.16s-6.77,2.49-8.2,5.63" transform="translate(-139.33 -84.59)" style="fill:none;stroke:#7f1416;stroke-miterlimit:10;stroke-width:2px" class="fAUbbkuZ_61"></path><path d="M395.21,498c0,3.37-2,6.46-4.37,8.82S385.56,511,383,513.2A34.94,34.94,0,0,0,372,531" transform="translate(-139.33 -84.59)" style="fill:none;stroke:#7f1416;stroke-miterlimit:10;stroke-width:2px" class="fAUbbkuZ_62"></path><path d="M389.05,509a12,12,0,0,0,2.81,5.14" transform="translate(-139.33 -84.59)" style="fill:none;stroke:#7f1416;stroke-miterlimit:10;stroke-width:2px" class="fAUbbkuZ_63"></path><path d="M283.47,509.73l27.17-3.16c2.72-.31,5.77-.54,7.9,1.19,1.58,1.28,2.25,3.35,3,5.25a43.14,43.14,0,0,0,9.18,14.47c6.64,6.93,15.74,11.86,20,20.45" transform="translate(-139.33 -84.59)" style="fill:none;stroke:#7f1416;stroke-miterlimit:10;stroke-width:2px" class="fAUbbkuZ_64"></path><path d="M283.82,510.52a10.44,10.44,0,0,0,11,8.37c2.42-.25,4.74-1.38,7.17-1.24a13.16,13.16,0,0,1,4.86,1.58A115.41,115.41,0,0,1,345.73,550" transform="translate(-139.33 -84.59)" style="fill:none;stroke:#7f1416;stroke-miterlimit:10;stroke-width:2px" class="fAUbbkuZ_65"></path><path d="M228.1,476.38c-5.86-4.83-12.7-8.66-20.17-10a34.52,34.52,0,0,0-7.93-.52c-4.08.21-8.11,1.15-12.2,1.08s-8.45-1.38-10.86-4.68" transform="translate(-139.33 -84.59)" style="fill:none;stroke:#7f1416;stroke-miterlimit:10;stroke-width:2px" class="fAUbbkuZ_66"></path><path d="M309.76,252.4a72.27,72.27,0,0,1-19.46-1.54,2.14,2.14,0,0,0,1.58,1.78l-13.74-2.8c-5-1-10.05-2-15.07-1.32-7,1-13,5.14-18.67,9.35" transform="translate(-139.33 -84.59)" style="fill:none;stroke:#7f1416;stroke-miterlimit:10;stroke-width:2px" class="fAUbbkuZ_67"></path><path d="M244.24,258.25a65.19,65.19,0,0,1,19.88-14.53,19.77,19.77,0,0,1,4.29-1.58c3-.63,6-.08,9,.32a92.74,92.74,0,0,0,20.19.45A22.58,22.58,0,0,1,305,243c2.38.59,4.67,2.32,5.11,4.74l.11-4.67a9.51,9.51,0,0,1,1.78,9.33" transform="translate(-139.33 -84.59)" style="fill:none;stroke:#7f1416;stroke-miterlimit:10;stroke-width:2px" class="fAUbbkuZ_68"></path><path d="M411,254.09a14,14,0,0,0-17.46-5.73c.44-.1.37-.83,0-1a1.65,1.65,0,0,0-1.3.11l-11.69,4.27c-.46-1-1.93-.71-2.94-.3a73.15,73.15,0,0,1-20.36,5.15" transform="translate(-139.33 -84.59)" style="fill:none;stroke:#7f1416;stroke-miterlimit:10;stroke-width:2px" class="fAUbbkuZ_69"></path><path d="M411.35,254.08a13.42,13.42,0,0,0-5.9-8.3,26.47,26.47,0,0,0-9.73-3.63,27.82,27.82,0,0,0-8.58-.52,36.52,36.52,0,0,0-7.71,2.09c-5.66,2-11.46,4.08-17.45,3.91a7.05,7.05,0,0,0-3.21.33,2,2,0,0,0-1.13,2.66l-3.18-2.25a10.53,10.53,0,0,0,.85,9.36,1.56,1.56,0,0,0,1.86-1.27" transform="translate(-139.33 -84.59)" style="fill:none;stroke:#7f1416;stroke-miterlimit:10;stroke-width:2px" class="fAUbbkuZ_70"></path><path d="M340.08,350.81a21.31,21.31,0,0,1-.22-13.53" transform="translate(-139.33 -84.59)" style="fill:none;stroke:#7f1416;stroke-miterlimit:10;stroke-width:2px" class="fAUbbkuZ_71"></path><path d="M326.21,334.51a79.49,79.49,0,0,0,6.3,15.26" transform="translate(-139.33 -84.59)" style="fill:none;stroke:#7f1416;stroke-miterlimit:10;stroke-width:2px" class="fAUbbkuZ_72"></path><path d="M371.31,369.31a9.59,9.59,0,0,1,9.08,3.7,8,8,0,0,0-.29-2.74,32.87,32.87,0,0,0-10.75-17.39" transform="translate(-139.33 -84.59)" style="fill:none;stroke:#7f1416;stroke-miterlimit:10;stroke-width:2px" class="fAUbbkuZ_73"></path><path d="M294.21,369.7q-4.44,2.87-9.08,5.41l.89-9.77a6.86,6.86,0,0,1,1.26-4.06" transform="translate(-139.33 -84.59)" style="fill:none;stroke:#7f1416;stroke-miterlimit:10;stroke-width:2px" class="fAUbbkuZ_74"></path><path d="M287.52,361.25a2.3,2.3,0,0,0,.67,1.68,50.42,50.42,0,0,1,5.36-9.27c1.24-1.82,2.56-3.73,4.53-4.71,2.33-1.18,5.25-.89,7.44-2.32a2.32,2.32,0,0,0-1.56,1.69l5.62-2.6c2.56-1.19,5.5-2.91,5.61-5.73" transform="translate(-139.33 -84.59)" style="fill:none;stroke:#7f1416;stroke-miterlimit:10;stroke-width:2px" class="fAUbbkuZ_75"></path><path d="M314.55,341.26a61,61,0,0,0,.7-10" transform="translate(-139.33 -84.59)" style="fill:none;stroke:#7f1416;stroke-miterlimit:10;stroke-width:2px" class="fAUbbkuZ_76"></path><path d="M326,334.67a68.36,68.36,0,0,1,3.18,13.76,10.53,10.53,0,0,0-3.62-1.65,3.69,3.69,0,0,1-.42,2.28l-12.65,3.65a34.26,34.26,0,0,0-9,3.52A11.57,11.57,0,0,0,298,363.8a11.25,11.25,0,0,1-1.63-1.95,26,26,0,0,1-2.75,7.44" transform="translate(-139.33 -84.59)" style="fill:none;stroke:#7f1416;stroke-miterlimit:10;stroke-width:2px" class="fAUbbkuZ_77"></path><path d="M351.59,334.74a13.42,13.42,0,0,0,2.48,6.87,4.25,4.25,0,0,1,.84-1.46,45.76,45.76,0,0,0,14.68,12.68" transform="translate(-139.33 -84.59)" style="fill:none;stroke:#7f1416;stroke-miterlimit:10;stroke-width:2px" class="fAUbbkuZ_78"></path><path d="M286.65,142.36c.79-2.33,2.76-5.2,5-4.15.63.3,1.08.88,1.69,1.22a2.61,2.61,0,0,0,3.66-2.37,11.3,11.3,0,0,0,3.32,3,3.85,3.85,0,0,0,4.2-.28c.39-.35.71-.83,1.22-1a2.14,2.14,0,0,1,1.61.43l8.65,5-.27-4.37,7.2,5.28" transform="translate(-139.33 -84.59)" style="fill:none;stroke:#7f1416;stroke-miterlimit:10;stroke-width:2px" class="fAUbbkuZ_79"></path><path d="M323.61,145.89a6.65,6.65,0,0,1,2.53-2.57,2.27,2.27,0,0,1,3.07,1c.26.8.1,2,.92,2.18a1.41,1.41,0,0,0,1.11-.45l6.59-5.31c-.89.52-.35,2.06.64,2.33a3.6,3.6,0,0,0,2.86-.87,5.17,5.17,0,0,1,2.75-1.28c2.81,0,4.55,4.72,7.13,3.61,1-.43,1.43-1.59,2.07-2.48s2-1.55,2.75-.72c.87,1-.32,3.16.9,3.69a10.58,10.58,0,0,1,3.37-2.76" transform="translate(-139.33 -84.59)" style="fill:none;stroke:#7f1416;stroke-miterlimit:10;stroke-width:2px" class="fAUbbkuZ_80"></path><path d="M362.19,143.23c-.54,1.2.89,2.52,2.2,2.46a7.35,7.35,0,0,0,3.52-1.69c1.09-.73,2.46-1.37,3.69-.9a6.33,6.33,0,0,0,.79,3.36,2.18,2.18,0,0,0,3,.67c.42-.38.63-1,1.13-1.25.82-.47,1.8.2,2.5.83,1.56,1.41,1.93,2.29,3.49,3.7" transform="translate(-139.33 -84.59)" style="fill:none;stroke:#7f1416;stroke-miterlimit:10;stroke-width:2px" class="fAUbbkuZ_81"></path><path d="M285.63,141.62a33.49,33.49,0,0,1-7.82-1.44,2.75,2.75,0,0,1-.7,2.22l-6.54-2,3.29,2.52L263,140.28" transform="translate(-139.33 -84.59)" style="fill:none;stroke:#7f1416;stroke-miterlimit:10;stroke-width:2px" class="fAUbbkuZ_82"></path><path d="M341.07,352c-.51-1.1,1.43-1.78,2.43-1.1s1.66,1.92,2.84,2.19a2,2,0,0,0,2.32-1.39l14.71,9.13a1.9,1.9,0,0,0,1.44.42c.49-.13.74-.94.27-1.15a41.17,41.17,0,0,1,12.52,10.28" transform="translate(-139.33 -84.59)" style="fill:none;stroke:#7f1416;stroke-miterlimit:10;stroke-width:2px" class="fAUbbkuZ_83"></path><path d="M340.27,337A6.26,6.26,0,0,1,343.1,333l1.77,3.61a34.78,34.78,0,0,1,5.95-4" transform="translate(-139.33 -84.59)" style="fill:none;stroke:#7f1416;stroke-miterlimit:10;stroke-width:2px" class="fAUbbkuZ_84"></path><path d="M324.23,334.64a10.14,10.14,0,0,0-7.89-3.37" transform="translate(-139.33 -84.59)" style="fill:none;stroke:#7f1416;stroke-miterlimit:10;stroke-width:2px" class="fAUbbkuZ_85"></path><path d="M324.69,333.9" transform="translate(-139.33 -84.59)" style="fill:none;stroke:#7f1416;stroke-miterlimit:10;stroke-width:2px" class="fAUbbkuZ_86"></path><path d="M370,369.57" transform="translate(-139.33 -84.59)" style="fill:none;stroke:#7f1416;stroke-miterlimit:10;stroke-width:2px" class="fAUbbkuZ_87"></path><path d="M368.82,369.57,347.7,357.85a7,7,0,0,0-2.53-1,7.89,7.89,0,0,0-3.49.69c-3.45,1.17-6.19,1.55-9.76.55-1.43-.4-4.37-1.32-5.71-1.5-1.75-.23-4.1.91-5.7,1.57a123.19,123.19,0,0,0-22.61,12.32" transform="translate(-139.33 -84.59)" style="fill:none;stroke:#7f1416;stroke-miterlimit:10;stroke-width:2px" class="fAUbbkuZ_88"></path><path d="M366.94,369.57c-15.92,12.76-47.07,13.78-67.12,1.19" transform="translate(-139.33 -84.59)" style="fill:none;stroke:#7f1416;stroke-miterlimit:10;stroke-width:2px" class="fAUbbkuZ_89"></path><path d="M335,364.33V367" transform="translate(-139.33 -84.59)" style="fill:none;stroke:#7f1416;stroke-miterlimit:10;stroke-width:2px" class="fAUbbkuZ_90"></path><path d="M320,367.74a1.13,1.13,0,0,1-.52-1.17,2.52,2.52,0,0,0,1.26,1.44" transform="translate(-139.33 -84.59)" style="fill:none;stroke:#7f1416;stroke-miterlimit:10;stroke-width:2px" class="fAUbbkuZ_91"></path><path d="M320.42,366.28a4.13,4.13,0,0,0,2.09,2.2" transform="translate(-139.33 -84.59)" style="fill:none;stroke:#7f1416;stroke-miterlimit:10;stroke-width:2px" class="fAUbbkuZ_92"></path><path d="M347.51,366.25a3,3,0,0,1-1.11,2.38l2.19-1.42c.37-.24,1.1-.24,1,.18" transform="translate(-139.33 -84.59)" style="fill:none;stroke:#7f1416;stroke-miterlimit:10;stroke-width:2px" class="fAUbbkuZ_93"></path><path d="M346.74,366.5a4,4,0,0,1-1.73,1.77" transform="translate(-139.33 -84.59)" style="fill:none;stroke:#7f1416;stroke-miterlimit:10;stroke-width:2px" class="fAUbbkuZ_94"></path></g><g id="_0.4" data-name="0.4"><path d="M319.21,330.39A28,28,0,0,1,312,329a7.77,7.77,0,0,1-4.94-4.17c-1.41-2.76-.81-5.11.36-8a39.59,39.59,0,0,1,10.37-14.59" transform="translate(-139.33 -84.59)" style="fill:none;stroke:#7f1416;stroke-miterlimit:10;stroke-width:2px" class="fAUbbkuZ_95"></path><path d="M328.63,399c.5,2.91.6,6.05-.79,8.65-2.57,4.83-8.92,5.86-14.38,6.32a5.27,5.27,0,0,1-.5-3.31,26.41,26.41,0,0,1-12,.44l.26-2.36a23.79,23.79,0,0,1-25.38-21.41c-1.71,1.61-4.53-.45-5.2-2.7s-.47-4.85-1.94-6.68c-1.28-1.61-3.47-2.12-5.47-2.65a48.33,48.33,0,0,1-21.79-12.69c-5.93-6-10.14-13.48-14.29-20.84.17,1-1.2,1.69-2.12,1.27a3.43,3.43,0,0,1-1.59-2.45,9,9,0,0,0-.87-2.88c-1.3-2-4.3-1.92-6.34-3.19s-3-4-3.52-6.43a109.57,109.57,0,0,1-2.37-14.39" transform="translate(-139.33 -84.59)" style="fill:none;stroke:#7f1416;stroke-miterlimit:10;stroke-width:2px" class="fAUbbkuZ_96"></path><path d="M346.65,397a30,30,0,0,0,3.16,10.47l1-.56a27.27,27.27,0,0,0,11,7.41,2.34,2.34,0,0,0,2.53-.32,61.46,61.46,0,0,0,10.38-8l1.32,2.37c3.28-.41,3.62-6.49,6.92-6.42a8.3,8.3,0,0,0,1.71.12c.9-.17,1.41-1.1,1.8-1.93l5.9-12.54a56,56,0,0,0,4.09-10.46c1.28-5.26,1-10.76.75-16.16a2.23,2.23,0,0,0,2.6-.1,27.67,27.67,0,0,1,2.23-1.68,9.39,9.39,0,0,1,2.29-.65c6.58-1.45,11.47-6.82,15.89-11.91a2.26,2.26,0,0,0,2.53,1.27,5.27,5.27,0,0,0,2.62-1.54,17,17,0,0,0,5.06-9.63" transform="translate(-139.33 -84.59)" style="fill:none;stroke:#7f1416;stroke-miterlimit:10;stroke-width:2px" class="fAUbbkuZ_97"></path><path d="M257,99.62c7.27-3.55,16-2.4,23.56.55a54.91,54.91,0,0,1,30.05,29" transform="translate(-139.33 -84.59)" style="fill:none;stroke:#7f1416;stroke-miterlimit:10;stroke-width:2px" class="fAUbbkuZ_98"></path><path d="M275.05,98c10.44-1.82,20.7,4,28.8,10.82,6.41,5.42,12.24,11.78,15.63,19.46,2.42,5.5,3.52,11.47,4.59,17.38" transform="translate(-139.33 -84.59)" style="fill:none;stroke:#7f1416;stroke-miterlimit:10;stroke-width:2px" class="fAUbbkuZ_99"></path><path d="M300.28,87.82c9.89,2.76,19.85,7.07,26.23,15.1,4.78,6,7.16,13.7,7.6,21.36s-1,15.34-3.17,22.7" transform="translate(-139.33 -84.59)" style="fill:none;stroke:#7f1416;stroke-miterlimit:10;stroke-width:2px" class="fAUbbkuZ_100"></path><path d="M255,134.44a35.89,35.89,0,0,1,24.79,7.05" transform="translate(-139.33 -84.59)" style="fill:none;stroke:#7f1416;stroke-miterlimit:10;stroke-width:2px" class="fAUbbkuZ_101"></path><path d="M264.25,128.15A33.68,33.68,0,0,1,286.16,142" transform="translate(-139.33 -84.59)" style="fill:none;stroke:#7f1416;stroke-miterlimit:10;stroke-width:2px" class="fAUbbkuZ_102"></path><path d="M333.54,95.11c7.93,2.33,24.32,17.6,26,25.69a23.44,23.44,0,0,1-7.79,22.28" transform="translate(-139.33 -84.59)" style="fill:none;stroke:#7f1416;stroke-miterlimit:10;stroke-width:2px" class="fAUbbkuZ_103"></path><path d="M354.41,104.88A23.74,23.74,0,0,1,365,122c.75,6.91-3.77,15.45-8.67,20.38" transform="translate(-139.33 -84.59)" style="fill:none;stroke:#7f1416;stroke-miterlimit:10;stroke-width:2px" class="fAUbbkuZ_104"></path><path d="M351.07,299.56a108.94,108.94,0,0,1,10.47,18.94,8.07,8.07,0,0,1,.8,2.77,6.32,6.32,0,0,1-1.19,3.58c-2.29,3.57-6.75,6-10.82,4.83" transform="translate(-139.33 -84.59)" style="fill:none;stroke:#7f1416;stroke-miterlimit:10;stroke-width:2px" class="fAUbbkuZ_105"></path><path d="M355,323.5a11,11,0,0,0-3-2" transform="translate(-139.33 -84.59)" style="fill:none;stroke:#7f1416;stroke-miterlimit:10;stroke-width:2px" class="fAUbbkuZ_106"></path><path d="M321.62,366.24A2,2,0,0,0,323,368a2.06,2.06,0,0,1-.93-2.16,3.56,3.56,0,0,0,2.44,2.62" transform="translate(-139.33 -84.59)" style="fill:none;stroke:#7f1416;stroke-miterlimit:10;stroke-width:2px" class="fAUbbkuZ_107"></path><path d="M345.09,365.47a2.31,2.31,0,0,1-.63,2.49" transform="translate(-139.33 -84.59)" style="fill:none;stroke:#7f1416;stroke-miterlimit:10;stroke-width:2px" class="fAUbbkuZ_108"></path></g><style data-made-with="vivus-instant">.fAUbbkuZ_0{stroke-dasharray:203 205;stroke-dashoffset:204;animation:fAUbbkuZ_draw 2000ms linear 0ms forwards;}.fAUbbkuZ_1{stroke-dasharray:29 31;stroke-dashoffset:30;animation:fAUbbkuZ_draw 2000ms linear 9ms forwards;}.fAUbbkuZ_2{stroke-dasharray:136 138;stroke-dashoffset:137;animation:fAUbbkuZ_draw 2000ms linear 18ms forwards;}.fAUbbkuZ_3{stroke-dasharray:165 167;stroke-dashoffset:166;animation:fAUbbkuZ_draw 2000ms linear 27ms forwards;}.fAUbbkuZ_4{stroke-dasharray:89 91;stroke-dashoffset:90;animation:fAUbbkuZ_draw 2000ms linear 37ms forwards;}.fAUbbkuZ_5{stroke-dasharray:136 138;stroke-dashoffset:137;animation:fAUbbkuZ_draw 2000ms linear 46ms forwards;}.fAUbbkuZ_6{stroke-dasharray:137 139;stroke-dashoffset:138;animation:fAUbbkuZ_draw 2000ms linear 55ms forwards;}.fAUbbkuZ_7{stroke-dasharray:108 110;stroke-dashoffset:109;animation:fAUbbkuZ_draw 2000ms linear 64ms forwards;}.fAUbbkuZ_8{stroke-dasharray:481 483;stroke-dashoffset:482;animation:fAUbbkuZ_draw 2000ms linear 74ms forwards;}.fAUbbkuZ_9{stroke-dasharray:0 2;stroke-dashoffset:1;animation:fAUbbkuZ_draw 2000ms linear 83ms forwards;}.fAUbbkuZ_10{stroke-dasharray:104 106;stroke-dashoffset:105;animation:fAUbbkuZ_draw 2000ms linear 92ms forwards;}.fAUbbkuZ_11{stroke-dasharray:44 46;stroke-dashoffset:45;animation:fAUbbkuZ_draw 2000ms linear 101ms forwards;}.fAUbbkuZ_12{stroke-dasharray:38 40;stroke-dashoffset:39;animation:fAUbbkuZ_draw 2000ms linear 111ms forwards;}.fAUbbkuZ_13{stroke-dasharray:114 116;stroke-dashoffset:115;animation:fAUbbkuZ_draw 2000ms linear 120ms forwards;}.fAUbbkuZ_14{stroke-dasharray:77 79;stroke-dashoffset:78;animation:fAUbbkuZ_draw 2000ms linear 129ms forwards;}.fAUbbkuZ_15{stroke-dasharray:95 97;stroke-dashoffset:96;animation:fAUbbkuZ_draw 2000ms linear 138ms forwards;}.fAUbbkuZ_16{stroke-dasharray:148 150;stroke-dashoffset:149;animation:fAUbbkuZ_draw 2000ms linear 148ms forwards;}.fAUbbkuZ_17{stroke-dasharray:95 97;stroke-dashoffset:96;animation:fAUbbkuZ_draw 2000ms linear 157ms forwards;}.fAUbbkuZ_18{stroke-dasharray:110 112;stroke-dashoffset:111;animation:fAUbbkuZ_draw 2000ms linear 166ms forwards;}.fAUbbkuZ_19{stroke-dasharray:66 68;stroke-dashoffset:67;animation:fAUbbkuZ_draw 2000ms linear 175ms forwards;}.fAUbbkuZ_20{stroke-dasharray:216 218;stroke-dashoffset:217;animation:fAUbbkuZ_draw 2000ms linear 185ms forwards;}.fAUbbkuZ_21{stroke-dasharray:75 77;stroke-dashoffset:76;animation:fAUbbkuZ_draw 2000ms linear 194ms forwards;}.fAUbbkuZ_22{stroke-dasharray:61 63;stroke-dashoffset:62;animation:fAUbbkuZ_draw 2000ms linear 203ms forwards;}.fAUbbkuZ_23{stroke-dasharray:154 156;stroke-dashoffset:155;animation:fAUbbkuZ_draw 2000ms linear 212ms forwards;}.fAUbbkuZ_24{stroke-dasharray:89 91;stroke-dashoffset:90;animation:fAUbbkuZ_draw 2000ms linear 222ms forwards;}.fAUbbkuZ_25{stroke-dasharray:59 61;stroke-dashoffset:60;animation:fAUbbkuZ_draw 2000ms linear 231ms forwards;}.fAUbbkuZ_26{stroke-dasharray:39 41;stroke-dashoffset:40;animation:fAUbbkuZ_draw 2000ms linear 240ms forwards;}.fAUbbkuZ_27{stroke-dasharray:43 45;stroke-dashoffset:44;animation:fAUbbkuZ_draw 2000ms linear 250ms forwards;}.fAUbbkuZ_28{stroke-dasharray:69 71;stroke-dashoffset:70;animation:fAUbbkuZ_draw 2000ms linear 259ms forwards;}.fAUbbkuZ_29{stroke-dasharray:82 84;stroke-dashoffset:83;animation:fAUbbkuZ_draw 2000ms linear 268ms forwards;}.fAUbbkuZ_30{stroke-dasharray:4 6;stroke-dashoffset:5;animation:fAUbbkuZ_draw 2000ms linear 277ms forwards;}.fAUbbkuZ_31{stroke-dasharray:13 15;stroke-dashoffset:14;animation:fAUbbkuZ_draw 2000ms linear 287ms forwards;}.fAUbbkuZ_32{stroke-dasharray:38 40;stroke-dashoffset:39;animation:fAUbbkuZ_draw 2000ms linear 296ms forwards;}.fAUbbkuZ_33{stroke-dasharray:13 15;stroke-dashoffset:14;animation:fAUbbkuZ_draw 2000ms linear 305ms forwards;}.fAUbbkuZ_34{stroke-dasharray:8 10;stroke-dashoffset:9;animation:fAUbbkuZ_draw 2000ms linear 314ms forwards;}.fAUbbkuZ_35{stroke-dasharray:30 32;stroke-dashoffset:31;animation:fAUbbkuZ_draw 2000ms linear 324ms forwards;}.fAUbbkuZ_36{stroke-dasharray:13 15;stroke-dashoffset:14;animation:fAUbbkuZ_draw 2000ms linear 333ms forwards;}.fAUbbkuZ_37{stroke-dasharray:10 12;stroke-dashoffset:11;animation:fAUbbkuZ_draw 2000ms linear 342ms forwards;}.fAUbbkuZ_38{stroke-dasharray:6 8;stroke-dashoffset:7;animation:fAUbbkuZ_draw 2000ms linear 351ms forwards;}.fAUbbkuZ_39{stroke-dasharray:27 29;stroke-dashoffset:28;animation:fAUbbkuZ_draw 2000ms linear 361ms forwards;}.fAUbbkuZ_40{stroke-dasharray:81 83;stroke-dashoffset:82;animation:fAUbbkuZ_draw 2000ms linear 370ms forwards;}.fAUbbkuZ_41{stroke-dasharray:33 35;stroke-dashoffset:34;animation:fAUbbkuZ_draw 2000ms linear 379ms forwards;}.fAUbbkuZ_42{stroke-dasharray:13 15;stroke-dashoffset:14;animation:fAUbbkuZ_draw 2000ms linear 388ms forwards;}.fAUbbkuZ_43{stroke-dasharray:48 50;stroke-dashoffset:49;animation:fAUbbkuZ_draw 2000ms linear 398ms forwards;}.fAUbbkuZ_44{stroke-dasharray:53 55;stroke-dashoffset:54;animation:fAUbbkuZ_draw 2000ms linear 407ms forwards;}.fAUbbkuZ_45{stroke-dasharray:36 38;stroke-dashoffset:37;animation:fAUbbkuZ_draw 2000ms linear 416ms forwards;}.fAUbbkuZ_46{stroke-dasharray:11 13;stroke-dashoffset:12;animation:fAUbbkuZ_draw 2000ms linear 425ms forwards;}.fAUbbkuZ_47{stroke-dasharray:62 64;stroke-dashoffset:63;animation:fAUbbkuZ_draw 2000ms linear 435ms forwards;}.fAUbbkuZ_48{stroke-dasharray:77 79;stroke-dashoffset:78;animation:fAUbbkuZ_draw 2000ms linear 444ms forwards;}.fAUbbkuZ_49{stroke-dasharray:100 102;stroke-dashoffset:101;animation:fAUbbkuZ_draw 2000ms linear 453ms forwards;}.fAUbbkuZ_50{stroke-dasharray:54 56;stroke-dashoffset:55;animation:fAUbbkuZ_draw 2000ms linear 462ms forwards;}.fAUbbkuZ_51{stroke-dasharray:48 50;stroke-dashoffset:49;animation:fAUbbkuZ_draw 2000ms linear 472ms forwards;}.fAUbbkuZ_52{stroke-dasharray:30 32;stroke-dashoffset:31;animation:fAUbbkuZ_draw 2000ms linear 481ms forwards;}.fAUbbkuZ_53{stroke-dasharray:53 55;stroke-dashoffset:54;animation:fAUbbkuZ_draw 2000ms linear 490ms forwards;}.fAUbbkuZ_54{stroke-dasharray:16 18;stroke-dashoffset:17;animation:fAUbbkuZ_draw 2000ms linear 500ms forwards;}.fAUbbkuZ_55{stroke-dasharray:31 33;stroke-dashoffset:32;animation:fAUbbkuZ_draw 2000ms linear 509ms forwards;}.fAUbbkuZ_56{stroke-dasharray:26 28;stroke-dashoffset:27;animation:fAUbbkuZ_draw 2000ms linear 518ms forwards;}.fAUbbkuZ_57{stroke-dasharray:52 54;stroke-dashoffset:53;animation:fAUbbkuZ_draw 2000ms linear 527ms forwards;}.fAUbbkuZ_58{stroke-dasharray:47 49;stroke-dashoffset:48;animation:fAUbbkuZ_draw 2000ms linear 537ms forwards;}.fAUbbkuZ_59{stroke-dasharray:27 29;stroke-dashoffset:28;animation:fAUbbkuZ_draw 2000ms linear 546ms forwards;}.fAUbbkuZ_60{stroke-dasharray:7 9;stroke-dashoffset:8;animation:fAUbbkuZ_draw 2000ms linear 555ms forwards;}.fAUbbkuZ_61{stroke-dasharray:51 53;stroke-dashoffset:52;animation:fAUbbkuZ_draw 2000ms linear 564ms forwards;}.fAUbbkuZ_62{stroke-dasharray:42 44;stroke-dashoffset:43;animation:fAUbbkuZ_draw 2000ms linear 574ms forwards;}.fAUbbkuZ_63{stroke-dasharray:6 8;stroke-dashoffset:7;animation:fAUbbkuZ_draw 2000ms linear 583ms forwards;}.fAUbbkuZ_64{stroke-dasharray:88 90;stroke-dashoffset:89;animation:fAUbbkuZ_draw 2000ms linear 592ms forwards;}.fAUbbkuZ_65{stroke-dasharray:78 80;stroke-dashoffset:79;animation:fAUbbkuZ_draw 2000ms linear 601ms forwards;}.fAUbbkuZ_66{stroke-dasharray:56 58;stroke-dashoffset:57;animation:fAUbbkuZ_draw 2000ms linear 611ms forwards;}.fAUbbkuZ_67{stroke-dasharray:73 75;stroke-dashoffset:74;animation:fAUbbkuZ_draw 2000ms linear 620ms forwards;}.fAUbbkuZ_68{stroke-dasharray:89 91;stroke-dashoffset:90;animation:fAUbbkuZ_draw 2000ms linear 629ms forwards;}.fAUbbkuZ_69{stroke-dasharray:60 62;stroke-dashoffset:61;animation:fAUbbkuZ_draw 2000ms linear 638ms forwards;}.fAUbbkuZ_70{stroke-dasharray:79 81;stroke-dashoffset:80;animation:fAUbbkuZ_draw 2000ms linear 648ms forwards;}.fAUbbkuZ_71{stroke-dasharray:14 16;stroke-dashoffset:15;animation:fAUbbkuZ_draw 2000ms linear 657ms forwards;}.fAUbbkuZ_72{stroke-dasharray:17 19;stroke-dashoffset:18;animation:fAUbbkuZ_draw 2000ms linear 666ms forwards;}.fAUbbkuZ_73{stroke-dasharray:34 36;stroke-dashoffset:35;animation:fAUbbkuZ_draw 2000ms linear 675ms forwards;}.fAUbbkuZ_74{stroke-dasharray:25 27;stroke-dashoffset:26;animation:fAUbbkuZ_draw 2000ms linear 685ms forwards;}.fAUbbkuZ_75{stroke-dasharray:45 47;stroke-dashoffset:46;animation:fAUbbkuZ_draw 2000ms linear 694ms forwards;}.fAUbbkuZ_76{stroke-dasharray:11 13;stroke-dashoffset:12;animation:fAUbbkuZ_draw 2000ms linear 703ms forwards;}.fAUbbkuZ_77{stroke-dasharray:64 66;stroke-dashoffset:65;animation:fAUbbkuZ_draw 2000ms linear 712ms forwards;}.fAUbbkuZ_78{stroke-dasharray:29 31;stroke-dashoffset:30;animation:fAUbbkuZ_draw 2000ms linear 722ms forwards;}.fAUbbkuZ_79{stroke-dasharray:51 53;stroke-dashoffset:52;animation:fAUbbkuZ_draw 2000ms linear 731ms forwards;}.fAUbbkuZ_80{stroke-dasharray:52 54;stroke-dashoffset:53;animation:fAUbbkuZ_draw 2000ms linear 740ms forwards;}.fAUbbkuZ_81{stroke-dasharray:29 31;stroke-dashoffset:30;animation:fAUbbkuZ_draw 2000ms linear 750ms forwards;}.fAUbbkuZ_82{stroke-dasharray:33 35;stroke-dashoffset:34;animation:fAUbbkuZ_draw 2000ms linear 759ms forwards;}.fAUbbkuZ_83{stroke-dasharray:47 49;stroke-dashoffset:48;animation:fAUbbkuZ_draw 2000ms linear 768ms forwards;}.fAUbbkuZ_84{stroke-dasharray:17 19;stroke-dashoffset:18;animation:fAUbbkuZ_draw 2000ms linear 777ms forwards;}.fAUbbkuZ_85{stroke-dasharray:9 11;stroke-dashoffset:10;animation:fAUbbkuZ_draw 2000ms linear 787ms forwards;}.fAUbbkuZ_86{stroke-dasharray:0 2;stroke-dashoffset:1;animation:fAUbbkuZ_draw 2000ms linear 796ms forwards;}.fAUbbkuZ_87{stroke-dasharray:0 2;stroke-dashoffset:1;animation:fAUbbkuZ_draw 2000ms linear 805ms forwards;}.fAUbbkuZ_88{stroke-dasharray:79 81;stroke-dashoffset:80;animation:fAUbbkuZ_draw 2000ms linear 814ms forwards;}.fAUbbkuZ_89{stroke-dasharray:71 73;stroke-dashoffset:72;animation:fAUbbkuZ_draw 2000ms linear 824ms forwards;}.fAUbbkuZ_90{stroke-dasharray:3 5;stroke-dashoffset:4;animation:fAUbbkuZ_draw 2000ms linear 833ms forwards;}.fAUbbkuZ_91{stroke-dasharray:4 6;stroke-dashoffset:5;animation:fAUbbkuZ_draw 2000ms linear 842ms forwards;}.fAUbbkuZ_92{stroke-dasharray:4 6;stroke-dashoffset:5;animation:fAUbbkuZ_draw 2000ms linear 851ms forwards;}.fAUbbkuZ_93{stroke-dasharray:7 9;stroke-dashoffset:8;animation:fAUbbkuZ_draw 2000ms linear 861ms forwards;}.fAUbbkuZ_94{stroke-dasharray:3 5;stroke-dashoffset:4;animation:fAUbbkuZ_draw 2000ms linear 870ms forwards;}.fAUbbkuZ_95{stroke-dasharray:41 43;stroke-dashoffset:42;animation:fAUbbkuZ_draw 2000ms linear 879ms forwards;}.fAUbbkuZ_96{stroke-dasharray:190 192;stroke-dashoffset:191;animation:fAUbbkuZ_draw 2000ms linear 888ms forwards;}.fAUbbkuZ_97{stroke-dasharray:146 148;stroke-dashoffset:147;animation:fAUbbkuZ_draw 2000ms linear 898ms forwards;}.fAUbbkuZ_98{stroke-dasharray:68 70;stroke-dashoffset:69;animation:fAUbbkuZ_draw 2000ms linear 907ms forwards;}.fAUbbkuZ_99{stroke-dasharray:75 77;stroke-dashoffset:76;animation:fAUbbkuZ_draw 2000ms linear 916ms forwards;}.fAUbbkuZ_100{stroke-dasharray:77 79;stroke-dashoffset:78;animation:fAUbbkuZ_draw 2000ms linear 925ms forwards;}.fAUbbkuZ_101{stroke-dasharray:27 29;stroke-dashoffset:28;animation:fAUbbkuZ_draw 2000ms linear 935ms forwards;}.fAUbbkuZ_102{stroke-dasharray:27 29;stroke-dashoffset:28;animation:fAUbbkuZ_draw 2000ms linear 944ms forwards;}.fAUbbkuZ_103{stroke-dasharray:63 65;stroke-dashoffset:64;animation:fAUbbkuZ_draw 2000ms linear 953ms forwards;}.fAUbbkuZ_104{stroke-dasharray:44 46;stroke-dashoffset:45;animation:fAUbbkuZ_draw 2000ms linear 962ms forwards;}.fAUbbkuZ_105{stroke-dasharray:42 44;stroke-dashoffset:43;animation:fAUbbkuZ_draw 2000ms linear 972ms forwards;}.fAUbbkuZ_106{stroke-dasharray:4 6;stroke-dashoffset:5;animation:fAUbbkuZ_draw 2000ms linear 981ms forwards;}.fAUbbkuZ_107{stroke-dasharray:9 11;stroke-dashoffset:10;animation:fAUbbkuZ_draw 2000ms linear 990ms forwards;}.fAUbbkuZ_108{stroke-dasharray:3 5;stroke-dashoffset:4;animation:fAUbbkuZ_draw 2000ms linear 1000ms forwards;}@keyframes fAUbbkuZ_draw{100%{stroke-dashoffset:0;}}@keyframes fAUbbkuZ_fade{0%{stroke-opacity:1;}94.44444444444444%{stroke-opacity:1;}100%{stroke-opacity:0;}}</style></svg>