<!--?xml version="1.0" encoding="utf-8"?-->
<!-- Generator: Adobe Illustrator 20.1.0, SVG Export Plug-In . SVG Version: 6.00 Build 0)  -->
<svg version="1.1" id="Igor__x28_Stroke_x29_" xmlns="http://www.w3.org/2000/svg" xmlns:xlink="http://www.w3.org/1999/xlink" x="0px" y="0px" viewBox="0 0 500 830" style="" xml:space="preserve" class="">
<style type="text/css">
	.st0{fill:none;stroke:#800000;stroke-width:6;stroke-linecap:round;stroke-linejoin:round;stroke-miterlimit:10;}
	.st1{fill:none;stroke:#800000;stroke-width:3;stroke-linecap:round;stroke-linejoin:round;stroke-miterlimit:10;}
	.st2{fill:none;stroke:#800000;stroke-width:5;stroke-linecap:round;stroke-linejoin:round;stroke-miterlimit:10;}
	.st3{fill:none;stroke:#800000;stroke-width:4;stroke-linecap:round;stroke-linejoin:round;stroke-miterlimit:10;}
</style>
<g id="Neck_x26_Torso">
	<path class="st0 VRelIdjC_0" d="M111.9,499.8c0,0-6.4,27.6-10.7,51.6c0,0-12.7,7.3-16,23s2.3,63.3,9,78.3s35.3,74.7,60.7,94.3
		c25.3,19.7,45,34.7,65,34.3c20-0.3,66-23.3,97-61.3c13.3-16.2,22.4-35.2,27.4-55.5c3.4-13.5,5.8-27.2,7-41.1
		c0.9-10.6-0.2-21,1.6-31.6c1.2-6.9,3-13.8,4.3-20.7c1.1-5.6,3.5-13.6,1.5-19.2"></path>
	<path class="st1 VRelIdjC_1" d="M102.5,544.3c0,0-26.3,4.5-35,36.1c-8.7,31.7,19.7,111.3,38,145.3"></path>
	<path class="st1 VRelIdjC_2" d="M78.9,558.5c0,0-20.8,0.2-33.5,28.5c-4.9,10.9-11.1,19.6-11.8,32.1c-0.5,9.3,0.8,18.5,0.9,27.8
		c0.2,20.2-6.6,52.4,6.3,70.4"></path>
	<path class="st1 VRelIdjC_3" d="M57.5,569.1c0,0-39.4,19.3-49.1,35.3"></path>
	<path class="st0 VRelIdjC_4" d="M401.8,635.7c7.8,3.6,12.3,11.3,19.5,15.7c6.2,3.7,25,14.6,30.2,6.6c7-10.8,16.6-8.2,26.5-3.4
		c1.4,0.7,2.9,1.4,4.3,2.1c3.8,1.9,8.1,4.3,8.8,8.5"></path>
	<path class="st2 VRelIdjC_5" d="M401.8,635.7"></path>
	<path class="st0 VRelIdjC_6" d="M493.5,650.4c-5.3-6.6-11.2-9.7-17.6-14.5c-8.3-6.2-15.4-14.7-22.8-22.1c-6.3-6.3-14.3-9-21.6-13.8
		c-17-11-30.7-8.3-48-18s-25.9-7.6-25.9-7.6s20.3,11.6,29.3,23.9c9,12.3,6.7,8.3,6.7,8.3s4.3,16,7.3,29c2.4,10.5,3.3,21.6,6.7,31.9
		c3.3,9.9,7.4,19.1,8.1,29.6c0.6,10.4-0.3,20.2,5,29.9c8,14.7,5.2,33,5.2,33"></path>
	<path class="st1 VRelIdjC_7" d="M420.8,606.7c22.8,22.3,28.6,58,28.3,88.3c-0.1,9.9,0.9,20.3,6.7,28.4"></path>
	<path class="st0 VRelIdjC_8" d="M353.7,587.2c0,0,7.4,0,12.4,7.7c3.5,5.4,19.2,16.5,24.1,9.4"></path>
	<path class="st1 VRelIdjC_9" d="M358.5,588.4c0,0,22.3,69.6-41.1,155"></path>
	<path class="st1 VRelIdjC_10" d="M372,600.6c0,0-1.9,5.1,1.4,12.8c14.8,34,7.1,74.9,2.7,110.3"></path>
</g>
<g id="Face">
	<path class="st0 VRelIdjC_11" d="M88.9,335.3c4.4,20.3,7.1,40.6,9.1,61.3c0.6,6.7,1.1,13.3,1.8,20c1.9,20,5.1,39.9,8.2,59.8
		c1.4,8.9,2.8,17.9,5.6,26.4c4.6,14.2,13.9,24.4,21.6,36.9c10.5,17,20.8,33.8,34.5,48.5c6.5,7,13.2,13.7,20.4,20
		c5.6,4.8,11.3,10,18.6,12.3c5.8,1.9,11.8,3.2,17.9,4.3c14.4,2.5,29.3,3.1,43.7,0.7c6.3-1.1,12.6-2.7,18.6-5.2
		c15.3-6.4,28.3-20.4,39.7-32c16-16.3,29.6-33,40.7-53c9.7-17.6,18.6-35.8,25.2-54.8c4.8-13.8,8.7-28.7,8.1-43.4
		c0,0-1.4-6.4,11.1-11.5c0,0,6.3-10.7,4.2-24.6s3.5-20.9,3.5-20.9s1.4-8.1,0.6-12.2s-4.5-0.9-1.9-9.3s8.2-18.5,2.1-30.8
		c0,0-0.3-1.9-4,1.1"></path>
	<path class="st1 VRelIdjC_12" d="M189.1,161.1c1.7,3.5,2.5,5.4,1.9,9.2c-1.1,6.5-7.7,16.5-12,21.6c-6,7.1-14.2,12.2-20.9,18.6
		c-5.5,5.2-10.9,10.6-14.5,17.2c-2.5,4.5-4.1,9.5-5.6,14.4c-3.4,10.6-8,22.5-8,33.8c0,4.5,1.4,8.4,0.9,13.1c-0.5,5.6-2,11.1-4,16.3
		c-3.5,9.3-8.7,17.9-13.6,26.6c-2.7,4.8-5.3,10-4.6,15.4c0.6,4.9,3.8,9,5.4,13.6c3,8.8-0.2,18.1,2,27c1.4,5.7,3,11.3,3.6,17.2
		c0.6,5.9-0.5,10.9,0.7,16.8c2.9,14.1,8.7,26.9,15.3,39.4c7.2,13.6,12,30.1,16.4,44.9c1.3,4.4,2.6,8.8,4.1,13.2
		c7.1,20.4,21.5,39.3,41.8,46.5c3.2,1.1,6.7,2,9.3,4.3c2.9,2.4,4.3,6.1,5.2,9.8c1.8,7,2.1,14.6-0.8,21.3
		c-2.9,6.6-8.6,11.9-15.8,11.8"></path>
</g>
<g id="Mouth">
	<path class="st1 VRelIdjC_13" d="M248.3,547.1c6.7-1,13.5-1.3,20.2-1.1c-4.9,1.5-9.7,3.2-14.5,5.2c2.2,1,4.7,0.8,7.2,0.7
		c-0.4,0.5-0.8,1-1.2,1.5"></path>
	<path class="st3 VRelIdjC_14" d="M324.4,504.5c-9.2-3.4-19.4,0.5-29.2,0.8c-8.1,0.2-16-2.2-23.7-4.6c-1.4-0.4-2.9-0.9-4.3-0.4
		c-1,0.4-1.6,1.2-2.4,1.9c-4.6,4.7-12.1,6.2-18.2,3.7c-3.4-1.4-6.6-4-10.3-3.5c-1.6,0.2-3,0.9-4.4,1.6c-4.7,2.4-9.6,4.6-14.9,5
		c-5.3,0.4-11.2-1-15.7,1.9"></path>
	<path class="st3 VRelIdjC_15" d="M324.4,504.5c-3.3-1.2-5.3-1.6-8,0.5c-2.9,2.3-5.9,4.5-8.9,6.6c-6,4.3-12.1,8.5-18.6,11.9
		c-10.4,5.6-21.8,9.6-33.5,9.8c-3.3,0.1-6.5-0.1-9.8-0.4c-11.9-0.9-24.3-2.9-33.6-10.3c-4.2-3.3-7.5-7.6-10.7-11.8"></path>
	<path class="st1 VRelIdjC_16" d="M314.4,505.4c-5.2,1.6-12.5,3.6-17.9,4.4c-7,0.9-14.1,0.3-21,1.4c-10.9,1.8-21.6,7.8-32.4,5.4
		c-5-1.1-9.6-4-14.7-4.1c-3.1-0.1-6.2,1-9.3,1.4c-5,0.7-10.2-0.3-14.6-2.7"></path>
	<path class="st1 VRelIdjC_17" d="M206.4,512.3c0.4-0.2,0.8-0.3,1.2-0.2c0.1,0.9,0.2,1.7,0.3,2.6c0.5-0.4,1.1-0.9,1.8-1s1.5,0.4,1.5,1.1
		c0.5-0.2,1-0.3,1.5-0.2c-0.1,0.9-0.2,1.9-0.3,2.8c1.2-0.9,2.4-1.8,3.6-2.7c0.1,0.7,0.1,1.4,0.2,2.1c0.5-0.5,1.9-1.6,2.1-0.9
		s-0.7,3-0.9,3.6s-0.5,1.4-0.1,2c0.8-1.6,1.5-3.2,2.3-4.7c0.2-0.5,0.5-1,1-1.1c0.6-0.1,1.1,0.3,1.3,0.9c0.2,0.5,0.1,1.1,0,1.7
		c0.4-0.1,0.8-0.3,1.2-0.4c0.8,0.5,1,1.6,0.6,2.3c0.9-0.3,0.9-1.5,1.5-2.3c0.5-0.7,1.3-0.9,2.1-1.2c1.6-0.5,3.2-0.9,4.8-1.4
		c0.4-0.1,0.8-0.2,1.2-0.5"></path>
	<path class="st1 VRelIdjC_18" d="M245.8,517.6c-1,0-2,0.4-2.7,1.2c0.1-0.4,0.3-0.8,0.1-1.1c-0.1-0.4-0.6-0.6-0.9-0.3"></path>
	<path class="st1 VRelIdjC_19" d="M255,517.3c-1.1,1.3-1.9,2.9-2.4,4.5c-0.5-0.7-0.3-1.6-0.3-2.4c0.1-0.8-0.1-1.8-0.9-2.1"></path>
	<path class="st1 VRelIdjC_20" d="M300.2,509.2c-0.9-0.5-2,0.1-2.4,1s-0.3,1.9-0.2,2.9c-1-1-2.2-1.7-3.5-2c0.6,0.5,0.6,1.6,0,2.1
		c-0.6,0.1-1-0.4-1.4-0.8c-0.4-0.4-1.2-0.5-1.4,0c-0.1,0.2,0,0.4-0.1,0.5s-0.4,0-0.3-0.1"></path>
</g>
<g id="Nose">
	<path class="st1 VRelIdjC_21" d="M298.6,437c0,0,8.5,17.8,21.5,31.1s11.9,21.3,11.9,21.3"></path>
	<path class="st1 VRelIdjC_22" d="M244.1,463.2c3.7-8.6-1.3-16.4-3.6-25.5c-1.9-7.7-1.6-15.7-1.3-23.6c0.4-13.5,0.6-27.1,0.6-40.7
		c-0.1-19-2.2-45.7-25.6-50.1"></path>
	<path class="st1 VRelIdjC_23" d="M261,438.9c-2.1,5.2,2.8,11.1,1.3,16.5"></path>
	<path class="st3 VRelIdjC_24" d="M212.6,429.1c-0.9,6.3-5,10.8-6.2,16.9c-0.5,2.9-0.8,6.1,0.4,8.8c4.4,10.1,12.5,2.7,18.4,0.4
		c3.9-1.5,8.2,0.6,11.5,3.2c4.3,3.3,8.4,6.4,14.1,6.7c2.9,0.2,5.8-0.6,8.1-2.3c4.5-3.4,12-7,17.8-6.7c4.5,0.2,9.3,2.8,13.4,0.9
		c3.1-1.4,4.7-5.2,4.6-8.6s-1.5-6.7-2.8-9.9"></path>
	<path class="st3 VRelIdjC_25" d="M224.6,457c3.7,2.3,8.1,3.5,12.5,3.4"></path>
	<path class="st3 VRelIdjC_26" d="M262.7,461.1c4.2-0.3,8.4-1.6,12-3.7"></path>
</g>
<g id="Eyebrows">
	<path class="st3 VRelIdjC_27" d="M214.5,317.2c1-1.1,1.6-0.5,2.6-1.6c-0.9,0.2-1.7-1-1.4-1.9s1.2-1.5,2-2c-0.7,0.3-1.5,0.6-2.2,0.9
		c0.8-1.7,1.7-3.3,2.5-5c-1.3,0.3-2.6,0.6-3.9,0.9c0.9-1.2,1.7-2.4,2.6-3.5c-1.3,0.6-2.5,1.1-3.8,1.7c0.7-1.1,1.3-2.2,2-3.3
		c-5.2-1.6-10.9-1.9-16.3-0.8c-2.3,0.5-4.6,1.2-6.9,1.4c-3.4,0.3-6.8-0.4-10.1-1.2c-5.9-1.3-11.8-2.7-17.6-4.1
		c-5.2,2-10.8,2.9-16.3,2.4c0.6-0.7,1.2-1.5,1.7-2.2c-6,1.6-11.8,4.2-17.1,7.6c-0.5-0.2,0.4-0.9,0.7-0.4c0.3,0.4-0.1,1-0.4,1.4
		c-2.4,2.8-4.8,5.5-7.2,8.3c1.1-0.5,2.2-1,3.3-1.4c-2.2,2.8-4.4,5.5-6.6,8.3c1.6-0.4,2.9-1.5,3.7-2.9c-3.6,4.2-6.6,9-8.9,14.1
		c1.8-1.2,3.7-2.4,5.5-3.7c-0.4,1.6-0.9,3.2-1.3,4.8c1.1-0.6,2.2-1.3,3.4-1.3c1.2,0,2.5,0.9,2.5,2.2c1.6-0.9,3.2-1.8,4.8-2.7
		c-0.1,0.9-0.2,1.7-0.2,2.6c0.5-0.8,1.2-1.8,2.2-1.7c1,0,1.2,1.9,0.2,1.8c1.4-1,2.8-2,4.2-3c-0.3,0.8-0.6,1.7-0.9,2.5
		c3.2-2,6.1-4.5,8.6-7.3c-0.9,0.6-1.8,1.2-2.8,1.8c1.2-1.8,2.5-3.6,3.7-5.5c-1,0.8-2.2,1.4-3.4,1.7c4.8-4,10.9-6.6,17.2-7.1
		c5.8-0.5,11.5,0.6,17.3,1.4c6,0.8,12.2,1.1,18-0.6c2.4-0.7,5.8-1.3,6.6,1C205.5,317.6,210.2,316.3,214.5,317.2z"></path>
	<path class="st3 VRelIdjC_28" d="M313.9,322.8c-6.5,0.1-13.2,0.7-18.9,2c0.7-0.1,1.3-0.3,2-0.4c-0.8,0.2-1.7,0-2.4-0.4c0.5-0.1,0.9-0.2,1.4-0.3
		c-0.8-0.5-1.6-1-2.4-1.5c0.5-0.6,1.1-1.2,1.6-1.8c-0.7-0.4-1.5-0.9-2.2-1.3c0.9-0.1,1.7-1.1,1.5-2.1c-0.2-0.9-1.1-1.4-2-1.4
		c2.3-2,1.5-5,3.7-6.9c2.7-2.3,8.6-2.2,12-2.9c3.6-0.7,7-1.9,10.5-2.8c6.5-1.7,13.2-2.3,19.9-1.9c0.6,0,1.4,0.2,1.6,0.7
		c0.3,0.6-0.7,1.3-0.9,0.7c13.8,1,28.8,2.4,39,11.8c0.4,0.3-0.5,0.7-0.1,0.5c1.2,1.7,2.4,3.3,3.5,5c0.6,0.9,0,2.8-0.6,2
		c1.4,1.3,2.8,2.6,4.1,3.8c-0.8,0.1-1.6,0.2-2.5,0.3c2,1.1,3.5,3.1,4,5.3c1,2.3,2.1,4.7,3.1,7c-0.7,0.1-1.3,0.2-2,0.3
		c0.7,1,1.5,2,2.2,3c-0.8-0.2-1.8-0.4-2.5,0c-0.7,0.5-0.8,1.9,0,2c-6.8-1.3-12.5-5.8-18.7-8.8c-5.2-2.5-10.8-4.1-16.4-5.6
		c-3.3-0.9-6.7-1.8-10-2.7c-5.6-1.5-11.3-3.1-17.1-3.4C321.9,322.8,318,322.7,313.9,322.8z"></path>
	<path class="st1 VRelIdjC_29" d="M252.5,296.4c0.8-2.4,0.4-5.2-1.1-7.2c1.7-1.6,3.7-3.8,2.7-5.9c-0.2-0.4-0.5-0.8-0.5-1.3
		c-0.2-1,0.8-1.8,1.4-2.6c1-1.4,1.3-3.2,0.8-4.8c-0.4-1-1-1.9-1.4-3c-0.3-1-0.2-2.4,0.8-3"></path>
	<path class="st1 VRelIdjC_30" d="M211.8,295.6c1.9,0,3.5-1.5,4.4-3.2c2-3.7,1.6-8.2,1.1-12.3"></path>
</g>
<g id="Eyes">
	<path class="st0 VRelIdjC_31" d="M322.3,347.1A2.3,2.3 0,1,1 326.90000000000003,347.1A2.3,2.3 0,1,1 322.3,347.1"></path>
	<path class="st1 VRelIdjC_32" d="M334.1,339.7c1.9,2,3.1,4.6,3.1,7.5c0,6.3-5.6,11.4-12.5,11.4s-12.5-5.1-12.5-11.4c0-4,2.3-7.6,5.8-9.6"></path>
	<path class="st0 VRelIdjC_33" d="M180.29999999999998,346.1A2.3,2.3 0,1,1 184.9,346.1A2.3,2.3 0,1,1 180.29999999999998,346.1"></path>
	<path class="st1 VRelIdjC_34" d="M170.1,346.1A12.5,11.4 0,1,1 195.1,346.1A12.5,11.4 0,1,1 170.1,346.1"></path>
	<path class="st1 VRelIdjC_35" d="M218.1,377.6c5.2-10.2,6.7-22.3,4-33.5"></path>
	<path class="st3 VRelIdjC_36" d="M355.1,350.9c-6.1,3.5-12.3,6.9-19,8.9s-14,2.7-20.7,0.7c-3-0.9-5.9-2.2-8.8-3.3c-3.9-1.4-8-2.2-12.2-2.4
		c-1.4-0.1-3.5-0.8-3.1-2.2c0.4-1.4,6.9-4.4,8.2-5.4c3.9-2.8,7.7-6.1,12.2-8.1c7.2-3.1,15.6-2.4,22.9,0.3S348.7,346.4,355.1,350.9z"></path>
	<path class="st3 VRelIdjC_37" d="M165,339.1c2.7-1.2,5.5-2.1,8.4-2.9c2.4-0.6,4.8-1,7.2-1.2c5.9-0.4,12.1,0.8,16.6,4.6c1.4,1.2,2.6,2.6,4,3.8
		c4.1,3.9,9.5,6.4,15.1,7.1c0.1,2.6-2.6,4.5-5.2,4.9c-4.2,0.6-7.8,0.2-11.9,1.4c-2.7,0.8-5.2,1.5-8,2c-8.6,1.4-16.2,0.8-24.6-1.9
		c-6.2-2-12.3-5.4-17.8-8.6c2.3-2,4.9-3.5,7.5-4.9C159.2,341.8,162.1,340.4,165,339.1z"></path>
	<path class="st1 VRelIdjC_38" d="M288.7,343.8c0,0,12.3-8.1,24.1-9.8s31.9,4.5,36,6.3s11.4,9.3,15.6,10"></path>
	<path class="st1 VRelIdjC_39" d="M217.9,343c0,0-15.4-10.5-23.7-11.5s-26.1,2.9-36.4,3.8s-16.1,12.2-16.1,12.2"></path>
</g>
<g id="Hair">
	<path class="st0 VRelIdjC_40" d="M416.7,304c0.1-4.3,0.3-8.6,0.4-13c-1.3-10.4-2-20.9-2-31.4c2.2,0.2,4.3,0.5,6.5,0.7
		c-5.4-4.9-4.1-13.5-4.7-20.9c-0.5-6.3-2.9-12.5-6.7-17.6c-1.6-2.1-3.5-4.2-3.7-6.8c-0.2-2.1,0.7-4.2,0.7-6.3
		c0-4.3-3.7-7.6-5.3-11.6c-1.6-4,1.5-10.3,5.3-8.4c-3.5-1.8-4.8-10.8-6.6-14.2c-3.7-7-9.2-13-15.5-17.7c2.5,1.1,5.4,1.5,8.1,1.1
		c-0.8-2.7-2.4-5.1-4.6-6.9c0.8,0,1.6-0.1,2.4-0.1c-5.3-3.2-5.8-12.9-12-13.5c2.5-0.1,4.9,0.5,7.1,1.6c-2.7-6.2-6.9-12.1-12.5-16
		c-4-2.8-8.5-4.6-3.1-8.5c-1.7-0.7-4.7-2.6-6.4-2.8c4.7,0.4,9.5,0.5,14.2,0.2c-6.5-3.4-13.4-6.2-20.4-8.1c-3.3-0.9-6.9-1.9-8.5-4.9
		c-1.2-2.2-0.9-5,0.5-7.1c1.3-2,3.1-3.1,5.3-3.6c1.8-0.5,3.2,0.5,4.5-1.5c-6.5-3.1-15.1-3.8-22.2-3.7c-1.9,0-3.9,0.1-5.6-0.8
		s-2.9-3-2-4.7c2.9-1.1,5.7-2.3,8.6-3.4c-3,0.1-21.6,2.3-22.9,0c-1.9-3.3,10-8,11.6-8.8c-7-2.4-16.5-3.5-23.7-1.3
		c-2.2,0.7-4.1,2.9-6.6,2.9c-4.5,0-1.7-3.5-1.9-3.6c-2.1-1.7-5.1-1.8-7.6-0.8c-2.5,0.9-4.6,2.7-6.6,4.4c-1.7,1.4-3.7,3-5.9,2.9
		c-2.2-0.1-4.3-2.8-3-4.6c-2.6,1.5-5.5,3.1-8.5,2.6c-3-0.6-5.3-4.5-3.2-6.7c-5.1,3.1-9.6,7-13.6,11.4c-1.1-2.3-0.8-5.2,0.8-7.2
		c-4.7,4.1-9.6,8-14.7,11.6c-0.6,0.5-1.3,0.9-2,1.1c-2.4,0.5-4.4-2.1-4.2-4.5c0.1-1.6,2.9-4.9,1.6-6.1c-1.1-1-4.4,1.3-5.4,1.9
		c-3.7,2.2-6.8,5.2-9.8,8.3c-5.9,6-11.4,13.1-19.5,16.2c-1.1,0.4-2.3,0.7-3.2,0c-1.2-1-0.7-2.8,0-4.2c1.4-3.1,2.8-6.1,4.2-9.2
		c-6.9,0.4-7.5,11.3-13.6,14.7c-0.4-3.1,0.3-6.4,2-9c-9.9,6.5-17.9,15.8-23,26.5c-1.1,2.3-2.4,5-4.8,5.8c-1.7-2.4-0.7-5.7,0-8.6
		c1-4.2-1.2-9.2-5.7-10.1c-1.3,9.9-9.6,19-16.2,26c-7.4,7.9-15.5,15.2-21.3,24.5c-8.3,13.3-10.8,29.5-18,43.4
		c-4,7.7-6.6,14.2-8.8,22.5c-2.3,8.8-1.6,16.3-1.3,25.4c0.2,8.5-2.2,16.3-2.8,24.7c-0.5,6.6,1,13.2,1,19.7c0,12.4,3,25.6,4.5,37.9
		c0.9,7.9-0.5,25.5,6.3,30.7c2.4-5.7-0.9-15-1.3-21.3c-0.6-8.7-0.6-17.4-0.6-26.1c0-4.4,0-8.8,1-13.1c0.8-3.1,2-6.2,2.3-9.4
		c0.2-2.9-0.4-5.8-0.5-8.8c-0.2-8.2,4-15.8,6.7-23.5c2.1-5.8,2.9-11.5,3.8-17.7s2-12.7,6-17.4c3.4,1.5,6.2-2.9,7.9-6.3
		c1.9-4,4.5-7.7,7.7-10.8c3.4-3.4,7.4-6.2,9.8-10.3c2.7-4.7,3.8-11.4,9-13c1.4-0.4,2.9-0.4,4.3-0.9c1.4-0.5,2.7-1.8,2.4-3.2
		c1.6-0.3,3.3-0.6,4.9-1c5.6-1.7,10.5-5.9,12.9-11.2c0.3,1.5,0.7,3.1,1,4.6c1.5-1.6,3.8-2.2,6-2.6c9.9-1.9,20.2-1.7,29.9,0.6
		c8.4,2,16.4,5.5,24.9,6.5c4.7,0.5,9.5,0.2,14.1-0.9c5.4-1.3,8.9-1.9,14.1,0.1c3.2,1.2,6.8,2.2,10.1,3.1c9.6,2.5,22.6-0.3,32.2-1.6
		c-0.6,1.3-1.2,2.7-1.8,4c11.2,0.2,22.5-1.1,33.4-3.8c-2.2,0.8-1.9,4.5,0.1,5.8s4.6,1.1,6.9,0.9c7.4-0.5,14.8,0,22.1,1.5
		c-0.4,1.4-1.8,2.4-3.3,2.4c4.2,3.9,8.3,7.7,12.5,11.6c-2.3,2-2.8,5.5-2,8.5s2.6,5.5,4.4,8.1c0.8,1.1,1.5,2.1,2.3,3.2
		c2.6,3.6,5.4,7.4,9.6,9c-1.5,0.5-2.9,0.9-4.4,1.4c7.2,4,7.8,13.9,9.9,21.9c0.8,3,4,6.6,6.4,4.6c-0.3,1.5-0.6,3-0.9,4.5
		c1.8,0.3,2.6,2.4,3,4.1c2.4,11.1,2.4,23.5,9.8,32.1c0.9,1.1,2,2.2,2.1,3.6c0,1.1-0.6,2.1-1.1,3.1c-1.8,3.4-2.4,7.3-1.7,11.1
		c1.2,0.7,2.7,1,4.1,0.8c-4,8.5-1.6,18.4-2.3,27.7c-0.7,8.3-4,16.2-5.2,24.4c-1,7.2-0.4,14.6,0.2,21.9c1.7,0.8,3.9-0.2,4.9-1.8
		s1.3-3.6,1.5-5.4C414.5,351.8,416.7,327.9,416.7,304z"></path>
</g>
<style>.VRelIdjC_0{stroke-dasharray:643 645;stroke-dashoffset:644;animation:VRelIdjC_draw 1333ms ease-in-out 0ms forwards;}.VRelIdjC_1{stroke-dasharray:206 208;stroke-dashoffset:207;animation:VRelIdjC_draw 1333ms ease-in-out 16ms forwards;}.VRelIdjC_2{stroke-dasharray:181 183;stroke-dashoffset:182;animation:VRelIdjC_draw 1333ms ease-in-out 33ms forwards;}.VRelIdjC_3{stroke-dasharray:62 64;stroke-dashoffset:63;animation:VRelIdjC_draw 1333ms ease-in-out 49ms forwards;}.VRelIdjC_4{stroke-dasharray:106 108;stroke-dashoffset:107;animation:VRelIdjC_draw 1333ms ease-in-out 66ms forwards;}.VRelIdjC_5{stroke-dasharray:0 2;stroke-dashoffset:1;animation:VRelIdjC_draw 1333ms ease-in-out 83ms forwards;}.VRelIdjC_6{stroke-dasharray:368 370;stroke-dashoffset:369;animation:VRelIdjC_draw 1333ms ease-in-out 99ms forwards;}.VRelIdjC_7{stroke-dasharray:125 127;stroke-dashoffset:126;animation:VRelIdjC_draw 1333ms ease-in-out 116ms forwards;}.VRelIdjC_8{stroke-dasharray:44 46;stroke-dashoffset:45;animation:VRelIdjC_draw 1333ms ease-in-out 133ms forwards;}.VRelIdjC_9{stroke-dasharray:166 168;stroke-dashoffset:167;animation:VRelIdjC_draw 1333ms ease-in-out 149ms forwards;}.VRelIdjC_10{stroke-dasharray:125 127;stroke-dashoffset:126;animation:VRelIdjC_draw 1333ms ease-in-out 166ms forwards;}.VRelIdjC_11{stroke-dasharray:752 754;stroke-dashoffset:753;animation:VRelIdjC_draw 1333ms ease-in-out 183ms forwards;}.VRelIdjC_12{stroke-dasharray:522 524;stroke-dashoffset:523;animation:VRelIdjC_draw 1333ms ease-in-out 199ms forwards;}.VRelIdjC_13{stroke-dasharray:45 47;stroke-dashoffset:46;animation:VRelIdjC_draw 1333ms ease-in-out 216ms forwards;}.VRelIdjC_14{stroke-dasharray:129 131;stroke-dashoffset:130;animation:VRelIdjC_draw 1333ms ease-in-out 233ms forwards;}.VRelIdjC_15{stroke-dasharray:139 141;stroke-dashoffset:140;animation:VRelIdjC_draw 1333ms ease-in-out 249ms forwards;}.VRelIdjC_16{stroke-dasharray:113 115;stroke-dashoffset:114;animation:VRelIdjC_draw 1333ms ease-in-out 266ms forwards;}.VRelIdjC_17{stroke-dasharray:54 56;stroke-dashoffset:55;animation:VRelIdjC_draw 1333ms ease-in-out 283ms forwards;}.VRelIdjC_18{stroke-dasharray:6 8;stroke-dashoffset:7;animation:VRelIdjC_draw 1333ms ease-in-out 299ms forwards;}.VRelIdjC_19{stroke-dasharray:11 13;stroke-dashoffset:12;animation:VRelIdjC_draw 1333ms ease-in-out 316ms forwards;}.VRelIdjC_20{stroke-dasharray:17 19;stroke-dashoffset:18;animation:VRelIdjC_draw 1333ms ease-in-out 333ms forwards;}.VRelIdjC_21{stroke-dasharray:63 65;stroke-dashoffset:64;animation:VRelIdjC_draw 1333ms ease-in-out 349ms forwards;}.VRelIdjC_22{stroke-dasharray:153 155;stroke-dashoffset:154;animation:VRelIdjC_draw 1333ms ease-in-out 366ms forwards;}.VRelIdjC_23{stroke-dasharray:17 19;stroke-dashoffset:18;animation:VRelIdjC_draw 1333ms ease-in-out 383ms forwards;}.VRelIdjC_24{stroke-dasharray:140 142;stroke-dashoffset:141;animation:VRelIdjC_draw 1333ms ease-in-out 399ms forwards;}.VRelIdjC_25{stroke-dasharray:14 16;stroke-dashoffset:15;animation:VRelIdjC_draw 1333ms ease-in-out 416ms forwards;}.VRelIdjC_26{stroke-dasharray:13 15;stroke-dashoffset:14;animation:VRelIdjC_draw 1333ms ease-in-out 433ms forwards;}.VRelIdjC_27{stroke-dasharray:314 316;stroke-dashoffset:315;animation:VRelIdjC_draw 1333ms ease-in-out 449ms forwards;}.VRelIdjC_28{stroke-dasharray:256 258;stroke-dashoffset:257;animation:VRelIdjC_draw 1333ms ease-in-out 466ms forwards;}.VRelIdjC_29{stroke-dasharray:31 33;stroke-dashoffset:32;animation:VRelIdjC_draw 1333ms ease-in-out 483ms forwards;}.VRelIdjC_30{stroke-dasharray:19 21;stroke-dashoffset:20;animation:VRelIdjC_draw 1333ms ease-in-out 499ms forwards;}.VRelIdjC_31{stroke-dasharray:15 17;stroke-dashoffset:16;animation:VRelIdjC_draw 1333ms ease-in-out 516ms forwards;}.VRelIdjC_32{stroke-dasharray:58 60;stroke-dashoffset:59;animation:VRelIdjC_draw 1333ms ease-in-out 533ms forwards;}.VRelIdjC_33{stroke-dasharray:15 17;stroke-dashoffset:16;animation:VRelIdjC_draw 1333ms ease-in-out 549ms forwards;}.VRelIdjC_34{stroke-dasharray:76 78;stroke-dashoffset:77;animation:VRelIdjC_draw 1333ms ease-in-out 566ms forwards;}.VRelIdjC_35{stroke-dasharray:35 37;stroke-dashoffset:36;animation:VRelIdjC_draw 1333ms ease-in-out 583ms forwards;}.VRelIdjC_36{stroke-dasharray:140 142;stroke-dashoffset:141;animation:VRelIdjC_draw 1333ms ease-in-out 599ms forwards;}.VRelIdjC_37{stroke-dasharray:148 150;stroke-dashoffset:149;animation:VRelIdjC_draw 1333ms ease-in-out 616ms forwards;}.VRelIdjC_38{stroke-dasharray:82 84;stroke-dashoffset:83;animation:VRelIdjC_draw 1333ms ease-in-out 633ms forwards;}.VRelIdjC_39{stroke-dasharray:85 87;stroke-dashoffset:86;animation:VRelIdjC_draw 1333ms ease-in-out 649ms forwards;}.VRelIdjC_40{stroke-dasharray:1742 1744;stroke-dashoffset:1743;animation:VRelIdjC_draw 1333ms ease-in-out 666ms forwards;}@keyframes VRelIdjC_draw{100%{stroke-dashoffset:0;}}@keyframes VRelIdjC_fade{0%{stroke-opacity:1;}93.54838709677419%{stroke-opacity:1;}100%{stroke-opacity:0;}}</style></svg>
