<svg id="Layer_1" data-name="Layer 1" xmlns="http://www.w3.org/2000/svg" viewBox="0 0 421.69 574.24" style=""><title>ines</title><path d="M268.52,447.16c11.81,36.3,41.19,66.45,77.18,79.19" transform="translate(-143.22 -120.72)" style="fill:none;stroke:#7f1416;stroke-miterlimit:10;stroke-width:3px" class="yGHdyhFw_0"></path><path d="M251.55,358.58c3.2,1.75,5.1,3.41,10.39,0,3.43-2.21,3.95-5.33,3.31-9.74-.55-3.82-5.22-7.65-7.7-8.28" transform="translate(-143.22 -120.72)" style="fill:none;stroke:#7f1416;stroke-miterlimit:10;stroke-width:2px" class="yGHdyhFw_1"></path><g id="_0.4" data-name="0.4"><path d="M189.67,275a37.56,37.56,0,0,1,18.68-.88l-1.28-1.68a24.67,24.67,0,0,1,12.08,7.89" transform="translate(-143.22 -120.72)" style="fill:none;stroke:#7f1416;stroke-miterlimit:10;stroke-width:2px" class="yGHdyhFw_2"></path><path d="M188.52,278.77c5.61-.86,12.37,1.08,17.92,2.26a2.73,2.73,0,0,0-2.41-2.26,35,35,0,0,0,14.45,2.4" transform="translate(-143.22 -120.72)" style="fill:none;stroke:#7f1416;stroke-miterlimit:10;stroke-width:2px" class="yGHdyhFw_3"></path><path d="M231.3,395c.1,5.75,5.31,10.46,10.94,11.62s11.47-.52,16.72-2.86A66.81,66.81,0,0,0,273.49,395" transform="translate(-143.22 -120.72)" style="fill:none;stroke:#7f1416;stroke-miterlimit:10;stroke-width:2px" class="yGHdyhFw_4"></path><path d="M257.67,265a11,11,0,0,1,4.68-1.44c9.34-1.4,20.07-2.92,29.44-2.56,9.17.36,15.26,1.4,26.13,4.66-11.18-2.34-23.75-3.4-34-.23-7,2.18-14,4.55-21,6.89" transform="translate(-143.22 -120.72)" style="fill:none;stroke:#7f1416;stroke-miterlimit:10;stroke-width:2px" class="yGHdyhFw_5"></path><path d="M309.55,294.49a55.54,55.54,0,0,1-44.49,7.29" transform="translate(-143.22 -120.72)" style="fill:none;stroke:#7f1416;stroke-miterlimit:10;stroke-width:2px" class="yGHdyhFw_6"></path><path d="M228.65,307.15l-4.94,1.5c-5.27,1.58-10.7,3.19-16.17,2.63a9.37,9.37,0,0,1-4.21-1.28,4.49,4.49,0,0,1-2.14-3.68" transform="translate(-143.22 -120.72)" style="fill:none;stroke:#7f1416;stroke-miterlimit:10;stroke-width:2px" class="yGHdyhFw_7"></path><path d="M229.55,388.77a8.06,8.06,0,0,1,10.15-3.85" transform="translate(-143.22 -120.72)" style="fill:none;stroke:#7f1416;stroke-miterlimit:10;stroke-width:2px" class="yGHdyhFw_8"></path><path d="M240.77,385.54c4-1.87,8.62-1.79,12.93-1s8.47,2.37,12.76,3.32a48,48,0,0,0,14.54.94" transform="translate(-143.22 -120.72)" style="fill:none;stroke:#7f1416;stroke-miterlimit:10;stroke-width:2px" class="yGHdyhFw_9"></path></g><g id="_0.35" data-name="0.35"><path d="M268.93,293.53c-1.19,2.74.34,8.86,3.35,9.65" transform="translate(-143.22 -120.72)" style="fill:none;stroke:#7f1416;stroke-miterlimit:10" class="yGHdyhFw_10"></path><path d="M267.64,307.4a47.54,47.54,0,0,0,24,2.37" transform="translate(-143.22 -120.72)" style="fill:none;stroke:#7f1416;stroke-miterlimit:10" class="yGHdyhFw_11"></path><path d="M198,296c1.44-2,4.08-2.74,6.53-3a30,30,0,0,1,22.09,6.43" transform="translate(-143.22 -120.72)" style="fill:none;stroke:#7f1416;stroke-miterlimit:10" class="yGHdyhFw_12"></path><path d="M207,318.46c4.15,1.48,8.64-.61,12.54-2.64l4.84-2.51" transform="translate(-143.22 -120.72)" style="fill:none;stroke:#7f1416;stroke-miterlimit:10" class="yGHdyhFw_13"></path><path d="M227.42,311.76l1.85-1.83" transform="translate(-143.22 -120.72)" style="fill:none;stroke:#7f1416;stroke-miterlimit:10" class="yGHdyhFw_14"></path><path d="M257.67,265.33l-1.3-3.07a12.45,12.45,0,0,0-1.55,12.82" transform="translate(-143.22 -120.72)" style="fill:none;stroke:#7f1416;stroke-miterlimit:10" class="yGHdyhFw_15"></path><path d="M251,268.67a14.58,14.58,0,0,0-2-3.34,12.78,12.78,0,0,0,1.26,9.05" transform="translate(-143.22 -120.72)" style="fill:none;stroke:#7f1416;stroke-miterlimit:10" class="yGHdyhFw_16"></path><path d="M245.07,395.38A6.91,6.91,0,0,0,244,400" transform="translate(-143.22 -120.72)" style="fill:none;stroke:#7f1416;stroke-miterlimit:10" class="yGHdyhFw_17"></path><path d="M237.3,388a8.55,8.55,0,0,0,5,6.11" transform="translate(-143.22 -120.72)" style="fill:none;stroke:#7f1416;stroke-miterlimit:10" class="yGHdyhFw_18"></path><path d="M263.88,293.05c3.61-7.18,12.08-10.91,20.11-11s15.77,2.89,23.12,6.14" transform="translate(-143.22 -120.72)" style="fill:none;stroke:#7f1416;stroke-miterlimit:10" class="yGHdyhFw_19"></path></g><g id="_0.25" data-name="0.25"><path d="M290.34,277.32a52.87,52.87,0,0,1,11,3.33" transform="translate(-143.22 -120.72)" style="fill:none;stroke:#7f1416;stroke-miterlimit:10;stroke-width:0.75px" class="yGHdyhFw_20"></path><path d="M254,296a21.46,21.46,0,0,0,3.68,8.33" transform="translate(-143.22 -120.72)" style="fill:none;stroke:#7f1416;stroke-miterlimit:10;stroke-width:0.75px" class="yGHdyhFw_21"></path><path d="M200.28,288.33a44.91,44.91,0,0,1,13.35,1.61" transform="translate(-143.22 -120.72)" style="fill:none;stroke:#7f1416;stroke-miterlimit:10;stroke-width:0.75px" class="yGHdyhFw_22"></path><path d="M251.67,340A9.24,9.24,0,0,0,248,343.3" transform="translate(-143.22 -120.72)" style="fill:none;stroke:#7f1416;stroke-miterlimit:10;stroke-width:0.75px" class="yGHdyhFw_23"></path><path d="M343.6,339.66a37,37,0,0,1-5.3,14.65" transform="translate(-143.22 -120.72)" style="fill:none;stroke:#7f1416;stroke-miterlimit:10;stroke-width:0.75px" class="yGHdyhFw_24"></path></g><g id="_0.65" data-name="0.65"><path d="M197.11,171.11c-4.84,4.53-6.62,11.49-6.94,18.11a24.83,24.83,0,0,0,.93,9.05,12.19,12.19,0,0,0,5.53,7" transform="translate(-143.22 -120.72)" style="fill:none;stroke:#7f1416;stroke-miterlimit:10;stroke-width:2px" class="yGHdyhFw_25"></path><path d="M247.21,138.62c-9.78-2.26-20.4-1.61-29.4,2.84s-16.19,12.89-18.14,22.74,1.81,20.87,10,26.71" transform="translate(-143.22 -120.72)" style="fill:none;stroke:#7f1416;stroke-miterlimit:10;stroke-width:2px" class="yGHdyhFw_26"></path><path d="M242,142.42l42.81-15.94c4.87-1.82,9.8-3.65,14.95-4.38,6.86-1,13.86.05,20.62,1.59a136,136,0,0,1,87.13,65.11" transform="translate(-143.22 -120.72)" style="fill:none;stroke:#7f1416;stroke-miterlimit:10;stroke-width:2px" class="yGHdyhFw_27"></path><path d="M197.53,203.5c-8.11,17.78-9.5,37.83-9.78,57.36-.15,10.43.13,21.46,4.22,31.22,1.83,4.35,5.42,7.82,6.48,12.24,2.57,10.67-3.95,21.88-2.77,33,1.59,14.87,8.92,29,15.41,42.27a348.18,348.18,0,0,0,24.49,42.19" transform="translate(-143.22 -120.72)" style="fill:none;stroke:#7f1416;stroke-miterlimit:10;stroke-width:2px" class="yGHdyhFw_28"></path><path d="M233.31,418.32c3.53,6.71,5,14.61,10.08,20.26s12.77,8,20.26,8.06,14.8-2.09,21.93-4.38" transform="translate(-143.22 -120.72)" style="fill:none;stroke:#7f1416;stroke-miterlimit:10;stroke-width:2px" class="yGHdyhFw_29"></path><path d="M186,299c-.54,12.85,1,24.8.48,37.65-.39,9.42-.82,19-4,27.88-4.37,12.29-13.92,23.37-13.18,36.38.64,11.35,9.16,22.59,4.93,33.13-2.52,6.25-8.85,10-12.83,15.46a24.24,24.24,0,0,0,.3,28.31" transform="translate(-143.22 -120.72)" style="fill:none;stroke:#7f1416;stroke-miterlimit:10;stroke-width:2px" class="yGHdyhFw_30"></path><path d="M405.65,186.35c4.64,11.52,16.43,18.58,22.75,29.27,5,8.4,6.19,18.4,8.85,27.78,6.65,23.46,22.29,43.1,35.95,63.3s26,43.13,24.56,67.47c-1,17.08-8.35,36.14,1.68,50,7.7,10.64,23.56,14.15,28.86,26.17,6.66,15.1-7.87,32.16-4.85,48.38,1.94,10.41,11.47,18.56,21.94,20.14,4.18.63,8.57.37,12.49,2s7.22,6,5.61,9.92c-.75,1.84-2.39,3.13-3.9,4.42-9,7.63-15.51,21-9.33,31" transform="translate(-143.22 -120.72)" style="fill:none;stroke:#7f1416;stroke-miterlimit:10;stroke-width:2px" class="yGHdyhFw_31"></path><path d="M342.68,413.87a270.52,270.52,0,0,1-61.46,29.47" transform="translate(-143.22 -120.72)" style="fill:none;stroke:#7f1416;stroke-miterlimit:10;stroke-width:2px" class="yGHdyhFw_32"></path><path d="M495,499.08l17.35,3.29" transform="translate(-143.22 -120.72)" style="fill:none;stroke:#7f1416;stroke-miterlimit:10;stroke-width:2px" class="yGHdyhFw_33"></path><path d="M344.68,248a64.92,64.92,0,0,0,12.41,39.43" transform="translate(-143.22 -120.72)" style="fill:none;stroke:#7f1416;stroke-miterlimit:10;stroke-width:2px" class="yGHdyhFw_34"></path><path d="M353.18,283A434.8,434.8,0,0,0,347,373" transform="translate(-143.22 -120.72)" style="fill:none;stroke:#7f1416;stroke-miterlimit:10;stroke-width:2px" class="yGHdyhFw_35"></path><path d="M194,210.24c-9.37,28.75-16.11,59.86-8.16,89" transform="translate(-143.22 -120.72)" style="fill:none;stroke:#7f1416;stroke-miterlimit:10;stroke-width:2px" class="yGHdyhFw_36"></path></g><g id="_0.5" data-name="0.5"><path d="M211.1,194.47l-.09-4.92,3.39,3.23a12.36,12.36,0,0,1,3.49-7.74l-.37,4.44,11.08-9.77-2.19,7a32.33,32.33,0,0,1,19.08-5.27l-4.35,5.08a71.87,71.87,0,0,1,14.26-2.37l-2.7,3.24a81.12,81.12,0,0,1,23.17-1.09l-7.13,2.81a169.15,169.15,0,0,1,33.06,5.52,10.48,10.48,0,0,0-6.35.61,55.31,55.31,0,0,1,22.41,9.58l-5.07-.81a71.61,71.61,0,0,1,18,13.93l-7.73-2.25c4.92,3,14.1,8.35,17.46,13" transform="translate(-143.22 -120.72)" style="fill:none;stroke:#7f1416;stroke-miterlimit:10;stroke-width:2px" class="yGHdyhFw_37"></path><path d="M197.11,206.82c-.53-1.35.67-2.44.83-3.89a4.26,4.26,0,0,1,2.42-.23,8.7,8.7,0,0,0-.29-3.09,2.2,2.2,0,0,0,2.72-3.45,4.89,4.89,0,0,1,3.43.19,2.09,2.09,0,0,0-.62-2.74,4.21,4.21,0,0,0,4.75.54" transform="translate(-143.22 -120.72)" style="fill:none;stroke:#7f1416;stroke-miterlimit:10;stroke-width:2px" class="yGHdyhFw_38"></path><path d="M209.61,194.3c-5.1-.62-9-5.16-10.52-10.07s-1.05-10.17-.6-15.29" transform="translate(-143.22 -120.72)" style="fill:none;stroke:#7f1416;stroke-miterlimit:10;stroke-width:2px" class="yGHdyhFw_39"></path><path d="M244,138.64c-11.46-.86-23.86,5.62-29.2,15.81s-5.79,22.32-3.93,33.66" transform="translate(-143.22 -120.72)" style="fill:none;stroke:#7f1416;stroke-miterlimit:10;stroke-width:2px" class="yGHdyhFw_40"></path><path d="M246.18,139c-4.11-1.13-8.55.12-12.23,2.26-7,4.09-11.93,11.22-14.85,18.83s-3.56,24.6-4.7,32.67" transform="translate(-143.22 -120.72)" style="fill:none;stroke:#7f1416;stroke-miterlimit:10;stroke-width:2px" class="yGHdyhFw_41"></path><path d="M215.82,185.14c1.81-11,11.09-19.33,21.16-24s21.19-6.54,31.72-10,21.08-9.22,26.44-18.94" transform="translate(-143.22 -120.72)" style="fill:none;stroke:#7f1416;stroke-miterlimit:10;stroke-width:2px" class="yGHdyhFw_42"></path><path d="M295,136.44c-3.1,8.48-11,14.36-19.35,17.85s-17.31,5.08-25.87,8-17,7.43-21.88,15.06" transform="translate(-143.22 -120.72)" style="fill:none;stroke:#7f1416;stroke-miterlimit:10;stroke-width:2px" class="yGHdyhFw_43"></path><path d="M293.27,198.61a80.55,80.55,0,0,0,45.19,40" transform="translate(-143.22 -120.72)" style="fill:none;stroke:#7f1416;stroke-miterlimit:10;stroke-width:2px" class="yGHdyhFw_44"></path><path d="M306.41,212.1a60.19,60.19,0,0,0,34.13,16.57" transform="translate(-143.22 -120.72)" style="fill:none;stroke:#7f1416;stroke-miterlimit:10;stroke-width:2px" class="yGHdyhFw_45"></path><path d="M387.09,350.44c-7.18,11.79-24.41,31.28-32.48,42.47A120.46,120.46,0,0,0,334.33,485" transform="translate(-143.22 -120.72)" style="fill:none;stroke:#7f1416;stroke-miterlimit:10;stroke-width:2px" class="yGHdyhFw_46"></path><path d="M379.37,372.88C365,394.66,350.56,416.72,342,441.35s-10.66,52.49-.25,76.39" transform="translate(-143.22 -120.72)" style="fill:none;stroke:#7f1416;stroke-miterlimit:10;stroke-width:2px" class="yGHdyhFw_47"></path><path d="M336.15,469a112.47,112.47,0,0,0,21.39,62" transform="translate(-143.22 -120.72)" style="fill:none;stroke:#7f1416;stroke-miterlimit:10;stroke-width:2px" class="yGHdyhFw_48"></path><path d="M381.36,388c1.22,17.24-5.27,34.07-12.78,49.63s-16.25,30.82-20.06,47.68c-4.3,19-2,38.81.23,58.17" transform="translate(-143.22 -120.72)" style="fill:none;stroke:#7f1416;stroke-miterlimit:10;stroke-width:2px" class="yGHdyhFw_49"></path><path d="M347.51,428.52c-1.23,1.14-1.23,3.05-1.13,4.73A373.61,373.61,0,0,0,350.53,471" transform="translate(-143.22 -120.72)" style="fill:none;stroke:#7f1416;stroke-miterlimit:10;stroke-width:2px" class="yGHdyhFw_50"></path><path d="M358.14,504.13a157.72,157.72,0,0,0-3.07,70.11c5.21,28.38,18.27,56.58,12.75,84.91" transform="translate(-143.22 -120.72)" style="fill:none;stroke:#7f1416;stroke-miterlimit:10;stroke-width:2px" class="yGHdyhFw_51"></path><path d="M352.92,567.88c-6,12.12-12.05,25.73-8.41,38.78,2.52,9,9.24,16.1,15,23.47a130.94,130.94,0,0,1,19.94,36.21" transform="translate(-143.22 -120.72)" style="fill:none;stroke:#7f1416;stroke-miterlimit:10;stroke-width:2px" class="yGHdyhFw_52"></path><path d="M351.07,541.51c-7.51,10.85-11.67,24.42-9.42,37.41s11.6,25,24.3,28.57" transform="translate(-143.22 -120.72)" style="fill:none;stroke:#7f1416;stroke-miterlimit:10;stroke-width:2px" class="yGHdyhFw_53"></path><path d="M351.44,566a69,69,0,0,0-11.28,23.93,28.16,28.16,0,0,0-1.07,8.69c.31,4.85,2.58,9.34,5.06,13.52a119.88,119.88,0,0,0,15.77,21" transform="translate(-143.22 -120.72)" style="fill:none;stroke:#7f1416;stroke-miterlimit:10;stroke-width:2px" class="yGHdyhFw_54"></path><path d="M275,447c4,4.74,7.72,9.89,9.84,15.73s2.53,12.5.09,18.23c-4.14,9.72-15.09,14.49-21.8,22.66a31.25,31.25,0,0,0-3.72,33" transform="translate(-143.22 -120.72)" style="fill:none;stroke:#7f1416;stroke-miterlimit:10;stroke-width:2px" class="yGHdyhFw_55"></path><path d="M264.91,446.76a131.67,131.67,0,0,0-8.41,15,45,45,0,0,0-3.07,7.8A28.05,28.05,0,0,0,259,494.49" transform="translate(-143.22 -120.72)" style="fill:none;stroke:#7f1416;stroke-miterlimit:10;stroke-width:2px" class="yGHdyhFw_56"></path><path d="M243.07,482c-.07,9.29-6.57,17.77-6,27,.46,7.56,5.52,14,7.55,21.32,3.1,11.17-1.16,23-6.05,33.47S228,585.05,228,596.64c.06,18.33,14.6,35.26,11.12,53.26" transform="translate(-143.22 -120.72)" style="fill:none;stroke:#7f1416;stroke-miterlimit:10;stroke-width:2px" class="yGHdyhFw_57"></path><path d="M232.9,475.59c2.84,22.37-14.8,43.2-13.35,65.7,1.07,16.67,12.33,30.73,18,46.44A71.1,71.1,0,0,1,241.75,613" transform="translate(-143.22 -120.72)" style="fill:none;stroke:#7f1416;stroke-miterlimit:10;stroke-width:2px" class="yGHdyhFw_58"></path><path d="M215.55,391.83c-2.92,14.85-5.42,30.21-2.35,45s12.92,29.14,27.45,33.36" transform="translate(-143.22 -120.72)" style="fill:none;stroke:#7f1416;stroke-miterlimit:10;stroke-width:2px" class="yGHdyhFw_59"></path><path d="M190.34,406.3c-3.91,11.46-4.45,22.28-14.2,29.46-8.79,6.46-19.52,10.69-26.18,19.33-9.3,12.07-7,31.43,4.83,41" transform="translate(-143.22 -120.72)" style="fill:none;stroke:#7f1416;stroke-miterlimit:10;stroke-width:2px" class="yGHdyhFw_60"></path><path d="M177,442.74c-11,13.61-17.77,31.35-15.41,48.7s15.06,33.63,32.16,37.4" transform="translate(-143.22 -120.72)" style="fill:none;stroke:#7f1416;stroke-miterlimit:10;stroke-width:2px" class="yGHdyhFw_61"></path><path d="M206.92,449.39c-5.7,41.47-36.93,66.36-45,107.43-1.25,6.4-1.85,13-.67,19.44,1.26,6.91,4.53,13.31,8.42,19.16,7.64,11.47,19.09,21.81,32.85,22.57" transform="translate(-143.22 -120.72)" style="fill:none;stroke:#7f1416;stroke-miterlimit:10;stroke-width:2px" class="yGHdyhFw_62"></path><path d="M199.8,487.41l-23.66,56.92c-5,12.06-10.06,24.19-13,36.91-3.21,13.77-3.8,28.78,2.31,41.53s20.28,22.31,34.16,19.66" transform="translate(-143.22 -120.72)" style="fill:none;stroke:#7f1416;stroke-miterlimit:10;stroke-width:2px" class="yGHdyhFw_63"></path><path d="M186.47,336q.48,24.45,1.48,48.88c.29,7.19.63,14.43,2.39,21.41s4.86,13.46,5.47,20.54c.7,7.92-1.8,15.74-2.43,23.67-.78,9.81-3.45,19.85,1.33,28.46" transform="translate(-143.22 -120.72)" style="fill:none;stroke:#7f1416;stroke-miterlimit:10;stroke-width:2px" class="yGHdyhFw_64"></path><path d="M186.84,362.51A34.34,34.34,0,0,1,175,386.15c-4.28,3.65-9.71,6.55-11.79,11.77-2.47,6.22.76,13.44-1,19.89-2.19,8-11.07,12.14-15.06,19.38-3.84,7-2.45,15.95,1.79,22.68s10.88,11.59,17.74,15.62" transform="translate(-143.22 -120.72)" style="fill:none;stroke:#7f1416;stroke-miterlimit:10;stroke-width:2px" class="yGHdyhFw_65"></path><path d="M277.51,160c24.65-5.79,50.31-.13,75.53,2.11,10.37.92,21.46,1.09,30.39-4.25" transform="translate(-143.22 -120.72)" style="fill:none;stroke:#7f1416;stroke-miterlimit:10;stroke-width:2px" class="yGHdyhFw_66"></path><path d="M271.47,163.51c19-3.13,38.15,2.34,57.14,5.43s40.2,3.23,55.36-8.61" transform="translate(-143.22 -120.72)" style="fill:none;stroke:#7f1416;stroke-miterlimit:10;stroke-width:2px" class="yGHdyhFw_67"></path><path d="M284.42,180.11a115.67,115.67,0,0,1,76.15,8.37c14.4,7,28,17.14,43.95,18.34" transform="translate(-143.22 -120.72)" style="fill:none;stroke:#7f1416;stroke-miterlimit:10;stroke-width:2px" class="yGHdyhFw_68"></path><path d="M313.48,193.45c12.64.88,23.67,8.39,35.3,13.41a93.93,93.93,0,0,0,64,3.59" transform="translate(-143.22 -120.72)" style="fill:none;stroke:#7f1416;stroke-miterlimit:10;stroke-width:2px" class="yGHdyhFw_69"></path><path d="M342.77,217.32a61.44,61.44,0,0,0,61.39,5.1,73.4,73.4,0,0,0,11.31-7" transform="translate(-143.22 -120.72)" style="fill:none;stroke:#7f1416;stroke-miterlimit:10;stroke-width:2px" class="yGHdyhFw_70"></path><path d="M337.1,217.47c4.83,6.71,10.39,9.25,18.47,11" transform="translate(-143.22 -120.72)" style="fill:none;stroke:#7f1416;stroke-miterlimit:10;stroke-width:2px" class="yGHdyhFw_71"></path><path d="M458.37,287.52c4.92,8.19,5.35,18.29,8.86,27.19,3.9,9.89,11.42,17.83,17.66,26.45s11.46,19,9.65,29.52c-1.38,8-6.64,14.78-8.7,22.61-2.64,10,.31,20.89,5.8,29.69s13.33,15.85,21.24,22.55c4.53,3.84,9.38,8,10.76,13.77,2,8.55-4.23,16.64-6.42,25.15-3.72,14.49,6.73,31,21.41,33.87" transform="translate(-143.22 -120.72)" style="fill:none;stroke:#7f1416;stroke-miterlimit:10;stroke-width:2px" class="yGHdyhFw_72"></path><path d="M515.4,432.5A27.61,27.61,0,0,0,509.23,415c-7-8.53-19.22-13.24-22.15-23.85-2.19-7.94,1.74-17-1.8-24.4-2.28-4.8-7.15-7.73-10.8-11.59-8.37-8.87-9.85-22-10.9-34.17" transform="translate(-143.22 -120.72)" style="fill:none;stroke:#7f1416;stroke-miterlimit:10;stroke-width:2px" class="yGHdyhFw_73"></path><path d="M482.13,411.46c5.08,12.49-1.47,27.27,3,40,3.94,11.34,15.41,18.06,22.62,27.66A42.16,42.16,0,0,1,515.46,511" transform="translate(-143.22 -120.72)" style="fill:none;stroke:#7f1416;stroke-miterlimit:10;stroke-width:2px" class="yGHdyhFw_74"></path><path d="M487.28,459.12c11.28,25.62,3.27,57.39,17.47,81.51,4.3,7.29,10.55,13.71,12.48,22,.84,3.6.8,7.38,1.81,10.93,1.89,6.57,7.09,11.56,10.86,17.26,10.25,15.52,8.89,37.76-3.18,51.92" transform="translate(-143.22 -120.72)" style="fill:none;stroke:#7f1416;stroke-miterlimit:10;stroke-width:2px" class="yGHdyhFw_75"></path><path d="M521.43,508.42c4,4.92,1.43,12.28-1.88,17.68s-7.44,11.28-6.06,17.46c2,8.82,13.4,11.61,18.72,18.92,4.76,6.55,3.33,16.78-3.05,21.77" transform="translate(-143.22 -120.72)" style="fill:none;stroke:#7f1416;stroke-miterlimit:10;stroke-width:2px" class="yGHdyhFw_76"></path><path d="M530.69,579.45c3.92-6.21-.58-14.4-6.08-19.25s-12.45-8.84-15.05-15.7c-3.71-9.82,3.13-20.26,4.2-30.7,1-10.27-3.74-20.47-10.75-28-4.86-5.26-11.14-10.18-12.07-17.27" transform="translate(-143.22 -120.72)" style="fill:none;stroke:#7f1416;stroke-miterlimit:10;stroke-width:2px" class="yGHdyhFw_77"></path><path d="M495.8,539.53a81.83,81.83,0,0,0,19.48,47.7c4,4.59,8.44,8.76,11.87,13.75s5.78,11.1,4.75,17.07c-1.79,10.32-12.87,17-14.92,27.31-1,4.86.17,10.19-2.08,14.61-1.7,3.35-5,5.51-8.32,7.38s-6.72,3.73-8.91,6.8-2.61,7.77.14,10.33" transform="translate(-143.22 -120.72)" style="fill:none;stroke:#7f1416;stroke-miterlimit:10;stroke-width:2px" class="yGHdyhFw_78"></path><path d="M436.09,278.82c5,5.53,6.81,13.34,6.72,20.8s-1.87,14.78-3.15,22.13c-3.51,20.06-3,42,8.17,59.05,3.15,4.79,7.05,9.05,10.15,13.86a50.48,50.48,0,0,1,7.92,29.12c-.65,16.2-9.1,31.46-8.82,47.67.52,29.42,28.94,51.85,32.74,81" transform="translate(-143.22 -120.72)" style="fill:none;stroke:#7f1416;stroke-miterlimit:10;stroke-width:2px" class="yGHdyhFw_79"></path><path d="M450.48,499.52c-.57,8.47,5,16,10,22.84,7.47,10.33,14.3,21.33,18,33.52s4.13,25.75-1,37.42" transform="translate(-143.22 -120.72)" style="fill:none;stroke:#7f1416;stroke-miterlimit:10;stroke-width:2px" class="yGHdyhFw_80"></path><path d="M449.86,524.53c1.4,11.88,2.75,24.18-.9,35.57-1.66,5.16-4.31,10-5.89,15.16a39.43,39.43,0,0,0,.88,25.43c2.81,7.32,7.86,14,8.34,21.83.44,7.24-3.14,14-5.1,21-5.36,19.16,3.49,42.06,21.51,50.5" transform="translate(-143.22 -120.72)" style="fill:none;stroke:#7f1416;stroke-miterlimit:10;stroke-width:2px" class="yGHdyhFw_81"></path><path d="M421.19,585.45c4.16,11.65,6.59,24.72,2.16,36.27-1.34,3.49-3.27,6.73-4.67,10.19a36.83,36.83,0,0,0-1.53,22.72" transform="translate(-143.22 -120.72)" style="fill:none;stroke:#7f1416;stroke-miterlimit:10;stroke-width:2px" class="yGHdyhFw_82"></path><path d="M443.21,685.08c-2.26-6.58-4.64-13.37-9.38-18.46-3.69-4-8.53-6.59-13.19-9.33-12.87-7.6-25.93-18.24-28-33-2.17-15.86,9.06-30.44,10.95-46.33a40.67,40.67,0,0,0-4.24-23.39" transform="translate(-143.22 -120.72)" style="fill:none;stroke:#7f1416;stroke-miterlimit:10;stroke-width:2px" class="yGHdyhFw_83"></path><path d="M398.48,231c-.91,2.29.25,4.86,1.6,6.93,7.77,11.91,21.82,18.16,31.16,28.88" transform="translate(-143.22 -120.72)" style="fill:none;stroke:#7f1416;stroke-miterlimit:10;stroke-width:2px" class="yGHdyhFw_84"></path><path d="M387.09,229.4c4,10.68,12.58,18.95,21.16,26.48s17.64,14.95,23.32,24.85,7.25,23.14.56,32.39" transform="translate(-143.22 -120.72)" style="fill:none;stroke:#7f1416;stroke-miterlimit:10;stroke-width:2px" class="yGHdyhFw_85"></path><path d="M250.5,358.49l-12.44,0c-.48.94,1,2.05,1.77,1.31" transform="translate(-143.22 -120.72)" style="fill:none;stroke:#7f1416;stroke-miterlimit:10;stroke-width:2px" class="yGHdyhFw_86"></path><path d="M288,389.09l-5-1" transform="translate(-143.22 -120.72)" style="fill:none;stroke:#7f1416;stroke-miterlimit:10;stroke-width:2px" class="yGHdyhFw_87"></path><path d="M282.8,388.43a3.23,3.23,0,0,1-2.38,2.43,10.11,10.11,0,0,1-3.56.17,97.17,97.17,0,0,0-31.26,3.07" transform="translate(-143.22 -120.72)" style="fill:none;stroke:#7f1416;stroke-miterlimit:10;stroke-width:2px" class="yGHdyhFw_88"></path><path d="M244.23,394.1c-4.53.56-8-1-11.69-3.66" transform="translate(-143.22 -120.72)" style="fill:none;stroke:#7f1416;stroke-miterlimit:10;stroke-width:2px" class="yGHdyhFw_89"></path><path d="M231.52,390.93a13.59,13.59,0,0,1-8-5.95" transform="translate(-143.22 -120.72)" style="fill:none;stroke:#7f1416;stroke-miterlimit:10;stroke-width:2px" class="yGHdyhFw_90"></path><path d="M263.36,301.47c1.69-1.28,2.33-3.47,3.37-5.32,2-3.54,5.87-5,9.77-6.15a38.34,38.34,0,0,1,13.3-1.36c7.94.81,15.13,4.49,22.95,5.87" transform="translate(-143.22 -120.72)" style="fill:none;stroke:#7f1416;stroke-miterlimit:10;stroke-width:2px" class="yGHdyhFw_91"></path><path d="M203.33,310c-.39.22-2.61-3.25-2.59-6.38a5.19,5.19,0,0,1,2.75-4.47,12.13,12.13,0,0,1,5.41-1.08c7-.2,14.55,1.16,19.81,5.87" transform="translate(-143.22 -120.72)" style="fill:none;stroke:#7f1416;stroke-miterlimit:10;stroke-width:2px" class="yGHdyhFw_92"></path><path d="M200.05,305.66c-1.58-.74-2-3-1.14-4.54a6.14,6.14,0,0,1,4.27-2.74,61.72,61.72,0,0,1,9.12-.28" transform="translate(-143.22 -120.72)" style="fill:none;stroke:#7f1416;stroke-miterlimit:10;stroke-width:2px" class="yGHdyhFw_93"></path><path d="M219.3,302a.88.88,0,0,0-.25,1.09,1.12,1.12,0,0,0,1.25-.12,1.23,1.23,0,0,0-.35-.83c-.25-.19-.71,0-.69.26" transform="translate(-143.22 -120.72)" style="fill:none;stroke:#7f1416;stroke-miterlimit:10;stroke-width:2px" class="yGHdyhFw_94"></path><path d="M282.8,289.13a6.64,6.64,0,0,0,.79,8.79,8,8,0,0,0,9.08.88A6.23,6.23,0,0,0,294.8,297a7,7,0,0,0,.95-6.88" transform="translate(-143.22 -120.72)" style="fill:none;stroke:#7f1416;stroke-miterlimit:10;stroke-width:2px" class="yGHdyhFw_95"></path><path d="M288.29,293a.53.53,0,1,0,1-.26.87.87,0,0,0-.8,0c-.23.17-.08.66.18.55" transform="translate(-143.22 -120.72)" style="fill:none;stroke:#7f1416;stroke-miterlimit:10;stroke-width:2px" class="yGHdyhFw_96"></path><path d="M244,409.27a34.46,34.46,0,0,0,16.67-.56" transform="translate(-143.22 -120.72)" style="fill:none;stroke:#7f1416;stroke-miterlimit:10;stroke-width:2px" class="yGHdyhFw_97"></path><path d="M212.46,298.23a7.71,7.71,0,0,0,8,10.74c2.92-.35,5.67-2.77,5.73-5.72" transform="translate(-143.22 -120.72)" style="fill:none;stroke:#7f1416;stroke-miterlimit:10;stroke-width:2px" class="yGHdyhFw_98"></path><path d="M255.05,275.67c.14-.84,1.65-1.28,1.79-2.13.52.51,0,0,.71-.14a36.55,36.55,0,0,0,8.59-2.2" transform="translate(-143.22 -120.72)" style="fill:none;stroke:#7f1416;stroke-miterlimit:10;stroke-width:2px" class="yGHdyhFw_99"></path><path d="M217.91,279.77a35.81,35.81,0,0,1,11.28,30.54" transform="translate(-143.22 -120.72)" style="fill:none;stroke:#7f1416;stroke-miterlimit:10;stroke-width:2px" class="yGHdyhFw_100"></path><path d="M229.39,310.34q-2,10-4,20c-1.08,5.51-5.36,8.79-6.89,14.27a11,11,0,0,0-.39,5.14,11.57,11.57,0,0,0,1.53,3.6c3.06,5.07,9.66,12.37,16.27,9.14" transform="translate(-143.22 -120.72)" style="fill:none;stroke:#7f1416;stroke-miterlimit:10;stroke-width:2px" class="yGHdyhFw_101"></path><path d="M259.45,475.52a116.2,116.2,0,0,0,54,65.16" transform="translate(-143.22 -120.72)" style="fill:none;stroke:#7f1416;stroke-miterlimit:10;stroke-width:2px" class="yGHdyhFw_102"></path><path d="M345,233.82c-1.35,10.57,2.48,21.4,9,29.82s15.58,14.61,25.19,19.21c4.66,2.23,9.55,4.16,13.6,7.37a26,26,0,0,1,.45,40.33" transform="translate(-143.22 -120.72)" style="fill:none;stroke:#7f1416;stroke-miterlimit:10;stroke-width:2px" class="yGHdyhFw_103"></path><path d="M357.88,274.6c5.7,5.5,11.46,11.08,15.51,17.88s6.27,15.07,4.25,22.73c-2.88,10.9-13.23,17.88-19.88,27-9.64,13.21-11.21,30.45-12.41,46.76" transform="translate(-143.22 -120.72)" style="fill:none;stroke:#7f1416;stroke-miterlimit:10;stroke-width:2px" class="yGHdyhFw_104"></path><path d="M380.38,292.93c9.26,13.47,8.17,33.16-2.52,45.53-4.47,5.17-10.26,9-15.18,13.76a56.42,56.42,0,0,0-16.06,49.46" transform="translate(-143.22 -120.72)" style="fill:none;stroke:#7f1416;stroke-miterlimit:10;stroke-width:2px" class="yGHdyhFw_105"></path><path d="M184.76,296.58a24.81,24.81,0,0,1-11.15,27.83c-3,1.68-6.25,2.72-9.21,4.42a24.22,24.22,0,0,0-11.57,24.11" transform="translate(-143.22 -120.72)" style="fill:none;stroke:#7f1416;stroke-miterlimit:10;stroke-width:2px" class="yGHdyhFw_106"></path><path d="M337.08,222.47A90.51,90.51,0,0,1,344.93,251" transform="translate(-143.22 -120.72)" style="fill:none;stroke:#7f1416;stroke-miterlimit:10;stroke-width:2px" class="yGHdyhFw_107"></path><path d="M281.49,293.47a10.46,10.46,0,0,1,13.34-.34" transform="translate(-143.22 -120.72)" style="fill:none;stroke:#7f1416;stroke-miterlimit:10;stroke-width:2px" class="yGHdyhFw_108"></path><path d="M283.67,290l9.95,1.64" transform="translate(-143.22 -120.72)" style="fill:none;stroke:#7f1416;stroke-miterlimit:10;stroke-width:2px" class="yGHdyhFw_109"></path><path d="M225.38,304.34c0-.77-.68-1.35-1.35-1.73a12.46,12.46,0,0,0-10.66-.67c-.59-1.13.87-2.34,2.14-2.38s2.6.46,3.81.07" transform="translate(-143.22 -120.72)" style="fill:none;stroke:#7f1416;stroke-miterlimit:10;stroke-width:2px" class="yGHdyhFw_110"></path><path d="M284,291.5c-.49,3.06,3.22,5.9,6,4.62" transform="translate(-143.22 -120.72)" style="fill:none;stroke:#7f1416;stroke-miterlimit:10;stroke-width:2px" class="yGHdyhFw_111"></path><path d="M215.33,301.44a3.66,3.66,0,0,0,4.15,4.48" transform="translate(-143.22 -120.72)" style="fill:none;stroke:#7f1416;stroke-miterlimit:10;stroke-width:2px" class="yGHdyhFw_112"></path></g><style data-made-with="vivus-instant">.yGHdyhFw_0{stroke-dasharray:115 117;stroke-dashoffset:116;animation:yGHdyhFw_draw 2000ms linear 0ms forwards;}.yGHdyhFw_1{stroke-dasharray:35 37;stroke-dashoffset:36;animation:yGHdyhFw_draw 2000ms linear 8ms forwards;}.yGHdyhFw_2{stroke-dasharray:36 38;stroke-dashoffset:37;animation:yGHdyhFw_draw 2000ms linear 17ms forwards;}.yGHdyhFw_3{stroke-dasharray:37 39;stroke-dashoffset:38;animation:yGHdyhFw_draw 2000ms linear 26ms forwards;}.yGHdyhFw_4{stroke-dasharray:52 54;stroke-dashoffset:53;animation:yGHdyhFw_draw 2000ms linear 35ms forwards;}.yGHdyhFw_5{stroke-dasharray:118 120;stroke-dashoffset:119;animation:yGHdyhFw_draw 2000ms linear 44ms forwards;}.yGHdyhFw_6{stroke-dasharray:47 49;stroke-dashoffset:48;animation:yGHdyhFw_draw 2000ms linear 53ms forwards;}.yGHdyhFw_7{stroke-dasharray:31 33;stroke-dashoffset:32;animation:yGHdyhFw_draw 2000ms linear 62ms forwards;}.yGHdyhFw_8{stroke-dasharray:12 14;stroke-dashoffset:13;animation:yGHdyhFw_draw 2000ms linear 71ms forwards;}.yGHdyhFw_9{stroke-dasharray:41 43;stroke-dashoffset:42;animation:yGHdyhFw_draw 2000ms linear 80ms forwards;}.yGHdyhFw_10{stroke-dasharray:12 14;stroke-dashoffset:13;animation:yGHdyhFw_draw 2000ms linear 89ms forwards;}.yGHdyhFw_11{stroke-dasharray:25 27;stroke-dashoffset:26;animation:yGHdyhFw_draw 2000ms linear 98ms forwards;}.yGHdyhFw_12{stroke-dasharray:32 34;stroke-dashoffset:33;animation:yGHdyhFw_draw 2000ms linear 107ms forwards;}.yGHdyhFw_13{stroke-dasharray:19 21;stroke-dashoffset:20;animation:yGHdyhFw_draw 2000ms linear 116ms forwards;}.yGHdyhFw_14{stroke-dasharray:3 5;stroke-dashoffset:4;animation:yGHdyhFw_draw 2000ms linear 125ms forwards;}.yGHdyhFw_15{stroke-dasharray:17 19;stroke-dashoffset:18;animation:yGHdyhFw_draw 2000ms linear 133ms forwards;}.yGHdyhFw_16{stroke-dasharray:14 16;stroke-dashoffset:15;animation:yGHdyhFw_draw 2000ms linear 142ms forwards;}.yGHdyhFw_17{stroke-dasharray:5 7;stroke-dashoffset:6;animation:yGHdyhFw_draw 2000ms linear 151ms forwards;}.yGHdyhFw_18{stroke-dasharray:9 11;stroke-dashoffset:10;animation:yGHdyhFw_draw 2000ms linear 160ms forwards;}.yGHdyhFw_19{stroke-dasharray:49 51;stroke-dashoffset:50;animation:yGHdyhFw_draw 2000ms linear 169ms forwards;}.yGHdyhFw_20{stroke-dasharray:12 14;stroke-dashoffset:13;animation:yGHdyhFw_draw 2000ms linear 178ms forwards;}.yGHdyhFw_21{stroke-dasharray:10 12;stroke-dashoffset:11;animation:yGHdyhFw_draw 2000ms linear 187ms forwards;}.yGHdyhFw_22{stroke-dasharray:14 16;stroke-dashoffset:15;animation:yGHdyhFw_draw 2000ms linear 196ms forwards;}.yGHdyhFw_23{stroke-dasharray:5 7;stroke-dashoffset:6;animation:yGHdyhFw_draw 2000ms linear 205ms forwards;}.yGHdyhFw_24{stroke-dasharray:16 18;stroke-dashoffset:17;animation:yGHdyhFw_draw 2000ms linear 214ms forwards;}.yGHdyhFw_25{stroke-dasharray:39 41;stroke-dashoffset:40;animation:yGHdyhFw_draw 2000ms linear 223ms forwards;}.yGHdyhFw_26{stroke-dasharray:91 93;stroke-dashoffset:92;animation:yGHdyhFw_draw 2000ms linear 232ms forwards;}.yGHdyhFw_27{stroke-dasharray:194 196;stroke-dashoffset:195;animation:yGHdyhFw_draw 2000ms linear 241ms forwards;}.yGHdyhFw_28{stroke-dasharray:232 234;stroke-dashoffset:233;animation:yGHdyhFw_draw 2000ms linear 250ms forwards;}.yGHdyhFw_29{stroke-dasharray:68 70;stroke-dashoffset:69;animation:yGHdyhFw_draw 2000ms linear 258ms forwards;}.yGHdyhFw_30{stroke-dasharray:190 192;stroke-dashoffset:191;animation:yGHdyhFw_draw 2000ms linear 267ms forwards;}.yGHdyhFw_31{stroke-dasharray:451 453;stroke-dashoffset:452;animation:yGHdyhFw_draw 2000ms linear 276ms forwards;}.yGHdyhFw_32{stroke-dasharray:69 71;stroke-dashoffset:70;animation:yGHdyhFw_draw 2000ms linear 285ms forwards;}.yGHdyhFw_33{stroke-dasharray:18 20;stroke-dashoffset:19;animation:yGHdyhFw_draw 2000ms linear 294ms forwards;}.yGHdyhFw_34{stroke-dasharray:43 45;stroke-dashoffset:44;animation:yGHdyhFw_draw 2000ms linear 303ms forwards;}.yGHdyhFw_35{stroke-dasharray:91 93;stroke-dashoffset:92;animation:yGHdyhFw_draw 2000ms linear 312ms forwards;}.yGHdyhFw_36{stroke-dasharray:91 93;stroke-dashoffset:92;animation:yGHdyhFw_draw 2000ms linear 321ms forwards;}.yGHdyhFw_37{stroke-dasharray:244 246;stroke-dashoffset:245;animation:yGHdyhFw_draw 2000ms linear 330ms forwards;}.yGHdyhFw_38{stroke-dasharray:28 30;stroke-dashoffset:29;animation:yGHdyhFw_draw 2000ms linear 339ms forwards;}.yGHdyhFw_39{stroke-dasharray:31 33;stroke-dashoffset:32;animation:yGHdyhFw_draw 2000ms linear 348ms forwards;}.yGHdyhFw_40{stroke-dasharray:70 72;stroke-dashoffset:71;animation:yGHdyhFw_draw 2000ms linear 357ms forwards;}.yGHdyhFw_41{stroke-dasharray:71 73;stroke-dashoffset:72;animation:yGHdyhFw_draw 2000ms linear 366ms forwards;}.yGHdyhFw_42{stroke-dasharray:100 102;stroke-dashoffset:101;animation:yGHdyhFw_draw 2000ms linear 375ms forwards;}.yGHdyhFw_43{stroke-dasharray:82 84;stroke-dashoffset:83;animation:yGHdyhFw_draw 2000ms linear 383ms forwards;}.yGHdyhFw_44{stroke-dasharray:62 64;stroke-dashoffset:63;animation:yGHdyhFw_draw 2000ms linear 392ms forwards;}.yGHdyhFw_45{stroke-dasharray:39 41;stroke-dashoffset:40;animation:yGHdyhFw_draw 2000ms linear 401ms forwards;}.yGHdyhFw_46{stroke-dasharray:151 153;stroke-dashoffset:152;animation:yGHdyhFw_draw 2000ms linear 410ms forwards;}.yGHdyhFw_47{stroke-dasharray:157 159;stroke-dashoffset:158;animation:yGHdyhFw_draw 2000ms linear 419ms forwards;}.yGHdyhFw_48{stroke-dasharray:67 69;stroke-dashoffset:68;animation:yGHdyhFw_draw 2000ms linear 428ms forwards;}.yGHdyhFw_49{stroke-dasharray:163 165;stroke-dashoffset:164;animation:yGHdyhFw_draw 2000ms linear 437ms forwards;}.yGHdyhFw_50{stroke-dasharray:44 46;stroke-dashoffset:45;animation:yGHdyhFw_draw 2000ms linear 446ms forwards;}.yGHdyhFw_51{stroke-dasharray:158 160;stroke-dashoffset:159;animation:yGHdyhFw_draw 2000ms linear 455ms forwards;}.yGHdyhFw_52{stroke-dasharray:111 113;stroke-dashoffset:112;animation:yGHdyhFw_draw 2000ms linear 464ms forwards;}.yGHdyhFw_53{stroke-dasharray:80 82;stroke-dashoffset:81;animation:yGHdyhFw_draw 2000ms linear 473ms forwards;}.yGHdyhFw_54{stroke-dasharray:77 79;stroke-dashoffset:78;animation:yGHdyhFw_draw 2000ms linear 482ms forwards;}.yGHdyhFw_55{stroke-dasharray:105 107;stroke-dashoffset:106;animation:yGHdyhFw_draw 2000ms linear 491ms forwards;}.yGHdyhFw_56{stroke-dasharray:53 55;stroke-dashoffset:54;animation:yGHdyhFw_draw 2000ms linear 500ms forwards;}.yGHdyhFw_57{stroke-dasharray:176 178;stroke-dashoffset:177;animation:yGHdyhFw_draw 2000ms linear 508ms forwards;}.yGHdyhFw_58{stroke-dasharray:144 146;stroke-dashoffset:145;animation:yGHdyhFw_draw 2000ms linear 517ms forwards;}.yGHdyhFw_59{stroke-dasharray:91 93;stroke-dashoffset:92;animation:yGHdyhFw_draw 2000ms linear 526ms forwards;}.yGHdyhFw_60{stroke-dasharray:112 114;stroke-dashoffset:113;animation:yGHdyhFw_draw 2000ms linear 535ms forwards;}.yGHdyhFw_61{stroke-dasharray:105 107;stroke-dashoffset:106;animation:yGHdyhFw_draw 2000ms linear 544ms forwards;}.yGHdyhFw_62{stroke-dasharray:200 202;stroke-dashoffset:201;animation:yGHdyhFw_draw 2000ms linear 553ms forwards;}.yGHdyhFw_63{stroke-dasharray:186 188;stroke-dashoffset:187;animation:yGHdyhFw_draw 2000ms linear 562ms forwards;}.yGHdyhFw_64{stroke-dasharray:145 147;stroke-dashoffset:146;animation:yGHdyhFw_draw 2000ms linear 571ms forwards;}.yGHdyhFw_65{stroke-dasharray:137 139;stroke-dashoffset:138;animation:yGHdyhFw_draw 2000ms linear 580ms forwards;}.yGHdyhFw_66{stroke-dasharray:108 110;stroke-dashoffset:109;animation:yGHdyhFw_draw 2000ms linear 589ms forwards;}.yGHdyhFw_67{stroke-dasharray:116 118;stroke-dashoffset:117;animation:yGHdyhFw_draw 2000ms linear 598ms forwards;}.yGHdyhFw_68{stroke-dasharray:127 129;stroke-dashoffset:128;animation:yGHdyhFw_draw 2000ms linear 607ms forwards;}.yGHdyhFw_69{stroke-dasharray:104 106;stroke-dashoffset:105;animation:yGHdyhFw_draw 2000ms linear 616ms forwards;}.yGHdyhFw_70{stroke-dasharray:78 80;stroke-dashoffset:79;animation:yGHdyhFw_draw 2000ms linear 625ms forwards;}.yGHdyhFw_71{stroke-dasharray:23 25;stroke-dashoffset:24;animation:yGHdyhFw_draw 2000ms linear 633ms forwards;}.yGHdyhFw_72{stroke-dasharray:268 270;stroke-dashoffset:269;animation:yGHdyhFw_draw 2000ms linear 642ms forwards;}.yGHdyhFw_73{stroke-dasharray:130 132;stroke-dashoffset:131;animation:yGHdyhFw_draw 2000ms linear 651ms forwards;}.yGHdyhFw_74{stroke-dasharray:111 113;stroke-dashoffset:112;animation:yGHdyhFw_draw 2000ms linear 660ms forwards;}.yGHdyhFw_75{stroke-dasharray:197 199;stroke-dashoffset:198;animation:yGHdyhFw_draw 2000ms linear 669ms forwards;}.yGHdyhFw_76{stroke-dasharray:90 92;stroke-dashoffset:91;animation:yGHdyhFw_draw 2000ms linear 678ms forwards;}.yGHdyhFw_77{stroke-dasharray:128 130;stroke-dashoffset:129;animation:yGHdyhFw_draw 2000ms linear 687ms forwards;}.yGHdyhFw_78{stroke-dasharray:169 171;stroke-dashoffset:170;animation:yGHdyhFw_draw 2000ms linear 696ms forwards;}.yGHdyhFw_79{stroke-dasharray:291 293;stroke-dashoffset:292;animation:yGHdyhFw_draw 2000ms linear 705ms forwards;}.yGHdyhFw_80{stroke-dasharray:102 104;stroke-dashoffset:103;animation:yGHdyhFw_draw 2000ms linear 714ms forwards;}.yGHdyhFw_81{stroke-dasharray:183 185;stroke-dashoffset:184;animation:yGHdyhFw_draw 2000ms linear 723ms forwards;}.yGHdyhFw_82{stroke-dasharray:72 74;stroke-dashoffset:73;animation:yGHdyhFw_draw 2000ms linear 732ms forwards;}.yGHdyhFw_83{stroke-dasharray:154 156;stroke-dashoffset:155;animation:yGHdyhFw_draw 2000ms linear 741ms forwards;}.yGHdyhFw_84{stroke-dasharray:51 53;stroke-dashoffset:52;animation:yGHdyhFw_draw 2000ms linear 750ms forwards;}.yGHdyhFw_85{stroke-dasharray:103 105;stroke-dashoffset:104;animation:yGHdyhFw_draw 2000ms linear 758ms forwards;}.yGHdyhFw_86{stroke-dasharray:16 18;stroke-dashoffset:17;animation:yGHdyhFw_draw 2000ms linear 767ms forwards;}.yGHdyhFw_87{stroke-dasharray:6 8;stroke-dashoffset:7;animation:yGHdyhFw_draw 2000ms linear 776ms forwards;}.yGHdyhFw_88{stroke-dasharray:39 41;stroke-dashoffset:40;animation:yGHdyhFw_draw 2000ms linear 785ms forwards;}.yGHdyhFw_89{stroke-dasharray:13 15;stroke-dashoffset:14;animation:yGHdyhFw_draw 2000ms linear 794ms forwards;}.yGHdyhFw_90{stroke-dasharray:11 13;stroke-dashoffset:12;animation:yGHdyhFw_draw 2000ms linear 803ms forwards;}.yGHdyhFw_91{stroke-dasharray:56 58;stroke-dashoffset:57;animation:yGHdyhFw_draw 2000ms linear 812ms forwards;}.yGHdyhFw_92{stroke-dasharray:40 42;stroke-dashoffset:41;animation:yGHdyhFw_draw 2000ms linear 821ms forwards;}.yGHdyhFw_93{stroke-dasharray:20 22;stroke-dashoffset:21;animation:yGHdyhFw_draw 2000ms linear 830ms forwards;}.yGHdyhFw_94{stroke-dasharray:5 7;stroke-dashoffset:6;animation:yGHdyhFw_draw 2000ms linear 839ms forwards;}.yGHdyhFw_95{stroke-dasharray:30 32;stroke-dashoffset:31;animation:yGHdyhFw_draw 2000ms linear 848ms forwards;}.yGHdyhFw_96{stroke-dasharray:4 6;stroke-dashoffset:5;animation:yGHdyhFw_draw 2000ms linear 857ms forwards;}.yGHdyhFw_97{stroke-dasharray:17 19;stroke-dashoffset:18;animation:yGHdyhFw_draw 2000ms linear 866ms forwards;}.yGHdyhFw_98{stroke-dasharray:26 28;stroke-dashoffset:27;animation:yGHdyhFw_draw 2000ms linear 875ms forwards;}.yGHdyhFw_99{stroke-dasharray:13 15;stroke-dashoffset:14;animation:yGHdyhFw_draw 2000ms linear 883ms forwards;}.yGHdyhFw_100{stroke-dasharray:34 36;stroke-dashoffset:35;animation:yGHdyhFw_draw 2000ms linear 892ms forwards;}.yGHdyhFw_101{stroke-dasharray:66 68;stroke-dashoffset:67;animation:yGHdyhFw_draw 2000ms linear 901ms forwards;}.yGHdyhFw_102{stroke-dasharray:87 89;stroke-dashoffset:88;animation:yGHdyhFw_draw 2000ms linear 910ms forwards;}.yGHdyhFw_103{stroke-dasharray:126 128;stroke-dashoffset:127;animation:yGHdyhFw_draw 2000ms linear 919ms forwards;}.yGHdyhFw_104{stroke-dasharray:131 133;stroke-dashoffset:132;animation:yGHdyhFw_draw 2000ms linear 928ms forwards;}.yGHdyhFw_105{stroke-dasharray:124 126;stroke-dashoffset:125;animation:yGHdyhFw_draw 2000ms linear 937ms forwards;}.yGHdyhFw_106{stroke-dasharray:71 73;stroke-dashoffset:72;animation:yGHdyhFw_draw 2000ms linear 946ms forwards;}.yGHdyhFw_107{stroke-dasharray:30 32;stroke-dashoffset:31;animation:yGHdyhFw_draw 2000ms linear 955ms forwards;}.yGHdyhFw_108{stroke-dasharray:15 17;stroke-dashoffset:16;animation:yGHdyhFw_draw 2000ms linear 964ms forwards;}.yGHdyhFw_109{stroke-dasharray:11 13;stroke-dashoffset:12;animation:yGHdyhFw_draw 2000ms linear 973ms forwards;}.yGHdyhFw_110{stroke-dasharray:21 23;stroke-dashoffset:22;animation:yGHdyhFw_draw 2000ms linear 982ms forwards;}.yGHdyhFw_111{stroke-dasharray:10 12;stroke-dashoffset:11;animation:yGHdyhFw_draw 2000ms linear 991ms forwards;}.yGHdyhFw_112{stroke-dasharray:8 10;stroke-dashoffset:9;animation:yGHdyhFw_draw 2000ms linear 1000ms forwards;}@keyframes yGHdyhFw_draw{100%{stroke-dashoffset:0;}}@keyframes yGHdyhFw_fade{0%{stroke-opacity:1;}94.44444444444444%{stroke-opacity:1;}100%{stroke-opacity:0;}}</style></svg>