<svg id="Layer_1" data-name="Layer 1" xmlns="http://www.w3.org/2000/svg" viewBox="0 0 335.46 514.34" style=""><title>marjana</title><g id="_0.45" data-name="0.45"><path d="M362.49,172.17c17.6,18.19,9.7,50.49,25.21,70.5" transform="translate(-137.32 -103.02)" style="fill:none;stroke:#7f1416;stroke-miterlimit:10;stroke-width:2px" class="cBjdjmBZ_0"></path><path d="M217.27,446.07c8.87-34.91,11.76-78.13,6.64-113.78" transform="translate(-137.32 -103.02)" style="fill:none;stroke:#7f1416;stroke-miterlimit:10;stroke-width:3px" class="cBjdjmBZ_1"></path></g><g id="_0.65" data-name="0.65"><path d="M370.83,180c19.39,35.61,15.94,80.13,31.55,117" transform="translate(-137.32 -103.02)" style="fill:none;stroke:#7f1416;stroke-miterlimit:10;stroke-width:3px" class="cBjdjmBZ_2"></path><path d="M400.34,291.91c-2.89,18.32-6.24,32.66-10.06,50.81-2.12,10.12-4.43,20.32-9.08,29.55-5.11,10.17-12.84,18.73-20.48,27.17" transform="translate(-137.32 -103.02)" style="fill:none;stroke:#7f1416;stroke-miterlimit:10;stroke-width:3px" class="cBjdjmBZ_3"></path><path d="M361.17,399c-17.56,21.42-22.34,54.47-11.14,79.81s37.33,43.36,65,44.8" transform="translate(-137.32 -103.02)" style="fill:none;stroke:#7f1416;stroke-miterlimit:10;stroke-width:3px" class="cBjdjmBZ_4"></path><path d="M211.5,291.33a1408.8,1408.8,0,0,0-2.82,191.52c1.1,19.64,3.12,40.57,15.4,55.94" transform="translate(-137.32 -103.02)" style="fill:none;stroke:#7f1416;stroke-miterlimit:10;stroke-width:3px" class="cBjdjmBZ_5"></path><path d="M186.32,203.2c-19,38.67-17.79,89.35-26.87,131.47-4.75,22.07-12.26,43.57-15.41,65.92s-1.48,46.46,10.81,65.4" transform="translate(-137.32 -103.02)" style="fill:none;stroke:#7f1416;stroke-miterlimit:10;stroke-width:3px" class="cBjdjmBZ_6"></path><path d="M146.52,475.46c-7.28-16.44-8.75-35-7.07-52.86s6.4-35.35,11.09-52.7" transform="translate(-137.32 -103.02)" style="fill:none;stroke:#7f1416;stroke-miterlimit:10;stroke-width:3px" class="cBjdjmBZ_7"></path><path d="M209,329a9.55,9.55,0,0,0,13-1" transform="translate(-137.32 -103.02)" style="fill:none;stroke:#7f1416;stroke-miterlimit:10;stroke-width:3px" class="cBjdjmBZ_8"></path><path d="M215.17,280.78a57.71,57.71,0,0,0,.64,23.91c1.73,7.58,4.89,14.77,6.88,22.29,4.18,15.82,3.22,33.17,10.77,47.7" transform="translate(-137.32 -103.02)" style="fill:none;stroke:#7f1416;stroke-miterlimit:10;stroke-width:3px" class="cBjdjmBZ_9"></path><path d="M233.54,372.93c2.72,13.42,4.78,27,6.17,40.6.42,4.12.75,8.43-.78,12.28-1.88,4.73-6.22,7.94-10.35,10.91l-20.83,14.92" transform="translate(-137.32 -103.02)" style="fill:none;stroke:#7f1416;stroke-miterlimit:10;stroke-width:3px" class="cBjdjmBZ_10"></path><path d="M328.46,116.08c16.53-5.8,35.4,1.76,47.75,14.18s19.53,28.94,26.36,45.08c10.35,24.46,20.74,56.4,22.22,82.92" transform="translate(-137.32 -103.02)" style="fill:none;stroke:#7f1416;stroke-miterlimit:10;stroke-width:3px" class="cBjdjmBZ_11"></path><path d="M424.78,254c-.46,29.39,9.72,57.88,12.8,87.11A182,182,0,0,1,429,418.35C422,439,411.18,458.56,408,480.12s4,46.87,23.64,56.23" transform="translate(-137.32 -103.02)" style="fill:none;stroke:#7f1416;stroke-miterlimit:10;stroke-width:3px" class="cBjdjmBZ_12"></path><path d="M326.45,115.5c-13.76-11.69-34-13.47-51.25-8s-31.78,17.13-44.36,30.08a229.31,229.31,0,0,0-52,84.42" transform="translate(-137.32 -103.02)" style="fill:none;stroke:#7f1416;stroke-miterlimit:10;stroke-width:3px" class="cBjdjmBZ_13"></path><path d="M358,169.09c-13.37,1.14-25.34,9-34.88,18.44s-17.2,20.59-26.18,30.57A154.26,154.26,0,0,1,258,249.24c-10.08,5.68-21.29,10.64-27.76,20.23" transform="translate(-137.32 -103.02)" style="fill:none;stroke:#7f1416;stroke-miterlimit:10;stroke-width:3px" class="cBjdjmBZ_14"></path><path d="M229.38,366.48c9,12.59,18.17,25.27,29.44,35.91s21.38,19.77,41,20.91c15.64.91,28.14,1.23,40.52-5.85,8.87-5.08,18-16.38,25.31-23.51" transform="translate(-137.32 -103.02)" style="fill:none;stroke:#7f1416;stroke-miterlimit:10;stroke-width:3px" class="cBjdjmBZ_15"></path><path d="M239.35,424.92C231,451.07,216,474.37,210.24,501.2" transform="translate(-137.32 -103.02)" style="fill:none;stroke:#7f1416;stroke-miterlimit:10;stroke-width:3px" class="cBjdjmBZ_16"></path><path d="M240.19,424.05Q229,458.54,220.26,493.76C217.72,504,215.32,514.47,216,525" transform="translate(-137.32 -103.02)" style="fill:none;stroke:#7f1416;stroke-miterlimit:10;stroke-width:3px" class="cBjdjmBZ_17"></path><path d="M373,509c-6.2,21.19-19.08,39.69-31.75,57.76-4.75,6.78-9.57,13.63-15.81,19.06s-14.17,9.4-22.44,9.28" transform="translate(-137.32 -103.02)" style="fill:none;stroke:#7f1416;stroke-miterlimit:10;stroke-width:3px" class="cBjdjmBZ_18"></path><path d="M215.93,519.09a156.52,156.52,0,0,0,80.27,59.5c5.35,1.72,10.9,3.15,16.52,3,7.17-.23,14-3.09,20.17-6.78" transform="translate(-137.32 -103.02)" style="fill:none;stroke:#7f1416;stroke-miterlimit:10;stroke-width:3px" class="cBjdjmBZ_19"></path><path d="M409.16,490.72a95.88,95.88,0,0,0,63.49,32.21l-42.08.7c-5.34.09-11,.1-15.56-2.71" transform="translate(-137.32 -103.02)" style="fill:none;stroke:#7f1416;stroke-miterlimit:10;stroke-width:3px" class="cBjdjmBZ_20"></path></g><g id="_0.25" data-name="0.25"><path d="M255.08,275.05c5.29,2.52,10.76,5,16.59,5.57,7.28.76,14.51-1.39,21.52-3.52" transform="translate(-137.32 -103.02)" style="fill:none;stroke:#7f1416;stroke-miterlimit:10" class="cBjdjmBZ_21"></path><path d="M336.66,277.22c5.89,1,11.82,2.09,17.79,2s12.06-1.52,16.95-5" transform="translate(-137.32 -103.02)" style="fill:none;stroke:#7f1416;stroke-miterlimit:10" class="cBjdjmBZ_22"></path><path d="M296,258.44c-6.79-3.33-14.59-3.7-22.15-4l-23.15-.94" transform="translate(-137.32 -103.02)" style="fill:none;stroke:#7f1416;stroke-miterlimit:10" class="cBjdjmBZ_23"></path><path d="M295.42,258.26c-6.52-5-15.41-5.29-23.65-5.34l-19.09-.1" transform="translate(-137.32 -103.02)" style="fill:none;stroke:#7f1416;stroke-miterlimit:10" class="cBjdjmBZ_24"></path><path d="M385.19,260.08c-2.93-3.37-7.93-3.77-12.4-3.9q-10.41-.3-20.85-.41c-5.41-.06-11.24,0-15.61,3.25" transform="translate(-137.32 -103.02)" style="fill:none;stroke:#7f1416;stroke-miterlimit:10" class="cBjdjmBZ_25"></path><path d="M385.28,260.06c-2.41-3.38-6.64-5-10.75-5.52s-8.29-.1-12.43-.31c-4.59-.25-9.14-1.26-13.73-1s-9.46,2-11.84,5.91" transform="translate(-137.32 -103.02)" style="fill:none;stroke:#7f1416;stroke-miterlimit:10" class="cBjdjmBZ_26"></path><path d="M302.33,381l20.66.86" transform="translate(-137.32 -103.02)" style="fill:none;stroke:#7f1416;stroke-miterlimit:10" class="cBjdjmBZ_27"></path><path d="M371.63,280.21a42,42,0,0,1-13.3,2.15" transform="translate(-137.32 -103.02)" style="fill:none;stroke:#7f1416;stroke-miterlimit:10" class="cBjdjmBZ_28"></path><path d="M291.61,265.74a27.61,27.61,0,0,1,8.11,8.56" transform="translate(-137.32 -103.02)" style="fill:none;stroke:#7f1416;stroke-miterlimit:10" class="cBjdjmBZ_29"></path><path d="M330.92,267a42.89,42.89,0,0,0-5.77,16.73" transform="translate(-137.32 -103.02)" style="fill:none;stroke:#7f1416;stroke-miterlimit:10" class="cBjdjmBZ_30"></path></g><g id="_0.35" data-name="0.35"><path d="M332.29,332.1c-1.73-1.66-6-.61-7.2,1.46-1.38,2.35-6.38,3.16-8.76,2.82" transform="translate(-137.32 -103.02)" style="fill:none;stroke:#7f1416;stroke-miterlimit:10;stroke-width:2px" class="cBjdjmBZ_31"></path><path d="M302.61,337.4a25.85,25.85,0,0,1-8-2c-2.46-1.22-4.61-3.43-5-6.15a8.75,8.75,0,0,1,.19-3.22,13.89,13.89,0,0,1,6.64-8.92" transform="translate(-137.32 -103.02)" style="fill:none;stroke:#7f1416;stroke-miterlimit:10;stroke-width:2px" class="cBjdjmBZ_32"></path><path d="M327,335.65a19.91,19.91,0,0,0,6.34-.56,3.9,3.9,0,0,0,1.75-.8,3.82,3.82,0,0,0,.86-1.4,13.18,13.18,0,0,0,0-10,10.73,10.73,0,0,0-7.63-6.3" transform="translate(-137.32 -103.02)" style="fill:none;stroke:#7f1416;stroke-miterlimit:10;stroke-width:2px" class="cBjdjmBZ_33"></path><path d="M326.26,301.35a108.27,108.27,0,0,1,1.32,13.43,6.17,6.17,0,0,0,.29,2.05,10.93,10.93,0,0,0,.93,1.62,9.79,9.79,0,0,1,.84,7.08,16.75,16.75,0,0,1-4.55,8" transform="translate(-137.32 -103.02)" style="fill:none;stroke:#7f1416;stroke-miterlimit:10;stroke-width:2px" class="cBjdjmBZ_34"></path><path d="M297.36,331.32a12.14,12.14,0,0,1,7.38,1.8,28.25,28.25,0,0,0,4,2.55,13,13,0,0,0,4.52.69l5.06.16" transform="translate(-137.32 -103.02)" style="fill:none;stroke:#7f1416;stroke-miterlimit:10;stroke-width:2px" class="cBjdjmBZ_35"></path></g><g id="_0.4" data-name="0.4"><path d="M273,214c-11.66,10-23.51,20.17-31.6,33.21-4,6.54-7.1,13.7-11.73,19.84-7.21,9.58-17.74,16-28,22.21" transform="translate(-137.32 -103.02)" style="fill:none;stroke:#7f1416;stroke-miterlimit:10;stroke-width:2px" class="cBjdjmBZ_36"></path><path d="M220.54,187.4A119.45,119.45,0,0,0,197.89,265" transform="translate(-137.32 -103.02)" style="fill:none;stroke:#7f1416;stroke-miterlimit:10;stroke-width:2px" class="cBjdjmBZ_37"></path><path d="M205.34,203.2a103.72,103.72,0,0,0-17.55,46.9c-1,8.58-.88,17.26-1.84,25.84-1.5,13.27-5.53,26.19-6.39,39.52-1.34,20.63,5,40.92,11.18,60.64" transform="translate(-137.32 -103.02)" style="fill:none;stroke:#7f1416;stroke-miterlimit:10;stroke-width:2px" class="cBjdjmBZ_38"></path><path d="M190.1,445.25c-2.3,17.46-7.41,32.88-13.1,49.55-3.57,10.43-8.48,21.57-5,32a88.85,88.85,0,0,1,.75-41.74,76.32,76.32,0,0,0-6.52,14.49,179.65,179.65,0,0,1,6.18-39.37,63.64,63.64,0,0,1-19.1,31,91.86,91.86,0,0,0,7.49-24.33A32,32,0,0,1,140,485.07" transform="translate(-137.32 -103.02)" style="fill:none;stroke:#7f1416;stroke-miterlimit:10;stroke-width:2px" class="cBjdjmBZ_39"></path><path d="M424.42,281a76.8,76.8,0,0,1-19.86,46c-5.78,6.3-12.82,11.94-15.81,19.95" transform="translate(-137.32 -103.02)" style="fill:none;stroke:#7f1416;stroke-miterlimit:10;stroke-width:2px" class="cBjdjmBZ_40"></path><path d="M418.19,309.67c-6.19,16-8.95,33.1-12.42,49.91S398,393.34,389.08,408s-23,27-39.91,30.08c14.61,2,29.59-4,40.49-14s18.09-23.35,23-37.27" transform="translate(-137.32 -103.02)" style="fill:none;stroke:#7f1416;stroke-miterlimit:10;stroke-width:2px" class="cBjdjmBZ_41"></path><path d="M387.29,427.15a40.46,40.46,0,0,0-1.54,33" transform="translate(-137.32 -103.02)" style="fill:none;stroke:#7f1416;stroke-miterlimit:10;stroke-width:2px" class="cBjdjmBZ_42"></path><path d="M369.38,436.11c-3.73,18.49-.83,37,7.7,53.85" transform="translate(-137.32 -103.02)" style="fill:none;stroke:#7f1416;stroke-miterlimit:10;stroke-width:2px" class="cBjdjmBZ_43"></path><path d="M368.23,444.75c-1.55,10,4.12,24,12.44,29.73" transform="translate(-137.32 -103.02)" style="fill:none;stroke:#7f1416;stroke-miterlimit:10;stroke-width:2px" class="cBjdjmBZ_44"></path><path d="M397,417a62,62,0,0,0-2.42,36.08" transform="translate(-137.32 -103.02)" style="fill:none;stroke:#7f1416;stroke-miterlimit:10;stroke-width:2px" class="cBjdjmBZ_45"></path><path d="M327,124.54c-32.4-7-80.09,3.54-103,27.44" transform="translate(-137.32 -103.02)" style="fill:none;stroke:#7f1416;stroke-miterlimit:10;stroke-width:2px" class="cBjdjmBZ_46"></path><path d="M167.62,338.13c-5.15,23.71-10.32,47.61-10.78,71.87-.22,11.54,1,24,8.46,32.77" transform="translate(-137.32 -103.02)" style="fill:none;stroke:#7f1416;stroke-miterlimit:10;stroke-width:2px" class="cBjdjmBZ_47"></path><path d="M284.14,363.41a25.17,25.17,0,0,0,16,14.49c4.34,1.27,8.93,1.33,13.45,1.38,4.84.05,9.8.08,14.36-1.54a21,21,0,0,0,13.4-16" transform="translate(-137.32 -103.02)" style="fill:none;stroke:#7f1416;stroke-miterlimit:10;stroke-width:2px" class="cBjdjmBZ_48"></path><path d="M321.65,358a38.54,38.54,0,0,1-8.44.49c-2.17-.16-4.31-.62-6.48-.78-7.79-.58-15.29,2.7-22.42,5.9" transform="translate(-137.32 -103.02)" style="fill:none;stroke:#7f1416;stroke-miterlimit:10;stroke-width:2px" class="cBjdjmBZ_49"></path><path d="M314.83,358.17c2.63,0,8.33-.6,11-.57a48.75,48.75,0,0,1,5.58,1,22.44,22.44,0,0,1,3.34,1l4,1.38" transform="translate(-137.32 -103.02)" style="fill:none;stroke:#7f1416;stroke-miterlimit:10;stroke-width:2px" class="cBjdjmBZ_50"></path><path d="M348,136.67A62.72,62.72,0,0,1,398,171" transform="translate(-137.32 -103.02)" style="fill:none;stroke:#7f1416;stroke-miterlimit:10;stroke-width:2px" class="cBjdjmBZ_51"></path></g><g id="_0.5" data-name="0.5"><path d="M227.08,258.64c-4.87,7.49-9.81,15.06-16.36,21.15s-15,10.61-23.91,10.72" transform="translate(-137.32 -103.02)" style="fill:none;stroke:#7f1416;stroke-miterlimit:10;stroke-width:2px" class="cBjdjmBZ_52"></path><path d="M211.5,284c-.38,17.29-4.47,34.25-8.55,51.05-12.57,51.88-26.07,105.68-59.83,147" transform="translate(-137.32 -103.02)" style="fill:none;stroke:#7f1416;stroke-miterlimit:10;stroke-width:2px" class="cBjdjmBZ_53"></path><path d="M223.16,539.86c-15.84-15.25-20-38.65-23.3-60.38a197.33,197.33,0,0,1,.83,33.06,157.44,157.44,0,0,0-3.8-29.81,74.55,74.55,0,0,1-8,43.23" transform="translate(-137.32 -103.02)" style="fill:none;stroke:#7f1416;stroke-miterlimit:10;stroke-width:2px" class="cBjdjmBZ_54"></path><path d="M188.19,527.06a173.79,173.79,0,0,0,2.39-41c-.48-8-2.34-21.51-2.39-29.54" transform="translate(-137.32 -103.02)" style="fill:none;stroke:#7f1416;stroke-miterlimit:10;stroke-width:2px" class="cBjdjmBZ_55"></path><path d="M326,584.06a78.54,78.54,0,0,1-30-5.1" transform="translate(-137.32 -103.02)" style="fill:none;stroke:#7f1416;stroke-miterlimit:10;stroke-width:2px" class="cBjdjmBZ_56"></path><path d="M206.89,528.09a173.58,173.58,0,0,0,93.68,66.49c8.09,2.3,17.3,3.87,24.51-.47" transform="translate(-137.32 -103.02)" style="fill:none;stroke:#7f1416;stroke-miterlimit:10;stroke-width:2px" class="cBjdjmBZ_57"></path><path d="M376.5,515.13c-12,45.69-47.13,84.66-91.34,101.3" transform="translate(-137.32 -103.02)" style="fill:none;stroke:#7f1416;stroke-miterlimit:10;stroke-width:2px" class="cBjdjmBZ_58"></path><path d="M175.73,506.06a454.33,454.33,0,0,0,28.74,83.18" transform="translate(-137.32 -103.02)" style="fill:none;stroke:#7f1416;stroke-miterlimit:10;stroke-width:2px" class="cBjdjmBZ_59"></path><path d="M416.73,396a141,141,0,0,1-22.91,61.1c-4.22,6.27-9,12.26-12,19.19s-4.1,15.17-.75,21.95A47.27,47.27,0,0,1,393,479.94a37.17,37.17,0,0,0,5.48,34.84l2.08-13.4a44.09,44.09,0,0,0,25.59,33.29" transform="translate(-137.32 -103.02)" style="fill:none;stroke:#7f1416;stroke-miterlimit:10;stroke-width:2px" class="cBjdjmBZ_60"></path><path d="M359.26,166.48c-3.62-1.78-7.31-3.45-11-5l8.47-.42a5.52,5.52,0,0,0,2.67-.58c1.72-1,1.78-3.68.66-5.35s-3-2.59-4.86-3.44c4-.64,4.1-6.8,1.42-9.83s-6.8-4.58-9.23-7.82c-1-1.34-1.69-2.92-2.81-4.17-4.14-4.64-11.86-2.76-17.52-5.35a6.69,6.69,0,0,0,3.9-5.63" transform="translate(-137.32 -103.02)" style="fill:none;stroke:#7f1416;stroke-miterlimit:10;stroke-width:2px" class="cBjdjmBZ_61"></path><path d="M293.67,276.2a22,22,0,0,0-36.75-7.1,36.71,36.71,0,0,1-4.14,4.4" transform="translate(-137.32 -103.02)" style="fill:none;stroke:#7f1416;stroke-miterlimit:10;stroke-width:2px" class="cBjdjmBZ_62"></path><path d="M254.52,274.66a37.38,37.38,0,0,1,9.39-9.05,20.08,20.08,0,0,1,12.42-3.34" transform="translate(-137.32 -103.02)" style="fill:none;stroke:#7f1416;stroke-miterlimit:10;stroke-width:2px" class="cBjdjmBZ_63"></path><path d="M271.75,263.14a5.35,5.35,0,0,0-4.1,2.76,7.42,7.42,0,0,0,11.68,9,6.42,6.42,0,0,0,1.9-4,7.15,7.15,0,0,0-.64-3.31,8.11,8.11,0,0,0-8.84-4.45" transform="translate(-137.32 -103.02)" style="fill:none;stroke:#7f1416;stroke-miterlimit:10;stroke-width:2px" class="cBjdjmBZ_64"></path><path d="M335.38,276.09a41.54,41.54,0,0,1,5.17-7,13.33,13.33,0,0,1,9.88-5.21c5.15-.58,10.66-.1,15,2.77,3.58,2.37,6,6.12,8.27,9.75" transform="translate(-137.32 -103.02)" style="fill:none;stroke:#7f1416;stroke-miterlimit:10;stroke-width:2px" class="cBjdjmBZ_65"></path><path d="M350.46,264.69a6.78,6.78,0,1,0,6.34,11.88,5.79,5.79,0,0,0,1.66-1.72,6,6,0,0,0,.77-3.3,8.4,8.4,0,0,0-2.35-5.8c-1.54-1.35-4.69-1.62-6.68-.95" transform="translate(-137.32 -103.02)" style="fill:none;stroke:#7f1416;stroke-miterlimit:10;stroke-width:2px" class="cBjdjmBZ_66"></path><path d="M298,364c8.79.71,19.56,1.89,28.16-.09" transform="translate(-137.32 -103.02)" style="fill:none;stroke:#7f1416;stroke-miterlimit:10;stroke-width:2px" class="cBjdjmBZ_67"></path><path d="M352,263.83l8.37.54a16.22,16.22,0,0,1,4.65.76c3.76,1.39,5.91,5.24,7.74,8.8" transform="translate(-137.32 -103.02)" style="fill:none;stroke:#7f1416;stroke-miterlimit:10;stroke-width:2px" class="cBjdjmBZ_68"></path><path d="M356.33,264.07l-7.76-.56a9.84,9.84,0,0,0-1.8,0,7.89,7.89,0,0,0-4.33,2.48,25.82,25.82,0,0,0-5.12,7" transform="translate(-137.32 -103.02)" style="fill:none;stroke:#7f1416;stroke-miterlimit:10;stroke-width:2px" class="cBjdjmBZ_69"></path><path d="M269.67,262.58l5.85.06a20.31,20.31,0,0,1,6.64.8c4,1.41,6.68,5.1,9.1,8.58" transform="translate(-137.32 -103.02)" style="fill:none;stroke:#7f1416;stroke-miterlimit:10;stroke-width:2px" class="cBjdjmBZ_70"></path><path d="M347,263.33l-1.84.53a25.83,25.83,0,0,1,16.12.28" transform="translate(-137.32 -103.02)" style="fill:none;stroke:#7f1416;stroke-miterlimit:10;stroke-width:2px" class="cBjdjmBZ_71"></path><path d="M278.33,362.32a14.17,14.17,0,0,1,7.33,1.69" transform="translate(-137.32 -103.02)" style="fill:none;stroke:#7f1416;stroke-miterlimit:10;stroke-width:2px" class="cBjdjmBZ_72"></path><path d="M344.36,361.3c-3.25-.74-6.62,0-9.87.74l-11.09,2.53" transform="translate(-137.32 -103.02)" style="fill:none;stroke:#7f1416;stroke-miterlimit:10;stroke-width:2px" class="cBjdjmBZ_73"></path><path d="M307.66,364.74a168.62,168.62,0,0,0-24-.78" transform="translate(-137.32 -103.02)" style="fill:none;stroke:#7f1416;stroke-miterlimit:10;stroke-width:2px" class="cBjdjmBZ_74"></path><path d="M352.68,268.41a2.55,2.55,0,1,1-.34,0" transform="translate(-137.32 -103.02)" style="fill:none;stroke:#7f1416;stroke-miterlimit:10;stroke-width:2px" class="cBjdjmBZ_75"></path><path d="M274,268.59a2.54,2.54,0,1,1-.34,0" transform="translate(-137.32 -103.02)" style="fill:none;stroke:#7f1416;stroke-miterlimit:10;stroke-width:2px" class="cBjdjmBZ_76"></path><path d="M349.57,266.28a13,13,0,0,0-1.44,7.65l.81-3.44a21,21,0,0,0,.45,4.87,1.3,1.3,0,0,0,.71-1.2,2.92,2.92,0,0,0,1,2.19l.45-2.29a2.5,2.5,0,0,0,.86,1.23,4.46,4.46,0,0,0,.33-2,3.9,3.9,0,0,0,1.35,2.07l.6-2.22a2.17,2.17,0,0,0,.92,1.61,6.36,6.36,0,0,0-.44-3.08c.45,1.09.9,2.39.26,3.38s-1.81,1.13-2.89,1.26a5.21,5.21,0,0,0,5.08-3.48,7.16,7.16,0,0,0-1-6.31l-.56,3.77-.22-2.52a1.16,1.16,0,0,0-.31-.83c-.35-.3-.94,0-1.15.37a2.36,2.36,0,0,0-.07,1.37,1.62,1.62,0,0,0-.75-2.14c-.79-.3-1.8.6-1.44,1.37a1.26,1.26,0,0,0-.48-1.82,3.57,3.57,0,0,0-1,2.28" transform="translate(-137.32 -103.02)" style="fill:none;stroke:#7f1416;stroke-miterlimit:10;stroke-width:2px" class="cBjdjmBZ_77"></path><path d="M276.33,272.66a2.89,2.89,0,0,1-4,2.54,1.18,1.18,0,0,1,1.76-.28,2.64,2.64,0,0,1-2,.32c-.65-.28-.82-1.42-.14-1.61-.71,0-1.54-.22-1.82-.87s.82-1.44,1.12-.8a.94.94,0,0,1-1.31.63,1.61,1.61,0,0,1-.85-1.37c-.07-.87,1-1.89,1.55-1.21s-.47,1.44-1.16,1.14a2,2,0,0,1-.89-1.91,2.57,2.57,0,0,1,1.1-2.22,1.58,1.58,0,0,1,.8,2.22,4.49,4.49,0,0,1-1.58-2.38c-.13-1,.71-2.08,1.64-1.82s1.09,1.53,1,2.5a1.58,1.58,0,1,1,1.7-.23,1.61,1.61,0,1,1,2.86-1.08,1.05,1.05,0,0,1-.42.93c-.69.45-1.57-.73-1.07-1.39a1.4,1.4,0,0,1,2.13.24,2.63,2.63,0,0,1,.07,2.4c-.69.35-1.38-.85-.84-1.41a1.3,1.3,0,0,1,1.95.47,2.46,2.46,0,0,1-.2,2.23,1.25,1.25,0,0,1-1-1.19,1.24,1.24,0,0,1,1-1.17,2.43,2.43,0,0,1,.18,3.18c.05-.6,1-.77,1.38-.32a1.33,1.33,0,0,1-.1,1.65,3.88,3.88,0,0,1-1.49,1,2.42,2.42,0,0,1,1.88-2.3,3.65,3.65,0,0,1-1.74,3.71.85.85,0,0,1,.58-1,4.86,4.86,0,0,1-2,2,2.18,2.18,0,0,0,1.56-2.15,6.37,6.37,0,0,0-.76-2.74" transform="translate(-137.32 -103.02)" style="fill:none;stroke:#7f1416;stroke-miterlimit:10;stroke-width:2px" class="cBjdjmBZ_78"></path><path d="M329,181.8" transform="translate(-137.32 -103.02)" style="fill:none;stroke:#7f1416;stroke-miterlimit:10;stroke-width:2px" class="cBjdjmBZ_79"></path><path d="M354.48,149.57c-5.27-4.33-13.21-4.17-19.33-1.16s-10.73,8.39-14.66,14c-17.39,24.71-25.11,56.26-47.07,77" transform="translate(-137.32 -103.02)" style="fill:none;stroke:#7f1416;stroke-miterlimit:10;stroke-width:2px" class="cBjdjmBZ_80"></path><path d="M373.77,185.82c-1.94-7.49-7-13.14-10.43-18.26l5.09-1a7.26,7.26,0,0,1-4.31-7.33,4.48,4.48,0,0,0-3.26-6" transform="translate(-137.32 -103.02)" style="fill:none;stroke:#7f1416;stroke-miterlimit:10;stroke-width:2px" class="cBjdjmBZ_81"></path><path d="M360.35,153.67c.34-2.88.07-5.4-2-7.45" transform="translate(-137.32 -103.02)" style="fill:none;stroke:#7f1416;stroke-miterlimit:10;stroke-width:2px" class="cBjdjmBZ_82"></path><path d="M240.12,417.7a116.21,116.21,0,0,1,.29,34" transform="translate(-137.32 -103.02)" style="fill:none;stroke:#7f1416;stroke-miterlimit:10;stroke-width:2px" class="cBjdjmBZ_83"></path><path d="M278.34,362.32a21.26,21.26,0,0,1,8.67,5.33" transform="translate(-137.32 -103.02)" style="fill:none;stroke:#7f1416;stroke-miterlimit:10;stroke-width:2px" class="cBjdjmBZ_84"></path><path d="M344.24,361.55l-3.81,2.91" transform="translate(-137.32 -103.02)" style="fill:none;stroke:#7f1416;stroke-miterlimit:10;stroke-width:2px" class="cBjdjmBZ_85"></path><path d="M281.24,419C285,421,291,421.55,295,422.69" transform="translate(-137.32 -103.02)" style="fill:none;stroke:#7f1416;stroke-miterlimit:10;stroke-width:2px" class="cBjdjmBZ_86"></path><path d="M355.52,152.44c-5.18-3.41-12.3-2.57-17.63.59s-9.22,8.25-12.7,13.38c-14.72,21.73-24.89,46.81-43.25,65.56" transform="translate(-137.32 -103.02)" style="fill:none;stroke:#7f1416;stroke-miterlimit:10;stroke-width:2px" class="cBjdjmBZ_87"></path><path d="M347.09,133.94c-5.16-3.27-11.95-3-17.63-.78s-10.46,6.26-15,10.33" transform="translate(-137.32 -103.02)" style="fill:none;stroke:#7f1416;stroke-miterlimit:10;stroke-width:2px" class="cBjdjmBZ_88"></path><path d="M339.53,362.87l-4.5-1" transform="translate(-137.32 -103.02)" style="fill:none;stroke:#7f1416;stroke-miterlimit:10;stroke-width:2px" class="cBjdjmBZ_89"></path><path d="M313.73,368.44c.14-1.23-1.38-2-2.62-2s-2.58.36-3.67-.23c-.65-.35-1.14-1-1.87-1.21a4.86,4.86,0,0,0-2.11.28c-1.59.32-3.21-.29-4.8-.62s-3.49-.31-4.55.93" transform="translate(-137.32 -103.02)" style="fill:none;stroke:#7f1416;stroke-miterlimit:10;stroke-width:2px" class="cBjdjmBZ_90"></path><path d="M313.69,368.87a5.05,5.05,0,0,1,6.61-2.18,4.78,4.78,0,0,1,5.19-.92,3.27,3.27,0,0,1,4.88-1.6" transform="translate(-137.32 -103.02)" style="fill:none;stroke:#7f1416;stroke-miterlimit:10;stroke-width:2px" class="cBjdjmBZ_91"></path><path d="M301,366.05a3.28,3.28,0,0,1,3.5-.12" transform="translate(-137.32 -103.02)" style="fill:none;stroke:#7f1416;stroke-miterlimit:10;stroke-width:2px" class="cBjdjmBZ_92"></path><path d="M305.34,362.6a5.13,5.13,0,0,0,5.14,1.81,8.23,8.23,0,0,1,2.2-.5,6.68,6.68,0,0,1,2.38.88,7.38,7.38,0,0,0,8.52-2.08" transform="translate(-137.32 -103.02)" style="fill:none;stroke:#7f1416;stroke-miterlimit:10;stroke-width:2px" class="cBjdjmBZ_93"></path><path d="M368.29,167.53a24.88,24.88,0,0,1,10,11.76" transform="translate(-137.32 -103.02)" style="fill:none;stroke:#7f1416;stroke-miterlimit:10;stroke-width:2px" class="cBjdjmBZ_94"></path><path d="M367,160c-3.83-1.06,3.86,2.4,5,3" transform="translate(-137.32 -103.02)" style="fill:none;stroke:#7f1416;stroke-miterlimit:10;stroke-width:2px" class="cBjdjmBZ_95"></path><path d="M398.18,522.35a91.72,91.72,0,0,1,.11,22.64" transform="translate(-137.32 -103.02)" style="fill:none;stroke:#7f1416;stroke-miterlimit:10;stroke-width:2px" class="cBjdjmBZ_96"></path></g><style data-made-with="vivus-instant">.cBjdjmBZ_0{stroke-dasharray:76 78;stroke-dashoffset:77;animation:cBjdjmBZ_draw 2000ms linear 0ms forwards;}.cBjdjmBZ_1{stroke-dasharray:115 117;stroke-dashoffset:116;animation:cBjdjmBZ_draw 2000ms linear 10ms forwards;}.cBjdjmBZ_2{stroke-dasharray:122 124;stroke-dashoffset:123;animation:cBjdjmBZ_draw 2000ms linear 20ms forwards;}.cBjdjmBZ_3{stroke-dasharray:117 119;stroke-dashoffset:118;animation:cBjdjmBZ_draw 2000ms linear 31ms forwards;}.cBjdjmBZ_4{stroke-dasharray:168 170;stroke-dashoffset:169;animation:cBjdjmBZ_draw 2000ms linear 41ms forwards;}.cBjdjmBZ_5{stroke-dasharray:251 253;stroke-dashoffset:252;animation:cBjdjmBZ_draw 2000ms linear 52ms forwards;}.cBjdjmBZ_6{stroke-dasharray:271 273;stroke-dashoffset:272;animation:cBjdjmBZ_draw 2000ms linear 62ms forwards;}.cBjdjmBZ_7{stroke-dasharray:108 110;stroke-dashoffset:109;animation:cBjdjmBZ_draw 2000ms linear 72ms forwards;}.cBjdjmBZ_8{stroke-dasharray:15 17;stroke-dashoffset:16;animation:cBjdjmBZ_draw 2000ms linear 83ms forwards;}.cBjdjmBZ_9{stroke-dasharray:97 99;stroke-dashoffset:98;animation:cBjdjmBZ_draw 2000ms linear 93ms forwards;}.cBjdjmBZ_10{stroke-dasharray:95 97;stroke-dashoffset:96;animation:cBjdjmBZ_draw 2000ms linear 104ms forwards;}.cBjdjmBZ_11{stroke-dasharray:192 194;stroke-dashoffset:193;animation:cBjdjmBZ_draw 2000ms linear 114ms forwards;}.cBjdjmBZ_12{stroke-dasharray:298 300;stroke-dashoffset:299;animation:cBjdjmBZ_draw 2000ms linear 125ms forwards;}.cBjdjmBZ_13{stroke-dasharray:209 211;stroke-dashoffset:210;animation:cBjdjmBZ_draw 2000ms linear 135ms forwards;}.cBjdjmBZ_14{stroke-dasharray:166 168;stroke-dashoffset:167;animation:cBjdjmBZ_draw 2000ms linear 145ms forwards;}.cBjdjmBZ_15{stroke-dasharray:170 172;stroke-dashoffset:171;animation:cBjdjmBZ_draw 2000ms linear 156ms forwards;}.cBjdjmBZ_16{stroke-dasharray:82 84;stroke-dashoffset:83;animation:cBjdjmBZ_draw 2000ms linear 166ms forwards;}.cBjdjmBZ_17{stroke-dasharray:105 107;stroke-dashoffset:106;animation:cBjdjmBZ_draw 2000ms linear 177ms forwards;}.cBjdjmBZ_18{stroke-dasharray:116 118;stroke-dashoffset:117;animation:cBjdjmBZ_draw 2000ms linear 187ms forwards;}.cBjdjmBZ_19{stroke-dasharray:141 143;stroke-dashoffset:142;animation:cBjdjmBZ_draw 2000ms linear 197ms forwards;}.cBjdjmBZ_20{stroke-dasharray:132 134;stroke-dashoffset:133;animation:cBjdjmBZ_draw 2000ms linear 208ms forwards;}.cBjdjmBZ_21{stroke-dasharray:40 42;stroke-dashoffset:41;animation:cBjdjmBZ_draw 2000ms linear 218ms forwards;}.cBjdjmBZ_22{stroke-dasharray:36 38;stroke-dashoffset:37;animation:cBjdjmBZ_draw 2000ms linear 229ms forwards;}.cBjdjmBZ_23{stroke-dasharray:46 48;stroke-dashoffset:47;animation:cBjdjmBZ_draw 2000ms linear 239ms forwards;}.cBjdjmBZ_24{stroke-dasharray:44 46;stroke-dashoffset:45;animation:cBjdjmBZ_draw 2000ms linear 250ms forwards;}.cBjdjmBZ_25{stroke-dasharray:51 53;stroke-dashoffset:52;animation:cBjdjmBZ_draw 2000ms linear 260ms forwards;}.cBjdjmBZ_26{stroke-dasharray:53 55;stroke-dashoffset:54;animation:cBjdjmBZ_draw 2000ms linear 270ms forwards;}.cBjdjmBZ_27{stroke-dasharray:21 23;stroke-dashoffset:22;animation:cBjdjmBZ_draw 2000ms linear 281ms forwards;}.cBjdjmBZ_28{stroke-dasharray:14 16;stroke-dashoffset:15;animation:cBjdjmBZ_draw 2000ms linear 291ms forwards;}.cBjdjmBZ_29{stroke-dasharray:12 14;stroke-dashoffset:13;animation:cBjdjmBZ_draw 2000ms linear 302ms forwards;}.cBjdjmBZ_30{stroke-dasharray:18 20;stroke-dashoffset:19;animation:cBjdjmBZ_draw 2000ms linear 312ms forwards;}.cBjdjmBZ_31{stroke-dasharray:18 20;stroke-dashoffset:19;animation:cBjdjmBZ_draw 2000ms linear 322ms forwards;}.cBjdjmBZ_32{stroke-dasharray:32 34;stroke-dashoffset:33;animation:cBjdjmBZ_draw 2000ms linear 333ms forwards;}.cBjdjmBZ_33{stroke-dasharray:31 33;stroke-dashoffset:32;animation:cBjdjmBZ_draw 2000ms linear 343ms forwards;}.cBjdjmBZ_34{stroke-dasharray:35 37;stroke-dashoffset:36;animation:cBjdjmBZ_draw 2000ms linear 354ms forwards;}.cBjdjmBZ_35{stroke-dasharray:23 25;stroke-dashoffset:24;animation:cBjdjmBZ_draw 2000ms linear 364ms forwards;}.cBjdjmBZ_36{stroke-dasharray:106 108;stroke-dashoffset:107;animation:cBjdjmBZ_draw 2000ms linear 375ms forwards;}.cBjdjmBZ_37{stroke-dasharray:83 85;stroke-dashoffset:84;animation:cBjdjmBZ_draw 2000ms linear 385ms forwards;}.cBjdjmBZ_38{stroke-dasharray:179 181;stroke-dashoffset:180;animation:cBjdjmBZ_draw 2000ms linear 395ms forwards;}.cBjdjmBZ_39{stroke-dasharray:274 276;stroke-dashoffset:275;animation:cBjdjmBZ_draw 2000ms linear 406ms forwards;}.cBjdjmBZ_40{stroke-dasharray:77 79;stroke-dashoffset:78;animation:cBjdjmBZ_draw 2000ms linear 416ms forwards;}.cBjdjmBZ_41{stroke-dasharray:243 245;stroke-dashoffset:244;animation:cBjdjmBZ_draw 2000ms linear 427ms forwards;}.cBjdjmBZ_42{stroke-dasharray:35 37;stroke-dashoffset:36;animation:cBjdjmBZ_draw 2000ms linear 437ms forwards;}.cBjdjmBZ_43{stroke-dasharray:56 58;stroke-dashoffset:57;animation:cBjdjmBZ_draw 2000ms linear 447ms forwards;}.cBjdjmBZ_44{stroke-dasharray:34 36;stroke-dashoffset:35;animation:cBjdjmBZ_draw 2000ms linear 458ms forwards;}.cBjdjmBZ_45{stroke-dasharray:37 39;stroke-dashoffset:38;animation:cBjdjmBZ_draw 2000ms linear 468ms forwards;}.cBjdjmBZ_46{stroke-dasharray:111 113;stroke-dashoffset:112;animation:cBjdjmBZ_draw 2000ms linear 479ms forwards;}.cBjdjmBZ_47{stroke-dasharray:108 110;stroke-dashoffset:109;animation:cBjdjmBZ_draw 2000ms linear 489ms forwards;}.cBjdjmBZ_48{stroke-dasharray:73 75;stroke-dashoffset:74;animation:cBjdjmBZ_draw 2000ms linear 500ms forwards;}.cBjdjmBZ_49{stroke-dasharray:39 41;stroke-dashoffset:40;animation:cBjdjmBZ_draw 2000ms linear 510ms forwards;}.cBjdjmBZ_50{stroke-dasharray:25 27;stroke-dashoffset:26;animation:cBjdjmBZ_draw 2000ms linear 520ms forwards;}.cBjdjmBZ_51{stroke-dasharray:64 66;stroke-dashoffset:65;animation:cBjdjmBZ_draw 2000ms linear 531ms forwards;}.cBjdjmBZ_52{stroke-dasharray:54 56;stroke-dashoffset:55;animation:cBjdjmBZ_draw 2000ms linear 541ms forwards;}.cBjdjmBZ_53{stroke-dasharray:212 214;stroke-dashoffset:213;animation:cBjdjmBZ_draw 2000ms linear 552ms forwards;}.cBjdjmBZ_54{stroke-dasharray:174 176;stroke-dashoffset:175;animation:cBjdjmBZ_draw 2000ms linear 562ms forwards;}.cBjdjmBZ_55{stroke-dasharray:71 73;stroke-dashoffset:72;animation:cBjdjmBZ_draw 2000ms linear 572ms forwards;}.cBjdjmBZ_56{stroke-dasharray:31 33;stroke-dashoffset:32;animation:cBjdjmBZ_draw 2000ms linear 583ms forwards;}.cBjdjmBZ_57{stroke-dasharray:143 145;stroke-dashoffset:144;animation:cBjdjmBZ_draw 2000ms linear 593ms forwards;}.cBjdjmBZ_58{stroke-dasharray:142 144;stroke-dashoffset:143;animation:cBjdjmBZ_draw 2000ms linear 604ms forwards;}.cBjdjmBZ_59{stroke-dasharray:89 91;stroke-dashoffset:90;animation:cBjdjmBZ_draw 2000ms linear 614ms forwards;}.cBjdjmBZ_60{stroke-dasharray:228 230;stroke-dashoffset:229;animation:cBjdjmBZ_draw 2000ms linear 625ms forwards;}.cBjdjmBZ_61{stroke-dasharray:91 93;stroke-dashoffset:92;animation:cBjdjmBZ_draw 2000ms linear 635ms forwards;}.cBjdjmBZ_62{stroke-dasharray:51 53;stroke-dashoffset:52;animation:cBjdjmBZ_draw 2000ms linear 645ms forwards;}.cBjdjmBZ_63{stroke-dasharray:27 29;stroke-dashoffset:28;animation:cBjdjmBZ_draw 2000ms linear 656ms forwards;}.cBjdjmBZ_64{stroke-dasharray:46 48;stroke-dashoffset:47;animation:cBjdjmBZ_draw 2000ms linear 666ms forwards;}.cBjdjmBZ_65{stroke-dasharray:49 51;stroke-dashoffset:50;animation:cBjdjmBZ_draw 2000ms linear 677ms forwards;}.cBjdjmBZ_66{stroke-dasharray:43 45;stroke-dashoffset:44;animation:cBjdjmBZ_draw 2000ms linear 687ms forwards;}.cBjdjmBZ_67{stroke-dasharray:29 31;stroke-dashoffset:30;animation:cBjdjmBZ_draw 2000ms linear 697ms forwards;}.cBjdjmBZ_68{stroke-dasharray:26 28;stroke-dashoffset:27;animation:cBjdjmBZ_draw 2000ms linear 708ms forwards;}.cBjdjmBZ_69{stroke-dasharray:24 26;stroke-dashoffset:25;animation:cBjdjmBZ_draw 2000ms linear 718ms forwards;}.cBjdjmBZ_70{stroke-dasharray:26 28;stroke-dashoffset:27;animation:cBjdjmBZ_draw 2000ms linear 729ms forwards;}.cBjdjmBZ_71{stroke-dasharray:19 21;stroke-dashoffset:20;animation:cBjdjmBZ_draw 2000ms linear 739ms forwards;}.cBjdjmBZ_72{stroke-dasharray:8 10;stroke-dashoffset:9;animation:cBjdjmBZ_draw 2000ms linear 750ms forwards;}.cBjdjmBZ_73{stroke-dasharray:22 24;stroke-dashoffset:23;animation:cBjdjmBZ_draw 2000ms linear 760ms forwards;}.cBjdjmBZ_74{stroke-dasharray:25 27;stroke-dashoffset:26;animation:cBjdjmBZ_draw 2000ms linear 770ms forwards;}.cBjdjmBZ_75{stroke-dasharray:16 18;stroke-dashoffset:17;animation:cBjdjmBZ_draw 2000ms linear 781ms forwards;}.cBjdjmBZ_76{stroke-dasharray:16 18;stroke-dashoffset:17;animation:cBjdjmBZ_draw 2000ms linear 791ms forwards;}.cBjdjmBZ_77{stroke-dasharray:76 78;stroke-dashoffset:77;animation:cBjdjmBZ_draw 2000ms linear 802ms forwards;}.cBjdjmBZ_78{stroke-dasharray:99 101;stroke-dashoffset:100;animation:cBjdjmBZ_draw 2000ms linear 812ms forwards;}.cBjdjmBZ_79{stroke-dasharray:0 2;stroke-dashoffset:1;animation:cBjdjmBZ_draw 2000ms linear 822ms forwards;}.cBjdjmBZ_80{stroke-dasharray:132 134;stroke-dashoffset:133;animation:cBjdjmBZ_draw 2000ms linear 833ms forwards;}.cBjdjmBZ_81{stroke-dasharray:44 46;stroke-dashoffset:45;animation:cBjdjmBZ_draw 2000ms linear 843ms forwards;}.cBjdjmBZ_82{stroke-dasharray:9 11;stroke-dashoffset:10;animation:cBjdjmBZ_draw 2000ms linear 854ms forwards;}.cBjdjmBZ_83{stroke-dasharray:35 37;stroke-dashoffset:36;animation:cBjdjmBZ_draw 2000ms linear 864ms forwards;}.cBjdjmBZ_84{stroke-dasharray:11 13;stroke-dashoffset:12;animation:cBjdjmBZ_draw 2000ms linear 875ms forwards;}.cBjdjmBZ_85{stroke-dasharray:5 7;stroke-dashoffset:6;animation:cBjdjmBZ_draw 2000ms linear 885ms forwards;}.cBjdjmBZ_86{stroke-dasharray:15 17;stroke-dashoffset:16;animation:cBjdjmBZ_draw 2000ms linear 895ms forwards;}.cBjdjmBZ_87{stroke-dasharray:116 118;stroke-dashoffset:117;animation:cBjdjmBZ_draw 2000ms linear 906ms forwards;}.cBjdjmBZ_88{stroke-dasharray:37 39;stroke-dashoffset:38;animation:cBjdjmBZ_draw 2000ms linear 916ms forwards;}.cBjdjmBZ_89{stroke-dasharray:5 7;stroke-dashoffset:6;animation:cBjdjmBZ_draw 2000ms linear 927ms forwards;}.cBjdjmBZ_90{stroke-dasharray:22 24;stroke-dashoffset:23;animation:cBjdjmBZ_draw 2000ms linear 937ms forwards;}.cBjdjmBZ_91{stroke-dasharray:20 22;stroke-dashoffset:21;animation:cBjdjmBZ_draw 2000ms linear 947ms forwards;}.cBjdjmBZ_92{stroke-dasharray:4 6;stroke-dashoffset:5;animation:cBjdjmBZ_draw 2000ms linear 958ms forwards;}.cBjdjmBZ_93{stroke-dasharray:20 22;stroke-dashoffset:21;animation:cBjdjmBZ_draw 2000ms linear 968ms forwards;}.cBjdjmBZ_94{stroke-dasharray:16 18;stroke-dashoffset:17;animation:cBjdjmBZ_draw 2000ms linear 979ms forwards;}.cBjdjmBZ_95{stroke-dasharray:8 10;stroke-dashoffset:9;animation:cBjdjmBZ_draw 2000ms linear 989ms forwards;}.cBjdjmBZ_96{stroke-dasharray:23 25;stroke-dashoffset:24;animation:cBjdjmBZ_draw 2000ms linear 1000ms forwards;}@keyframes cBjdjmBZ_draw{100%{stroke-dashoffset:0;}}@keyframes cBjdjmBZ_fade{0%{stroke-opacity:1;}94.44444444444444%{stroke-opacity:1;}100%{stroke-opacity:0;}}</style></svg>