<svg id="Layer_1" data-name="Layer 1" xmlns="http://www.w3.org/2000/svg" viewBox="0 0 328.29 565.45" style=""><title>vane</title><g id="_0.65" data-name="0.65"><path d="M199.71,161.22a131.74,131.74,0,0,0-28.52,42.59,69.46,69.46,0,0,0-5.27,18.57c-.76,6.6-.13,13.27.12,19.91,1.34,35.55-6.87,71-.82,106.46s10.41,72.87,26.84,105.46c.33.67.67,1.33,1,2,9.16,17.49,19.83,28.65,32.31,43.72" transform="translate(-147.35 -95.34)" style="fill:none;stroke:#7f1416;stroke-miterlimit:10;stroke-width:2px" class="sEnxURCX_0"></path><path d="M437.05,317.72a253.51,253.51,0,0,0-7.62-53.13c-.51-2-1.09-4.09-2.53-5.56s-4-2-5.56-.65a82.86,82.86,0,0,1-10.5-41.73,24.74,24.74,0,0,0,.87-24.63c-1.3,1-2.93-.82-3.54-2.37L399.11,167l-2,2.58c-.95-2.9-2.2-6.13-5-7.25-1.16-.46-2.46-.49-3.62-1a10.46,10.46,0,0,1-3-2.16l-8.56-7.87-3.13,3.09c-.87-3.73-5.41-5.6-9.18-4.9s-6.9,3.23-9.86,5.67" transform="translate(-147.35 -95.34)" style="fill:none;stroke:#7f1416;stroke-miterlimit:10;stroke-width:2px" class="sEnxURCX_1"></path><path d="M352.37,156a7.48,7.48,0,0,0-.92-5.9,57.25,57.25,0,0,1-11.17,3.28,9.34,9.34,0,0,1-4.3.08,39.16,39.16,0,0,1-3.71-1.76c-3.35-1.33-7.11.11-10.4,1.6-20.71,9.39-41.35,21.71-64.1,21.49a10.1,10.1,0,0,0,6.25-5.59,86.75,86.75,0,0,0-22.46,7.69l.78-4.21L236,176.8a33.28,33.28,0,0,0,6.48-12.91L229.09,173a9.5,9.5,0,0,1,1.94-6.52" transform="translate(-147.35 -95.34)" style="fill:none;stroke:#7f1416;stroke-miterlimit:10;stroke-width:2px" class="sEnxURCX_2"></path><path d="M229.91,166.76a30.39,30.39,0,0,0-9.31,5.64,1.56,1.56,0,0,1-.67.41c-.9.16-1.17-1.26-.7-2s1.26-1.54,1.07-2.42a1.65,1.65,0,0,0-1.83-1.11,4.88,4.88,0,0,0-2.11,1l-4.28,2.86a8.72,8.72,0,0,1,.62-6.64,1.83,1.83,0,0,0,.33-1.32c-.24-.7-1.23-.71-1.95-.54a18.6,18.6,0,0,0-6.21,2.74,3.16,3.16,0,0,1-1.55.72,2,2,0,0,1-1.9-1.69,6,6,0,0,1,.26-2.74" transform="translate(-147.35 -95.34)" style="fill:none;stroke:#7f1416;stroke-miterlimit:10;stroke-width:2px" class="sEnxURCX_3"></path><path d="M261.06,437.75A145.75,145.75,0,0,1,301,434.36" transform="translate(-147.35 -95.34)" style="fill:none;stroke:#7f1416;stroke-miterlimit:10;stroke-width:2px" class="sEnxURCX_4"></path><path d="M300,434.36a359.14,359.14,0,0,0,37.29-9.07c4.48-1.34,9.09-2.79,13.73-2.26" transform="translate(-147.35 -95.34)" style="fill:none;stroke:#7f1416;stroke-miterlimit:10;stroke-width:2px" class="sEnxURCX_5"></path><path d="M264.93,442.49c13.74,6.63,30,6.29,44.73,2.23s28.2-11.55,41.53-19" transform="translate(-147.35 -95.34)" style="fill:none;stroke:#7f1416;stroke-miterlimit:10;stroke-width:2px" class="sEnxURCX_6"></path></g><g id="_0.75" data-name="0.75"><path d="M438.15,316.52a44.06,44.06,0,0,1,13.73-28c2.71-2.53,6.16-4.82,9.83-4.34,3.45.45,6.19,3.33,7.49,6.56s1.42,6.79,1.52,10.26c.26,9.15.51,18.43-1.77,27.29-1.57,6.11-4.33,11.9-5.37,18.12s-.29,12.7-.31,19.07-.95,13.07-4.82,18.12S447,391.34,441.58,388" transform="translate(-147.35 -95.34)" style="fill:none;stroke:#7f1416;stroke-miterlimit:10;stroke-width:3px" class="sEnxURCX_7"></path><path d="M436.79,334.48q1.51,63.75,2.31,127.52" transform="translate(-147.35 -95.34)" style="fill:none;stroke:#7f1416;stroke-miterlimit:10;stroke-width:3px" class="sEnxURCX_8"></path><path d="M362,421.19a13.5,13.5,0,0,0-11.86,2.74,59.56,59.56,0,0,1,10.37-3.13" transform="translate(-147.35 -95.34)" style="fill:none;stroke:#7f1416;stroke-miterlimit:10;stroke-width:3px" class="sEnxURCX_9"></path><path d="M248.72,438a17.1,17.1,0,0,1,9.53-1.55,11.14,11.14,0,0,1,8,5.14c-3-.6-5.71-2.18-8.59-3.22s-6.25-1.52-8.9,0" transform="translate(-147.35 -95.34)" style="fill:none;stroke:#7f1416;stroke-miterlimit:10;stroke-width:3px" class="sEnxURCX_10"></path><path d="M161.84,322.92c-.55-3.37-1.23-7-3.65-9.4s-7.22-2.66-8.81.36c-1,1.86-.42,4.11.16,6.12l12.39,43.09c1.66,5.78,3.34,11.77,2.53,17.73-.4,2.93-1.39,5.76-1.77,8.69a22,22,0,0,0,12,22.08" transform="translate(-147.35 -95.34)" style="fill:none;stroke:#7f1416;stroke-miterlimit:10;stroke-width:3px" class="sEnxURCX_11"></path><path d="M154.45,312l-1.63-9.85a1.49,1.49,0,0,1-1.87,1.32,55.32,55.32,0,0,0,3-14.73l-2.43,2.87a43.05,43.05,0,0,0,2.39-12.71,2.23,2.23,0,0,0-2.1,1.51c1.55-8.43.5-17.08.4-25.65a114.75,114.75,0,0,1,10.56-49.23l-3.23.44c5.34-10.86,11.14-21.6,18.85-30.92l-1.84-2.16a28.37,28.37,0,0,0,5.24-4.85L180,165.46a20.62,20.62,0,0,0,9.39-6.38l-3.79-.11c1.51-2.62,4.85-3.38,7.48-4.88s4.68-5.37,2.39-7.35l7.09-2.59" transform="translate(-147.35 -95.34)" style="fill:none;stroke:#7f1416;stroke-miterlimit:10;stroke-width:3px" class="sEnxURCX_12"></path><path d="M454.67,285.51l-.75-25.29,2.9.24a40.08,40.08,0,0,0-6.19-9.51l4.5-1a44.28,44.28,0,0,0-7.29-13.39c1.06.44,2.17-.81,2.15-2a9,9,0,0,0-1.18-3.21c-2.3-5.16.41-12.22-3.59-16.21,1.15.91,2.88-.69,2.68-2.15s-1.43-2.5-2.52-3.48-2.2-2.26-2-3.72c.3-2.35,3.8-4.39,2.32-6.24-.57-.73-1.69-.84-2.3-1.54-1.28-1.48.66-3.65.56-5.6-.12-2.31-2.86-3.34-4.73-4.72s-2.12-5.35.19-5.13a14.47,14.47,0,0,1-6.7-10,32.11,32.11,0,0,1-7.19-3.5l4.59-1.24a29.1,29.1,0,0,0-8.21-5.58,5.27,5.27,0,0,0,4.64-1.71l-8.48-3.71" transform="translate(-147.35 -95.34)" style="fill:none;stroke:#7f1416;stroke-miterlimit:10;stroke-width:3px" class="sEnxURCX_13"></path><path d="M417.68,156.32c-4.47-3.78-6.26-9.83-9.85-14.46a45.17,45.17,0,0,0-7.56-7.12l-20.93-16.83,1.35,2.16a74.63,74.63,0,0,0-16.77-12.45,8,8,0,0,0,1.06,3.43,71.29,71.29,0,0,0-11-5,11.43,11.43,0,0,0,1.95,3.32,24.79,24.79,0,0,0-14.63-5.28c-3.55-.08-7.35.56-10.47-1.14-1.08-.58-2-1.42-3.12-1.92a11.61,11.61,0,0,0-4-.75c-9.52-.58-19.08-.79-28.62-.62" transform="translate(-147.35 -95.34)" style="fill:none;stroke:#7f1416;stroke-miterlimit:10;stroke-width:3px" class="sEnxURCX_14"></path><path d="M296.06,99.87l-5.44-2.39a5.1,5.1,0,0,1-2.87,3.7,3.64,3.64,0,0,0-4.7-1.64c-.78.38-1.4,1-2.19,1.43-1.47.72-3.22.34-4.87.44s-3.55,1.19-3.37,2.83a3.72,3.72,0,0,0-5.19-.73c-.7.58-1.17,1.42-1.91,1.94-1.64,1.17-3.87.47-5.88.48s-4.44,1.91-3.36,3.6c-1.8-.84-3.78-1.71-5.7-1.22s-3.32,3.08-2,4.54l-4.3-1.17c-1,3.36-4.12,5.55-7.05,7.48l-10.6,7a8.94,8.94,0,0,1-3.64,1.67c-.9.12-1.81,0-2.71,0a5.57,5.57,0,0,0-4.93,5.6L211,131.6l-2.9,7.94-2.76-1.95a9.55,9.55,0,0,0-2,6.88" transform="translate(-147.35 -95.34)" style="fill:none;stroke:#7f1416;stroke-miterlimit:10;stroke-width:3px" class="sEnxURCX_15"></path><path d="M343.17,304c-1.28,5.35,3.42,11.25,8.92,11.21s10.1-6,8.75-11.34" transform="translate(-147.35 -95.34)" style="fill:none;stroke:#7f1416;stroke-miterlimit:10;stroke-width:3px" class="sEnxURCX_16"></path><path d="M361,421.55a4.65,4.65,0,0,0-1.55,3.95" transform="translate(-147.35 -95.34)" style="fill:none;stroke:#7f1416;stroke-miterlimit:10;stroke-width:3px" class="sEnxURCX_17"></path><path d="M222.08,497.1a692.88,692.88,0,0,1,35.49,96c2.12,7.41,4.18,15,8.36,21.45,3.67,5.69,8.8,10.27,13.18,15.44a71.82,71.82,0,0,1,9.73,15" transform="translate(-147.35 -95.34)" style="fill:none;stroke:#7f1416;stroke-miterlimit:10;stroke-width:3px" class="sEnxURCX_18"></path><path d="M438.51,429.43c4.49,2.13,5.87,7.68,7.49,12.37,6.37,18.42,23.51,32.21,27.3,51.33,1.89,9.53.21,19.37-1.5,28.93-3.05,17-6.23,34.17-12.45,50.32s-15.73,31.43-29.45,42c-4.52,3.47-10.6,6.46-15.67,3.89" transform="translate(-147.35 -95.34)" style="fill:none;stroke:#7f1416;stroke-miterlimit:10;stroke-width:3px" class="sEnxURCX_19"></path><path d="M414.35,619c4.73-1.84,5.78-8.58,3.31-13s-7.21-7-11.77-9.26c-4.83-2.37-9.8-4.61-15.1-5.57s-11-.52-15.65,2.22" transform="translate(-147.35 -95.34)" style="fill:none;stroke:#7f1416;stroke-miterlimit:10;stroke-width:3px" class="sEnxURCX_20"></path><path d="M442.78,446.46c-6.22,40.16-35.1,72.81-49.75,110.72-2.36,6.12-4.36,12.39-7.18,18.3a71.69,71.69,0,0,1-11.75,17.45" transform="translate(-147.35 -95.34)" style="fill:none;stroke:#7f1416;stroke-miterlimit:10;stroke-width:3px" class="sEnxURCX_21"></path><path d="M410.53,520.51a217.24,217.24,0,0,0-42.9,72.71" transform="translate(-147.35 -95.34)" style="fill:none;stroke:#7f1416;stroke-miterlimit:10;stroke-width:3px" class="sEnxURCX_22"></path><path d="M375.75,592.42a36.77,36.77,0,0,0-13.88,4.37c-2.35,1.29-4.58,2.86-7.11,3.74a38.24,38.24,0,0,1-6.9,1.33,61.49,61.49,0,0,0-29,12.61c-7,5.54-12.66,12.54-18.27,19.47S289.18,648,285.12,656" transform="translate(-147.35 -95.34)" style="fill:none;stroke:#7f1416;stroke-miterlimit:10;stroke-width:3px" class="sEnxURCX_23"></path><path d="M377.12,591.84a196.73,196.73,0,0,1-20.24,13.93c-2.91,1.83-5.88,3.69-9.2,4.58s-6.53.77-9.81,1a47.85,47.85,0,0,0-28.57,12.54" transform="translate(-147.35 -95.34)" style="fill:none;stroke:#7f1416;stroke-miterlimit:10;stroke-width:3px" class="sEnxURCX_24"></path><path d="M399.91,594.41a185.78,185.78,0,0,0-56.69,65.69" transform="translate(-147.35 -95.34)" style="fill:none;stroke:#7f1416;stroke-miterlimit:10;stroke-width:3px" class="sEnxURCX_25"></path><path d="M223.17,497.71c-25.58,21.93-40.24,53.65-54.14,84.34-2.79,6.17-5.64,12.56-5.83,19.34s3,14.12,9.21,16.79" transform="translate(-147.35 -95.34)" style="fill:none;stroke:#7f1416;stroke-miterlimit:10;stroke-width:3px" class="sEnxURCX_26"></path><path d="M171.37,617.91l17.45-26.36" transform="translate(-147.35 -95.34)" style="fill:none;stroke:#7f1416;stroke-miterlimit:10;stroke-width:3px" class="sEnxURCX_27"></path><path d="M226.47,509.2a730.4,730.4,0,0,0-15.57,82.59c-.73,5.64-1.36,11.55.7,16.85,2.56,6.58,9,11.06,15.73,13.08s13.95,1.94,21,1.85" transform="translate(-147.35 -95.34)" style="fill:none;stroke:#7f1416;stroke-miterlimit:10;stroke-width:3px" class="sEnxURCX_28"></path><path d="M249.15,623.77a137.22,137.22,0,0,0,11-18.22" transform="translate(-147.35 -95.34)" style="fill:none;stroke:#7f1416;stroke-miterlimit:10;stroke-width:3px" class="sEnxURCX_29"></path><path d="M249.72,623a51.11,51.11,0,0,0,9.78,7.8c3.75,2.29,7.8,4.1,11.37,6.68A32.41,32.41,0,0,1,283.54,657" transform="translate(-147.35 -95.34)" style="fill:none;stroke:#7f1416;stroke-miterlimit:10;stroke-width:3px" class="sEnxURCX_30"></path><path d="M211.79,588A97.13,97.13,0,0,0,178,594c-4.09,1.51-8.25,3.43-10.94,6.88a13.48,13.48,0,0,0-2.24,4.3" transform="translate(-147.35 -95.34)" style="fill:none;stroke:#7f1416;stroke-miterlimit:10;stroke-width:3px" class="sEnxURCX_31"></path><path d="M232.31,600.36l1.39,1.28c.92-.37.38-2.13-.59-1.92l-.83,1.92" transform="translate(-147.35 -95.34)" style="fill:none;stroke:#7f1416;stroke-miterlimit:10;stroke-width:3px" class="sEnxURCX_32"></path><path d="M253.88,626.15A54.55,54.55,0,0,1,266.37,659" transform="translate(-147.35 -95.34)" style="fill:none;stroke:#7f1416;stroke-miterlimit:10;stroke-width:3px" class="sEnxURCX_33"></path></g><g id="_0.25" data-name="0.25"><path d="M254.47,385.49A84.91,84.91,0,0,1,248,403" transform="translate(-147.35 -95.34)" style="fill:none;stroke:#7f1416;stroke-miterlimit:10;stroke-width:0.75px" class="sEnxURCX_34"></path><path d="M237.73,413.4a13.55,13.55,0,0,0-6.19,8.26,25,25,0,0,0-.37,10.51c.38,2.52,1,5.12,2.73,7s4.72,2.82,6.88,1.47" transform="translate(-147.35 -95.34)" style="fill:none;stroke:#7f1416;stroke-miterlimit:10;stroke-width:0.75px" class="sEnxURCX_35"></path><path d="M266.61,300.16c8.79,5.67,11.84,16.94,13.47,27.27a92.79,92.79,0,0,1,1.4,17.67c-.51,13.53-5.73,26.38-10.89,38.91" transform="translate(-147.35 -95.34)" style="fill:none;stroke:#7f1416;stroke-miterlimit:10;stroke-width:0.75px" class="sEnxURCX_36"></path><path d="M297.48,484a35.44,35.44,0,0,1,16-1.87" transform="translate(-147.35 -95.34)" style="fill:none;stroke:#7f1416;stroke-miterlimit:10;stroke-width:0.75px" class="sEnxURCX_37"></path><path d="M210.85,170.12c-16.33,13.46-29.19,37.26-29.21,58.42,0,17,6,33.57,6.84,50.58.45,8.91-.5,17.88.59,26.73s4.65,18,12,23" transform="translate(-147.35 -95.34)" style="fill:none;stroke:#7f1416;stroke-miterlimit:10;stroke-width:0.75px" class="sEnxURCX_38"></path><path d="M338.74,526" transform="translate(-147.35 -95.34)" style="fill:none;stroke:#7f1416;stroke-miterlimit:10;stroke-width:0.75px" class="sEnxURCX_39"></path><path d="M295.67,534.55" transform="translate(-147.35 -95.34)" style="fill:none;stroke:#7f1416;stroke-miterlimit:10;stroke-width:0.75px" class="sEnxURCX_40"></path><path d="M200.15,328.49c-6-.49-11.83,3.32-15,8.46s-4,11.41-3.88,17.45c.53,20.45,11.69,38.83,19.84,57.59,2.24,5.15,4.28,10.94,2.47,16.25-1.5,4.42-3.52,7.39-2.51,12s4.44,9.77,6.81,13.91c7.41,12.92,27,29.58,16.49,45.73" transform="translate(-147.35 -95.34)" style="fill:none;stroke:#7f1416;stroke-miterlimit:10;stroke-width:0.75px" class="sEnxURCX_41"></path><path d="M282.48,261a60.32,60.32,0,0,0-.42,13.36" transform="translate(-147.35 -95.34)" style="fill:none;stroke:#7f1416;stroke-miterlimit:10;stroke-width:0.75px" class="sEnxURCX_42"></path><path d="M303.35,265.67a11.58,11.58,0,0,0,1.82,6.77" transform="translate(-147.35 -95.34)" style="fill:none;stroke:#7f1416;stroke-miterlimit:10;stroke-width:0.75px" class="sEnxURCX_43"></path><path d="M397.14,424.22l-8.05,13.3" transform="translate(-147.35 -95.34)" style="fill:none;stroke:#7f1416;stroke-miterlimit:10;stroke-width:0.75px" class="sEnxURCX_44"></path></g><g id="_0.5" data-name="0.5"><path d="M455.6,297.81a8.76,8.76,0,0,1,1.55-3.62,3,3,0,0,1,3.55-1c1.18.63,1.52,2.13,1.72,3.46a123.85,123.85,0,0,1,1.1,26.17c-.14,2.14-.37,4.38-1.58,6.14l-6.14-29.32c-.15-.74-.09-1.8.66-1.88" transform="translate(-147.35 -95.34)" style="fill:none;stroke:#7f1416;stroke-miterlimit:10;stroke-width:2px" class="sEnxURCX_45"></path><path d="M442.25,370.1a27.51,27.51,0,0,0,4.36,7.31" transform="translate(-147.35 -95.34)" style="fill:none;stroke:#7f1416;stroke-miterlimit:10;stroke-width:2px" class="sEnxURCX_46"></path><path d="M442.15,348.83a7.13,7.13,0,0,0,11.35-5.92c-.11-3.88-3.21-6.89-5.45-10.07a25.58,25.58,0,0,1-4.53-16.72" transform="translate(-147.35 -95.34)" style="fill:none;stroke:#7f1416;stroke-miterlimit:10;stroke-width:2px" class="sEnxURCX_47"></path><path d="M344,379.25a65.91,65.91,0,0,0,23.22,24.12c2.73,1.66,5.73,3.26,7.28,6.06,3.82,6.84-3.29,15.58-.72,23" transform="translate(-147.35 -95.34)" style="fill:none;stroke:#7f1416;stroke-miterlimit:10;stroke-width:2px" class="sEnxURCX_48"></path><path d="M303.43,427.68c15-7,32.21-6.81,48.76-6.46" transform="translate(-147.35 -95.34)" style="fill:none;stroke:#7f1416;stroke-miterlimit:10;stroke-width:2px" class="sEnxURCX_49"></path><path d="M303,428.05a139.62,139.62,0,0,0-52.93,9.62" transform="translate(-147.35 -95.34)" style="fill:none;stroke:#7f1416;stroke-miterlimit:10;stroke-width:2px" class="sEnxURCX_50"></path><path d="M352.76,424.51c-9.81,17.55-28.95,28.32-48.59,32.61-7.73,1.69-15.83,2.51-23.52.66-11.42-2.76-20.59-11-29.25-18.93" transform="translate(-147.35 -95.34)" style="fill:none;stroke:#7f1416;stroke-miterlimit:10;stroke-width:2px" class="sEnxURCX_51"></path><path d="M329.08,392.43c-2.52,2-5.86,2.1-8.85,2.9a37.89,37.89,0,0,0-9.22,3.74c-2,1.14-3.81,2.46-5.81,3.53a26.11,26.11,0,0,1-20.12,1.76c-3.16-1-6.14-2.69-9.42-3.22-6.1-1-16.75,1.51-20.16-5.22" transform="translate(-147.35 -95.34)" style="fill:none;stroke:#7f1416;stroke-miterlimit:10;stroke-width:2px" class="sEnxURCX_52"></path><path d="M256.59,398.08c-2.28-3.76-2.16-8.61-.62-12.72s4.31-7.65,7.19-11" transform="translate(-147.35 -95.34)" style="fill:none;stroke:#7f1416;stroke-miterlimit:10;stroke-width:2px" class="sEnxURCX_53"></path><path d="M327.52,393.61c1.51-.43,2.39-2,2.91-3.48a20.35,20.35,0,0,0-5-21.07" transform="translate(-147.35 -95.34)" style="fill:none;stroke:#7f1416;stroke-miterlimit:10;stroke-width:2px" class="sEnxURCX_54"></path><path d="M316.52,285.1a126.48,126.48,0,0,1,46.77-13.34,34,34,0,0,1,7.74,0c8.66,1.29,15.3,8.11,21.23,14.55a46.52,46.52,0,0,0-29.85-6.69l3,.81A117.45,117.45,0,0,0,325.87,291a5.12,5.12,0,0,1,2.49-3,40.21,40.21,0,0,0-13.84,4.91,13.22,13.22,0,0,1,.55-6" transform="translate(-147.35 -95.34)" style="fill:none;stroke:#7f1416;stroke-miterlimit:10;stroke-width:2px" class="sEnxURCX_55"></path><path d="M188.86,302.78c3.08-8.47,10.82-14.87,19.53-17.18s18.21-.8,26.25,3.27c-.46-.59.06-1.52.77-1.75a3.56,3.56,0,0,1,2.19.26l11.47,4a19.74,19.74,0,0,1,13,6.27c-18.5-.05-37.51-5.33-55.15.26a4.1,4.1,0,0,1-.25-2.8,58.64,58.64,0,0,0-16.73,9.5" transform="translate(-147.35 -95.34)" style="fill:none;stroke:#7f1416;stroke-miterlimit:10;stroke-width:2px" class="sEnxURCX_56"></path><path d="M203.5,334c-1.67-.15-7.45,1-6,1" transform="translate(-147.35 -95.34)" style="fill:none;stroke:#7f1416;stroke-miterlimit:10;stroke-width:2px" class="sEnxURCX_57"></path><path d="M201,330.53a26,26,0,0,0-9.49-1" transform="translate(-147.35 -95.34)" style="fill:none;stroke:#7f1416;stroke-miterlimit:10;stroke-width:2px" class="sEnxURCX_58"></path><path d="M323.53,326.1c3.92-1.1,7.86,1.25,11.63,2.79,7.93,3.23,16.82,3,25.35,2.16" transform="translate(-147.35 -95.34)" style="fill:none;stroke:#7f1416;stroke-miterlimit:10;stroke-width:2px" class="sEnxURCX_59"></path><path d="M257.53,333.35c-6.23,2-12.1,5.1-18.26,7.36s-12.85,3.75-19.29,2.49" transform="translate(-147.35 -95.34)" style="fill:none;stroke:#7f1416;stroke-miterlimit:10;stroke-width:2px" class="sEnxURCX_60"></path><path d="M263.19,316.64c-7.36-3.39-14.91-6.83-23-7.49a55.6,55.6,0,0,0-12.42.66c-5.19.74-10.42,1.78-15.1,4.14s-8.81,6.17-10.59,11.1" transform="translate(-147.35 -95.34)" style="fill:none;stroke:#7f1416;stroke-miterlimit:10;stroke-width:2px" class="sEnxURCX_61"></path><path d="M315.56,312.39c5.19-1.43,9.24-5.36,13.65-8.43,15.4-10.75,37.46-10.86,53-.27" transform="translate(-147.35 -95.34)" style="fill:none;stroke:#7f1416;stroke-miterlimit:10;stroke-width:2px" class="sEnxURCX_62"></path><path d="M203.53,334.47a21.22,21.22,0,0,0,6.94,3.62" transform="translate(-147.35 -95.34)" style="fill:none;stroke:#7f1416;stroke-miterlimit:10;stroke-width:2px" class="sEnxURCX_63"></path><path d="M260,321.93c-7.9-3.7-16-7.47-24.74-8a35.31,35.31,0,0,0-28.89,12.49" transform="translate(-147.35 -95.34)" style="fill:none;stroke:#7f1416;stroke-miterlimit:10;stroke-width:2px" class="sEnxURCX_64"></path><path d="M259.74,322.88a49.61,49.61,0,0,0-9.28.55c-3.6.67-7,2.13-10.53,3.11-9.51,2.65-21.42,2.87-29.94-2.52" transform="translate(-147.35 -95.34)" style="fill:none;stroke:#7f1416;stroke-miterlimit:10;stroke-width:2px" class="sEnxURCX_65"></path><path d="M221.5,316.51A8,8,0,0,0,225,324a10.65,10.65,0,0,0,7.18,1.3A9,9,0,0,0,236,324c2.48-1.62,3.51-4.8,3.56-7.76" transform="translate(-147.35 -95.34)" style="fill:none;stroke:#7f1416;stroke-miterlimit:10;stroke-width:2px" class="sEnxURCX_66"></path><path d="M232.23,314.4a2.54,2.54,0,0,0-1.12,3.63,3.19,3.19,0,0,0,3.87,1.05,3,3,0,0,0,1.77-2,2.25,2.25,0,0,0-1-2.41" transform="translate(-147.35 -95.34)" style="fill:none;stroke:#7f1416;stroke-miterlimit:10;stroke-width:2px" class="sEnxURCX_67"></path><path d="M232.24,319.18a17,17,0,0,0-7.68,2.83A17.87,17.87,0,0,1,237,320.62a8.86,8.86,0,0,1,1-5.62,5,5,0,0,1,.34,3.44,1.13,1.13,0,0,1-.42.71,1.32,1.32,0,0,1-.92,0,16.36,16.36,0,0,0-7.49.37,19.61,19.61,0,0,1-.66-4.44L226,319.71c.08-1.15.15-2.3.2-3.45a4.32,4.32,0,0,0-2.19,3.68,9.42,9.42,0,0,0-.78-3.13,7.26,7.26,0,0,0,.48,3.45" transform="translate(-147.35 -95.34)" style="fill:none;stroke:#7f1416;stroke-miterlimit:10;stroke-width:2px" class="sEnxURCX_68"></path><path d="M377.23,311a33.75,33.75,0,0,0-34-7.54c-8.06,2.82-14.68,8.61-21,14.3" transform="translate(-147.35 -95.34)" style="fill:none;stroke:#7f1416;stroke-miterlimit:10;stroke-width:2px" class="sEnxURCX_69"></path><path d="M375.35,310.7a61.19,61.19,0,0,1-35,5.21c-3.12-.47-6.33-1.17-9.37-.35-2.85.77-5.64,2.86-8.47,2" transform="translate(-147.35 -95.34)" style="fill:none;stroke:#7f1416;stroke-miterlimit:10;stroke-width:2px" class="sEnxURCX_70"></path><path d="M351.53,303.33a2.47,2.47,0,0,0-1.47,2.85,3.57,3.57,0,0,0,2.32,2.44,3.83,3.83,0,0,0,3.54-.42,2.87,2.87,0,0,0,1-3.3c-.67-1.56-2.71-2-4.4-1.8" transform="translate(-147.35 -95.34)" style="fill:none;stroke:#7f1416;stroke-miterlimit:10;stroke-width:2px" class="sEnxURCX_71"></path><path d="M345,311.74a15.39,15.39,0,0,1,12.13-1.2,1.41,1.41,0,0,0,.85.1c.4-.14.56-.61.67-1a9.62,9.62,0,0,0,.44-3.4,3.24,3.24,0,0,0-1.81-2.74,26.83,26.83,0,0,0,.9,2.56,2.46,2.46,0,0,1-.44,2.54,3.14,3.14,0,0,1-2.2.5l-3.76-.09a1.11,1.11,0,0,1-1.17-.66,10.15,10.15,0,0,1-1.42-4c-1.91.33-4.07.83-5,2.52a2,2,0,0,1,1-2.47,5.85,5.85,0,0,1,2.88-.52.87.87,0,0,1,.74.23.8.8,0,0,1,.12.45l.19,2.55a1.61,1.61,0,0,1-.27,1.28,1,1,0,0,1-1.36,0,2.5,2.5,0,0,1-.75-1.27,1.9,1.9,0,0,0,.13,2.15,4.12,4.12,0,0,0-.21-2.38.5.5,0,0,0-.23-.3c-.25-.11-.48.16-.6.4a4.2,4.2,0,0,0-.35,2.35l0-1.09a1.34,1.34,0,0,0-.2,1.28" transform="translate(-147.35 -95.34)" style="fill:none;stroke:#7f1416;stroke-miterlimit:10;stroke-width:2px" class="sEnxURCX_72"></path><path d="M319.93,324.53a10.07,10.07,0,0,0,6.84,5.61" transform="translate(-147.35 -95.34)" style="fill:none;stroke:#7f1416;stroke-miterlimit:10;stroke-width:2px" class="sEnxURCX_73"></path><path d="M312.52,312c-.75-.08-1.29.69-1.6,1.37a17,17,0,0,0-1.37,8.92" transform="translate(-147.35 -95.34)" style="fill:none;stroke:#7f1416;stroke-miterlimit:10;stroke-width:2px" class="sEnxURCX_74"></path><path d="M207.73,326.18a12.51,12.51,0,0,1,5-.4" transform="translate(-147.35 -95.34)" style="fill:none;stroke:#7f1416;stroke-miterlimit:10;stroke-width:2px" class="sEnxURCX_75"></path><path d="M348.05,305.74l.46,1.51" transform="translate(-147.35 -95.34)" style="fill:none;stroke:#7f1416;stroke-miterlimit:10;stroke-width:2px" class="sEnxURCX_76"></path><path d="M379.84,474.56c-4.22,9.4-8.46,18.84-14.13,27.45s-12.85,16.41-21.84,21.43c-20.41,11.41-50.42,15.24-72.12,5.75-14.69-6.43-24.93-19.84-34.5-32.7" transform="translate(-147.35 -95.34)" style="fill:none;stroke:#7f1416;stroke-miterlimit:10;stroke-width:2px" class="sEnxURCX_77"></path></g><style data-made-with="vivus-instant">.sEnxURCX_0{stroke-dasharray:364 366;stroke-dashoffset:365;animation:sEnxURCX_draw 2000ms linear 0ms forwards;}.sEnxURCX_1{stroke-dasharray:224 226;stroke-dashoffset:225;animation:sEnxURCX_draw 2000ms linear 12ms forwards;}.sEnxURCX_2{stroke-dasharray:188 190;stroke-dashoffset:189;animation:sEnxURCX_draw 2000ms linear 25ms forwards;}.sEnxURCX_3{stroke-dasharray:52 54;stroke-dashoffset:53;animation:sEnxURCX_draw 2000ms linear 38ms forwards;}.sEnxURCX_4{stroke-dasharray:41 43;stroke-dashoffset:42;animation:sEnxURCX_draw 2000ms linear 51ms forwards;}.sEnxURCX_5{stroke-dasharray:53 55;stroke-dashoffset:54;animation:sEnxURCX_draw 2000ms linear 64ms forwards;}.sEnxURCX_6{stroke-dasharray:92 94;stroke-dashoffset:93;animation:sEnxURCX_draw 2000ms linear 77ms forwards;}.sEnxURCX_7{stroke-dasharray:168 170;stroke-dashoffset:169;animation:sEnxURCX_draw 2000ms linear 90ms forwards;}.sEnxURCX_8{stroke-dasharray:128 130;stroke-dashoffset:129;animation:sEnxURCX_draw 2000ms linear 103ms forwards;}.sEnxURCX_9{stroke-dasharray:24 26;stroke-dashoffset:25;animation:sEnxURCX_draw 2000ms linear 116ms forwards;}.sEnxURCX_10{stroke-dasharray:38 40;stroke-dashoffset:39;animation:sEnxURCX_draw 2000ms linear 129ms forwards;}.sEnxURCX_11{stroke-dasharray:126 128;stroke-dashoffset:127;animation:sEnxURCX_draw 2000ms linear 142ms forwards;}.sEnxURCX_12{stroke-dasharray:218 220;stroke-dashoffset:219;animation:sEnxURCX_draw 2000ms linear 155ms forwards;}.sEnxURCX_13{stroke-dasharray:176 178;stroke-dashoffset:177;animation:sEnxURCX_draw 2000ms linear 168ms forwards;}.sEnxURCX_14{stroke-dasharray:161 163;stroke-dashoffset:162;animation:sEnxURCX_draw 2000ms linear 181ms forwards;}.sEnxURCX_15{stroke-dasharray:128 130;stroke-dashoffset:129;animation:sEnxURCX_draw 2000ms linear 194ms forwards;}.sEnxURCX_16{stroke-dasharray:33 35;stroke-dashoffset:34;animation:sEnxURCX_draw 2000ms linear 207ms forwards;}.sEnxURCX_17{stroke-dasharray:5 7;stroke-dashoffset:6;animation:sEnxURCX_draw 2000ms linear 220ms forwards;}.sEnxURCX_18{stroke-dasharray:164 166;stroke-dashoffset:165;animation:sEnxURCX_draw 2000ms linear 233ms forwards;}.sEnxURCX_19{stroke-dasharray:224 226;stroke-dashoffset:225;animation:sEnxURCX_draw 2000ms linear 246ms forwards;}.sEnxURCX_20{stroke-dasharray:63 65;stroke-dashoffset:64;animation:sEnxURCX_draw 2000ms linear 259ms forwards;}.sEnxURCX_21{stroke-dasharray:163 165;stroke-dashoffset:164;animation:sEnxURCX_draw 2000ms linear 272ms forwards;}.sEnxURCX_22{stroke-dasharray:85 87;stroke-dashoffset:86;animation:sEnxURCX_draw 2000ms linear 285ms forwards;}.sEnxURCX_23{stroke-dasharray:116 118;stroke-dashoffset:117;animation:sEnxURCX_draw 2000ms linear 298ms forwards;}.sEnxURCX_24{stroke-dasharray:77 79;stroke-dashoffset:78;animation:sEnxURCX_draw 2000ms linear 311ms forwards;}.sEnxURCX_25{stroke-dasharray:88 90;stroke-dashoffset:89;animation:sEnxURCX_draw 2000ms linear 324ms forwards;}.sEnxURCX_26{stroke-dasharray:142 144;stroke-dashoffset:143;animation:sEnxURCX_draw 2000ms linear 337ms forwards;}.sEnxURCX_27{stroke-dasharray:32 34;stroke-dashoffset:33;animation:sEnxURCX_draw 2000ms linear 350ms forwards;}.sEnxURCX_28{stroke-dasharray:144 146;stroke-dashoffset:145;animation:sEnxURCX_draw 2000ms linear 363ms forwards;}.sEnxURCX_29{stroke-dasharray:22 24;stroke-dashoffset:23;animation:sEnxURCX_draw 2000ms linear 376ms forwards;}.sEnxURCX_30{stroke-dasharray:50 52;stroke-dashoffset:51;animation:sEnxURCX_draw 2000ms linear 389ms forwards;}.sEnxURCX_31{stroke-dasharray:53 55;stroke-dashoffset:54;animation:sEnxURCX_draw 2000ms linear 402ms forwards;}.sEnxURCX_32{stroke-dasharray:7 9;stroke-dashoffset:8;animation:sEnxURCX_draw 2000ms linear 415ms forwards;}.sEnxURCX_33{stroke-dasharray:36 38;stroke-dashoffset:37;animation:sEnxURCX_draw 2000ms linear 428ms forwards;}.sEnxURCX_34{stroke-dasharray:19 21;stroke-dashoffset:20;animation:sEnxURCX_draw 2000ms linear 441ms forwards;}.sEnxURCX_35{stroke-dasharray:37 39;stroke-dashoffset:38;animation:sEnxURCX_draw 2000ms linear 454ms forwards;}.sEnxURCX_36{stroke-dasharray:90 92;stroke-dashoffset:91;animation:sEnxURCX_draw 2000ms linear 467ms forwards;}.sEnxURCX_37{stroke-dasharray:17 19;stroke-dashoffset:18;animation:sEnxURCX_draw 2000ms linear 480ms forwards;}.sEnxURCX_38{stroke-dasharray:172 174;stroke-dashoffset:173;animation:sEnxURCX_draw 2000ms linear 493ms forwards;}.sEnxURCX_39{stroke-dasharray:0 2;stroke-dashoffset:1;animation:sEnxURCX_draw 2000ms linear 506ms forwards;}.sEnxURCX_40{stroke-dasharray:0 2;stroke-dashoffset:1;animation:sEnxURCX_draw 2000ms linear 519ms forwards;}.sEnxURCX_41{stroke-dasharray:195 197;stroke-dashoffset:196;animation:sEnxURCX_draw 2000ms linear 532ms forwards;}.sEnxURCX_42{stroke-dasharray:14 16;stroke-dashoffset:15;animation:sEnxURCX_draw 2000ms linear 545ms forwards;}.sEnxURCX_43{stroke-dasharray:8 10;stroke-dashoffset:9;animation:sEnxURCX_draw 2000ms linear 558ms forwards;}.sEnxURCX_44{stroke-dasharray:16 18;stroke-dashoffset:17;animation:sEnxURCX_draw 2000ms linear 571ms forwards;}.sEnxURCX_45{stroke-dasharray:77 79;stroke-dashoffset:78;animation:sEnxURCX_draw 2000ms linear 584ms forwards;}.sEnxURCX_46{stroke-dasharray:9 11;stroke-dashoffset:10;animation:sEnxURCX_draw 2000ms linear 597ms forwards;}.sEnxURCX_47{stroke-dasharray:46 48;stroke-dashoffset:47;animation:sEnxURCX_draw 2000ms linear 610ms forwards;}.sEnxURCX_48{stroke-dasharray:67 69;stroke-dashoffset:68;animation:sEnxURCX_draw 2000ms linear 623ms forwards;}.sEnxURCX_49{stroke-dasharray:50 52;stroke-dashoffset:51;animation:sEnxURCX_draw 2000ms linear 636ms forwards;}.sEnxURCX_50{stroke-dasharray:55 57;stroke-dashoffset:56;animation:sEnxURCX_draw 2000ms linear 649ms forwards;}.sEnxURCX_51{stroke-dasharray:120 122;stroke-dashoffset:121;animation:sEnxURCX_draw 2000ms linear 662ms forwards;}.sEnxURCX_52{stroke-dasharray:79 81;stroke-dashoffset:80;animation:sEnxURCX_draw 2000ms linear 675ms forwards;}.sEnxURCX_53{stroke-dasharray:27 29;stroke-dashoffset:28;animation:sEnxURCX_draw 2000ms linear 688ms forwards;}.sEnxURCX_54{stroke-dasharray:28 30;stroke-dashoffset:29;animation:sEnxURCX_draw 2000ms linear 701ms forwards;}.sEnxURCX_55{stroke-dasharray:184 186;stroke-dashoffset:185;animation:sEnxURCX_draw 2000ms linear 714ms forwards;}.sEnxURCX_56{stroke-dasharray:164 166;stroke-dashoffset:165;animation:sEnxURCX_draw 2000ms linear 727ms forwards;}.sEnxURCX_57{stroke-dasharray:7 9;stroke-dashoffset:8;animation:sEnxURCX_draw 2000ms linear 740ms forwards;}.sEnxURCX_58{stroke-dasharray:10 12;stroke-dashoffset:11;animation:sEnxURCX_draw 2000ms linear 753ms forwards;}.sEnxURCX_59{stroke-dasharray:38 40;stroke-dashoffset:39;animation:sEnxURCX_draw 2000ms linear 766ms forwards;}.sEnxURCX_60{stroke-dasharray:40 42;stroke-dashoffset:41;animation:sEnxURCX_draw 2000ms linear 779ms forwards;}.sEnxURCX_61{stroke-dasharray:69 71;stroke-dashoffset:70;animation:sEnxURCX_draw 2000ms linear 792ms forwards;}.sEnxURCX_62{stroke-dasharray:73 75;stroke-dashoffset:74;animation:sEnxURCX_draw 2000ms linear 805ms forwards;}.sEnxURCX_63{stroke-dasharray:8 10;stroke-dashoffset:9;animation:sEnxURCX_draw 2000ms linear 818ms forwards;}.sEnxURCX_64{stroke-dasharray:59 61;stroke-dashoffset:60;animation:sEnxURCX_draw 2000ms linear 831ms forwards;}.sEnxURCX_65{stroke-dasharray:52 54;stroke-dashoffset:53;animation:sEnxURCX_draw 2000ms linear 844ms forwards;}.sEnxURCX_66{stroke-dasharray:30 32;stroke-dashoffset:31;animation:sEnxURCX_draw 2000ms linear 857ms forwards;}.sEnxURCX_67{stroke-dasharray:15 17;stroke-dashoffset:16;animation:sEnxURCX_draw 2000ms linear 870ms forwards;}.sEnxURCX_68{stroke-dasharray:65 67;stroke-dashoffset:66;animation:sEnxURCX_draw 2000ms linear 883ms forwards;}.sEnxURCX_69{stroke-dasharray:63 65;stroke-dashoffset:64;animation:sEnxURCX_draw 2000ms linear 896ms forwards;}.sEnxURCX_70{stroke-dasharray:55 57;stroke-dashoffset:56;animation:sEnxURCX_draw 2000ms linear 909ms forwards;}.sEnxURCX_71{stroke-dasharray:20 22;stroke-dashoffset:21;animation:sEnxURCX_draw 2000ms linear 922ms forwards;}.sEnxURCX_72{stroke-dasharray:70 72;stroke-dashoffset:71;animation:sEnxURCX_draw 2000ms linear 935ms forwards;}.sEnxURCX_73{stroke-dasharray:10 12;stroke-dashoffset:11;animation:sEnxURCX_draw 2000ms linear 948ms forwards;}.sEnxURCX_74{stroke-dasharray:12 14;stroke-dashoffset:13;animation:sEnxURCX_draw 2000ms linear 961ms forwards;}.sEnxURCX_75{stroke-dasharray:6 8;stroke-dashoffset:7;animation:sEnxURCX_draw 2000ms linear 974ms forwards;}.sEnxURCX_76{stroke-dasharray:2 4;stroke-dashoffset:3;animation:sEnxURCX_draw 2000ms linear 987ms forwards;}.sEnxURCX_77{stroke-dasharray:185 187;stroke-dashoffset:186;animation:sEnxURCX_draw 2000ms linear 1000ms forwards;}@keyframes sEnxURCX_draw{100%{stroke-dashoffset:0;}}@keyframes sEnxURCX_fade{0%{stroke-opacity:1;}94.44444444444444%{stroke-opacity:1;}100%{stroke-opacity:0;}}</style></svg>